<?xml version="1.0" encoding="utf-8"?>
<!-- Generator: Adobe Illustrator 26.0.0, SVG Export Plug-In . SVG Version: 6.00 Build 0)  -->
<svg version="1.1" id="Capa_1" xmlns="http://www.w3.org/2000/svg" xmlns:xlink="http://www.w3.org/1999/xlink" x="0px" y="0px"
	 viewBox="0 0 18 18" style="enable-background:new 0 0 18 18;" xml:space="preserve">
<style type="text/css">
	.st0{fill:#3F3F3F;}
</style>
<g>
	<path class="st0" d="M11.2,9H9V5.2l0-0.1c0-0.2-0.1-0.3-0.3-0.4C8.6,4.6,8.4,4.5,8.3,4.5c-0.2,0-0.4,0.1-0.5,0.2
		C7.6,4.9,7.5,5.1,7.5,5.2v4.5l0,0.1c0,0.2,0.1,0.3,0.3,0.4c0.1,0.1,0.3,0.2,0.5,0.2h3l0.1,0c0.2,0,0.3-0.1,0.5-0.3
		C12,10.1,12,9.9,12,9.7c0-0.2-0.1-0.4-0.2-0.5S11.4,9,11.2,9z"/>
	<path class="st0" d="M17.3,5.6c-0.5-1.1-1.1-2.1-2-2.9c-0.8-0.8-1.8-1.5-2.9-2C11.4,0.2,10.2,0,9,0C6.6,0,4.3,0.9,2.6,2.6
		C0.9,4.3,0,6.6,0,9c0,2.4,0.9,4.7,2.6,6.4C4.3,17.1,6.6,18,9,18c1.2,0,2.4-0.2,3.4-0.7c1.1-0.5,2.1-1.1,2.9-2
		c0.8-0.8,1.5-1.8,2-2.9C17.8,11.4,18,10.2,18,9S17.8,6.6,17.3,5.6z M14.3,14.3c-1.4,1.4-3.3,2.2-5.3,2.2c-2,0-3.9-0.8-5.3-2.2
		C2.3,12.9,1.5,11,1.5,9c0-2,0.8-3.9,2.2-5.3C5.1,2.3,7,1.5,9,1.5c2,0,3.9,0.8,5.3,2.2C15.7,5.1,16.5,7,16.5,9
		C16.5,11,15.7,12.9,14.3,14.3z"/>
</g>
</svg>
