<?xml version="1.0" encoding="utf-8"?>
<!-- Generator: Adobe Illustrator 26.0.0, SVG Export Plug-In . SVG Version: 6.00 Build 0)  -->
<svg version="1.1" id="Capa_1" xmlns="http://www.w3.org/2000/svg" xmlns:xlink="http://www.w3.org/1999/xlink" x="0px" y="0px"
	 viewBox="0 0 18 20" style="enable-background:new 0 0 18 20;" xml:space="preserve">
<style type="text/css">
	.st0{fill-rule:evenodd;clip-rule:evenodd;fill:#7A7A7A;}
</style>
<path class="st0" d="M7.7,0.6c0.4-0.2,0.7-0.3,1.2-0.3c0.4,0,0.8,0.1,1.2,0.2l0.2,0.1l6.3,3.6c0.4,0.2,0.7,0.5,0.9,0.8
	c0.2,0.3,0.3,0.7,0.4,1.1l0,0.2v7.3c0,0.4-0.1,0.8-0.3,1.2c-0.2,0.4-0.5,0.7-0.8,0.9l-0.1,0.1l-6.3,3.6c-0.4,0.2-0.7,0.3-1.2,0.3
	c-0.4,0-0.8-0.1-1.2-0.2l-0.2-0.1l-6.3-3.6c-0.4-0.2-0.7-0.5-0.9-0.8s-0.3-0.7-0.4-1.1l0-0.2V6.4c0-0.4,0.1-0.8,0.3-1.2
	C0.7,4.8,1,4.5,1.3,4.3l0.1-0.1L7.7,0.6z M9.2,2.3C9.2,2.3,9.1,2.2,9,2.2c-0.1,0-0.1,0-0.2,0l-0.1,0L2.5,5.9C2.4,6,2.3,6,2.3,6.1
	c0,0.1-0.1,0.1-0.1,0.2l0,0.1v7.3c0,0.1,0,0.1,0,0.2c0,0.1,0.1,0.1,0.1,0.2l0.1,0.1l6.3,3.6c0.1,0,0.1,0.1,0.2,0.1
	c0.1,0,0.1,0,0.2,0l0.1,0l6.3-3.6c0.1,0,0.1-0.1,0.2-0.1c0-0.1,0.1-0.1,0.1-0.2l0-0.1V6.4c0-0.1,0-0.1,0-0.2c0-0.1-0.1-0.1-0.1-0.2
	l-0.1-0.1L9.2,2.3z M9,6c1.1,0,2.1,0.4,2.8,1.2C12.6,7.9,13,8.9,13,10c0,1.1-0.4,2.1-1.2,2.8C11.1,13.6,10.1,14,9,14
	c-1.1,0-2.1-0.4-2.8-1.2C5.4,12.1,5,11.1,5,10c0-1.1,0.4-2.1,1.2-2.8C6.9,6.4,7.9,6,9,6z M9,8C8.5,8,8,8.2,7.6,8.6C7.2,9,7,9.5,7,10
	c0,0.5,0.2,1,0.6,1.4C8,11.8,8.5,12,9,12c0.5,0,1-0.2,1.4-0.6C10.8,11,11,10.5,11,10c0-0.5-0.2-1-0.6-1.4C10,8.2,9.5,8,9,8z"/>
</svg>
