<?xml version="1.0" encoding="utf-8"?>
<!-- Generator: Adobe Illustrator 26.0.0, SVG Export Plug-In . SVG Version: 6.00 Build 0)  -->
<svg version="1.1" id="Capa_1" xmlns="http://www.w3.org/2000/svg" xmlns:xlink="http://www.w3.org/1999/xlink" x="0px" y="0px"
	 viewBox="0 0 24 24" style="enable-background:new 0 0 24 24;" xml:space="preserve">
<style type="text/css">
	.st0{fill:#3F3F3F;}
</style>
<path class="st0" d="M12,22C6.5,22,2,17.5,2,12C2,6.5,6.5,2,12,2c5.5,0,10,4.5,10,10C22,17.5,17.5,22,12,22z M12,20
	c2.1,0,4.2-0.8,5.7-2.3c1.5-1.5,2.3-3.5,2.3-5.7c0-2.1-0.8-4.2-2.3-5.7C16.2,4.8,14.1,4,12,4C9.9,4,7.9,4.8,6.4,6.3
	C4.9,7.8,4,9.9,4,12c0,2.1,0.8,4.2,2.3,5.7C7.9,19.2,9.9,20,12,20z M12,7.1L17,12L12,17L7.1,12L12,7.1z M12,9.9L9.9,12l2.1,2.1
	l2.1-2.1L12,9.9z"/>
</svg>
