<?xml version="1.0" encoding="utf-8"?>
<!-- Generator: Adobe Illustrator 26.0.0, SVG Export Plug-In . SVG Version: 6.00 Build 0)  -->
<svg version="1.1" id="Capa_1" xmlns="http://www.w3.org/2000/svg" xmlns:xlink="http://www.w3.org/1999/xlink" x="0px" y="0px"
	 viewBox="0 0 24 24" style="enable-background:new 0 0 24 24;" xml:space="preserve">
<style type="text/css">
	.st0{fill:#1E1B1B;}
</style>
<path class="st0" d="M20.6,7.1h-6V4.5c0-0.4-0.3-0.7-0.8-0.7H4.3V2.8c0-0.1-0.1-0.2-0.2-0.2H2.8c-0.1,0-0.2,0.1-0.2,0.2v18.4
	c0,0.1,0.1,0.2,0.2,0.2h1.3c0.1,0,0.2-0.1,0.2-0.2V15h5.8v2.6c0,0.4,0.3,0.8,0.8,0.8h9.8c0.4,0,0.8-0.3,0.8-0.8V7.9
	C21.4,7.5,21,7.1,20.6,7.1z M4.3,13.3V5.4h8.6v7.9H4.3z M19.7,16.7h-7.9V15h2.6c0.1,0,0.2-0.1,0.2-0.2v-6h5.1V16.7z"/>
</svg>
