<?xml version="1.0" encoding="utf-8"?>
<!-- Generator: Adobe Illustrator 26.0.0, SVG Export Plug-In . SVG Version: 6.00 Build 0)  -->
<svg version="1.1" id="Capa_1" xmlns="http://www.w3.org/2000/svg" xmlns:xlink="http://www.w3.org/1999/xlink" x="0px" y="0px"
	 viewBox="0 0 24 18" style="enable-background:new 0 0 24 18;" xml:space="preserve">
<style type="text/css">
	.st0{fill:#969292;}
</style>
<path class="st0" d="M10.8,14.8c0.1,0,0.2,0,0.3,0.1c0.1,0,0.2,0.1,0.2,0.2c0.1,0.1,0.1,0.1,0.2,0.2c0,0.1,0.1,0.2,0.1,0.3
	c0,0.1,0,0.2-0.1,0.3c0,0.1-0.1,0.2-0.2,0.2s-0.1,0.1-0.2,0.2c-0.1,0-0.2,0.1-0.3,0.1c-0.2,0-0.4-0.1-0.5-0.2
	c-0.1-0.1-0.2-0.3-0.2-0.5c0-0.2,0.1-0.4,0.2-0.5C10.4,14.8,10.6,14.8,10.8,14.8z M21.8,10.4c-0.1,0-0.2,0-0.3-0.1
	c-0.1,0-0.2-0.1-0.2-0.2c-0.1-0.1-0.1-0.1-0.2-0.2c0-0.1-0.1-0.2-0.1-0.3c0-0.1,0-0.2,0.1-0.3c0-0.1,0.1-0.2,0.2-0.2
	c0.1-0.1,0.1-0.1,0.2-0.2C21.6,9,21.7,9,21.8,9c0.2,0,0.4,0.1,0.5,0.2c0.1,0.1,0.2,0.3,0.2,0.5c0,0.2-0.1,0.4-0.2,0.5
	C22.2,10.3,22,10.4,21.8,10.4z M21.8,7.5c-0.6,0-1.1,0.2-1.5,0.6c-0.4,0.4-0.6,1-0.6,1.5c0,0.2,0,0.5,0.1,0.7l-7.2,3.8
	c-0.2-0.3-0.5-0.5-0.8-0.7c-0.3-0.2-0.7-0.2-1-0.2c-0.8,0-1.6,0.5-1.9,1.2l-6.5-3.4c-0.7-0.4-1.2-1.5-1.1-2.5c0-0.5,0.2-0.9,0.5-1.1
	c0.2-0.1,0.4-0.1,0.6,0l0,0c1.7,0.9,7.3,3.8,7.5,4c0.4,0.2,0.6,0.2,1.2-0.1l11.6-6c0.2-0.1,0.4-0.2,0.4-0.5c0-0.3-0.4-0.5-0.4-0.5
	c-0.7-0.3-1.7-0.8-2.7-1.2c-2.1-1-4.5-2.1-5.5-2.7c-0.9-0.5-1.6-0.1-1.8,0l-0.3,0.1C7.8,3,1.5,6.2,1.1,6.4C0.5,6.8,0.1,7.6,0,8.5
	c-0.1,1.5,0.7,3.1,1.8,3.7l6.8,3.5c0.1,0.5,0.3,1,0.7,1.3c0.4,0.3,0.9,0.5,1.4,0.5c0.6,0,1.1-0.2,1.5-0.6c0.4-0.4,0.6-0.9,0.6-1.5
	l7.5-4.1c0.4,0.3,0.9,0.5,1.3,0.5c0.6,0,1.1-0.2,1.5-0.6c0.4-0.4,0.6-1,0.6-1.5c0-0.6-0.2-1.1-0.6-1.5C23,7.8,22.4,7.5,21.8,7.5"/>
</svg>
