<?xml version="1.0" encoding="utf-8"?>
<!-- Generator: Adobe Illustrator 26.0.0, SVG Export Plug-In . SVG Version: 6.00 Build 0)  -->
<svg version="1.1" id="Capa_1" xmlns="http://www.w3.org/2000/svg" xmlns:xlink="http://www.w3.org/1999/xlink" x="0px" y="0px"
	 viewBox="0 0 24 24" style="enable-background:new 0 0 24 24;" xml:space="preserve">
<style type="text/css">
	.st0{fill:#FFFFFF;}
</style>
<path class="st0" d="M8,6C6.4,6,4.9,6.6,3.8,7.8C2.6,8.9,2,10.4,2,12s0.6,3.1,1.8,4.2C4.9,17.4,6.4,18,8,18s3.1-0.6,4.2-1.8
	c1.1-1.1,1.8-2.7,1.8-4.2s-0.6-3.1-1.8-4.2C11.1,6.6,9.6,6,8,6z M10.8,14.8C10.1,15.6,9.1,16,8,16s-2.1-0.4-2.8-1.2
	C4.4,14.1,4,13.1,4,12s0.4-2.1,1.2-2.8C5.9,8.4,6.9,8,8,8s2.1,0.4,2.8,1.2C11.6,9.9,12,10.9,12,12S11.6,14.1,10.8,14.8z"/>
<path class="st0" d="M22,11.7l0-0.5l0-0.3l0-0.5l0-0.2l0-0.4c-0.2-1.4-0.5-2.2-0.9-2.2c-0.4,0-0.7,0.8-0.9,2.2l0,0.4l0,0.2l0,0.5
	l0,0.3l0,0.5v0.6l0,0.5c0,0.1,0,0.2,0,0.3l0,0.5c0,0.1,0,0.2,0,0.2l0,0.4c0.2,1.4,0.5,2.2,0.9,2.2c0.4,0,0.7-0.8,0.9-2.2l0-0.4
	l0-0.2l0-0.5l0-0.3l0-0.5l0-0.3L22,11.7z"/>
<path class="st0" d="M17,7c-1.5,0-2.5,2.2-2.5,5s1,5,2.5,5s2.5-2.2,2.5-5S18.5,7,17,7z M17,14.6C17,14.6,17,14.6,17,14.6
	c-0.5-0.8-0.5-1.7-0.5-2.6c0-0.9,0.1-1.8,0.5-2.6c0,0,0,0,0,0s0,0,0,0s0,0,0,0s0,0,0,0c0.4,0.8,0.5,1.7,0.5,2.6
	C17.5,12.9,17.4,13.8,17,14.6z"/>
</svg>
