<?xml version="1.0" encoding="utf-8"?>
<!-- Generator: Adobe Illustrator 26.0.0, SVG Export Plug-In . SVG Version: 6.00 Build 0)  -->
<svg version="1.1" id="Capa_1" xmlns="http://www.w3.org/2000/svg" xmlns:xlink="http://www.w3.org/1999/xlink" x="0px" y="0px"
	 viewBox="0 0 23 18" style="enable-background:new 0 0 23 18;" xml:space="preserve">
<style type="text/css">
	.st0{fill:#514C4C;}
</style>
<path class="st0" d="M13.5,18c1.8,0,3.5-0.5,5-1.5c1.5-1,2.6-2.4,3.3-4c0.7-1.6,0.9-3.5,0.5-5.2c-0.3-1.7-1.2-3.3-2.5-4.6
	c-1.3-1.3-2.9-2.1-4.6-2.5S11.7,0,10.1,0.7C8.4,1.4,7,2.5,6,4C5,5.5,4.5,7.2,4.5,9v4.6l-2.7-2.7l-1,1.1l4.5,4.5L9.8,12l-1.1-1.1
	L6,13.6V9c0-1.5,0.4-2.9,1.3-4.2s2-2.2,3.4-2.8C12,1.5,13.5,1.4,15,1.6c1.5,0.3,2.8,1,3.8,2.1c1,1,1.8,2.4,2.1,3.8
	c0.3,1.5,0.1,3-0.4,4.3c-0.6,1.4-1.5,2.5-2.8,3.4c-1.2,0.8-2.7,1.3-4.2,1.3V18z"/>
</svg>
