<?xml version="1.0" encoding="utf-8"?>
<!-- Generator: Adobe Illustrator 26.0.0, SVG Export Plug-In . SVG Version: 6.00 Build 0)  -->
<svg version="1.1" id="Capa_1" xmlns="http://www.w3.org/2000/svg" xmlns:xlink="http://www.w3.org/1999/xlink" x="0px" y="0px"
	 viewBox="0 0 21 19" style="enable-background:new 0 0 21 19;" xml:space="preserve">
<path d="M20.7,1.7c0-0.4-0.2-1-0.7-1.2c-0.3-0.2-0.8-0.2-1-0.2s-0.4,0-0.5,0.1c0,0-0.1,0-0.1,0c-0.1,0-0.1,0-0.2,0.1
	c0,0-0.1,0-0.1,0L1.6,6.9c-0.1,0-0.2,0-0.3,0.1c0,0-0.1,0.1-0.1,0.1C1.1,7.1,1.1,7.1,1,7.2c0,0-0.1,0.1-0.1,0.1
	C0.7,7.5,0.2,8,0.3,8.6c0.1,0.6,0.4,0.9,0.6,1.1C1,9.7,1,9.8,1,9.8C1.1,9.9,1.2,10,1.3,10c0,0,0.1,0.1,0.2,0.1l3.2,1l0.1,0
	c0.1,0.1,0.1,0.3,0.2,0.4c0.2,0.5,0.4,1,0.6,1.5c0.5,1.2,1,2.4,1.1,2.8c0.1,0.3,0.2,0.6,0.3,0.8c0,0.1,0.1,0.1,0.1,0.1l0.4,0.4h0.1
	c0,0,0.1,0.1,0.2,0.1c0.3,0.1,0.6,0.1,0.9,0c0.1,0,0.1,0,0.2-0.1c0,0,0.1,0,0.1,0h0l2.8-1.8l3.2,2.4c0,0,0.1,0.1,0.3,0.1
	c0.4,0.2,0.8,0.2,1.1,0.2c0.5,0,0.7-0.2,0.9-0.4c0.2-0.2,0.4-0.4,0.6-0.7l0,0l0-0.1l3-15V1.7z M16.3,16.2l-0.1,0.1v0h-0.2L10.2,12
	l3-2.9c1.5-1.5,3.1-3.1,3.7-3.6c0.2-0.1,0.2-0.2,0.3-0.3l0,0c0-0.1,0.1-0.1,0.1-0.2c0.1-0.1,0.2-0.3,0.3-0.5l0-0.4
	c0-0.1-0.1-0.4-0.2-0.5c-0.1-0.2-0.2-0.3-0.5-0.4c-0.2-0.1-0.4,0-0.5,0c0,0-0.1,0-0.1,0c-0.1,0-0.1,0-0.2,0.1c0,0-0.1,0-0.1,0
	l-0.1,0v0.1L5.5,9.4C5.5,9.4,5.4,9.4,5.3,9.4l-2.8-1L18.9,2l0,0c0,0,0.1-0.1,0.1-0.1L16.3,16.2z M12,7.7l-2.7,2.7l-1.2,1.1l0,0
	C8,11.6,7.9,11.7,7.9,12l-0.2,1.4c-0.1-0.4-0.3-0.7-0.4-1c-0.2-0.5-0.4-0.9-0.6-1.4L12,7.7z M10.3,14.3L9.2,15l0.2-1.3L10.3,14.3z"
	/>
</svg>
