<?xml version="1.0" encoding="utf-8"?>
<!-- Generator: Adobe Illustrator 26.0.0, SVG Export Plug-In . SVG Version: 6.00 Build 0)  -->
<svg version="1.1" id="Capa_1" xmlns="http://www.w3.org/2000/svg" xmlns:xlink="http://www.w3.org/1999/xlink" x="0px" y="0px"
	 viewBox="0 0 24 24" style="enable-background:new 0 0 24 24;" xml:space="preserve">
<style type="text/css">
	.st0{fill:#F90000;}
</style>
<path class="st0" d="M2,23c-0.3,0-0.5-0.1-0.7-0.3c-0.4-0.4-0.4-1,0-1.4L3.6,19L3,18.4c-0.3-0.3-0.6-0.7-0.7-1.1
	C2.1,16.9,2,16.4,2,16c0-0.4,0.1-0.9,0.3-1.3c0.2-0.4,0.4-0.8,0.7-1.1l2.3-2.3c0.4-0.4,1-0.4,1.4,0l0.8,0.8l1.8-1.8
	c0.4-0.4,1-0.4,1.4,0c0.4,0.4,0.4,1,0,1.4l-1.8,1.8l1.6,1.6l1.8-1.8c0.4-0.4,1-0.4,1.4,0s0.4,1,0,1.4l-1.8,1.8l0.8,0.8
	c0.4,0.4,0.4,1,0,1.4L10.4,21c-0.3,0.3-0.7,0.6-1.1,0.7c-0.8,0.3-1.8,0.3-2.6,0c-0.4-0.2-0.8-0.4-1.1-0.7L5,20.4l-2.3,2.3
	C2.5,22.9,2.3,23,2,23z M6,13.4L4.4,15c-0.1,0.1-0.2,0.3-0.3,0.5C4,15.6,4,15.8,4,16c0,0.2,0,0.4,0.1,0.5c0.1,0.2,0.2,0.3,0.3,0.5
	L7,19.6c0,0,0,0,0,0c0.1,0.1,0.3,0.2,0.5,0.3c0.3,0.1,0.7,0.1,1.1,0c0.2-0.1,0.3-0.2,0.5-0.3l1.6-1.6l-0.8-0.8c0,0,0,0,0,0
	c0,0,0,0,0,0l-3-3c0,0,0,0,0,0c0,0,0,0,0,0L6,13.4z M18,13c-0.3,0-0.5-0.1-0.7-0.3l-6-6c-0.4-0.4-0.4-1,0-1.4L13.6,3
	c0.3-0.3,0.7-0.6,1.1-0.7c0.8-0.3,1.8-0.3,2.6,0c0.4,0.2,0.8,0.4,1.1,0.7L19,3.6l2.3-2.3c0.4-0.4,1-0.4,1.4,0s0.4,1,0,1.4L20.4,5
	L21,5.6c0.3,0.3,0.6,0.7,0.7,1.1C21.9,7.1,22,7.6,22,8c0,0.4-0.1,0.9-0.3,1.3c-0.2,0.4-0.4,0.8-0.7,1.1l-2.3,2.3
	C18.5,12.9,18.3,13,18,13z M13.4,6l4.6,4.6L19.6,9c0.1-0.1,0.2-0.3,0.3-0.5C20,8.4,20,8.2,20,8c0-0.2,0-0.4-0.1-0.5
	c-0.1-0.2-0.2-0.3-0.3-0.5L17,4.4c-0.1-0.1-0.3-0.2-0.5-0.3c-0.3-0.1-0.7-0.1-1.1,0c-0.2,0.1-0.3,0.2-0.5,0.3L13.4,6z"/>
</svg>
