<svg width="20" height="18" viewBox="0 0 20 18" fill="none" xmlns="http://www.w3.org/2000/svg">
<path d="M16 9H14V13H16V9Z" fill="white"/>
<path fill-rule="evenodd" clip-rule="evenodd" d="M16 0C17.103 0 18 0.897 18 2V4C19.103 4 20 4.897 20 6V16C20 17.103 19.103 18 18 18H3C1.794 18 0 17.201 0 15V3C0 1.346 1.346 0 3 0H16ZM16 2H3C2.74252 2.01152 2.49941 2.12191 2.32128 2.30818C2.14315 2.49446 2.04373 2.74226 2.04373 3C2.04373 3.25774 2.14315 3.50554 2.32128 3.69182C2.49941 3.87809 2.74252 3.98848 3 4H16V2ZM3.012 16H18V6H3C2.647 6 2.314 5.928 2 5.815V15C2 15.805 2.55 15.988 3.012 16Z" fill="white"/>
</svg>
