<svg width="620" height="72" viewBox="0 0 754 72" fill="none" xmlns="http://www.w3.org/2000/svg">
<g filter="url(#filter0_b_2165_644)">
<path d="M15.2938 2.70027L3.16524 14.0563C1.14591 15.947 0 18.5897 0 21.356V62C0 67.5229 4.47714 72 9.99999 72H731.337C733.875 72 736.319 71.0347 738.172 69.2997L750.835 57.4431C752.854 55.5524 754 52.9097 754 50.1434V10C754 4.47715 749.523 0 744 0H22.1286C19.5902 0 17.1468 0.965334 15.2938 2.70027Z" fill="url(#paint0_linear_2165_644)" fill-opacity="0.4"/>
<path d="M3.50698 14.4213L15.6356 3.06525C17.3959 1.41707 19.7171 0.5 22.1286 0.5H744C749.247 0.5 753.5 4.75329 753.5 10V50.1434C753.5 52.7714 752.411 55.282 750.493 57.0781L737.83 68.9347C736.069 70.5829 733.748 71.5 731.337 71.5H9.99999C4.75329 71.5 0.5 67.2467 0.5 62V21.356C0.5 18.728 1.58862 16.2175 3.50698 14.4213Z" stroke="url(#paint1_linear_2165_644)"/>
</g>
<defs>
<filter id="filter0_b_2165_644" x="-148.3" y="-148.3" width="1050.6" height="368.6" filterUnits="userSpaceOnUse" color-interpolation-filters="sRGB">
<feFlood flood-opacity="0" result="BackgroundImageFix"/>
<feGaussianBlur in="BackgroundImageFix" stdDeviation="74.15"/>
<feComposite in2="SourceAlpha" operator="in" result="effect1_backgroundBlur_2165_644"/>
<feBlend mode="normal" in="SourceGraphic" in2="effect1_backgroundBlur_2165_644" result="shape"/>
</filter>
<linearGradient id="paint0_linear_2165_644" x1="236.038" y1="9.82826e-05" x2="475.321" y2="392.181" gradientUnits="userSpaceOnUse">
<stop stop-color="#292D32"/>
<stop offset="1" stop-color="#7B8A98"/>
</linearGradient>
<linearGradient id="paint1_linear_2165_644" x1="-74.4118" y1="41.4135" x2="660.282" y2="41.4135" gradientUnits="userSpaceOnUse">
<stop stop-color="#262C33"/>
<stop offset="1" stop-color="#718599" stop-opacity="0"/>
</linearGradient>
</defs>
</svg>
