<svg width="420" height="72" viewBox="0 0 620 72" fill="none" xmlns="http://www.w3.org/2000/svg">
<g filter="url(#filter0_b_2165_645)">
<path d="M15.2873 2.70144L3.16399 14.0565C1.14542 15.9471 0 18.5893 0 21.355V62C0 67.5229 4.47713 72 9.99998 72H597.342C599.881 72 602.325 71.0342 604.178 69.2986L616.836 57.443C618.855 55.5523 620 52.9101 620 50.1444V10C620 4.47715 615.523 0 610 0H22.1233C19.5844 0 17.1404 0.965785 15.2873 2.70144Z" fill="url(#paint0_linear_2165_645)" fill-opacity="0.4"/>
<path d="M3.50579 14.4214L15.6291 3.06637C17.3896 1.4175 19.7113 0.5 22.1233 0.5H610C615.247 0.5 619.5 4.7533 619.5 10V50.1444C619.5 52.7718 618.412 55.2819 616.494 57.078L603.836 68.9336C602.076 70.5825 599.754 71.5 597.342 71.5H9.99998C4.75328 71.5 0.5 67.2467 0.5 62V21.355C0.5 18.7276 1.58815 16.2175 3.50579 14.4214Z" stroke="url(#paint1_linear_2165_645)"/>
</g>
<defs>
<filter id="filter0_b_2165_645" x="-148.3" y="-148.3" width="916.6" height="368.6" filterUnits="userSpaceOnUse" color-interpolation-filters="sRGB">
<feFlood flood-opacity="0" result="BackgroundImageFix"/>
<feGaussianBlur in="BackgroundImageFix" stdDeviation="74.15"/>
<feComposite in2="SourceAlpha" operator="in" result="effect1_backgroundBlur_2165_645"/>
<feBlend mode="normal" in="SourceGraphic" in2="effect1_backgroundBlur_2165_645" result="shape"/>
</filter>
<linearGradient id="paint0_linear_2165_645" x1="235.958" y1="0.00017494" x2="475.277" y2="392.108" gradientUnits="userSpaceOnUse">
<stop stop-color="#292D32"/>
<stop offset="1" stop-color="#7B8A98"/>
</linearGradient>
<linearGradient id="paint1_linear_2165_645" x1="-74.3863" y1="41.4135" x2="660.056" y2="41.4135" gradientUnits="userSpaceOnUse">
<stop stop-color="#262C33"/>
<stop offset="1" stop-color="#718599" stop-opacity="0"/>
</linearGradient>
</defs>
</svg>
