<?xml version="1.0" encoding="utf-8"?>
<!-- Generator: Adobe Illustrator 26.0.0, SVG Export Plug-In . SVG Version: 6.00 Build 0)  -->
<svg version="1.1" id="Capa_1" xmlns="http://www.w3.org/2000/svg" xmlns:xlink="http://www.w3.org/1999/xlink" x="0px" y="0px"
	 viewBox="0 0 1168 430" style="enable-background:new 0 0 1168 430;" xml:space="preserve">
<style type="text/css">
	.st0{fill:#292D32;fill-opacity:0.4;}
</style>
<path class="st0" d="M1103.9,12.4l58.3,58.3c3.8,3.8,5.9,8.8,5.9,14.1v225.4c0,5.3-2.1,10.4-5.9,14.1l-99.3,99.3
	c-3.8,3.8-8.8,5.9-14.1,5.9h-91.4c-5.3,0-10.4-2.1-14.1-5.9l-6.3-6.3c-3.8-3.8-8.8-5.9-14.1-5.9H720.8c-5.3,0-10.4-2.1-14.1-5.9
	l-19.8-19.8c-3.8-3.8-8.8-5.9-14.1-5.9H465.8c-5.3,0-10.4,2.1-14.1,5.9l-12.3,12.3c-3.8,3.8-8.8,5.9-14.1,5.9H190.3
	c-5.3,0-10.4-2.1-14.1-5.9l-12.3-12.3c-3.8-3.8-8.8-5.9-14.1-5.9H56.3c-5.3,0-10.4-2.1-14.1-5.9L5.9,337.9C2.1,334.1,0,329,0,323.7
	V69.8c0-5.3,2.1-10.4,5.9-14.1L55.6,5.9C59.4,2.1,64.5,0,69.8,0h221.4c5.3,0,10.4,2.1,14.1,5.9l19.3,19.3c3.8,3.8,8.8,5.9,14.1,5.9
	h261.4c5.3,0,10.4-2.1,14.1-5.9l12.8-12.8c3.8-3.8,8.8-5.9,14.1-5.9h448.4C1095,6.5,1100.1,8.6,1103.9,12.4z"/>
</svg>
