<svg width="976" height="871" viewBox="0 0 976 871" fill="none" xmlns="http://www.w3.org/2000/svg">
<g filter="url(#filter0_b_3000_1340)">
<circle cx="197" cy="831" r="40" fill="url(#paint0_linear_3000_1340)" fill-opacity="0.4"/>
<circle cx="197" cy="831" r="39.3631" stroke="url(#paint1_linear_3000_1340)" stroke-width="1.27371"/>
</g>
<g filter="url(#filter1_b_3000_1340)">
<circle cx="197" cy="831" r="30" fill="url(#paint2_linear_3000_1340)"/>
<circle cx="197" cy="831" r="29.5335" stroke="url(#paint3_linear_3000_1340)" stroke-width="0.932974"/>
</g>
<g clip-path="url(#clip0_3000_1340)">
<path d="M195.294 832.638C195.182 832.473 195.216 832.326 195.259 832.186C195.386 831.768 195.517 831.351 195.648 830.933C195.791 830.478 195.932 830.023 196.078 829.57C196.193 829.217 196.245 829.182 196.595 829.183C200.076 829.185 203.557 829.185 207.037 829.191C207.229 829.191 207.35 829.152 207.412 828.929C207.515 828.558 207.662 828.201 207.779 827.834C207.954 827.29 208.125 826.744 208.29 826.197C208.396 825.85 208.486 825.498 208.589 825.149C208.633 824.999 208.696 824.855 208.739 824.704C208.825 824.397 208.732 824.274 208.424 824.274C199.591 824.274 190.759 824.274 181.925 824.277C181.699 824.277 181.474 824.31 181.238 824.328C181.22 824.161 181.328 824.09 181.42 824.017C182.353 823.292 183.288 822.568 184.222 821.844C184.911 821.312 185.598 820.778 186.288 820.249C186.428 820.143 186.582 820.091 186.764 820.091C194.37 820.097 201.975 820.1 209.581 820.09C209.959 820.09 210.249 820.202 210.539 820.432C211.301 821.038 212.076 821.623 212.846 822.217C213.031 822.359 213.219 822.497 213.402 822.64C213.606 822.8 213.634 822.968 213.546 823.213C213.411 823.592 213.292 823.977 213.167 824.36C213.002 824.864 212.831 825.365 212.673 825.87C212.554 826.247 212.453 826.63 212.341 827.01C212.233 827.376 212.125 827.744 212.008 828.108C211.922 828.375 211.76 828.573 211.509 828.7C210.881 829.015 210.259 829.341 209.636 829.667C208.959 830.02 208.284 830.376 207.607 830.728C207.394 830.838 207.172 830.93 206.959 831.042C206.876 831.087 206.808 831.163 206.717 831.237C206.78 831.326 206.815 831.406 206.875 831.452C207.628 832.035 208.385 832.613 209.14 833.192C209.395 833.389 209.645 833.596 209.911 833.775C210.122 833.915 210.148 834.091 210.078 834.314C209.894 834.901 209.714 835.489 209.533 836.077C209.358 836.643 209.186 837.21 209.01 837.776C208.857 838.262 208.699 838.747 208.544 839.232C208.478 839.439 208.428 839.654 208.338 839.849C208.286 839.963 208.184 840.078 208.077 840.136C207.441 840.482 206.796 840.813 206.152 841.144C205.277 841.594 204.394 842.029 203.526 842.496C203.203 842.669 202.881 842.741 202.524 842.74C196.327 842.735 190.129 842.737 183.933 842.737C183.833 842.737 183.731 842.737 183.631 842.737C183.247 842.732 183.192 842.633 183.315 842.264C183.446 841.869 183.545 841.464 183.664 841.065C183.747 840.786 183.84 840.511 183.926 840.234C184.057 839.806 184.183 839.376 184.315 838.949C184.396 838.692 184.493 838.44 184.571 838.181C184.675 837.834 184.766 837.482 184.864 837.132C184.932 836.892 185 836.653 185.073 836.415C185.197 836.007 185.326 835.599 185.451 835.192C185.54 834.903 185.628 834.614 185.718 834.326C185.854 833.891 185.99 833.457 186.126 833.022C186.259 832.597 186.394 832.173 186.521 831.746C186.624 831.397 186.714 831.044 186.812 830.692C186.877 830.462 186.944 830.231 187.015 830.002C187.221 829.325 187.426 828.648 187.636 827.975C187.802 827.441 187.986 826.912 188.149 826.379C188.237 826.092 188.303 825.796 188.375 825.504C188.444 825.22 188.566 825.182 188.797 825.363C189.627 826.011 190.459 826.655 191.291 827.302C191.474 827.446 191.656 827.592 191.838 827.738C192.034 827.895 192.034 827.955 191.95 828.205C191.831 828.549 191.738 828.903 191.632 829.251C191.529 829.588 191.42 829.924 191.319 830.262C191.23 830.561 191.152 830.863 191.061 831.16C190.976 831.44 190.879 831.713 190.791 831.991C190.668 832.378 190.551 832.767 190.431 833.154C190.269 833.68 190.102 834.206 189.943 834.734C189.85 835.041 189.771 835.353 189.679 835.66C189.599 835.929 189.51 836.195 189.426 836.462C189.29 836.9 189.154 837.337 189.019 837.776C188.975 837.915 188.916 838.051 188.896 838.194C188.873 838.357 188.941 838.422 189.099 838.441C189.148 838.447 189.199 838.441 189.25 838.441C194.22 838.441 199.19 838.441 204.16 838.443C204.419 838.443 204.531 838.367 204.593 838.147C204.685 837.826 204.774 837.503 204.871 837.184C204.995 836.777 205.125 836.371 205.253 835.966C205.492 835.214 205.733 834.463 205.97 833.71C206.045 833.472 206.108 833.231 206.182 832.991C206.268 832.706 206.221 832.637 205.924 832.637C204.786 832.637 203.65 832.637 202.513 832.637C200.219 832.637 197.926 832.637 195.631 832.637C195.513 832.637 195.393 832.637 195.292 832.637L195.294 832.638Z" fill="black"/>
</g>
<g filter="url(#filter2_b_3000_1340)">
<circle cx="40" cy="488" r="40" fill="url(#paint4_linear_3000_1340)" fill-opacity="0.4"/>
<circle cx="40" cy="488" r="39.3631" stroke="url(#paint5_linear_3000_1340)" stroke-width="1.27371"/>
</g>
<g filter="url(#filter3_b_3000_1340)">
<circle cx="40" cy="488" r="30" fill="url(#paint6_linear_3000_1340)"/>
<circle cx="40" cy="488" r="29.5335" stroke="url(#paint7_linear_3000_1340)" stroke-width="0.932974"/>
</g>
<path fill-rule="evenodd" clip-rule="evenodd" d="M23 498.856H26.3919C27.0651 498.104 40.4798 474.522 41 473.969C41.3224 474.368 41.5954 474.803 41.813 475.266L44.2346 479.406C45.288 481.222 46.3458 483.087 47.4342 484.869C47.8451 485.552 53.6236 495.331 53.7941 495.855H35.44C35.1559 496.227 33.7965 498.532 33.7746 498.882H59C58.9475 498.593 41.3147 468.264 41 468C40.5765 468.594 40.1967 469.217 39.8635 469.864L27.4585 491.106C26.6804 492.468 25.9592 493.644 25.1899 494.998C24.8096 495.638 23.0874 498.424 23 498.856Z" fill="white"/>
<path fill-rule="evenodd" clip-rule="evenodd" d="M25.7692 502.97L55.5385 503L53.889 500.09L30.9782 500.077C31.0997 499.559 32.9012 496.674 33.3135 495.964L38.2013 487.631C38.6006 486.955 39.026 486.245 39.4254 485.547C39.7899 484.842 40.1988 484.16 40.6495 483.505C40.9924 483.865 44.9903 490.743 45.572 491.765C46.0723 492.717 46.6304 493.637 47.2432 494.522H50.603C50.5379 494.068 46.3316 487.135 45.7369 486.082C44.9209 484.674 44.0744 483.249 43.2453 481.858C42.8112 481.117 41.0358 477.925 40.6712 477.608C40.376 477.907 30.2533 495.322 29.5023 496.597L25.7692 502.97Z" fill="white"/>
<path fill-rule="evenodd" clip-rule="evenodd" d="M41.0129 494.078H41.8468C41.3987 493.628 41.3402 493.855 41.3363 492.879C41.3363 492.308 41.3363 491.733 41.3363 491.158C41.9482 491.158 42.3067 491.274 42.2872 490.625C41.8585 490.852 41.9559 490.827 41.3402 490.827C41.3402 490.488 41.3402 490.132 41.3402 489.797C41.3354 489.634 41.3485 489.47 41.3792 489.309C41.4922 488.863 41.7689 488.776 42.0339 489.103C42.1898 489.305 42.0339 489.148 42.1742 489.363C42.3145 489.578 42.2054 489.475 42.3846 489.628L42.3067 488.61C40.8921 488.466 41.0051 489.024 41.0051 490.496C41.0051 491.696 40.9895 492.895 41.0129 494.078Z" fill="white"/>
<path fill-rule="evenodd" clip-rule="evenodd" d="M39.6154 491.176L40.3767 491.013C40.4521 491.584 40.4685 492.161 40.4257 492.735C40.4605 492.981 40.4338 493.231 40.3478 493.465C40.2618 493.699 40.119 493.909 39.9315 494.078H40.7863C40.8219 492.49 40.6572 489.807 41 488.588C40.9822 488.567 39.6465 491.133 39.6154 491.176Z" fill="white"/>
<g filter="url(#filter4_b_3000_1340)">
<circle cx="797" cy="816" r="40" fill="url(#paint8_linear_3000_1340)" fill-opacity="0.4"/>
<circle cx="797" cy="816" r="39.3631" stroke="url(#paint9_linear_3000_1340)" stroke-width="1.27371"/>
</g>
<g filter="url(#filter5_b_3000_1340)">
<circle cx="797" cy="816" r="30" fill="url(#paint10_linear_3000_1340)"/>
<circle cx="797" cy="816" r="29.5335" stroke="url(#paint11_linear_3000_1340)" stroke-width="0.932974"/>
</g>
<path d="M796.854 800.242C803.865 800.242 809.788 804.891 811.711 811.275L788.039 815.887V816.098L811.369 821.249C809.151 827.106 803.489 831.273 796.854 831.273C788.286 831.273 781.339 824.327 781.339 815.758C781.339 807.189 788.286 800.242 796.854 800.242Z" fill="#EBEB02"/>
<g filter="url(#filter6_b_3000_1340)">
<circle cx="936" cy="482" r="40" fill="url(#paint12_linear_3000_1340)" fill-opacity="0.4"/>
<circle cx="936" cy="482" r="39.3631" stroke="url(#paint13_linear_3000_1340)" stroke-width="1.27371"/>
</g>
<g filter="url(#filter7_b_3000_1340)">
<circle cx="936" cy="482" r="30" fill="url(#paint14_linear_3000_1340)"/>
<circle cx="936" cy="482" r="29.5335" stroke="url(#paint15_linear_3000_1340)" stroke-width="0.932974"/>
</g>
<g clip-path="url(#clip1_3000_1340)">
<path d="M922.647 498.889C922.515 498.112 922.349 497.336 922.234 496.544C922.118 495.652 922.003 494.743 921.953 493.835C921.904 492.695 922.498 491.886 923.572 491.506C923.803 491.424 924.034 491.358 924.282 491.275C926.924 490.416 929.567 489.558 932.209 488.699C933.877 488.154 935.528 487.609 937.196 487.08C938.187 486.767 938.402 486.915 938.567 487.939C938.732 489.013 938.881 490.086 939.046 491.16C939.162 491.936 939.063 492.695 938.633 493.356C938.32 493.852 937.824 494.116 937.296 494.297C935.958 494.727 934.604 495.156 933.266 495.602C930.805 496.395 928.344 497.188 925.9 497.997C925.008 498.294 924.117 498.591 923.225 498.905C923.027 498.889 922.828 498.889 922.647 498.889Z" fill="white"/>
<path d="M945.041 466.024C945.24 467.493 945.454 468.963 945.619 470.45C945.669 470.962 945.636 471.507 945.52 472.002C945.339 472.762 944.761 473.224 944.05 473.472C943.34 473.736 942.63 473.951 941.92 474.199C939.591 474.991 937.263 475.784 934.951 476.593C933.481 477.105 932.027 477.634 930.558 478.146C930.359 478.212 930.161 478.278 929.963 478.311C929.501 478.377 929.253 478.212 929.17 477.749C929.038 477.056 928.956 476.362 928.857 475.668C928.774 475.074 928.658 474.463 928.592 473.868C928.46 472.514 929.104 471.391 930.475 470.929C931.681 470.516 932.87 470.103 934.075 469.69C936.321 468.897 938.6 468.154 940.83 467.312C942.135 466.816 943.456 466.37 944.827 466.09C944.86 466.09 944.876 466.057 944.909 466.04C944.959 466.024 944.992 466.024 945.041 466.024Z" fill="white"/>
<path d="M929.781 487.378C929.781 486.436 929.781 485.528 929.781 484.62C929.797 483.579 929.797 482.555 929.83 481.515C929.847 480.739 930.26 480.21 930.937 479.896C931.218 479.764 931.515 479.682 931.812 479.583C933.777 478.938 935.743 478.311 937.708 477.683C937.807 477.65 937.906 477.634 938.005 477.601C938.022 477.634 938.038 477.65 938.038 477.667C938.022 479.632 938.005 481.597 938.005 483.546C938.005 484.388 937.51 484.818 936.816 485.066C935.858 485.412 934.884 485.71 933.91 486.023C932.654 486.436 931.399 486.849 930.128 487.262C930.028 487.295 929.913 487.328 929.781 487.378Z" fill="white"/>
</g>
<g filter="url(#filter8_b_3000_1340)">
<circle cx="837" cy="203" r="40" fill="url(#paint16_linear_3000_1340)" fill-opacity="0.4"/>
<circle cx="837" cy="203" r="39.3631" stroke="url(#paint17_linear_3000_1340)" stroke-width="1.27371"/>
</g>
<g filter="url(#filter9_b_3000_1340)">
<circle cx="837" cy="203" r="30" fill="url(#paint18_linear_3000_1340)"/>
<circle cx="837" cy="203" r="29.5335" stroke="url(#paint19_linear_3000_1340)" stroke-width="0.932974"/>
</g>
<g clip-path="url(#clip2_3000_1340)">
<g clip-path="url(#clip3_3000_1340)">
<path fill-rule="evenodd" clip-rule="evenodd" d="M827.318 205.057L825.122 203.3L825.153 217.31L823.71 217.326L823.7 200.238L827.826 203.511L827.318 205.057ZM829.111 204.535L837.393 211.111L851.234 200.203L851.27 217.3L849.72 217.315V203.355L837.403 213.134L828.705 206.171L829.111 204.535ZM839.319 194.876L840.137 190.941L837.525 192.045L840.223 189.445L836.966 186.9L840.854 188.406L842.195 184.555L842.098 188.551L846.387 188.622L842.149 189.907L843.836 193.546L841.524 191.192L840.686 195.137C841.783 195.424 842.84 195.89 843.811 196.533L843.252 198.044C841.067 196.453 838.308 195.981 835.783 196.628L835.808 195.022C836.966 194.786 838.15 194.736 839.319 194.876ZM823.679 196.016L829.538 200.745C828.827 201.568 828.242 202.497 827.821 203.516C827.612 204.013 827.445 204.53 827.318 205.062C827.135 205.82 827.043 206.608 827.043 207.421C827.043 213.094 831.697 217.687 837.434 217.687C840.432 217.687 843.13 216.437 845.025 214.434L843.872 213.375C842.261 215.072 839.974 216.131 837.434 216.131C832.561 216.131 828.613 212.23 828.613 207.416C828.613 206.989 828.644 206.573 828.705 206.166C828.786 205.604 828.923 205.057 829.111 204.535C829.482 203.496 830.046 202.542 830.757 201.729L837.342 207.04L851.209 196.046V194.018L844.197 199.62C842.378 198.079 840.02 197.15 837.439 197.15C834.827 197.15 832.444 198.104 830.62 199.67L823.679 194.133V196.016ZM842.947 200.619C841.438 199.424 839.522 198.707 837.434 198.707C835.32 198.707 833.379 199.445 831.86 200.669L837.373 205.072L842.947 200.619Z" fill="white"/>
</g>
</g>
<g filter="url(#filter10_b_3000_1340)">
<circle cx="501" cy="40" r="40" fill="url(#paint20_linear_3000_1340)" fill-opacity="0.4"/>
<circle cx="501" cy="40" r="39.3631" stroke="url(#paint21_linear_3000_1340)" stroke-width="1.27371"/>
</g>
<g filter="url(#filter11_b_3000_1340)">
<circle cx="501" cy="39.9999" r="30" fill="url(#paint22_linear_3000_1340)"/>
<circle cx="501" cy="39.9999" r="29.5335" stroke="url(#paint23_linear_3000_1340)" stroke-width="0.932974"/>
</g>
<g clip-path="url(#clip4_3000_1340)">
<path fill-rule="evenodd" clip-rule="evenodd" d="M500.602 56.9926H501.282C501.499 56.8979 501.839 56.8584 502.056 56.7716C502.279 56.6871 502.494 56.5814 502.698 56.4559L503.935 55.7219L511.429 51.318C512.265 50.8366 513.108 50.3473 513.912 49.8501C514.344 49.6508 514.732 49.3641 515.053 49.0073C515.373 48.6505 515.619 48.2311 515.776 47.7744C516.116 46.7484 515.961 38.2326 515.961 36.0228C515.961 33.1342 516.402 31.4452 513.958 30.072C510.262 27.9884 506.495 25.6602 502.767 23.5529C502.333 23.3155 501.874 23.1301 501.398 23.0005H500.432C499.957 23.1361 499.5 23.3295 499.071 23.5766C495.397 25.7233 491.615 28.02 487.957 30.1114C485.575 31.4689 486.031 33.2684 486.031 36.0859C486.031 38.2879 485.876 46.8036 486.232 47.8218C486.39 48.2736 486.637 48.6872 486.959 49.0363C487.282 49.3855 487.671 49.6626 488.104 49.8501L495.482 54.2619C496.302 54.7512 497.137 55.2326 497.949 55.7377C498.55 56.1295 499.178 56.4751 499.828 56.7716C500.06 56.8742 500.455 56.9216 500.602 56.9926Z" fill="#333333"/>
<path fill-rule="evenodd" clip-rule="evenodd" d="M499.689 51.6337C496.889 51.3061 494.305 49.9386 492.429 47.7917C490.554 45.6448 489.518 42.8688 489.519 39.9926C489.517 38.3628 489.846 36.7504 490.486 35.2572L497.995 39.6374C497.995 39.6374 499.658 40.3556 499.666 42.9364V51.6179L499.689 51.6337ZM491.901 32.8421L499.101 37.1908C501.422 38.5956 503.023 37.1908 503.023 37.1908L510.13 32.9368C509.065 31.4923 507.685 30.3198 506.1 29.5118C504.515 28.7037 502.768 28.2822 500.996 28.2804C499.239 28.2808 497.506 28.6922 495.929 29.483C494.353 30.2738 492.975 31.4229 491.901 32.8421ZM511.491 35.2098C512.143 36.7001 512.48 38.3134 512.481 39.9452C512.482 42.8015 511.461 45.5598 509.61 47.702C507.758 49.8441 505.204 51.2226 502.427 51.5784L502.357 42.6838C502.31 42.0777 502.44 41.4709 502.73 40.9399C503.021 40.409 503.459 39.9777 503.989 39.7005C505.134 39.0218 508.838 36.8199 511.491 35.2414V35.2098Z" fill="#4D4D4D"/>
<path fill-rule="evenodd" clip-rule="evenodd" d="M499.689 50.5524C497.165 50.2329 494.843 48.983 493.159 47.0382C491.476 45.0933 490.547 42.5876 490.547 39.9925C490.548 38.5552 490.832 37.1326 491.383 35.8096L497.972 39.6532C497.972 39.6532 499.635 40.3714 499.642 42.9522V50.5524H499.689ZM492.821 33.3946L499.101 37.1908C501.421 38.5956 503.022 37.1908 503.022 37.1908L509.209 33.4814C508.234 32.2072 506.986 31.1767 505.562 30.4683C504.137 29.7599 502.573 29.3922 500.988 29.3932C499.415 29.392 497.862 29.755 496.446 30.455C495.03 31.1549 493.788 32.1735 492.813 33.434L492.821 33.3946ZM510.609 35.7623C511.162 37.1007 511.441 38.5402 511.429 39.9925C511.431 42.5719 510.514 45.064 508.849 47.005C507.185 48.9461 504.886 50.2039 502.38 50.5445L502.318 42.7312C502.271 42.125 502.401 41.5182 502.692 40.9873C502.982 40.4563 503.42 40.0251 503.95 39.7479C505.002 39.1007 508.049 37.2855 510.578 35.7859L510.609 35.7623Z" fill="#666666"/>
<path fill-rule="evenodd" clip-rule="evenodd" d="M499.689 49.4791C497.452 49.1562 495.403 48.0207 493.92 46.2811C492.437 44.5414 491.619 42.3142 491.615 40.0083C491.616 38.758 491.855 37.5197 492.319 36.3621L497.995 39.669C497.995 39.669 499.658 40.3872 499.666 42.968V49.4949L499.689 49.4791ZM493.726 33.9471L499.14 37.1908C501.46 38.5956 503.061 37.1908 503.061 37.1908L508.343 34.0339C507.464 32.9197 506.351 32.021 505.086 31.4036C503.821 30.7863 502.437 30.4661 501.035 30.4666C499.642 30.465 498.266 30.7809 497.009 31.3912C495.751 32.0016 494.643 32.891 493.765 33.9944L493.726 33.9471ZM509.666 36.3147C510.142 37.4771 510.387 38.7247 510.385 39.9847C510.383 42.2812 509.574 44.5007 508.103 46.239C506.632 47.9773 504.599 49.1187 502.373 49.4554L502.319 42.7154C502.271 42.1092 502.401 41.5024 502.692 40.9715C502.982 40.4405 503.42 40.0093 503.95 39.7321C504.878 39.1797 507.361 37.6959 509.666 36.3226V36.3147Z" fill="#808080"/>
<path fill-rule="evenodd" clip-rule="evenodd" d="M499.681 48.4847C497.701 48.1634 495.898 47.1316 494.597 45.5749C493.295 44.0182 492.581 42.0388 492.582 39.9926C492.578 38.9124 492.775 37.8412 493.162 36.8356L497.995 39.6532C497.995 39.6532 499.658 40.3714 499.666 42.9522V48.4768L499.681 48.4847ZM494.561 34.4522L499.101 37.1908C501.421 38.5956 503.022 37.1908 503.022 37.1908L507.462 34.5311C506.673 33.5633 505.684 32.785 504.566 32.2516C503.449 31.7183 502.23 31.4429 500.996 31.4452C499.771 31.4449 498.561 31.7173 497.449 32.2434C496.338 32.7696 495.352 33.5368 494.561 34.4916V34.4522ZM508.831 36.8199C509.217 37.8257 509.417 38.8963 509.418 39.9768C509.419 42.0147 508.71 43.9867 507.419 45.5407C506.127 47.0948 504.336 48.1298 502.365 48.461L502.319 42.7154C502.271 42.1093 502.401 41.5024 502.692 40.9715C502.982 40.4405 503.42 40.0093 503.95 39.7321C504.77 39.2428 506.789 38.0432 508.831 36.8199Z" fill="#B3B3B3"/>
<path fill-rule="evenodd" clip-rule="evenodd" d="M499.681 47.5535C497.945 47.2333 496.374 46.3008 495.243 44.9188C494.112 43.5367 493.493 41.7932 493.494 39.9926C493.493 39.0734 493.656 38.1615 493.974 37.3014L498.011 39.6691C498.011 39.6691 499.674 40.3872 499.681 42.968V47.5692V47.5535ZM495.35 34.9258L499.101 37.1909C501.421 38.5957 503.022 37.1909 503.022 37.1909L506.673 35.0047C505.973 34.164 505.103 33.4876 504.124 33.0217C503.144 32.5558 502.077 32.3115 500.996 32.3055C499.928 32.3053 498.872 32.5375 497.898 32.9866C496.924 33.4357 496.056 34.0914 495.35 34.91V34.9258ZM508.042 37.2935C508.359 38.1566 508.521 39.0709 508.521 39.9926C508.519 41.7914 507.898 43.5323 506.768 44.9124C505.637 46.2924 504.068 47.2242 502.334 47.5456V42.7313C502.287 42.1251 502.417 41.5183 502.707 40.9874C502.998 40.4564 503.436 40.0251 503.966 39.748L508.042 37.2935Z" fill="#CCCCCC"/>
<path fill-rule="evenodd" clip-rule="evenodd" d="M499.673 46.5117C498.217 46.1984 496.91 45.3836 495.972 44.2039C495.034 43.0241 494.523 41.5512 494.523 40.0321C494.517 39.2834 494.635 38.5391 494.871 37.8301L497.964 39.6454C497.964 39.6454 499.627 40.3636 499.635 42.9443V46.5117H499.673ZM496.271 35.4624L499.101 37.1751C501.421 38.5799 503.022 37.1751 503.022 37.1751L505.76 35.5335C505.153 34.8632 504.416 34.3285 503.596 33.9631C502.776 33.5978 501.891 33.4096 500.996 33.4104C500.113 33.404 499.237 33.5829 498.424 33.9358C497.612 34.2888 496.878 34.8084 496.271 35.4624ZM507.098 37.8301C507.334 38.5229 507.455 39.2512 507.454 39.9847C507.455 41.4996 506.946 42.9688 506.013 44.1468C505.079 45.3247 503.778 46.1401 502.326 46.4564V42.7234C502.279 42.1172 502.409 41.5104 502.699 40.9794C502.99 40.4485 503.428 40.0172 503.958 39.7401C504.538 39.4086 505.737 38.6667 507.121 37.8301H507.098Z" fill="#E6E6E6"/>
</g>
<g filter="url(#filter12_b_3000_1340)">
<circle cx="152" cy="190" r="40" fill="url(#paint24_linear_3000_1340)" fill-opacity="0.4"/>
<circle cx="152" cy="190" r="39.3631" stroke="url(#paint25_linear_3000_1340)" stroke-width="1.27371"/>
</g>
<g filter="url(#filter13_b_3000_1340)">
<circle cx="152" cy="190" r="30" fill="url(#paint26_linear_3000_1340)"/>
<circle cx="152" cy="190" r="29.5335" stroke="url(#paint27_linear_3000_1340)" stroke-width="0.932974"/>
</g>
<path d="M160.303 198.826C160.281 198.805 160.26 198.784 160.238 198.763C160.232 198.758 160.219 198.752 160.219 198.749C160.237 198.661 160.16 198.581 160.123 198.563C160.031 198.52 160.084 198.39 159.982 198.371C159.978 198.294 159.875 198.272 159.883 198.18C159.886 198.144 159.839 198.081 159.803 198.07C159.734 198.048 159.752 197.994 159.731 197.954C159.707 197.909 159.671 197.869 159.641 197.827C159.621 197.8 159.601 197.773 159.581 197.746C159.541 197.692 159.501 197.639 159.461 197.586C159.454 197.577 159.435 197.57 159.436 197.566C159.459 197.476 159.379 197.423 159.338 197.377C159.27 197.3 159.258 197.184 159.178 197.132C159.117 197.093 159.128 197.046 159.105 197.001C159.083 196.957 159.04 196.922 159.006 196.883C158.99 196.864 158.964 196.845 158.962 196.824C158.956 196.742 158.879 196.71 158.846 196.647C158.837 196.628 158.815 196.614 158.81 196.595C158.788 196.514 158.731 196.46 158.673 196.406C158.669 196.402 158.661 196.399 158.66 196.395C158.646 196.291 158.581 196.222 158.502 196.162C158.491 196.154 158.495 196.128 158.491 196.111C158.481 196.075 158.491 196.04 158.432 196.02C158.388 196.005 158.35 195.932 158.337 195.878C158.32 195.801 158.246 195.769 158.22 195.702C158.215 195.691 158.194 195.685 158.191 195.674C158.169 195.58 158.105 195.517 158.038 195.454C158.029 195.446 158.028 195.427 158.025 195.413C158.007 195.334 157.948 195.285 157.895 195.23C157.886 195.221 157.878 195.208 157.874 195.195C157.852 195.108 157.775 195.057 157.737 194.985C157.69 194.898 157.629 194.825 157.576 194.745C157.528 194.672 157.537 194.667 157.487 194.612C157.462 194.584 157.461 194.535 157.443 194.499C157.423 194.461 157.401 194.401 157.371 194.395C157.311 194.382 157.326 194.338 157.307 194.308C157.271 194.251 157.224 194.201 157.182 194.148C157.177 194.141 157.167 194.138 157.164 194.131C157.133 194.066 157.118 193.964 157.069 193.943C156.979 193.904 157.005 193.81 156.943 193.757C156.903 193.722 156.83 193.669 156.828 193.578C156.828 193.533 156.763 193.489 156.728 193.445C156.715 193.428 156.697 193.414 156.692 193.395C156.67 193.314 156.621 193.254 156.554 193.206C156.544 193.199 156.541 193.182 156.534 193.17C156.503 193.107 156.473 193.044 156.438 192.984C156.431 192.971 156.402 192.971 156.383 192.966C156.376 192.861 156.318 192.79 156.238 192.733C156.231 192.729 156.222 192.719 156.224 192.714C156.25 192.622 156.165 192.574 156.126 192.528C156.061 192.451 156.046 192.34 155.971 192.288C155.909 192.245 155.914 192.194 155.89 192.144C155.869 192.099 155.816 192.068 155.778 192.03C155.768 192.02 155.758 192.008 155.755 191.996C155.739 191.906 155.684 191.844 155.613 191.791C155.605 191.786 155.6 191.772 155.599 191.762C155.589 191.667 155.52 191.614 155.455 191.559C155.449 191.553 155.442 191.545 155.442 191.538C155.438 191.433 155.37 191.373 155.292 191.318C155.285 191.313 155.284 191.296 155.283 191.285C155.275 191.195 155.212 191.143 155.148 191.091C155.142 191.086 155.134 191.079 155.133 191.072C155.125 190.968 155.055 190.906 154.983 190.845C154.979 190.842 154.977 190.835 154.976 190.829C154.965 190.731 154.898 190.671 154.829 190.612C154.82 190.604 154.819 190.585 154.816 190.571C154.797 190.489 154.731 190.443 154.682 190.382C154.656 190.349 154.652 190.298 154.642 190.267C154.593 190.218 154.517 190.178 154.515 190.134C154.512 190.047 154.452 189.983 154.41 189.952C154.34 189.899 154.368 189.794 154.274 189.76C154.235 189.746 154.216 189.675 154.191 189.628C154.172 189.591 154.168 189.557 154.122 189.525C154.064 189.483 154.041 189.39 153.993 189.32C153.974 189.287 153.963 189.235 153.936 189.224C153.866 189.196 153.874 189.139 153.867 189.087C153.856 189.014 153.833 188.936 153.931 188.899C153.939 188.896 153.941 188.873 153.943 188.859C153.952 188.77 154.02 188.723 154.076 188.667C154.082 188.661 154.094 188.654 154.093 188.65C154.072 188.561 154.173 188.529 154.183 188.455C154.29 188.443 154.227 188.305 154.325 188.27C154.37 188.254 154.387 188.164 154.42 188.11C154.464 188.037 154.525 187.972 154.555 187.894C154.581 187.824 154.664 187.795 154.665 187.706C154.665 187.664 154.72 187.622 154.75 187.58C154.77 187.552 154.79 187.524 154.808 187.496C154.843 187.444 154.876 187.391 154.91 187.339C154.925 187.316 154.947 187.297 154.959 187.273C154.976 187.239 154.96 187.194 155.025 187.178C155.062 187.17 155.085 187.098 155.11 187.052C155.131 187.014 155.108 186.945 155.186 186.947C155.189 186.947 155.195 186.933 155.195 186.925C155.198 186.824 155.265 186.767 155.337 186.713C155.343 186.708 155.347 186.699 155.35 186.691C155.379 186.626 155.392 186.535 155.442 186.502C155.505 186.46 155.494 186.401 155.524 186.359C155.551 186.323 155.582 186.27 155.612 186.254C155.665 186.226 155.652 186.183 155.672 186.149C155.701 186.098 155.74 186.052 155.776 186.005C155.781 185.998 155.794 185.998 155.798 185.991C155.836 185.917 155.869 185.84 155.912 185.769C155.944 185.716 155.988 185.67 156.028 185.622C156.035 185.614 156.054 185.606 156.053 185.602C156.03 185.514 156.106 185.458 156.147 185.414C156.195 185.362 156.219 185.315 156.224 185.244H156.357C156.368 185.352 156.425 185.427 156.506 185.485C156.512 185.489 156.515 185.5 156.517 185.508C156.533 185.601 156.592 185.664 156.664 185.718C156.67 185.722 156.675 185.732 156.675 185.74C156.687 185.837 156.748 185.899 156.823 185.951C156.831 185.956 156.833 185.971 156.835 185.982C156.847 186.028 156.839 186.072 156.905 186.103C156.953 186.126 156.969 186.213 157.004 186.269C157.035 186.319 157.071 186.365 157.106 186.412C157.12 186.432 157.145 186.449 157.151 186.47C157.173 186.548 157.223 186.603 157.286 186.649C157.294 186.655 157.305 186.665 157.306 186.674C157.315 186.774 157.375 186.838 157.452 186.893C157.465 186.901 157.458 186.935 157.468 186.95C157.509 187.007 157.553 187.061 157.596 187.116C157.602 187.125 157.616 187.132 157.617 187.14C157.63 187.241 157.687 187.309 157.771 187.359C157.777 187.363 157.776 187.381 157.777 187.393C157.786 187.484 157.857 187.53 157.913 187.589C157.936 187.613 157.936 187.658 157.951 187.691C157.956 187.702 157.974 187.709 157.989 187.72C158.04 187.795 158.099 187.879 158.155 187.964C158.192 188.021 158.22 188.084 158.262 188.137C158.301 188.188 158.32 188.253 158.382 188.291C158.419 188.314 158.458 188.362 158.465 188.404C158.487 188.538 158.636 188.593 158.654 188.731C158.66 188.773 158.722 188.807 158.759 188.844C158.767 188.852 158.781 188.858 158.782 188.867C158.796 188.969 158.863 189.033 158.938 189.094C158.951 189.105 158.95 189.133 158.953 189.153C158.958 189.187 158.956 189.213 159.006 189.227C159.045 189.239 159.091 189.293 159.098 189.334C159.115 189.437 159.176 189.499 159.251 189.558C159.258 189.564 159.257 189.58 159.259 189.592C159.272 189.678 159.337 189.726 159.393 189.78C159.401 189.787 159.411 189.797 159.412 189.807C159.425 189.904 159.487 189.967 159.561 190.02C159.567 190.025 159.569 190.036 159.571 190.044C159.585 190.138 159.642 190.201 159.716 190.253C159.723 190.257 159.727 190.268 159.728 190.275C159.736 190.376 159.802 190.436 159.878 190.488C159.883 190.492 159.886 190.504 159.887 190.512C159.892 190.612 159.958 190.669 160.031 190.721C160.037 190.725 160.042 190.736 160.042 190.743C160.05 190.842 160.113 190.901 160.187 190.955C160.196 190.961 160.198 190.98 160.201 190.994C160.217 191.08 160.266 191.142 160.34 191.185C160.347 191.189 160.357 191.199 160.355 191.205C160.336 191.293 160.412 191.349 160.453 191.394C160.519 191.468 160.534 191.573 160.606 191.631C160.687 191.696 160.692 191.804 160.762 191.863C160.842 191.929 160.85 192.035 160.918 192.097C160.993 192.167 161.009 192.277 161.079 192.332C161.138 192.378 161.142 192.43 161.166 192.494C161.177 192.479 161.184 192.469 161.196 192.452C161.21 192.497 161.223 192.538 161.235 192.578C161.24 192.575 161.245 192.572 161.25 192.569C161.267 192.595 161.278 192.628 161.301 192.646C161.363 192.696 161.361 192.787 161.437 192.83C161.473 192.85 161.508 192.899 161.515 192.939C161.538 193.073 161.686 193.13 161.703 193.267C161.708 193.307 161.765 193.34 161.797 193.378C161.815 193.4 161.83 193.425 161.846 193.448C161.882 193.502 161.917 193.557 161.954 193.61C161.969 193.634 161.988 193.655 162.003 193.678C162.038 193.733 162.069 193.789 162.104 193.844C162.12 193.867 162.143 193.886 162.158 193.91C162.193 193.965 162.224 194.022 162.259 194.077C162.276 194.103 162.299 194.125 162.316 194.151C162.352 194.205 162.386 194.26 162.422 194.314C162.436 194.335 162.461 194.351 162.467 194.374C162.489 194.451 162.548 194.499 162.601 194.552C162.609 194.559 162.621 194.567 162.621 194.576C162.633 194.677 162.699 194.738 162.774 194.793C162.78 194.797 162.781 194.809 162.782 194.817C162.785 194.915 162.856 194.966 162.921 195.021C162.93 195.029 162.938 195.045 162.939 195.057C162.948 195.152 163.013 195.205 163.081 195.257C163.089 195.263 163.096 195.276 163.097 195.286C163.105 195.383 163.165 195.443 163.241 195.492C163.249 195.497 163.251 195.512 163.253 195.523C163.262 195.617 163.327 195.672 163.395 195.725C163.403 195.731 163.407 195.745 163.408 195.756C163.421 195.849 163.482 195.907 163.552 195.96C163.56 195.966 163.564 195.98 163.565 195.99C163.576 196.085 163.64 196.141 163.71 196.193C163.718 196.199 163.723 196.212 163.724 196.223C163.737 196.317 163.789 196.383 163.869 196.431C163.875 196.434 163.88 196.445 163.88 196.452C163.888 196.55 163.947 196.612 164.024 196.664C164.031 196.669 164.031 196.684 164.036 196.694C164.073 196.769 164.095 196.854 164.18 196.894C164.185 196.896 164.188 196.901 164.191 196.906C164.22 196.97 164.235 197.07 164.283 197.09C164.354 197.121 164.324 197.223 164.406 197.225C164.41 197.225 164.416 197.234 164.415 197.238C164.4 197.324 164.479 197.398 164.515 197.417C164.604 197.461 164.558 197.576 164.656 197.613C164.703 197.631 164.712 197.738 164.751 197.796C164.776 197.837 164.826 197.857 164.843 197.912C164.857 197.957 164.896 197.995 164.92 198.03C164.969 198.097 165.014 198.157 165.056 198.219C165.093 198.272 165.124 198.329 165.159 198.383C165.174 198.407 165.196 198.427 165.211 198.451C165.246 198.505 165.279 198.561 165.314 198.615C165.332 198.643 165.358 198.667 165.371 198.697C165.383 198.727 165.369 198.771 165.426 198.769C165.433 198.769 165.446 198.801 165.445 198.818C165.444 198.829 165.424 198.844 165.41 198.846C165.384 198.851 165.357 198.85 165.33 198.85C163.694 198.85 162.058 198.85 160.422 198.85H160.299C160.3 198.842 160.3 198.833 160.301 198.825L160.303 198.826Z" fill="white"/>
<path d="M144.089 198.325C144.115 198.336 144.123 198.339 144.131 198.342C144.101 198.379 144.07 198.417 144.039 198.453C144.034 198.459 143.987 198.561 143.981 198.572C143.962 198.609 143.946 198.67 143.918 198.676C143.83 198.696 143.864 198.774 143.827 198.824C143.82 198.812 143.814 198.802 143.816 198.806C143.774 198.822 143.738 198.848 143.701 198.848C142.053 198.85 140.405 198.85 138.756 198.849C138.713 198.849 138.669 198.828 138.612 198.813C138.664 198.765 138.717 198.729 138.752 198.68C138.792 198.625 138.814 198.556 138.85 198.497C138.879 198.449 138.919 198.408 138.953 198.363C138.963 198.349 138.966 198.331 138.976 198.318C139.027 198.253 139.078 198.189 139.13 198.125C139.135 198.119 139.144 198.112 139.144 198.105C139.154 198.004 139.225 197.947 139.295 197.887C139.299 197.883 139.303 197.877 139.304 197.872C139.313 197.772 139.379 197.711 139.449 197.65C139.466 197.635 139.464 197.6 139.476 197.577C139.487 197.556 139.505 197.537 139.521 197.519C139.524 197.516 139.535 197.519 139.537 197.515C139.567 197.463 139.593 197.409 139.626 197.359C139.664 197.302 139.707 197.248 139.749 197.193C139.756 197.184 139.774 197.177 139.773 197.173C139.751 197.082 139.861 197.056 139.866 196.98C139.97 196.967 139.911 196.83 140.011 196.796C140.056 196.78 140.069 196.678 140.104 196.619C140.129 196.575 140.166 196.537 140.198 196.496C140.218 196.47 140.236 196.443 140.256 196.416C140.296 196.364 140.335 196.311 140.376 196.259C140.384 196.249 140.403 196.242 140.404 196.232C140.414 196.132 140.476 196.07 140.551 196.015C140.558 196.01 140.559 195.994 140.561 195.983C140.576 195.895 140.636 195.839 140.701 195.786C140.711 195.779 140.716 195.762 140.718 195.749C140.728 195.657 140.797 195.609 140.859 195.555C140.865 195.549 140.873 195.542 140.874 195.535C140.883 195.434 140.946 195.371 141.023 195.316C141.028 195.311 141.032 195.3 141.032 195.293C141.034 195.192 141.106 195.14 141.174 195.085C141.182 195.079 141.189 195.066 141.19 195.056C141.193 194.957 141.266 194.906 141.331 194.848C141.34 194.84 141.341 194.822 141.345 194.808C141.366 194.726 141.413 194.663 141.484 194.618C141.487 194.616 141.53 194.504 141.534 194.497C141.559 194.461 141.584 194.425 141.611 194.39C141.626 194.37 141.64 194.345 141.661 194.336C141.744 194.299 141.718 194.19 141.799 194.142C141.848 194.113 141.866 194.031 141.901 193.973C141.913 193.953 141.933 193.937 141.948 193.918C141.977 193.884 142.023 193.853 142.029 193.814C142.042 193.736 142.086 193.658 142.136 193.633C142.226 193.589 142.179 193.477 142.271 193.435C142.321 193.413 142.336 193.318 142.372 193.259C142.4 193.213 142.436 193.172 142.469 193.128C142.486 193.105 142.503 193.082 142.52 193.059C142.562 193.003 142.603 192.947 142.645 192.892C142.653 192.881 142.667 192.872 142.668 192.861C142.68 192.764 142.744 192.706 142.817 192.654C142.823 192.649 142.827 192.639 142.828 192.631C142.835 192.531 142.896 192.468 142.976 192.418C142.982 192.414 142.985 192.403 142.985 192.394C142.989 192.294 143.061 192.242 143.129 192.186C143.138 192.178 143.142 192.161 143.144 192.147C143.154 192.056 143.215 192.003 143.283 191.953C143.291 191.947 143.3 191.936 143.301 191.926C143.311 191.829 143.372 191.768 143.445 191.714C143.452 191.709 143.455 191.694 143.456 191.683C143.47 191.593 143.534 191.541 143.596 191.487C143.602 191.481 143.608 191.474 143.611 191.466C143.642 191.402 143.658 191.322 143.705 191.276C143.778 191.205 143.797 191.1 143.864 191.039C143.939 190.971 143.95 190.867 144.018 190.809C144.098 190.739 144.109 190.629 144.179 190.568C144.255 190.502 144.272 190.408 144.332 190.342C144.363 190.307 144.396 190.274 144.421 190.233C144.436 190.208 144.463 190.189 144.472 190.163C144.506 190.051 144.634 189.998 144.65 189.869C144.655 189.828 144.724 189.795 144.764 189.758C144.769 189.752 144.778 189.746 144.779 189.739C144.788 189.635 144.859 189.574 144.93 189.511C144.946 189.496 144.942 189.46 144.953 189.436C144.962 189.416 144.979 189.4 144.994 189.384C145.025 189.35 145.081 189.32 145.084 189.284C145.091 189.203 145.132 189.133 145.187 189.102C145.269 189.055 145.233 188.946 145.319 188.907C145.355 188.891 145.391 188.844 145.401 188.804C145.425 188.707 145.478 188.636 145.558 188.58C145.565 188.575 145.563 188.557 145.565 188.546C145.584 188.461 145.639 188.402 145.707 188.353C145.714 188.348 145.723 188.339 145.722 188.334C145.697 188.242 145.781 188.188 145.821 188.147C145.891 188.074 145.895 187.968 145.971 187.911C146.056 187.848 146.059 187.73 146.133 187.676C146.19 187.635 146.19 187.59 146.212 187.541C146.232 187.494 146.283 187.461 146.32 187.423C146.331 187.412 146.347 187.404 146.354 187.391C146.384 187.329 146.395 187.247 146.443 187.208C146.524 187.142 146.529 187.033 146.601 186.974C146.681 186.908 146.688 186.8 146.758 186.739C146.835 186.671 146.864 186.58 146.914 186.499C146.923 186.484 146.955 186.483 146.977 186.475C146.98 186.37 147.04 186.302 147.123 186.247C147.131 186.242 147.138 186.228 147.138 186.218C147.142 186.118 147.218 186.071 147.278 186.006C147.328 185.952 147.347 185.871 147.38 185.802C147.382 185.799 147.382 185.796 147.4 185.805C147.444 185.742 147.488 185.678 147.532 185.614C147.568 185.561 147.604 185.508 147.641 185.456C147.649 185.445 147.666 185.441 147.672 185.43C147.706 185.37 147.734 185.307 147.771 185.25C147.778 185.241 147.825 185.247 147.844 185.26C147.868 185.278 147.883 185.309 147.898 185.336C147.948 185.415 147.999 185.494 148.072 185.609C148.072 185.663 148.135 185.73 148.211 185.788C148.218 185.793 148.226 185.801 148.226 185.808C148.234 185.913 148.309 185.97 148.373 186.04C148.397 186.065 148.393 186.117 148.418 186.148C148.436 186.177 148.449 186.226 148.472 186.232C148.573 186.257 148.51 186.399 148.613 186.418C148.619 186.42 148.618 186.451 148.624 186.467C148.651 186.541 148.695 186.602 148.76 186.649C148.77 186.656 148.779 186.671 148.779 186.682C148.784 186.781 148.855 186.832 148.92 186.888C148.929 186.896 148.931 186.914 148.935 186.927C148.948 186.97 148.93 187.025 149.004 187.041C149.02 187.044 149.082 187.128 149.08 187.145C149.069 187.24 149.149 187.307 149.189 187.335C149.261 187.384 149.227 187.485 149.318 187.52C149.363 187.538 149.37 187.637 149.414 187.679C149.481 187.742 149.473 187.843 149.554 187.904C149.606 187.942 149.617 188.032 149.654 188.094C149.679 188.138 149.717 188.175 149.749 188.215C149.765 188.235 149.782 188.255 149.794 188.277C149.812 188.311 149.794 188.363 149.862 188.371C149.888 188.374 149.909 188.431 149.929 188.466C149.967 188.535 149.998 188.608 150.04 188.675C150.075 188.732 150.122 188.783 150.162 188.837C150.173 188.851 150.18 188.869 150.187 188.886C150.204 188.924 150.183 188.983 150.255 188.993C150.264 188.995 150.275 189.078 150.261 189.114C150.245 189.157 150.202 189.19 150.171 189.228C150.152 189.252 150.124 189.273 150.118 189.3C150.099 189.374 150.036 189.412 149.994 189.467C149.988 189.475 149.969 189.482 149.969 189.486C149.987 189.575 149.886 189.605 149.876 189.68C149.771 189.69 149.832 189.825 149.736 189.861C149.688 189.879 149.671 189.978 149.64 190.04C149.634 190.052 149.63 190.066 149.621 190.075C149.561 190.131 149.502 190.182 149.48 190.27C149.469 190.319 149.421 190.36 149.388 190.404C149.37 190.429 149.349 190.453 149.332 190.479C149.294 190.534 149.258 190.59 149.22 190.644C149.213 190.655 149.193 190.66 149.191 190.67C149.172 190.766 149.108 190.828 149.039 190.888C149.026 190.9 149.026 190.926 149.021 190.946C149.012 190.979 149.021 191.016 148.963 191.027C148.93 191.034 148.882 191.091 148.883 191.125C148.884 191.214 148.82 191.284 148.777 191.313C148.702 191.364 148.743 191.476 148.642 191.502C148.609 191.51 148.576 191.569 148.567 191.61C148.544 191.709 148.465 191.766 148.415 191.844C148.364 191.923 148.325 192.01 148.281 192.094C148.276 192.087 148.268 192.076 148.265 192.073C148.218 192.157 148.171 192.242 148.122 192.33C148.117 192.322 148.109 192.31 148.1 192.298C148.067 192.343 148.112 192.437 148.011 192.441C148.008 192.441 148.004 192.462 148.003 192.473C147.994 192.565 147.93 192.617 147.865 192.67C147.856 192.678 147.848 192.694 147.847 192.707C147.84 192.802 147.77 192.851 147.708 192.907C147.702 192.912 147.695 192.92 147.694 192.928C147.682 193.026 147.625 193.092 147.546 193.145C147.538 193.15 147.537 193.166 147.535 193.177C147.52 193.266 147.467 193.327 147.394 193.375C147.388 193.379 147.379 193.389 147.38 193.393C147.41 193.487 147.322 193.537 147.282 193.583C147.217 193.658 147.206 193.766 147.132 193.821C147.046 193.884 147.051 194 146.977 194.053C146.888 194.117 146.897 194.235 146.82 194.292C146.738 194.354 146.735 194.464 146.664 194.524C146.585 194.591 146.578 194.707 146.503 194.76C146.442 194.803 146.448 194.855 146.424 194.904C146.402 194.949 146.349 194.98 146.309 195.016C146.303 195.022 146.289 195.028 146.29 195.032C146.307 195.119 146.21 195.152 146.2 195.226C146.093 195.239 146.161 195.393 146.055 195.407C146.051 195.485 145.951 195.507 145.954 195.597C145.955 195.637 145.896 195.679 145.865 195.72C145.847 195.744 145.829 195.768 145.811 195.792C145.77 195.847 145.73 195.902 145.688 195.957C145.682 195.966 145.663 195.973 145.664 195.978C145.688 196.069 145.608 196.123 145.566 196.165C145.484 196.249 145.479 196.386 145.362 196.439C145.353 196.443 145.352 196.466 145.348 196.479C145.325 196.558 145.276 196.618 145.211 196.666C145.206 196.669 145.2 196.674 145.199 196.678C145.189 196.784 145.125 196.852 145.044 196.909C145.038 196.913 145.038 196.925 145.037 196.934C145.031 197.03 144.958 197.08 144.897 197.139C144.891 197.145 144.883 197.152 144.882 197.159C144.872 197.261 144.806 197.324 144.731 197.381C144.724 197.387 144.725 197.403 144.724 197.415C144.71 197.499 144.654 197.555 144.592 197.606C144.585 197.611 144.577 197.618 144.576 197.624C144.558 197.722 144.493 197.788 144.424 197.852C144.417 197.858 144.417 197.873 144.415 197.885C144.398 197.97 144.332 198.02 144.281 198.081C144.268 198.095 144.262 198.115 144.253 198.132C144.218 198.191 144.184 198.249 144.146 198.306C144.14 198.315 144.12 198.315 144.089 198.325L144.089 198.325Z" fill="white"/>
<path d="M156.478 198.51C156.496 198.542 156.511 198.575 156.532 198.605C156.571 198.662 156.618 198.716 156.654 198.775C156.675 198.81 156.683 198.854 156.687 198.894C156.688 198.902 156.643 198.917 156.618 198.924C156.604 198.929 156.589 198.925 156.574 198.925C153.568 198.925 150.562 198.925 147.555 198.925C147.508 198.925 147.461 198.923 147.414 198.918C147.401 198.917 147.385 198.901 147.38 198.888C147.377 198.879 147.39 198.853 147.395 198.853C147.452 198.853 147.439 198.805 147.457 198.775C147.492 198.714 147.541 198.661 147.584 198.603C147.593 198.59 147.598 198.574 147.603 198.559C147.617 198.517 147.592 198.452 147.671 198.448C147.677 198.448 147.683 198.424 147.685 198.411C147.7 198.323 147.759 198.267 147.822 198.211C147.834 198.199 147.834 198.174 147.84 198.156C147.853 198.119 147.831 198.059 147.903 198.061C147.908 198.061 147.915 198.056 147.917 198.051C147.946 197.989 147.973 197.926 148.003 197.864C148.009 197.85 148.021 197.838 148.032 197.828C148.043 197.82 148.069 197.816 148.068 197.812C148.056 197.728 148.115 197.668 148.161 197.622C148.219 197.565 148.198 197.458 148.293 197.433C148.3 197.432 148.31 197.421 148.31 197.415C148.307 197.305 148.417 197.252 148.443 197.17C148.471 197.081 148.564 197.033 148.561 196.928C148.559 196.888 148.62 196.846 148.652 196.804C148.67 196.78 148.688 196.756 148.703 196.731C148.722 196.7 148.739 196.667 148.766 196.64C148.776 196.539 148.839 196.471 148.913 196.41C148.922 196.402 148.928 196.387 148.932 196.374C148.947 196.329 148.925 196.262 149.005 196.257C149.009 196.256 149.014 196.242 149.015 196.234C149.024 196.136 149.083 196.072 149.154 196.013C149.169 196.001 149.164 195.968 149.175 195.948C149.189 195.922 149.21 195.899 149.227 195.875C149.235 195.864 149.246 195.855 149.252 195.843C149.28 195.779 149.291 195.695 149.339 195.657C149.394 195.612 149.392 195.553 149.423 195.511C149.451 195.475 149.485 195.442 149.503 195.396C149.52 195.356 149.544 195.319 149.566 195.281C149.572 195.269 149.58 195.248 149.587 195.248C149.647 195.251 149.633 195.202 149.647 195.17C149.659 195.142 149.681 195.119 149.699 195.094C149.704 195.088 149.714 195.084 149.716 195.077C149.728 195.037 149.731 195.009 149.778 194.975C149.836 194.933 149.847 194.829 149.886 194.755C149.914 194.703 149.955 194.659 149.99 194.611C150 194.597 150.013 194.584 150.023 194.569C150.047 194.53 150.018 194.455 150.101 194.453C150.104 194.453 150.108 194.427 150.11 194.413C150.122 194.327 150.181 194.274 150.243 194.222C150.247 194.218 150.256 194.213 150.255 194.211C150.236 194.111 150.334 194.066 150.36 193.987C150.38 193.928 150.434 193.881 150.473 193.83C150.477 193.826 150.488 193.823 150.487 193.821C150.476 193.733 150.552 193.686 150.585 193.618C150.615 193.554 150.668 193.499 150.71 193.44C150.719 193.427 150.726 193.412 150.731 193.397C150.746 193.354 150.729 193.291 150.803 193.286C150.808 193.285 150.814 193.266 150.815 193.255C150.82 193.159 150.887 193.105 150.952 193.048C150.956 193.045 150.96 193.04 150.962 193.035C150.995 192.962 151.022 192.885 151.062 192.816C151.095 192.759 151.143 192.712 151.185 192.66C151.19 192.654 151.201 192.648 151.202 192.642C151.203 192.537 151.313 192.482 151.332 192.404C151.355 192.305 151.47 192.261 151.457 192.148C151.454 192.12 151.521 192.057 151.529 192.055C151.622 192.026 151.562 191.888 151.664 191.872C151.67 191.871 151.672 191.846 151.675 191.832C151.687 191.745 151.75 191.691 151.807 191.634C151.81 191.629 151.82 191.626 151.819 191.623C151.807 191.53 151.908 191.489 151.919 191.405C151.922 191.383 151.948 191.365 151.961 191.343C151.977 191.319 151.99 191.293 152.015 191.25C152.04 191.264 152.071 191.281 152.104 191.299C152.103 191.302 152.11 191.291 152.12 191.273C152.131 191.305 152.137 191.333 152.149 191.357C152.16 191.379 152.176 191.398 152.192 191.418C152.199 191.426 152.217 191.431 152.217 191.437C152.219 191.547 152.302 191.607 152.361 191.682C152.375 191.699 152.373 191.727 152.383 191.748C152.395 191.771 152.411 191.791 152.426 191.81C152.433 191.818 152.448 191.821 152.452 191.83C152.483 191.895 152.51 191.963 152.544 192.026C152.572 192.077 152.609 192.122 152.641 192.174C152.659 192.207 152.677 192.241 152.698 192.272C152.737 192.329 152.78 192.384 152.818 192.442C152.834 192.467 152.839 192.499 152.853 192.526C152.866 192.553 152.883 192.578 152.911 192.598C152.922 192.704 152.988 192.773 153.064 192.837C153.079 192.85 153.078 192.88 153.085 192.902C153.095 192.935 153.078 192.986 153.142 192.981C153.148 192.98 153.161 192.997 153.161 193.006C153.166 193.109 153.231 193.173 153.307 193.231C153.315 193.238 153.312 193.259 153.317 193.273C153.331 193.31 153.305 193.375 153.383 193.373C153.387 193.373 153.395 193.397 153.397 193.41C153.41 193.5 153.472 193.557 153.534 193.613C153.54 193.618 153.548 193.626 153.548 193.633C153.542 193.747 153.644 193.8 153.689 193.884C153.702 193.909 153.701 193.943 153.716 193.966C153.73 193.987 153.757 193.999 153.784 194.02C153.795 194.069 153.786 194.126 153.859 194.169C153.908 194.198 153.92 194.291 153.95 194.354C153.956 194.368 153.969 194.379 153.982 194.388C153.992 194.397 154.017 194.403 154.016 194.406C153.995 194.494 154.066 194.564 154.109 194.593C154.186 194.644 154.145 194.765 154.246 194.785C154.251 194.786 154.257 194.8 154.257 194.808C154.259 194.91 154.329 194.969 154.394 195.034C154.409 195.049 154.407 195.079 154.418 195.099C154.433 195.125 154.452 195.148 154.47 195.172C154.477 195.181 154.49 195.188 154.491 195.197C154.496 195.3 154.555 195.366 154.633 195.424C154.648 195.435 154.643 195.469 154.654 195.489C154.667 195.515 154.687 195.539 154.704 195.563C154.711 195.572 154.725 195.579 154.725 195.587C154.73 195.69 154.8 195.749 154.869 195.811C154.88 195.82 154.877 195.844 154.883 195.86C154.896 195.896 154.871 195.957 154.945 195.954C154.951 195.954 154.96 195.972 154.961 195.982C154.974 196.079 155.033 196.144 155.105 196.202C155.12 196.214 155.113 196.248 155.123 196.268C155.136 196.295 155.156 196.318 155.174 196.341C155.181 196.35 155.193 196.355 155.197 196.364C155.226 196.429 155.238 196.534 155.285 196.553C155.383 196.592 155.329 196.71 155.424 196.75C155.471 196.77 155.484 196.87 155.515 196.932C155.522 196.947 155.539 196.959 155.552 196.971C155.562 196.98 155.585 196.989 155.584 196.994C155.562 197.082 155.666 197.115 155.671 197.19C155.777 197.204 155.703 197.363 155.816 197.373C155.82 197.373 155.823 197.388 155.823 197.396C155.825 197.495 155.894 197.551 155.959 197.611C155.968 197.619 155.966 197.638 155.973 197.651C155.994 197.689 155.967 197.76 156.046 197.76C156.05 197.76 156.057 197.78 156.058 197.79C156.064 197.886 156.131 197.941 156.194 198C156.205 198.011 156.205 198.032 156.212 198.047C156.227 198.085 156.203 198.151 156.28 198.146C156.282 198.146 156.286 198.15 156.286 198.152C156.295 198.266 156.375 198.336 156.442 198.416C156.461 198.438 156.454 198.483 156.459 198.518C156.466 198.515 156.472 198.513 156.479 198.51H156.478Z" fill="white"/>
<path d="M150.886 181.288C150.868 181.28 150.858 181.275 150.843 181.268C150.86 181.261 150.883 181.257 150.887 181.247C150.916 181.17 150.973 181.118 151.035 181.07C151.042 181.064 151.043 181.049 151.045 181.037C151.06 180.949 151.118 180.894 151.187 180.847C151.195 180.841 151.204 180.83 151.205 180.82C151.215 180.721 151.284 180.668 151.352 180.607C151.399 180.565 151.414 180.49 151.45 180.435C151.481 180.388 151.521 180.348 151.557 180.304C151.572 180.287 151.592 180.27 151.596 180.25C151.613 180.168 151.674 180.122 151.73 180.069C151.766 180.035 151.822 179.991 151.82 179.956C151.814 179.868 151.885 179.801 151.92 179.782C151.999 179.74 151.977 179.652 152.027 179.607C152.088 179.668 152.143 179.722 152.197 179.777C152.203 179.783 152.211 179.79 152.211 179.798C152.224 179.896 152.294 179.951 152.363 180.008C152.37 180.013 152.374 180.022 152.375 180.03C152.381 180.129 152.447 180.185 152.521 180.236C152.529 180.241 152.532 180.255 152.537 180.265C152.574 180.341 152.612 180.411 152.674 180.476C152.714 180.517 152.781 180.564 152.785 180.651C152.787 180.695 152.851 180.736 152.886 180.779C152.901 180.797 152.919 180.814 152.926 180.834C152.943 180.886 153.015 180.973 153.064 181.014C153.1 181.044 153.15 181.091 153.149 181.129C153.147 181.216 153.214 181.266 153.254 181.305C153.323 181.375 153.336 181.472 153.404 181.534C153.479 181.601 153.537 181.674 153.569 181.774C153.583 181.819 153.647 181.847 153.687 181.884C153.695 181.891 153.703 181.902 153.704 181.913C153.719 182.007 153.779 182.066 153.854 182.118C153.879 182.136 153.886 182.18 153.904 182.218C153.91 182.214 153.899 182.222 153.895 182.225C153.939 182.281 153.971 182.356 154.026 182.386C154.11 182.43 154.076 182.535 154.162 182.579C154.211 182.604 154.229 182.687 154.266 182.74C154.303 182.792 154.347 182.84 154.388 182.889C154.418 182.925 154.474 182.957 154.476 182.994C154.481 183.075 154.531 183.151 154.575 183.169C154.673 183.208 154.622 183.328 154.707 183.361C154.716 183.364 154.71 183.404 154.711 183.427C154.66 183.427 154.659 183.494 154.648 183.497C154.553 183.523 154.604 183.648 154.511 183.681C154.472 183.694 154.454 183.771 154.426 183.819C154.407 183.852 154.428 183.915 154.356 183.909C154.352 183.909 154.346 183.939 154.339 183.954C154.309 184.014 154.281 184.075 154.246 184.132C154.239 184.145 154.209 184.144 154.19 184.149C154.185 184.254 154.127 184.324 154.046 184.379C154.04 184.383 154.033 184.392 154.032 184.399C154.024 184.499 153.966 184.566 153.886 184.619C153.882 184.621 153.878 184.628 153.878 184.633C153.871 184.737 153.811 184.804 153.728 184.857C153.722 184.861 153.719 184.873 153.719 184.881C153.714 184.98 153.647 185.037 153.576 185.092C153.57 185.097 153.564 185.106 153.564 185.114C153.558 185.212 153.491 185.269 153.425 185.328C153.419 185.333 153.415 185.343 153.414 185.351C153.398 185.447 153.338 185.51 153.263 185.565C153.257 185.569 153.256 185.581 153.255 185.589C153.242 185.685 153.174 185.742 153.113 185.807C153.098 185.822 153.093 185.848 153.088 185.871C153.081 185.904 153.089 185.946 153.032 185.94C153.026 185.939 153.016 185.954 153.011 185.964C152.982 186.027 152.971 186.113 152.922 186.151C152.837 186.217 152.836 186.327 152.767 186.39C152.692 186.461 152.673 186.569 152.603 186.628C152.553 186.67 152.555 186.716 152.529 186.758C152.5 186.806 152.452 186.842 152.413 186.883C152.403 186.893 152.393 186.902 152.387 186.914C152.358 186.976 152.342 187.081 152.299 187.094C152.194 187.125 152.265 187.263 152.155 187.282C152.122 187.288 152.104 187.364 152.073 187.402C152.06 187.418 152.031 187.421 152.011 187.43C151.967 187.35 151.929 187.28 151.89 187.21C151.888 187.21 151.887 187.21 151.886 187.21C151.869 187.184 151.858 187.144 151.835 187.135C151.745 187.102 151.793 186.969 151.693 186.946C151.687 186.945 151.682 186.927 151.681 186.916C151.668 186.825 151.609 186.768 151.542 186.714C151.531 186.705 151.53 186.683 151.525 186.667C151.501 186.59 151.459 186.526 151.389 186.482C151.382 186.478 151.376 186.471 151.373 186.463C151.342 186.398 151.329 186.312 151.278 186.271C151.197 186.203 151.198 186.088 151.122 186.032C151.039 185.969 151.042 185.857 150.969 185.798C150.889 185.733 150.884 185.617 150.81 185.562C150.751 185.518 150.753 185.466 150.728 185.415C150.705 185.369 150.654 185.337 150.617 185.298C150.607 185.288 150.599 185.276 150.595 185.263C150.573 185.176 150.517 185.114 150.45 185.058C150.444 185.054 150.44 185.043 150.439 185.035C150.427 184.939 150.352 184.883 150.299 184.812C150.284 184.792 150.28 184.763 150.267 184.74C150.257 184.721 150.242 184.703 150.227 184.686C150.218 184.677 150.202 184.672 150.197 184.662C150.167 184.599 150.153 184.498 150.106 184.479C150.014 184.441 150.066 184.314 149.967 184.298C149.964 184.221 149.871 184.194 149.866 184.109C149.864 184.064 149.806 184.023 149.773 183.98C149.756 183.958 149.728 183.938 149.725 183.915C149.715 183.835 149.639 183.803 149.607 183.74C149.601 183.729 149.579 183.724 149.578 183.713C149.561 183.617 149.496 183.556 149.43 183.492C149.38 183.445 149.411 183.321 149.46 183.272C149.504 183.229 149.538 183.17 149.562 183.112C149.591 183.043 149.647 183.003 149.697 182.954C149.704 182.947 149.713 182.937 149.714 182.927C149.724 182.829 149.788 182.772 149.864 182.721C149.874 182.714 149.872 182.689 149.878 182.673C149.902 182.599 149.948 182.543 150.011 182.494C150.049 182.465 150.078 182.42 150.104 182.378C150.139 182.32 150.153 182.243 150.2 182.2C150.275 182.131 150.296 182.029 150.362 181.962C150.429 181.896 150.496 181.839 150.514 181.739C150.519 181.709 150.555 181.67 150.585 181.662C150.684 181.636 150.634 181.509 150.728 181.472C150.77 181.455 150.788 181.378 150.821 181.331C150.833 181.314 150.858 181.305 150.886 181.288H150.886Z" fill="white"/>
<defs>
<filter id="filter0_b_3000_1340" x="80.5772" y="714.577" width="232.846" height="232.846" filterUnits="userSpaceOnUse" color-interpolation-filters="sRGB">
<feFlood flood-opacity="0" result="BackgroundImageFix"/>
<feGaussianBlur in="BackgroundImageFix" stdDeviation="38.2114"/>
<feComposite in2="SourceAlpha" operator="in" result="effect1_backgroundBlur_3000_1340"/>
<feBlend mode="normal" in="SourceGraphic" in2="effect1_backgroundBlur_3000_1340" result="shape"/>
</filter>
<filter id="filter1_b_3000_1340" x="111.022" y="745.022" width="171.957" height="171.957" filterUnits="userSpaceOnUse" color-interpolation-filters="sRGB">
<feFlood flood-opacity="0" result="BackgroundImageFix"/>
<feGaussianBlur in="BackgroundImageFix" stdDeviation="27.9892"/>
<feComposite in2="SourceAlpha" operator="in" result="effect1_backgroundBlur_3000_1340"/>
<feBlend mode="normal" in="SourceGraphic" in2="effect1_backgroundBlur_3000_1340" result="shape"/>
</filter>
<filter id="filter2_b_3000_1340" x="-76.4228" y="371.577" width="232.846" height="232.846" filterUnits="userSpaceOnUse" color-interpolation-filters="sRGB">
<feFlood flood-opacity="0" result="BackgroundImageFix"/>
<feGaussianBlur in="BackgroundImageFix" stdDeviation="38.2114"/>
<feComposite in2="SourceAlpha" operator="in" result="effect1_backgroundBlur_3000_1340"/>
<feBlend mode="normal" in="SourceGraphic" in2="effect1_backgroundBlur_3000_1340" result="shape"/>
</filter>
<filter id="filter3_b_3000_1340" x="-45.9785" y="402.021" width="171.957" height="171.957" filterUnits="userSpaceOnUse" color-interpolation-filters="sRGB">
<feFlood flood-opacity="0" result="BackgroundImageFix"/>
<feGaussianBlur in="BackgroundImageFix" stdDeviation="27.9892"/>
<feComposite in2="SourceAlpha" operator="in" result="effect1_backgroundBlur_3000_1340"/>
<feBlend mode="normal" in="SourceGraphic" in2="effect1_backgroundBlur_3000_1340" result="shape"/>
</filter>
<filter id="filter4_b_3000_1340" x="680.577" y="699.577" width="232.846" height="232.846" filterUnits="userSpaceOnUse" color-interpolation-filters="sRGB">
<feFlood flood-opacity="0" result="BackgroundImageFix"/>
<feGaussianBlur in="BackgroundImageFix" stdDeviation="38.2114"/>
<feComposite in2="SourceAlpha" operator="in" result="effect1_backgroundBlur_3000_1340"/>
<feBlend mode="normal" in="SourceGraphic" in2="effect1_backgroundBlur_3000_1340" result="shape"/>
</filter>
<filter id="filter5_b_3000_1340" x="711.022" y="730.022" width="171.957" height="171.957" filterUnits="userSpaceOnUse" color-interpolation-filters="sRGB">
<feFlood flood-opacity="0" result="BackgroundImageFix"/>
<feGaussianBlur in="BackgroundImageFix" stdDeviation="27.9892"/>
<feComposite in2="SourceAlpha" operator="in" result="effect1_backgroundBlur_3000_1340"/>
<feBlend mode="normal" in="SourceGraphic" in2="effect1_backgroundBlur_3000_1340" result="shape"/>
</filter>
<filter id="filter6_b_3000_1340" x="819.577" y="365.577" width="232.846" height="232.846" filterUnits="userSpaceOnUse" color-interpolation-filters="sRGB">
<feFlood flood-opacity="0" result="BackgroundImageFix"/>
<feGaussianBlur in="BackgroundImageFix" stdDeviation="38.2114"/>
<feComposite in2="SourceAlpha" operator="in" result="effect1_backgroundBlur_3000_1340"/>
<feBlend mode="normal" in="SourceGraphic" in2="effect1_backgroundBlur_3000_1340" result="shape"/>
</filter>
<filter id="filter7_b_3000_1340" x="850.022" y="396.021" width="171.957" height="171.957" filterUnits="userSpaceOnUse" color-interpolation-filters="sRGB">
<feFlood flood-opacity="0" result="BackgroundImageFix"/>
<feGaussianBlur in="BackgroundImageFix" stdDeviation="27.9892"/>
<feComposite in2="SourceAlpha" operator="in" result="effect1_backgroundBlur_3000_1340"/>
<feBlend mode="normal" in="SourceGraphic" in2="effect1_backgroundBlur_3000_1340" result="shape"/>
</filter>
<filter id="filter8_b_3000_1340" x="720.577" y="86.5772" width="232.846" height="232.846" filterUnits="userSpaceOnUse" color-interpolation-filters="sRGB">
<feFlood flood-opacity="0" result="BackgroundImageFix"/>
<feGaussianBlur in="BackgroundImageFix" stdDeviation="38.2114"/>
<feComposite in2="SourceAlpha" operator="in" result="effect1_backgroundBlur_3000_1340"/>
<feBlend mode="normal" in="SourceGraphic" in2="effect1_backgroundBlur_3000_1340" result="shape"/>
</filter>
<filter id="filter9_b_3000_1340" x="751.022" y="117.021" width="171.957" height="171.957" filterUnits="userSpaceOnUse" color-interpolation-filters="sRGB">
<feFlood flood-opacity="0" result="BackgroundImageFix"/>
<feGaussianBlur in="BackgroundImageFix" stdDeviation="27.9892"/>
<feComposite in2="SourceAlpha" operator="in" result="effect1_backgroundBlur_3000_1340"/>
<feBlend mode="normal" in="SourceGraphic" in2="effect1_backgroundBlur_3000_1340" result="shape"/>
</filter>
<filter id="filter10_b_3000_1340" x="384.577" y="-76.4228" width="232.846" height="232.846" filterUnits="userSpaceOnUse" color-interpolation-filters="sRGB">
<feFlood flood-opacity="0" result="BackgroundImageFix"/>
<feGaussianBlur in="BackgroundImageFix" stdDeviation="38.2114"/>
<feComposite in2="SourceAlpha" operator="in" result="effect1_backgroundBlur_3000_1340"/>
<feBlend mode="normal" in="SourceGraphic" in2="effect1_backgroundBlur_3000_1340" result="shape"/>
</filter>
<filter id="filter11_b_3000_1340" x="415.022" y="-45.9786" width="171.957" height="171.957" filterUnits="userSpaceOnUse" color-interpolation-filters="sRGB">
<feFlood flood-opacity="0" result="BackgroundImageFix"/>
<feGaussianBlur in="BackgroundImageFix" stdDeviation="27.9892"/>
<feComposite in2="SourceAlpha" operator="in" result="effect1_backgroundBlur_3000_1340"/>
<feBlend mode="normal" in="SourceGraphic" in2="effect1_backgroundBlur_3000_1340" result="shape"/>
</filter>
<filter id="filter12_b_3000_1340" x="35.5772" y="73.5772" width="232.846" height="232.846" filterUnits="userSpaceOnUse" color-interpolation-filters="sRGB">
<feFlood flood-opacity="0" result="BackgroundImageFix"/>
<feGaussianBlur in="BackgroundImageFix" stdDeviation="38.2114"/>
<feComposite in2="SourceAlpha" operator="in" result="effect1_backgroundBlur_3000_1340"/>
<feBlend mode="normal" in="SourceGraphic" in2="effect1_backgroundBlur_3000_1340" result="shape"/>
</filter>
<filter id="filter13_b_3000_1340" x="66.0215" y="104.021" width="171.957" height="171.957" filterUnits="userSpaceOnUse" color-interpolation-filters="sRGB">
<feFlood flood-opacity="0" result="BackgroundImageFix"/>
<feGaussianBlur in="BackgroundImageFix" stdDeviation="27.9892"/>
<feComposite in2="SourceAlpha" operator="in" result="effect1_backgroundBlur_3000_1340"/>
<feBlend mode="normal" in="SourceGraphic" in2="effect1_backgroundBlur_3000_1340" result="shape"/>
</filter>
<linearGradient id="paint0_linear_3000_1340" x1="189.255" y1="791" x2="247.074" y2="809.089" gradientUnits="userSpaceOnUse">
<stop stop-color="#292D32"/>
<stop offset="1" stop-color="#7B8A98"/>
</linearGradient>
<linearGradient id="paint1_linear_3000_1340" x1="146.831" y1="837.015" x2="247.23" y2="837.015" gradientUnits="userSpaceOnUse">
<stop stop-color="#262C33"/>
<stop offset="1" stop-color="#718599" stop-opacity="0"/>
</linearGradient>
<linearGradient id="paint2_linear_3000_1340" x1="197.299" y1="795.495" x2="217.729" y2="819.301" gradientUnits="userSpaceOnUse">
<stop stop-color="#FFFF71"/>
<stop offset="0.41" stop-color="#FCFC00"/>
<stop offset="1" stop-color="#DADA03"/>
</linearGradient>
<linearGradient id="paint3_linear_3000_1340" x1="159.374" y1="835.511" x2="234.672" y2="835.511" gradientUnits="userSpaceOnUse">
<stop stop-color="#262C33"/>
<stop offset="1" stop-color="#718599" stop-opacity="0"/>
</linearGradient>
<linearGradient id="paint4_linear_3000_1340" x1="32.2554" y1="448" x2="90.0738" y2="466.089" gradientUnits="userSpaceOnUse">
<stop stop-color="#292D32"/>
<stop offset="1" stop-color="#7B8A98"/>
</linearGradient>
<linearGradient id="paint5_linear_3000_1340" x1="-10.1686" y1="494.015" x2="90.2297" y2="494.015" gradientUnits="userSpaceOnUse">
<stop stop-color="#262C33"/>
<stop offset="1" stop-color="#718599" stop-opacity="0"/>
</linearGradient>
<linearGradient id="paint6_linear_3000_1340" x1="40.2992" y1="452.495" x2="60.729" y2="476.301" gradientUnits="userSpaceOnUse">
<stop stop-color="#7DFFF9"/>
<stop offset="0.41" stop-color="#00FFF3"/>
<stop offset="1" stop-color="#00D7CC"/>
</linearGradient>
<linearGradient id="paint7_linear_3000_1340" x1="2.37354" y1="492.511" x2="77.6722" y2="492.511" gradientUnits="userSpaceOnUse">
<stop stop-color="#262C33"/>
<stop offset="1" stop-color="#718599" stop-opacity="0"/>
</linearGradient>
<linearGradient id="paint8_linear_3000_1340" x1="789.255" y1="776" x2="847.074" y2="794.089" gradientUnits="userSpaceOnUse">
<stop stop-color="#292D32"/>
<stop offset="1" stop-color="#7B8A98"/>
</linearGradient>
<linearGradient id="paint9_linear_3000_1340" x1="746.831" y1="822.015" x2="847.23" y2="822.015" gradientUnits="userSpaceOnUse">
<stop stop-color="#262C33"/>
<stop offset="1" stop-color="#718599" stop-opacity="0"/>
</linearGradient>
<linearGradient id="paint10_linear_3000_1340" x1="797.299" y1="780.495" x2="817.729" y2="804.301" gradientUnits="userSpaceOnUse">
<stop stop-color="#979493"/>
<stop offset="0.41" stop-color="#242628"/>
<stop offset="0.98" stop-color="#1C1D1F"/>
</linearGradient>
<linearGradient id="paint11_linear_3000_1340" x1="759.374" y1="820.511" x2="834.672" y2="820.511" gradientUnits="userSpaceOnUse">
<stop stop-color="#262C33"/>
<stop offset="1" stop-color="#718599" stop-opacity="0"/>
</linearGradient>
<linearGradient id="paint12_linear_3000_1340" x1="928.255" y1="442" x2="986.074" y2="460.089" gradientUnits="userSpaceOnUse">
<stop stop-color="#292D32"/>
<stop offset="1" stop-color="#7B8A98"/>
</linearGradient>
<linearGradient id="paint13_linear_3000_1340" x1="885.831" y1="488.015" x2="986.23" y2="488.015" gradientUnits="userSpaceOnUse">
<stop stop-color="#262C33"/>
<stop offset="1" stop-color="#718599" stop-opacity="0"/>
</linearGradient>
<linearGradient id="paint14_linear_3000_1340" x1="936.299" y1="446.495" x2="956.729" y2="470.301" gradientUnits="userSpaceOnUse">
<stop stop-color="#AAA5FF"/>
<stop offset="0.41" stop-color="#4B42CE"/>
<stop offset="0.98" stop-color="#4B42CE"/>
</linearGradient>
<linearGradient id="paint15_linear_3000_1340" x1="898.374" y1="486.511" x2="973.672" y2="486.511" gradientUnits="userSpaceOnUse">
<stop stop-color="#262C33"/>
<stop offset="1" stop-color="#718599" stop-opacity="0"/>
</linearGradient>
<linearGradient id="paint16_linear_3000_1340" x1="829.255" y1="163" x2="887.074" y2="181.089" gradientUnits="userSpaceOnUse">
<stop stop-color="#292D32"/>
<stop offset="1" stop-color="#7B8A98"/>
</linearGradient>
<linearGradient id="paint17_linear_3000_1340" x1="786.831" y1="209.015" x2="887.23" y2="209.015" gradientUnits="userSpaceOnUse">
<stop stop-color="#262C33"/>
<stop offset="1" stop-color="#718599" stop-opacity="0"/>
</linearGradient>
<linearGradient id="paint18_linear_3000_1340" x1="837.299" y1="167.495" x2="857.729" y2="191.301" gradientUnits="userSpaceOnUse">
<stop stop-color="#9EDEFF"/>
<stop offset="0.41" stop-color="#016DCF"/>
<stop offset="0.98" stop-color="#072B9E"/>
</linearGradient>
<linearGradient id="paint19_linear_3000_1340" x1="799.374" y1="207.511" x2="874.672" y2="207.511" gradientUnits="userSpaceOnUse">
<stop stop-color="#262C33"/>
<stop offset="1" stop-color="#718599" stop-opacity="0"/>
</linearGradient>
<linearGradient id="paint20_linear_3000_1340" x1="493.255" y1="0.000111834" x2="551.074" y2="18.0889" gradientUnits="userSpaceOnUse">
<stop stop-color="#292D32"/>
<stop offset="1" stop-color="#7B8A98"/>
</linearGradient>
<linearGradient id="paint21_linear_3000_1340" x1="450.831" y1="46.015" x2="551.23" y2="46.015" gradientUnits="userSpaceOnUse">
<stop stop-color="#262C33"/>
<stop offset="1" stop-color="#718599" stop-opacity="0"/>
</linearGradient>
<linearGradient id="paint22_linear_3000_1340" x1="501.299" y1="4.49535" x2="521.729" y2="28.3013" gradientUnits="userSpaceOnUse">
<stop stop-color="#B2F6DC"/>
<stop offset="0.41" stop-color="#06E38F"/>
<stop offset="1" stop-color="#00B46F"/>
</linearGradient>
<linearGradient id="paint23_linear_3000_1340" x1="463.374" y1="44.5112" x2="538.672" y2="44.5112" gradientUnits="userSpaceOnUse">
<stop stop-color="#262C33"/>
<stop offset="1" stop-color="#718599" stop-opacity="0"/>
</linearGradient>
<linearGradient id="paint24_linear_3000_1340" x1="144.255" y1="150" x2="202.074" y2="168.089" gradientUnits="userSpaceOnUse">
<stop stop-color="#292D32"/>
<stop offset="1" stop-color="#7B8A98"/>
</linearGradient>
<linearGradient id="paint25_linear_3000_1340" x1="101.831" y1="196.015" x2="202.23" y2="196.015" gradientUnits="userSpaceOnUse">
<stop stop-color="#262C33"/>
<stop offset="1" stop-color="#718599" stop-opacity="0"/>
</linearGradient>
<linearGradient id="paint26_linear_3000_1340" x1="152.299" y1="154.495" x2="172.729" y2="178.301" gradientUnits="userSpaceOnUse">
<stop stop-color="#DAA099"/>
<stop offset="0.41" stop-color="#DC756B"/>
<stop offset="1" stop-color="#C96C64"/>
</linearGradient>
<linearGradient id="paint27_linear_3000_1340" x1="114.374" y1="194.511" x2="189.672" y2="194.511" gradientUnits="userSpaceOnUse">
<stop stop-color="#262C33"/>
<stop offset="1" stop-color="#718599" stop-opacity="0"/>
</linearGradient>
<clipPath id="clip0_3000_1340">
<rect width="31" height="28" fill="white" transform="translate(183 817)"/>
</clipPath>
<clipPath id="clip1_3000_1340">
<rect width="28" height="32.9123" fill="white" transform="translate(922 466)"/>
</clipPath>
<clipPath id="clip2_3000_1340">
<rect width="31" height="36" fill="white" transform="translate(822 185)"/>
</clipPath>
<clipPath id="clip3_3000_1340">
<rect width="42.0714" height="41.565" fill="white" transform="translate(816.464 180.625)"/>
</clipPath>
<clipPath id="clip4_3000_1340">
<rect width="30" height="34" fill="white" transform="translate(486 23.0005)"/>
</clipPath>
</defs>
</svg>
