<svg width="966" height="762" viewBox="0 0 966 762" fill="none" xmlns="http://www.w3.org/2000/svg">
<rect width="966" height="762" fill="black"/>
<g filter="url(#filter0_b_509_518)">
<circle cx="177" cy="722" r="40" fill="url(#paint0_linear_509_518)" fill-opacity="0.4"/>
<circle cx="177" cy="722" r="39.3631" stroke="url(#paint1_linear_509_518)" stroke-width="1.27371"/>
</g>
<g filter="url(#filter1_b_509_518)">
<circle cx="177" cy="722" r="30" fill="url(#paint2_linear_509_518)"/>
<circle cx="177" cy="722" r="29.5335" stroke="url(#paint3_linear_509_518)" stroke-width="0.932974"/>
</g>
<g clip-path="url(#clip0_509_518)">
<path d="M175.294 723.637C175.182 723.472 175.216 723.326 175.258 723.185C175.385 722.767 175.517 722.35 175.648 721.932C175.79 721.477 175.932 721.022 176.078 720.57C176.193 720.217 176.245 720.181 176.595 720.183C180.076 720.184 183.557 720.184 187.037 720.19C187.229 720.19 187.35 720.152 187.412 719.928C187.515 719.558 187.662 719.2 187.779 718.833C187.954 718.29 188.125 717.743 188.29 717.196C188.396 716.849 188.486 716.497 188.589 716.148C188.633 715.998 188.696 715.854 188.739 715.704C188.825 715.396 188.732 715.274 188.424 715.274C179.59 715.274 170.758 715.274 161.925 715.277C161.699 715.277 161.473 715.309 161.238 715.327C161.219 715.16 161.328 715.089 161.42 715.017C162.353 714.291 163.288 713.567 164.222 712.843C164.911 712.311 165.598 711.777 166.288 711.248C166.428 711.142 166.582 711.09 166.764 711.09C174.369 711.096 181.975 711.099 189.581 711.089C189.959 711.089 190.249 711.201 190.539 711.432C191.301 712.038 192.076 712.623 192.846 713.217C193.031 713.359 193.219 713.496 193.402 713.639C193.606 713.799 193.634 713.967 193.546 714.213C193.411 714.591 193.292 714.977 193.167 715.359C193.002 715.863 192.831 716.364 192.673 716.87C192.554 717.246 192.453 717.629 192.341 718.009C192.233 718.375 192.125 718.743 192.008 719.107C191.922 719.374 191.76 719.572 191.509 719.699C190.881 720.014 190.258 720.341 189.636 720.666C188.959 721.019 188.284 721.375 187.607 721.727C187.394 721.838 187.172 721.929 186.959 722.042C186.876 722.086 186.808 722.163 186.717 722.237C186.78 722.325 186.815 722.405 186.875 722.451C187.628 723.035 188.384 723.612 189.139 724.192C189.395 724.388 189.645 724.595 189.911 724.774C190.122 724.914 190.148 725.09 190.078 725.313C189.894 725.9 189.714 726.488 189.533 727.076C189.358 727.642 189.186 728.209 189.01 728.775C188.857 729.262 188.699 729.746 188.544 730.231C188.478 730.438 188.428 730.654 188.338 730.849C188.286 730.962 188.184 731.078 188.077 731.135C187.44 731.481 186.796 731.812 186.152 732.143C185.277 732.594 184.394 733.028 183.526 733.495C183.203 733.668 182.881 733.74 182.524 733.739C176.327 733.735 170.129 733.736 163.933 733.736C163.833 733.736 163.731 733.736 163.631 733.736C163.247 733.732 163.192 733.633 163.315 733.263C163.446 732.869 163.545 732.464 163.663 732.065C163.747 731.785 163.84 731.511 163.926 731.233C164.057 730.806 164.183 730.376 164.315 729.949C164.396 729.692 164.493 729.439 164.571 729.18C164.675 728.833 164.766 728.481 164.864 728.131C164.932 727.892 165 727.652 165.073 727.414C165.197 727.007 165.326 726.599 165.451 726.191C165.54 725.903 165.628 725.613 165.718 725.325C165.853 724.891 165.99 724.456 166.126 724.022C166.258 723.596 166.394 723.172 166.521 722.745C166.624 722.396 166.714 722.043 166.812 721.691C166.877 721.461 166.944 721.23 167.015 721.001C167.221 720.324 167.425 719.648 167.636 718.974C167.802 718.44 167.986 717.911 168.149 717.378C168.237 717.091 168.303 716.796 168.375 716.503C168.444 716.219 168.566 716.181 168.797 716.363C169.627 717.01 170.459 717.654 171.29 718.301C171.474 718.445 171.656 718.591 171.838 718.737C172.034 718.894 172.034 718.955 171.949 719.204C171.831 719.549 171.738 719.902 171.632 720.251C171.529 720.587 171.42 720.923 171.319 721.261C171.23 721.56 171.152 721.863 171.06 722.16C170.976 722.439 170.878 722.712 170.791 722.99C170.668 723.377 170.551 723.766 170.431 724.153C170.269 724.679 170.102 725.205 169.943 725.733C169.85 726.04 169.771 726.352 169.679 726.659C169.599 726.928 169.51 727.194 169.426 727.462C169.289 727.899 169.154 728.337 169.019 728.775C168.975 728.914 168.916 729.05 168.896 729.194C168.873 729.356 168.941 729.421 169.099 729.44C169.148 729.446 169.199 729.44 169.25 729.44C174.22 729.44 179.19 729.44 184.16 729.442C184.419 729.442 184.531 729.366 184.593 729.146C184.685 728.826 184.773 728.502 184.871 728.183C184.995 727.776 185.125 727.37 185.253 726.965C185.492 726.213 185.733 725.462 185.97 724.709C186.045 724.471 186.108 724.23 186.182 723.991C186.268 723.705 186.221 723.636 185.923 723.636C184.786 723.636 183.65 723.636 182.513 723.636C180.218 723.636 177.925 723.636 175.631 723.636C175.512 723.636 175.392 723.636 175.292 723.636L175.294 723.637Z" fill="black"/>
</g>
<g filter="url(#filter2_b_509_518)">
<circle cx="40" cy="480" r="40" fill="url(#paint4_linear_509_518)" fill-opacity="0.4"/>
<circle cx="40" cy="480" r="39.3631" stroke="url(#paint5_linear_509_518)" stroke-width="1.27371"/>
</g>
<g filter="url(#filter3_b_509_518)">
<circle cx="40" cy="480" r="30" fill="url(#paint6_linear_509_518)"/>
<circle cx="40" cy="480" r="29.5335" stroke="url(#paint7_linear_509_518)" stroke-width="0.932974"/>
</g>
<path fill-rule="evenodd" clip-rule="evenodd" d="M23 490.856H26.3919C27.0651 490.103 40.4798 466.522 41 465.968C41.3224 466.367 41.5954 466.803 41.813 467.266L44.2346 471.405C45.288 473.222 46.3458 475.086 47.4342 476.868C47.8451 477.551 53.6236 487.331 53.7941 487.854H35.44C35.1559 488.226 33.7965 490.532 33.7746 490.882H59C58.9475 490.592 41.3147 460.263 41 460C40.5765 460.593 40.1967 461.216 39.8635 461.864L27.4585 483.105C26.6804 484.468 25.9592 485.644 25.1899 486.998C24.8096 487.638 23.0874 490.423 23 490.856Z" fill="white"/>
<path fill-rule="evenodd" clip-rule="evenodd" d="M25.7692 494.97L55.5385 495L53.889 492.089L30.9782 492.076C31.0997 491.559 32.9012 488.674 33.3135 487.963L38.2013 479.631C38.6006 478.954 39.026 478.244 39.4254 477.546C39.7899 476.841 40.1988 476.16 40.6495 475.505C40.9924 475.864 44.9903 482.742 45.572 483.765C46.0723 484.716 46.6304 485.636 47.2432 486.521H50.603C50.5379 486.068 46.3316 479.134 45.7369 478.081C44.9209 476.673 44.0744 475.248 43.2453 473.857C42.8112 473.117 41.0358 469.924 40.6712 469.607C40.376 469.907 30.2533 487.322 29.5023 488.597L25.7692 494.97Z" fill="white"/>
<path fill-rule="evenodd" clip-rule="evenodd" d="M41.0129 486.078H41.8468C41.3987 485.627 41.3402 485.855 41.3363 484.878C41.3363 484.308 41.3363 483.733 41.3363 483.158C41.9482 483.158 42.3067 483.274 42.2872 482.624C41.8585 482.852 41.9559 482.827 41.3402 482.827C41.3402 482.488 41.3402 482.132 41.3402 481.797C41.3354 481.633 41.3485 481.469 41.3792 481.309C41.4922 480.862 41.7689 480.775 42.0339 481.102C42.1898 481.305 42.0339 481.148 42.1742 481.363C42.3145 481.578 42.2054 481.474 42.3846 481.627L42.3067 480.61C40.8921 480.465 41.0051 481.023 41.0051 482.496C41.0051 483.695 40.9895 484.895 41.0129 486.078Z" fill="white"/>
<path fill-rule="evenodd" clip-rule="evenodd" d="M39.6154 483.176L40.3767 483.012C40.4521 483.583 40.4685 484.16 40.4257 484.734C40.4605 484.98 40.4338 485.231 40.3478 485.464C40.2618 485.698 40.119 485.909 39.9315 486.078H40.7863C40.8219 484.489 40.6572 481.806 41 480.588C40.9822 480.566 39.6465 483.133 39.6154 483.176Z" fill="white"/>
<g filter="url(#filter4_b_509_518)">
<circle cx="882" cy="579" r="40" fill="url(#paint8_linear_509_518)" fill-opacity="0.4"/>
<circle cx="882" cy="579" r="39.3631" stroke="url(#paint9_linear_509_518)" stroke-width="1.27371"/>
</g>
<g filter="url(#filter5_b_509_518)">
<circle cx="882" cy="579" r="30" fill="url(#paint10_linear_509_518)"/>
<circle cx="882" cy="579" r="29.5335" stroke="url(#paint11_linear_509_518)" stroke-width="0.932974"/>
</g>
<g clip-path="url(#clip1_509_518)">
<path d="M881.854 563.242C888.865 563.242 894.788 567.89 896.71 574.274L873.039 578.886V579.097L896.369 584.248C894.151 590.106 888.489 594.272 881.854 594.272C873.285 594.272 866.339 587.326 866.339 578.757C866.339 570.188 873.285 563.242 881.854 563.242Z" fill="#EBEB02"/>
</g>
<g filter="url(#filter6_b_509_518)">
<circle cx="926" cy="358" r="40" fill="url(#paint12_linear_509_518)" fill-opacity="0.4"/>
<circle cx="926" cy="358" r="39.3631" stroke="url(#paint13_linear_509_518)" stroke-width="1.27371"/>
</g>
<g filter="url(#filter7_b_509_518)">
<circle cx="926" cy="358" r="30" fill="url(#paint14_linear_509_518)"/>
<circle cx="926" cy="358" r="29.5335" stroke="url(#paint15_linear_509_518)" stroke-width="0.932974"/>
</g>
<g clip-path="url(#clip2_509_518)">
<path d="M912.647 374.888C912.515 374.112 912.349 373.336 912.234 372.543C912.118 371.651 912.003 370.743 911.953 369.835C911.904 368.695 912.498 367.886 913.572 367.506C913.803 367.423 914.034 367.357 914.282 367.275C916.924 366.416 919.567 365.557 922.209 364.698C923.877 364.153 925.528 363.608 927.197 363.08C928.187 362.766 928.402 362.915 928.567 363.939C928.732 365.012 928.881 366.086 929.046 367.159C929.162 367.935 929.063 368.695 928.633 369.356C928.32 369.851 927.824 370.115 927.296 370.297C925.958 370.726 924.604 371.156 923.266 371.602C920.805 372.395 918.344 373.187 915.9 373.996C915.008 374.294 914.117 374.591 913.225 374.905C913.027 374.888 912.828 374.888 912.647 374.888Z" fill="white"/>
<path d="M935.041 342.023C935.239 343.493 935.454 344.963 935.619 346.449C935.669 346.961 935.636 347.506 935.52 348.001C935.339 348.761 934.761 349.224 934.05 349.471C933.34 349.735 932.63 349.95 931.92 350.198C929.591 350.991 927.263 351.783 924.951 352.593C923.481 353.105 922.027 353.633 920.558 354.145C920.359 354.211 920.161 354.277 919.963 354.31C919.501 354.376 919.253 354.211 919.17 353.749C919.038 353.055 918.956 352.361 918.856 351.668C918.774 351.073 918.658 350.462 918.592 349.868C918.46 348.513 919.104 347.39 920.475 346.928C921.681 346.515 922.87 346.102 924.075 345.689C926.321 344.897 928.6 344.153 930.83 343.311C932.135 342.816 933.456 342.37 934.827 342.089C934.86 342.089 934.876 342.056 934.909 342.039C934.959 342.023 934.992 342.023 935.041 342.023Z" fill="white"/>
<path d="M919.781 363.377C919.781 362.436 919.781 361.527 919.781 360.619C919.797 359.579 919.797 358.555 919.83 357.514C919.847 356.738 920.26 356.209 920.937 355.896C921.218 355.764 921.515 355.681 921.812 355.582C923.778 354.938 925.743 354.31 927.708 353.683C927.807 353.65 927.906 353.633 928.005 353.6C928.022 353.633 928.038 353.65 928.038 353.666C928.022 355.631 928.005 357.597 928.005 359.546C928.005 360.388 927.51 360.817 926.816 361.065C925.858 361.412 924.884 361.709 923.91 362.023C922.654 362.436 921.399 362.849 920.128 363.261C920.029 363.294 919.913 363.327 919.781 363.377Z" fill="white"/>
</g>
<g filter="url(#filter8_b_509_518)">
<circle cx="846" cy="116" r="40" fill="url(#paint16_linear_509_518)" fill-opacity="0.4"/>
<circle cx="846" cy="116" r="39.3631" stroke="url(#paint17_linear_509_518)" stroke-width="1.27371"/>
</g>
<g filter="url(#filter9_b_509_518)">
<circle cx="846" cy="116" r="30" fill="url(#paint18_linear_509_518)"/>
<circle cx="846" cy="116" r="29.5335" stroke="url(#paint19_linear_509_518)" stroke-width="0.932974"/>
</g>
<g clip-path="url(#clip3_509_518)">
<g clip-path="url(#clip4_509_518)">
<path fill-rule="evenodd" clip-rule="evenodd" d="M836.317 118.056L834.122 116.299L834.153 130.31L832.71 130.325L832.7 113.237L836.826 116.51L836.317 118.056ZM838.111 117.534L846.393 124.11L860.234 113.202L860.27 130.3L858.72 130.315V116.354L846.403 126.133L837.705 119.171L838.111 117.534ZM848.319 107.876L849.137 103.94L846.525 105.044L849.223 102.444L845.966 99.899L849.854 101.405L851.195 97.5547L851.098 101.551L855.387 101.621L851.149 102.906L852.836 106.545L850.524 104.191L849.686 108.137C850.783 108.423 851.84 108.89 852.811 109.532L852.252 111.043C850.067 109.452 847.308 108.98 844.783 109.628L844.808 108.021C845.966 107.785 847.15 107.735 848.319 107.876ZM832.679 109.015L838.538 113.744C837.827 114.567 837.242 115.496 836.821 116.515C836.612 117.012 836.445 117.529 836.317 118.061C836.135 118.819 836.043 119.607 836.043 120.42C836.043 126.093 840.697 130.686 846.434 130.686C849.432 130.686 852.13 129.436 854.025 127.433L852.872 126.374C851.261 128.071 848.974 129.13 846.434 129.13C841.561 129.13 837.613 125.23 837.613 120.415C837.613 119.989 837.644 119.572 837.705 119.165C837.786 118.603 837.923 118.056 838.111 117.534C838.482 116.495 839.046 115.541 839.757 114.728L846.342 120.039L860.209 109.045V107.017L853.197 112.62C851.378 111.078 849.02 110.15 846.439 110.15C843.827 110.15 841.444 111.103 839.62 112.67L832.679 107.133V109.015ZM851.947 113.618C850.438 112.424 848.522 111.706 846.434 111.706C844.32 111.706 842.379 112.444 840.86 113.669L846.373 118.071L851.947 113.618Z" fill="white"/>
</g>
</g>
<g filter="url(#filter10_b_509_518)">
<circle cx="177" cy="39.9995" r="40" fill="url(#paint20_linear_509_518)" fill-opacity="0.4"/>
<circle cx="177" cy="39.9995" r="39.3631" stroke="url(#paint21_linear_509_518)" stroke-width="1.27371"/>
</g>
<g filter="url(#filter11_b_509_518)">
<circle cx="177" cy="39.9995" r="30" fill="url(#paint22_linear_509_518)"/>
<circle cx="177" cy="39.9995" r="29.5335" stroke="url(#paint23_linear_509_518)" stroke-width="0.932974"/>
</g>
<g clip-path="url(#clip5_509_518)">
<path fill-rule="evenodd" clip-rule="evenodd" d="M176.602 56.9921H177.282C177.499 56.8974 177.839 56.8579 178.056 56.7711C178.279 56.6866 178.494 56.5809 178.698 56.4554L179.935 55.7214L187.429 51.3175C188.264 50.8361 189.107 50.3468 189.912 49.8496C190.344 49.6503 190.732 49.3636 191.052 49.0069C191.373 48.6501 191.619 48.2306 191.776 47.7739C192.116 46.7479 191.961 38.2321 191.961 36.0223C191.961 33.1337 192.402 31.4448 189.958 30.0715C186.261 27.9879 182.495 25.6597 178.767 23.5525C178.333 23.315 177.874 23.1296 177.398 23H176.432C175.957 23.1356 175.5 23.329 175.07 23.5761C171.397 25.7228 167.615 28.0195 163.957 30.111C161.575 31.4684 162.031 33.2679 162.031 36.0854C162.031 38.2874 161.876 46.8032 162.232 47.8213C162.389 48.2731 162.637 48.6867 162.959 49.0359C163.281 49.385 163.671 49.6621 164.104 49.8496L171.482 54.2614C172.302 54.7507 173.137 55.2321 173.949 55.7372C174.549 56.129 175.178 56.4746 175.828 56.7711C176.06 56.8737 176.455 56.9211 176.602 56.9921Z" fill="#333333"/>
<path fill-rule="evenodd" clip-rule="evenodd" d="M175.689 51.6331C172.889 51.3055 170.305 49.938 168.429 47.7911C166.554 45.6442 165.518 42.8681 165.519 39.9919C165.517 38.3622 165.846 36.7498 166.486 35.2566L173.995 39.6368C173.995 39.6368 175.658 40.355 175.666 42.9358V51.6173L175.689 51.6331ZM167.901 32.8415L175.101 37.1902C177.421 38.595 179.022 37.1902 179.022 37.1902L186.13 32.9362C185.064 31.4917 183.685 30.3192 182.1 29.5112C180.515 28.7031 178.768 28.2816 176.996 28.2798C175.239 28.2802 173.506 28.6916 171.929 29.4824C170.353 30.2732 168.974 31.4223 167.901 32.8415ZM187.491 35.2092C188.142 36.6995 188.48 38.3128 188.481 39.9446C188.482 42.8009 187.461 45.5592 185.61 47.7013C183.758 49.8435 181.204 51.222 178.427 51.5778L178.357 42.6832C178.31 42.0771 178.44 41.4702 178.73 40.9393C179.021 40.4084 179.459 39.9771 179.989 39.6999C181.134 39.0212 184.838 36.8192 187.491 35.2408V35.2092Z" fill="#4D4D4D"/>
<path fill-rule="evenodd" clip-rule="evenodd" d="M175.689 50.5518C173.165 50.2323 170.843 48.9824 169.16 47.0376C167.476 45.0927 166.547 42.587 166.548 39.9919C166.548 38.5546 166.832 37.132 167.383 35.809L173.972 39.6526C173.972 39.6526 175.635 40.3708 175.643 42.9515V50.5518H175.689ZM168.821 33.394L175.101 37.1902C177.421 38.595 179.022 37.1902 179.022 37.1902L185.21 33.4808C184.234 32.2065 182.986 31.1761 181.562 30.4677C180.137 29.7593 178.573 29.3916 176.988 29.3926C175.415 29.3914 173.862 29.7544 172.446 30.4543C171.03 31.1543 169.788 32.1729 168.814 33.4334L168.821 33.394ZM186.609 35.7617C187.162 37.1001 187.441 38.5396 187.429 39.9919C187.431 42.5713 186.514 45.0633 184.849 47.0044C183.185 48.9455 180.886 50.2033 178.38 50.5439L178.319 42.7306C178.271 42.1244 178.401 41.5176 178.692 40.9866C178.982 40.4557 179.42 40.0244 179.95 39.7473C181.002 39.1001 184.049 37.2849 186.578 35.7853L186.609 35.7617Z" fill="#666666"/>
<path fill-rule="evenodd" clip-rule="evenodd" d="M175.689 49.4788C173.452 49.1559 171.404 48.0205 169.92 46.2808C168.437 44.5411 167.619 42.314 167.615 40.0081C167.617 38.7577 167.856 37.5195 168.319 36.3619L173.995 39.6687C173.995 39.6687 175.658 40.3869 175.666 42.9677V49.4946L175.689 49.4788ZM169.726 33.9468L175.14 37.1905C177.46 38.5954 179.061 37.1905 179.061 37.1905L184.343 34.0336C183.464 32.9195 182.351 32.0207 181.086 31.4034C179.821 30.786 178.437 30.4658 177.035 30.4663C175.642 30.4647 174.267 30.7806 173.009 31.391C171.751 32.0014 170.643 32.8907 169.765 33.9942L169.726 33.9468ZM185.666 36.3145C186.142 37.4768 186.387 38.7245 186.385 39.9844C186.384 42.2809 185.574 44.5004 184.103 46.2387C182.632 47.977 180.599 49.1185 178.373 49.4552L178.319 42.7152C178.271 42.109 178.401 41.5022 178.692 40.9712C178.982 40.4403 179.42 40.009 179.951 39.7319C180.879 39.1794 183.361 37.6957 185.666 36.3224V36.3145Z" fill="#808080"/>
<path fill-rule="evenodd" clip-rule="evenodd" d="M175.681 48.4843C173.701 48.163 171.898 47.1312 170.597 45.5745C169.295 44.0179 168.581 42.0384 168.582 39.9922C168.578 38.912 168.775 37.8409 169.162 36.8353L173.995 39.6528C173.995 39.6528 175.658 40.371 175.666 42.9518V48.4764L175.681 48.4843ZM170.561 34.4518L175.101 37.1904C177.421 38.5953 179.022 37.1904 179.022 37.1904L183.462 34.5307C182.673 33.563 181.684 32.7847 180.566 32.2513C179.449 31.7179 178.23 31.4425 176.996 31.4448C175.771 31.4445 174.561 31.7169 173.449 32.243C172.338 32.7692 171.352 33.5365 170.561 34.4913V34.4518ZM184.831 36.8195C185.217 37.8253 185.417 38.8959 185.418 39.9764C185.419 42.0144 184.71 43.9863 183.419 45.5404C182.127 47.0944 180.336 48.1294 178.365 48.4606L178.319 42.715C178.271 42.1089 178.401 41.5021 178.692 40.9711C178.982 40.4402 179.42 40.0089 179.95 39.7317C180.77 39.2424 182.789 38.0428 184.831 36.8195Z" fill="#B3B3B3"/>
<path fill-rule="evenodd" clip-rule="evenodd" d="M175.681 47.5531C173.945 47.233 172.374 46.3004 171.243 44.9184C170.112 43.5364 169.493 41.7928 169.494 39.9923C169.493 39.073 169.656 38.1612 169.974 37.301L174.011 39.6687C174.011 39.6687 175.674 40.3869 175.681 42.9677V47.5689V47.5531ZM171.35 34.9254L175.101 37.1905C177.422 38.5953 179.022 37.1905 179.022 37.1905L182.673 35.0043C181.973 34.1637 181.103 33.4872 180.124 33.0213C179.144 32.5555 178.077 32.3112 176.996 32.3052C175.928 32.305 174.872 32.5371 173.898 32.9862C172.925 33.4353 172.056 34.091 171.35 34.9096V34.9254ZM184.042 37.2931C184.359 38.1562 184.521 39.0705 184.521 39.9923C184.519 41.791 183.898 43.5319 182.768 44.912C181.637 46.2921 180.068 47.2239 178.334 47.5452V42.7309C178.287 42.1247 178.417 41.5179 178.707 40.987C178.998 40.456 179.436 40.0248 179.966 39.7476L184.042 37.2931Z" fill="#CCCCCC"/>
<path fill-rule="evenodd" clip-rule="evenodd" d="M175.674 46.511C174.217 46.1978 172.91 45.383 171.972 44.2032C171.035 43.0235 170.523 41.5506 170.523 40.0315C170.517 39.2828 170.635 38.5385 170.871 37.8295L173.964 39.6447C173.964 39.6447 175.627 40.3629 175.635 42.9437V46.511H175.674ZM172.271 35.4618L175.101 37.1745C177.422 38.5793 179.022 37.1745 179.022 37.1745L181.76 35.5329C181.153 34.8626 180.416 34.3279 179.596 33.9625C178.776 33.5972 177.891 33.409 176.996 33.4098C176.113 33.4034 175.238 33.5822 174.425 33.9352C173.612 34.2882 172.879 34.8078 172.271 35.4618ZM183.098 37.8295C183.334 38.5223 183.455 39.2506 183.454 39.9841C183.455 41.499 182.946 42.9682 182.013 44.1462C181.079 45.3241 179.778 46.1394 178.326 46.4558V42.7227C178.279 42.1166 178.409 41.5098 178.699 40.9788C178.99 40.4479 179.428 40.0166 179.958 39.7395C180.538 39.408 181.737 38.6661 183.121 37.8295H183.098Z" fill="#E6E6E6"/>
</g>
<g filter="url(#filter12_b_509_518)">
<circle cx="57" cy="215" r="40" fill="url(#paint24_linear_509_518)" fill-opacity="0.4"/>
<circle cx="57" cy="215" r="39.3631" stroke="url(#paint25_linear_509_518)" stroke-width="1.27371"/>
</g>
<g filter="url(#filter13_b_509_518)">
<circle cx="57" cy="215" r="30" fill="url(#paint26_linear_509_518)"/>
<circle cx="57" cy="215" r="29.5335" stroke="url(#paint27_linear_509_518)" stroke-width="0.932974"/>
</g>
<path d="M65.303 223.825C65.2815 223.804 65.2603 223.783 65.2385 223.763C65.2325 223.757 65.2188 223.752 65.2193 223.748C65.2369 223.66 65.1602 223.58 65.1231 223.563C65.0308 223.519 65.0842 223.389 64.9821 223.371C64.9782 223.294 64.8755 223.271 64.883 223.179C64.8861 223.144 64.8392 223.081 64.8029 223.069C64.7345 223.047 64.7518 222.994 64.7308 222.954C64.707 222.908 64.6712 222.869 64.6406 222.827C64.6209 222.799 64.6015 222.772 64.5815 222.745C64.5416 222.692 64.5014 222.638 64.4607 222.585C64.4542 222.577 64.4353 222.57 64.4363 222.566C64.4591 222.475 64.3788 222.423 64.3381 222.377C64.2696 222.3 64.258 222.184 64.1778 222.132C64.1174 222.093 64.1278 222.045 64.1055 222.001C64.0832 221.956 64.0399 221.922 64.0065 221.883C63.9901 221.864 63.9637 221.844 63.9621 221.823C63.9562 221.741 63.8787 221.709 63.8463 221.647C63.8367 221.628 63.8151 221.614 63.81 221.595C63.7882 221.514 63.7311 221.46 63.6728 221.406C63.6687 221.402 63.6609 221.399 63.6601 221.395C63.6458 221.291 63.5808 221.222 63.502 221.161C63.4916 221.153 63.4955 221.128 63.4908 221.111C63.4812 221.075 63.4916 221.04 63.4322 221.02C63.3884 221.005 63.35 220.932 63.3376 220.878C63.3197 220.8 63.2466 220.768 63.2196 220.702C63.215 220.69 63.1937 220.684 63.1911 220.673C63.1688 220.58 63.105 220.516 63.0384 220.454C63.0291 220.445 63.0283 220.427 63.0252 220.413C63.007 220.334 62.9479 220.284 62.8955 220.23C62.8862 220.22 62.8782 220.207 62.8745 220.194C62.8517 220.108 62.7747 220.057 62.7366 219.985C62.6902 219.897 62.6295 219.824 62.5764 219.744C62.5282 219.671 62.5367 219.666 62.4872 219.611C62.4621 219.583 62.461 219.535 62.4426 219.499C62.4229 219.46 62.4014 219.401 62.3711 219.394C62.3114 219.381 62.3262 219.338 62.3073 219.308C62.2713 219.251 62.2243 219.2 62.1818 219.147C62.1766 219.141 62.167 219.137 62.1637 219.131C62.1328 219.065 62.1185 218.964 62.0693 218.942C61.9793 218.903 62.0053 218.81 61.9435 218.756C61.9031 218.721 61.8297 218.668 61.8284 218.578C61.8277 218.532 61.7634 218.489 61.7281 218.444C61.7154 218.428 61.6967 218.413 61.6918 218.395C61.67 218.313 61.6213 218.253 61.5536 218.206C61.5438 218.199 61.5407 218.182 61.5344 218.169C61.5028 218.107 61.4735 218.043 61.4383 217.983C61.431 217.971 61.4017 217.971 61.383 217.965C61.376 217.861 61.3185 217.79 61.2381 217.733C61.2316 217.728 61.2223 217.718 61.2238 217.713C61.2505 217.622 61.165 217.573 61.1261 217.527C61.0613 217.451 61.0463 217.34 60.9713 217.288C60.9088 217.245 60.9143 217.194 60.8904 217.144C60.8687 217.098 60.816 217.067 60.7779 217.029C60.7686 217.02 60.7577 217.008 60.7554 216.996C60.7393 216.905 60.6838 216.844 60.6135 216.791C60.6055 216.785 60.6003 216.772 60.5993 216.761C60.5894 216.666 60.5202 216.614 60.4551 216.558C60.4492 216.553 60.4417 216.545 60.4417 216.538C60.4383 216.432 60.3701 216.372 60.2918 216.317C60.2848 216.312 60.2845 216.296 60.2835 216.284C60.2747 216.194 60.2122 216.142 60.1484 216.091C60.1422 216.086 60.1337 216.078 60.1331 216.072C60.1251 215.968 60.0554 215.906 59.9833 215.844C59.9794 215.841 59.9771 215.834 59.9763 215.829C59.9649 215.731 59.8977 215.671 59.829 215.611C59.8197 215.603 59.8189 215.585 59.8158 215.571C59.7974 215.489 59.7313 215.442 59.6825 215.382C59.6558 215.349 59.6522 215.298 59.6421 215.267C59.5928 215.218 59.5169 215.177 59.5153 215.134C59.5122 215.046 59.4526 214.983 59.4106 214.952C59.3401 214.899 59.3683 214.794 59.2745 214.76C59.2356 214.746 59.2161 214.674 59.1913 214.627C59.1718 214.591 59.1684 214.556 59.1225 214.524C59.0637 214.482 59.0411 214.389 58.9927 214.32C58.9743 214.287 58.9634 214.234 58.9359 214.223C58.8656 214.195 58.8742 214.139 58.8667 214.086C58.856 214.013 58.8332 213.936 58.9315 213.898C58.9393 213.895 58.9416 213.873 58.9429 213.859C58.952 213.77 59.0196 213.722 59.0759 213.667C59.0818 213.661 59.0938 213.653 59.0927 213.649C59.0717 213.56 59.1734 213.529 59.1832 213.455C59.2898 213.443 59.227 213.304 59.3253 213.269C59.3701 213.254 59.387 213.164 59.4202 213.11C59.4645 213.037 59.5254 212.971 59.555 212.893C59.5814 212.824 59.6641 212.795 59.6649 212.705C59.6654 212.663 59.7201 212.621 59.7502 212.579C59.7699 212.551 59.7899 212.524 59.8085 212.496C59.8428 212.443 59.8757 212.391 59.9102 212.339C59.9255 212.316 59.947 212.297 59.9592 212.272C59.9763 212.238 59.96 212.194 60.0253 212.178C60.0618 212.169 60.0854 212.098 60.1103 212.052C60.1313 212.014 60.1077 211.945 60.1858 211.947C60.1889 211.947 60.1948 211.932 60.1951 211.924C60.198 211.824 60.2656 211.767 60.3372 211.712C60.3434 211.708 60.3468 211.698 60.3501 211.691C60.3794 211.626 60.3916 211.535 60.4419 211.501C60.5049 211.459 60.4938 211.4 60.5244 211.359C60.5511 211.322 60.5824 211.269 60.612 211.253C60.6649 211.225 60.6524 211.183 60.6719 211.149C60.7012 211.097 60.7403 211.052 60.7761 211.004C60.7808 210.998 60.7945 210.997 60.7976 210.991C60.836 210.917 60.8687 210.839 60.9117 210.768C60.9438 210.715 60.9884 210.67 61.0281 210.621C61.0348 210.613 61.054 210.606 61.053 210.602C61.0302 210.513 61.1061 210.457 61.1468 210.414C61.1956 210.361 61.2187 210.315 61.2238 210.244H61.3568C61.3677 210.352 61.4248 210.426 61.5064 210.484C61.5124 210.488 61.5155 210.499 61.5168 210.508C61.5334 210.6 61.592 210.663 61.6641 210.717C61.6703 210.722 61.6747 210.732 61.6755 210.74C61.6869 210.837 61.7481 210.898 61.8235 210.95C61.831 210.955 61.8328 210.97 61.8354 210.981C61.8468 211.028 61.8393 211.071 61.9052 211.103C61.9534 211.125 61.9695 211.213 62.004 211.269C62.0348 211.318 62.0711 211.364 62.1058 211.412C62.1204 211.432 62.145 211.448 62.151 211.47C62.173 211.548 62.2233 211.602 62.2858 211.649C62.2941 211.655 62.3047 211.665 62.3057 211.674C62.3156 211.773 62.3747 211.838 62.4525 211.892C62.4649 211.901 62.4577 211.934 62.4685 211.949C62.509 212.006 62.5528 212.061 62.5958 212.116C62.6026 212.124 62.6161 212.131 62.6171 212.14C62.6303 212.24 62.6868 212.308 62.7708 212.359C62.7773 212.363 62.7765 212.381 62.7776 212.392C62.7859 212.483 62.8567 212.53 62.9129 212.588C62.936 212.613 62.9365 212.657 62.9513 212.69C62.9565 212.702 62.9741 212.708 62.9889 212.719C63.0405 212.795 63.0993 212.879 63.1551 212.964C63.1921 213.021 63.2204 213.084 63.2616 213.137C63.301 213.188 63.3202 213.252 63.3817 213.29C63.4195 213.314 63.4584 213.361 63.4651 213.403C63.4867 213.538 63.6357 213.593 63.6544 213.731C63.6598 213.772 63.7223 213.806 63.7589 213.843C63.7667 213.851 63.7812 213.858 63.7825 213.867C63.7962 213.969 63.8631 214.033 63.938 214.094C63.9507 214.104 63.9502 214.132 63.9533 214.153C63.9583 214.186 63.9564 214.212 64.0057 214.227C64.0451 214.239 64.0913 214.293 64.098 214.334C64.1151 214.436 64.1763 214.499 64.2507 214.557C64.258 214.563 64.2574 214.58 64.259 214.591C64.2717 214.677 64.3368 214.725 64.3935 214.779C64.4013 214.787 64.4107 214.797 64.412 214.807C64.4252 214.904 64.4866 214.966 64.5608 215.02C64.5667 215.024 64.5693 215.035 64.5706 215.043C64.5846 215.137 64.6419 215.201 64.7166 215.253C64.7228 215.257 64.7275 215.267 64.728 215.275C64.7363 215.375 64.8016 215.435 64.8778 215.488C64.8835 215.492 64.8861 215.504 64.8867 215.512C64.8921 215.611 64.9577 215.668 65.0313 215.721C65.0373 215.725 65.0417 215.735 65.0425 215.743C65.0497 215.841 65.113 215.9 65.1866 215.954C65.196 215.961 65.1985 215.98 65.2011 215.993C65.2167 216.08 65.2657 216.141 65.3401 216.185C65.3471 216.188 65.3567 216.199 65.3554 216.204C65.3357 216.293 65.4117 216.348 65.4526 216.394C65.5195 216.468 65.5345 216.573 65.6064 216.631C65.6867 216.696 65.6922 216.804 65.7624 216.862C65.8423 216.928 65.8501 217.035 65.918 217.097C65.9934 217.166 66.0093 217.276 66.0787 217.331C66.1378 217.378 66.142 217.43 66.1658 217.493C66.1767 217.478 66.184 217.468 66.1962 217.452C66.2102 217.497 66.2229 217.537 66.2353 217.578C66.2403 217.575 66.2452 217.572 66.2504 217.569C66.267 217.595 66.2784 217.627 66.3014 217.646C66.3629 217.695 66.3611 217.787 66.4368 217.829C66.4731 217.85 66.5086 217.898 66.5156 217.939C66.5384 218.072 66.6862 218.129 66.7035 218.267C66.7085 218.307 66.7655 218.34 66.7969 218.377C66.815 218.399 66.8298 218.424 66.8456 218.448C66.8817 218.502 66.9172 218.556 66.9537 218.61C66.9695 218.633 66.9885 218.654 67.0033 218.678C67.0377 218.733 67.0694 218.789 67.1044 218.843C67.1197 218.867 67.1427 218.885 67.158 218.909C67.193 218.964 67.2244 219.021 67.2594 219.076C67.276 219.103 67.2991 219.125 67.3164 219.151C67.3525 219.204 67.3859 219.259 67.4217 219.313C67.4357 219.334 67.4608 219.351 67.4673 219.373C67.4894 219.451 67.548 219.498 67.6011 219.551C67.6086 219.559 67.6208 219.567 67.6216 219.576C67.6327 219.676 67.6988 219.737 67.774 219.793C67.7797 219.797 67.7815 219.809 67.7818 219.817C67.7854 219.914 67.8557 219.965 67.9208 220.021C67.9304 220.029 67.9381 220.044 67.9394 220.057C67.9483 220.152 68.0131 220.205 68.0815 220.257C68.0895 220.262 68.0958 220.275 68.0968 220.285C68.1048 220.383 68.1647 220.442 68.2412 220.491C68.2487 220.496 68.2513 220.512 68.2526 220.523C68.2622 220.617 68.3275 220.671 68.395 220.724C68.4027 220.731 68.4071 220.744 68.4084 220.755C68.4209 220.848 68.4826 220.906 68.5521 220.959C68.5598 220.965 68.5637 220.979 68.565 220.99C68.5762 221.085 68.6397 221.141 68.7102 221.193C68.718 221.198 68.7227 221.212 68.7242 221.222C68.7372 221.316 68.7893 221.382 68.8686 221.43C68.8748 221.434 68.8798 221.444 68.8803 221.452C68.8883 221.55 68.9474 221.612 69.0237 221.663C69.0312 221.668 69.0314 221.684 69.0364 221.694C69.0727 221.769 69.0952 221.853 69.18 221.893C69.1847 221.895 69.1883 221.901 69.1906 221.906C69.2202 221.97 69.2347 222.07 69.2827 222.09C69.3542 222.12 69.3236 222.222 69.4063 222.224C69.4097 222.224 69.4162 222.233 69.4154 222.237C69.4001 222.324 69.4792 222.398 69.5152 222.416C69.6036 222.46 69.558 222.575 69.656 222.613C69.7034 222.631 69.7125 222.737 69.7506 222.796C69.7766 222.836 69.8261 222.856 69.8432 222.911C69.8574 222.957 69.8966 222.995 69.9204 223.03C69.9687 223.096 70.0143 223.156 70.0565 223.218C70.0928 223.272 70.124 223.328 70.159 223.383C70.1743 223.407 70.196 223.426 70.2113 223.45C70.2466 223.504 70.2795 223.56 70.3145 223.615C70.3324 223.643 70.3581 223.667 70.3708 223.696C70.3835 223.726 70.3695 223.771 70.426 223.769C70.4327 223.769 70.4462 223.801 70.4452 223.817C70.4444 223.828 70.4239 223.843 70.4102 223.846C70.3845 223.851 70.3573 223.849 70.3306 223.849C68.6944 223.849 67.0582 223.849 65.422 223.849H65.2986C65.2997 223.841 65.3004 223.833 65.3015 223.825L65.303 223.825Z" fill="white"/>
<path d="M49.0887 223.324C49.1154 223.335 49.1235 223.338 49.1315 223.342C49.1009 223.379 49.0703 223.416 49.039 223.453C49.034 223.459 48.9871 223.56 48.9814 223.572C48.9622 223.609 48.9459 223.67 48.9181 223.676C48.8302 223.696 48.8637 223.774 48.8271 223.823C48.8201 223.812 48.8137 223.802 48.816 223.805C48.7745 223.821 48.7377 223.848 48.7009 223.848C47.0528 223.85 45.4047 223.85 43.7565 223.848C43.713 223.848 43.6692 223.827 43.6119 223.813C43.6642 223.764 43.7166 223.728 43.7519 223.68C43.7923 223.624 43.8136 223.555 43.8499 223.496C43.8792 223.448 43.9188 223.407 43.9528 223.362C43.9629 223.349 43.9663 223.33 43.9764 223.317C44.0267 223.253 44.0783 223.189 44.1296 223.125C44.1348 223.118 44.1436 223.112 44.1441 223.104C44.1537 223.003 44.2255 222.946 44.2948 222.886C44.2989 222.883 44.3031 222.877 44.3036 222.871C44.3127 222.771 44.3795 222.711 44.4493 222.65C44.4664 222.635 44.4643 222.6 44.4762 222.576C44.4874 222.555 44.505 222.537 44.5208 222.518C44.5237 222.515 44.5351 222.518 44.5372 222.515C44.567 222.463 44.5927 222.409 44.6256 222.359C44.6637 222.301 44.7075 222.247 44.7495 222.192C44.7557 222.184 44.7744 222.176 44.7734 222.172C44.7513 222.082 44.8615 222.056 44.8662 221.979C44.9699 221.966 44.9115 221.83 45.0111 221.795C45.0565 221.78 45.0692 221.678 45.1037 221.619C45.1293 221.574 45.1664 221.537 45.1978 221.496C45.2177 221.469 45.2361 221.442 45.2561 221.416C45.2958 221.363 45.3354 221.311 45.3759 221.258C45.3839 221.248 45.4031 221.241 45.4039 221.231C45.4137 221.132 45.4762 221.069 45.5511 221.014C45.5584 221.009 45.5589 220.993 45.561 220.982C45.5763 220.894 45.6357 220.838 45.701 220.786C45.7106 220.778 45.7163 220.762 45.7176 220.748C45.7282 220.657 45.7969 220.608 45.8589 220.554C45.8651 220.549 45.8734 220.542 45.8739 220.535C45.8827 220.433 45.9462 220.37 46.0227 220.315C46.0284 220.311 46.0321 220.3 46.0321 220.292C46.0341 220.191 46.106 220.139 46.1744 220.085C46.1824 220.078 46.1892 220.066 46.1897 220.055C46.1933 219.956 46.2662 219.905 46.331 219.848C46.3403 219.84 46.3414 219.821 46.345 219.808C46.3662 219.726 46.4132 219.662 46.4845 219.617C46.4871 219.616 46.5298 219.503 46.534 219.497C46.5591 219.46 46.5845 219.424 46.6112 219.389C46.626 219.369 46.6403 219.344 46.6608 219.335C46.744 219.298 46.7178 219.19 46.7987 219.142C46.8485 219.112 46.8661 219.03 46.9006 218.973C46.913 218.952 46.9327 218.936 46.9483 218.918C46.9768 218.884 47.0227 218.852 47.0292 218.814C47.0421 218.735 47.0865 218.657 47.1365 218.632C47.226 218.588 47.1788 218.477 47.2713 218.435C47.3211 218.412 47.3364 218.317 47.3724 218.259C47.4004 218.212 47.4365 218.171 47.4689 218.127C47.486 218.104 47.5034 218.081 47.5205 218.058C47.562 218.002 47.6034 217.947 47.6449 217.891C47.6527 217.881 47.6672 217.871 47.6685 217.86C47.6802 217.764 47.7445 217.706 47.8168 217.653C47.8228 217.649 47.8274 217.638 47.828 217.631C47.8355 217.53 47.8961 217.468 47.976 217.417C47.9817 217.414 47.9848 217.402 47.9851 217.394C47.989 217.294 48.0608 217.241 48.1287 217.185C48.138 217.177 48.1422 217.16 48.1437 217.147C48.1538 217.056 48.2153 217.002 48.2832 216.953C48.2915 216.947 48.3001 216.935 48.3008 216.925C48.311 216.828 48.3716 216.768 48.445 216.714C48.4525 216.708 48.4546 216.693 48.4561 216.682C48.4696 216.593 48.5342 216.54 48.5961 216.486C48.6024 216.481 48.6078 216.473 48.6114 216.466C48.642 216.401 48.6578 216.322 48.7055 216.275C48.7776 216.204 48.7971 216.1 48.8645 216.038C48.9391 215.97 48.9505 215.867 49.018 215.808C49.0978 215.739 49.1087 215.628 49.1792 215.567C49.2552 215.502 49.2723 215.407 49.3317 215.342C49.3635 215.307 49.3962 215.273 49.4211 215.232C49.4359 215.207 49.4634 215.188 49.4717 215.162C49.5064 215.05 49.634 214.997 49.65 214.868C49.6552 214.827 49.7239 214.794 49.7636 214.758C49.7695 214.752 49.7781 214.745 49.7789 214.739C49.7885 214.635 49.8592 214.573 49.93 214.51C49.9464 214.495 49.9417 214.459 49.9526 214.436C49.9617 214.416 49.9788 214.399 49.9938 214.383C50.0249 214.349 50.0814 214.319 50.0843 214.284C50.091 214.202 50.132 214.132 50.187 214.101C50.2691 214.054 50.2331 213.946 50.3189 213.907C50.3552 213.89 50.391 213.843 50.4008 213.804C50.425 213.706 50.4781 213.635 50.5577 213.579C50.5647 213.574 50.5629 213.557 50.5655 213.545C50.5844 213.46 50.6394 213.402 50.7075 213.352C50.714 213.348 50.7234 213.338 50.7221 213.334C50.6967 213.242 50.7809 213.188 50.8211 213.146C50.8906 213.074 50.8955 212.967 50.9712 212.911C51.056 212.848 51.0588 212.729 51.1335 212.675C51.19 212.634 51.1903 212.589 51.2118 212.54C51.232 212.494 51.2826 212.461 51.3202 212.422C51.3311 212.411 51.3474 212.403 51.3539 212.39C51.384 212.328 51.3954 212.246 51.4431 212.207C51.5237 212.142 51.5289 212.032 51.6012 211.973C51.6811 211.908 51.6883 211.799 51.7581 211.738C51.8351 211.67 51.8641 211.579 51.9136 211.498C51.9227 211.483 51.9546 211.482 51.9766 211.475C51.9805 211.37 52.0404 211.301 52.1226 211.246C52.1306 211.241 52.1376 211.227 52.1381 211.218C52.1423 211.117 52.2185 211.07 52.2784 211.005C52.3279 210.952 52.3474 210.87 52.3803 210.801C52.3816 210.798 52.3824 210.796 52.4005 210.805C52.4443 210.741 52.4881 210.678 52.532 210.614C52.5682 210.561 52.604 210.507 52.6414 210.455C52.6489 210.445 52.666 210.44 52.6722 210.429C52.7057 210.369 52.7342 210.307 52.7715 210.25C52.7777 210.24 52.8254 210.247 52.8441 210.26C52.8685 210.277 52.8827 210.309 52.898 210.336C52.9483 210.414 52.9986 210.493 53.0725 210.609C53.0725 210.662 53.1347 210.729 53.2112 210.788C53.2177 210.793 53.226 210.801 53.2265 210.808C53.2338 210.912 53.3095 210.97 53.3732 211.039C53.3971 211.065 53.3932 211.117 53.4184 211.148C53.4362 211.177 53.449 211.225 53.4725 211.231C53.5729 211.256 53.5099 211.398 53.6131 211.418C53.6195 211.419 53.6185 211.45 53.6242 211.466C53.6507 211.541 53.695 211.602 53.7598 211.648C53.7697 211.655 53.7787 211.67 53.7792 211.682C53.7839 211.78 53.8547 211.831 53.92 211.888C53.9294 211.896 53.9307 211.913 53.9348 211.926C53.9478 211.969 53.9301 212.024 54.0043 212.04C54.0201 212.043 54.0818 212.128 54.08 212.144C54.0691 212.239 54.149 212.307 54.1886 212.334C54.2612 212.383 54.227 212.484 54.3177 212.52C54.3631 212.537 54.3701 212.637 54.4142 212.678C54.4813 212.742 54.4728 212.843 54.5539 212.903C54.6058 212.941 54.6172 213.031 54.6537 213.094C54.6794 213.138 54.7175 213.174 54.7494 213.214C54.7652 213.234 54.7821 213.254 54.7937 213.277C54.8116 213.311 54.7937 213.363 54.8622 213.37C54.8878 213.373 54.9094 213.431 54.9288 213.466C54.9669 213.535 54.9983 213.608 55.0398 213.674C55.0753 213.731 55.1217 213.782 55.1619 213.836C55.1728 213.851 55.18 213.869 55.1875 213.886C55.2044 213.923 55.1831 213.983 55.255 213.993C55.2638 213.994 55.2752 214.077 55.2614 214.114C55.2448 214.157 55.2023 214.19 55.1715 214.228C55.1525 214.251 55.1245 214.273 55.1178 214.299C55.0991 214.374 55.0359 214.411 54.9941 214.466C54.9879 214.475 54.9687 214.481 54.9695 214.486C54.9874 214.574 54.886 214.605 54.8764 214.679C54.7707 214.689 54.8318 214.825 54.7357 214.861C54.6882 214.879 54.6714 214.977 54.6402 215.039C54.6343 215.051 54.6304 215.066 54.6211 215.074C54.5609 215.13 54.5018 215.181 54.4805 215.27C54.4689 215.319 54.4207 215.359 54.3885 215.403C54.3701 215.429 54.3494 215.453 54.3317 215.478C54.2941 215.533 54.2581 215.589 54.2202 215.643C54.213 215.654 54.193 215.659 54.191 215.67C54.1723 215.765 54.1077 215.827 54.0393 215.888C54.0263 215.899 54.0263 215.926 54.0209 215.945C54.0118 215.979 54.0211 216.015 53.9633 216.027C53.9299 216.033 53.8824 216.09 53.883 216.124C53.8845 216.213 53.8202 216.284 53.7769 216.313C53.7022 216.363 53.7427 216.476 53.6424 216.501C53.6092 216.509 53.576 216.568 53.5667 216.609C53.5441 216.708 53.4653 216.765 53.415 216.844C53.3642 216.922 53.3255 217.009 53.2815 217.093C53.276 217.086 53.268 217.076 53.2651 217.072C53.2185 217.156 53.1713 217.241 53.1223 217.329C53.1168 217.321 53.1088 217.309 53.1005 217.297C53.0671 217.342 53.1117 217.436 53.0113 217.44C53.008 217.44 53.0041 217.461 53.003 217.472C52.9937 217.564 52.9299 217.617 52.8654 217.67C52.8558 217.678 52.8482 217.693 52.8472 217.706C52.8405 217.801 52.77 217.85 52.708 217.906C52.702 217.912 52.6953 217.92 52.6942 217.927C52.6818 218.025 52.6248 218.092 52.5457 218.144C52.5382 218.149 52.5371 218.165 52.5353 218.176C52.5205 218.265 52.4671 218.326 52.3945 218.374C52.3881 218.378 52.3787 218.388 52.38 218.393C52.4101 218.486 52.322 218.536 52.2823 218.582C52.2175 218.657 52.2058 218.766 52.1317 218.82C52.0464 218.883 52.0515 218.999 51.9769 219.053C51.8885 219.116 51.8968 219.234 51.8203 219.292C51.7376 219.354 51.735 219.463 51.6642 219.523C51.5851 219.59 51.5784 219.707 51.5035 219.759C51.4418 219.803 51.4485 219.854 51.4244 219.903C51.4021 219.949 51.3492 219.979 51.3095 220.016C51.3033 220.022 51.2893 220.028 51.2901 220.031C51.3075 220.118 51.2097 220.152 51.1999 220.225C51.0931 220.239 51.1607 220.392 51.0547 220.407C51.0511 220.484 50.951 220.507 50.9541 220.597C50.9554 220.636 50.8965 220.678 50.8652 220.719C50.8468 220.743 50.8289 220.767 50.811 220.792C50.7703 220.846 50.7298 220.902 50.6884 220.956C50.6819 220.965 50.6627 220.973 50.664 220.977C50.6878 221.068 50.6077 221.123 50.5662 221.165C50.4838 221.248 50.4791 221.386 50.3617 221.439C50.3529 221.443 50.3518 221.465 50.348 221.479C50.3254 221.558 50.2761 221.618 50.2111 221.665C50.2064 221.669 50.1997 221.673 50.1991 221.677C50.1895 221.783 50.125 221.851 50.0436 221.908C50.0381 221.912 50.0376 221.925 50.0371 221.933C50.0311 222.029 49.9583 222.08 49.8974 222.138C49.8911 222.144 49.8826 222.151 49.8818 222.158C49.8717 222.26 49.8056 222.323 49.7307 222.381C49.7237 222.386 49.7255 222.403 49.7237 222.414C49.7099 222.499 49.6537 222.554 49.5917 222.605C49.5855 222.61 49.5769 222.617 49.5756 222.624C49.5585 222.722 49.4934 222.787 49.4245 222.851C49.4172 222.858 49.4172 222.873 49.4149 222.885C49.3983 222.969 49.3322 223.02 49.2806 223.08C49.2681 223.095 49.2624 223.115 49.2526 223.131C49.2178 223.19 49.1836 223.249 49.1463 223.306C49.1403 223.315 49.1198 223.315 49.089 223.324L49.0887 223.324Z" fill="white"/>
<path d="M61.4784 223.509C61.4961 223.541 61.5111 223.574 61.5316 223.604C61.5715 223.662 61.6184 223.715 61.6542 223.775C61.6747 223.809 61.6832 223.853 61.6871 223.894C61.6879 223.902 61.6431 223.916 61.6179 223.924C61.6044 223.928 61.5886 223.925 61.5738 223.925C58.5677 223.925 55.5616 223.925 52.5555 223.925C52.5083 223.925 52.4609 223.923 52.4139 223.918C52.4012 223.916 52.3852 223.9 52.3805 223.888C52.3771 223.879 52.3898 223.852 52.3953 223.852C52.4523 223.852 52.4394 223.805 52.4567 223.775C52.4925 223.713 52.5415 223.66 52.5838 223.602C52.5931 223.589 52.5985 223.573 52.6035 223.558C52.6172 223.516 52.5921 223.451 52.6714 223.448C52.6766 223.448 52.6833 223.424 52.6854 223.41C52.7002 223.322 52.7595 223.266 52.8218 223.21C52.8342 223.199 52.8337 223.174 52.8404 223.155C52.8534 223.118 52.8308 223.058 52.9034 223.061C52.9078 223.061 52.9146 223.055 52.9167 223.051C52.9457 222.988 52.9732 222.925 53.0027 222.863C53.0092 222.85 53.0206 222.837 53.0325 222.828C53.0429 222.82 53.0688 222.815 53.0683 222.812C53.0564 222.727 53.1147 222.667 53.1611 222.622C53.2195 222.565 53.1977 222.458 53.2934 222.433C53.3001 222.431 53.3097 222.421 53.3097 222.414C53.3074 222.304 53.417 222.251 53.4432 222.169C53.4712 222.081 53.5645 222.032 53.5609 221.927C53.5594 221.887 53.6203 221.845 53.6522 221.804C53.6703 221.78 53.6879 221.756 53.7035 221.73C53.7224 221.699 53.7388 221.667 53.7662 221.639C53.7756 221.538 53.8386 221.471 53.9127 221.409C53.9223 221.401 53.9278 221.386 53.9319 221.374C53.9469 221.329 53.9249 221.262 54.0048 221.256C54.0087 221.256 54.0141 221.242 54.0149 221.234C54.0237 221.136 54.0833 221.072 54.1541 221.012C54.1689 221 54.1645 220.967 54.1751 220.947C54.1891 220.921 54.2096 220.899 54.2272 220.874C54.2352 220.864 54.2464 220.854 54.2518 220.842C54.2804 220.779 54.2912 220.695 54.3392 220.656C54.3944 220.611 54.3921 220.552 54.4235 220.511C54.4515 220.474 54.4847 220.442 54.5033 220.396C54.5199 220.356 54.5445 220.319 54.5658 220.281C54.5725 220.269 54.5803 220.247 54.5868 220.247C54.6472 220.25 54.6329 220.201 54.6467 220.169C54.6586 220.142 54.6809 220.118 54.6991 220.094C54.704 220.087 54.7144 220.083 54.7164 220.076C54.7281 220.037 54.7309 220.008 54.7781 219.974C54.8365 219.933 54.8474 219.828 54.8865 219.755C54.9142 219.703 54.9547 219.658 54.9897 219.61C55.0003 219.596 55.0133 219.583 55.0226 219.568C55.0467 219.529 55.0185 219.455 55.1007 219.452C55.1043 219.452 55.1084 219.427 55.1102 219.412C55.1219 219.326 55.1815 219.273 55.243 219.221C55.2474 219.218 55.2557 219.213 55.2552 219.21C55.236 219.111 55.334 219.066 55.3604 218.986C55.3799 218.928 55.4343 218.881 55.4735 218.829C55.4766 218.825 55.4877 218.822 55.4875 218.82C55.4763 218.732 55.5525 218.685 55.5847 218.618C55.6155 218.553 55.6679 218.499 55.7097 218.439C55.7187 218.426 55.7257 218.411 55.7309 218.396C55.7459 218.353 55.7286 218.29 55.803 218.285C55.8077 218.285 55.8139 218.265 55.8147 218.255C55.8204 218.159 55.8875 218.104 55.9521 218.048C55.9562 218.044 55.9601 218.039 55.9624 218.034C55.9951 217.961 56.0218 217.884 56.0617 217.815C56.0947 217.759 56.1434 217.711 56.1851 217.66C56.1903 217.653 56.2015 217.648 56.2017 217.642C56.2033 217.536 56.3135 217.481 56.3316 217.404C56.3549 217.304 56.4701 217.261 56.4568 217.147C56.4537 217.12 56.5209 217.057 56.5289 217.055C56.6222 217.026 56.5624 216.887 56.6642 216.872C56.6697 216.871 56.6725 216.846 56.6746 216.831C56.6868 216.744 56.7503 216.691 56.8066 216.633C56.8105 216.629 56.8201 216.625 56.8195 216.623C56.8071 216.53 56.9077 216.488 56.9194 216.405C56.9225 216.383 56.9479 216.364 56.9614 216.343C56.9769 216.318 56.9904 216.292 57.0148 216.249C57.0399 216.263 57.0713 216.28 57.1045 216.299C57.1027 216.302 57.1097 216.29 57.1205 216.273C57.1309 216.304 57.1369 216.332 57.1491 216.357C57.1599 216.379 57.1765 216.398 57.1924 216.417C57.1991 216.425 57.2175 216.43 57.2175 216.437C57.2188 216.546 57.3023 216.606 57.3611 216.681C57.3746 216.699 57.3731 216.727 57.3834 216.748C57.3946 216.77 57.4109 216.79 57.4265 216.81C57.4332 216.818 57.448 216.821 57.4521 216.83C57.4835 216.895 57.5097 216.962 57.5444 217.026C57.5722 217.076 57.6095 217.121 57.6406 217.174C57.6595 217.206 57.6769 217.24 57.6979 217.271C57.7371 217.329 57.7804 217.383 57.8182 217.442C57.8343 217.467 57.8395 217.498 57.8527 217.525C57.8657 217.552 57.8828 217.577 57.9108 217.598C57.9219 217.704 57.988 217.772 58.064 217.837C58.0788 217.849 58.0785 217.88 58.0852 217.902C58.0951 217.934 58.078 217.985 58.142 217.98C58.148 217.98 58.1609 217.996 58.1615 218.005C58.1664 218.109 58.2312 218.172 58.3067 218.231C58.3155 218.237 58.3118 218.259 58.317 218.272C58.3313 218.31 58.3048 218.374 58.3826 218.372C58.3873 218.372 58.3953 218.396 58.3974 218.409C58.4104 218.5 58.4718 218.556 58.5345 218.612C58.5405 218.618 58.5485 218.626 58.5483 218.632C58.5421 218.746 58.6439 218.799 58.6891 218.884C58.7025 218.909 58.7015 218.942 58.7165 218.966C58.7303 218.987 58.757 218.999 58.7837 219.019C58.7954 219.068 58.786 219.125 58.8591 219.168C58.9084 219.197 58.9198 219.29 58.9499 219.354C58.9564 219.367 58.9693 219.378 58.9818 219.388C58.9921 219.396 59.017 219.403 59.0162 219.406C58.9952 219.493 59.066 219.563 59.1088 219.592C59.1863 219.643 59.1446 219.764 59.2465 219.785C59.2514 219.786 59.2571 219.799 59.2571 219.807C59.2587 219.91 59.3292 219.969 59.3942 220.033C59.409 220.048 59.4069 220.079 59.4181 220.099C59.4326 220.125 59.4523 220.148 59.4702 220.172C59.4767 220.18 59.4902 220.188 59.4907 220.196C59.4961 220.299 59.5555 220.366 59.6333 220.423C59.6481 220.434 59.6434 220.468 59.6538 220.489C59.6672 220.515 59.6869 220.538 59.7043 220.562C59.7108 220.571 59.7248 220.578 59.7253 220.586C59.7305 220.689 59.8005 220.748 59.8695 220.81C59.8801 220.82 59.8772 220.843 59.8832 220.859C59.8964 220.895 59.8713 220.956 59.9454 220.954C59.9506 220.954 59.9597 220.971 59.9612 220.982C59.9742 221.079 60.0331 221.143 60.1054 221.202C60.1197 221.213 60.1129 221.248 60.123 221.268C60.1362 221.294 60.1559 221.317 60.1741 221.341C60.1806 221.349 60.1933 221.354 60.1974 221.364C60.2265 221.429 60.2384 221.534 60.2853 221.552C60.3828 221.592 60.3286 221.709 60.4238 221.749C60.4709 221.769 60.4839 221.869 60.5148 221.931C60.5223 221.947 60.5386 221.958 60.5521 221.97C60.5622 221.979 60.5855 221.988 60.5842 221.993C60.5625 222.082 60.6657 222.114 60.6708 222.189C60.7774 222.203 60.703 222.362 60.8165 222.372C60.8197 222.372 60.8233 222.387 60.8235 222.395C60.8248 222.495 60.8943 222.551 60.9594 222.61C60.9685 222.618 60.9664 222.638 60.9731 222.65C60.9936 222.689 60.9669 222.759 61.0462 222.76C61.0504 222.76 61.0569 222.779 61.0577 222.79C61.0644 222.885 61.131 222.941 61.1938 223C61.2049 223.01 61.2054 223.031 61.2119 223.047C61.2272 223.085 61.2034 223.15 61.2804 223.146C61.2822 223.146 61.2858 223.149 61.2861 223.152C61.2954 223.265 61.3747 223.335 61.4419 223.415C61.4613 223.438 61.4543 223.483 61.4595 223.518C61.466 223.515 61.4725 223.512 61.4789 223.509H61.4784Z" fill="white"/>
<path d="M55.8857 206.287C55.8678 206.279 55.8577 206.275 55.8432 206.268C55.86 206.26 55.8831 206.257 55.887 206.247C55.9158 206.169 55.9728 206.117 56.0353 206.069C56.0426 206.063 56.0431 206.048 56.0449 206.037C56.0599 205.949 56.118 205.894 56.1867 205.846C56.195 205.84 56.2041 205.829 56.2051 205.82C56.2147 205.72 56.2844 205.668 56.3524 205.606C56.3988 205.564 56.4138 205.489 56.4501 205.434C56.4807 205.387 56.5217 205.347 56.5574 205.304C56.5717 205.286 56.5922 205.269 56.5963 205.249C56.6132 205.167 56.6746 205.121 56.7304 205.068C56.7659 205.034 56.8227 204.991 56.8201 204.955C56.8139 204.867 56.8852 204.8 56.9199 204.781C56.9987 204.739 56.9769 204.651 57.0275 204.606C57.0887 204.667 57.1431 204.722 57.1973 204.776C57.2033 204.782 57.2108 204.789 57.2116 204.797C57.2237 204.895 57.2937 204.951 57.3635 205.007C57.3697 205.012 57.3744 205.022 57.3749 205.03C57.3814 205.129 57.4475 205.185 57.5216 205.235C57.5297 205.241 57.532 205.255 57.5369 205.264C57.5737 205.34 57.6121 205.411 57.6743 205.475C57.714 205.517 57.7817 205.564 57.785 205.65C57.7869 205.694 57.8512 205.736 57.8867 205.779C57.9012 205.796 57.9196 205.813 57.9263 205.834C57.9429 205.885 58.0153 205.972 58.0637 206.013C58.1006 206.044 58.1506 206.09 58.1496 206.128C58.1472 206.215 58.2146 206.265 58.2546 206.305C58.3233 206.374 58.3362 206.472 58.4042 206.533C58.4788 206.601 58.5369 206.674 58.5688 206.773C58.583 206.818 58.6468 206.847 58.6873 206.884C58.6953 206.891 58.7031 206.902 58.7046 206.912C58.7197 207.006 58.7788 207.065 58.8537 207.117C58.8791 207.135 58.8861 207.179 58.9045 207.218C58.9097 207.214 58.8993 207.222 58.8954 207.225C58.9393 207.281 58.9709 207.356 59.0266 207.385C59.1101 207.429 59.0767 207.535 59.1617 207.578C59.211 207.603 59.2289 207.686 59.2664 207.739C59.3035 207.791 59.3468 207.839 59.3883 207.888C59.4186 207.924 59.4741 207.957 59.4764 207.994C59.4814 208.074 59.5309 208.151 59.5752 208.169C59.6727 208.208 59.6219 208.327 59.7074 208.361C59.716 208.364 59.7103 208.404 59.7113 208.427C59.6603 208.427 59.6592 208.494 59.6481 208.497C59.5534 208.522 59.6043 208.648 59.5112 208.68C59.4718 208.694 59.4542 208.77 59.4262 208.818C59.407 208.851 59.428 208.915 59.3562 208.909C59.3517 208.909 59.3466 208.939 59.3393 208.953C59.3095 209.013 59.2807 209.074 59.2462 209.132C59.2387 209.144 59.2094 209.143 59.19 209.148C59.1848 209.253 59.1272 209.323 59.0463 209.378C59.0399 209.383 59.0329 209.391 59.0323 209.399C59.024 209.499 58.9662 209.566 58.8864 209.618C58.8822 209.621 58.8783 209.628 58.8781 209.632C58.8711 209.736 58.8112 209.804 58.728 209.856C58.7223 209.86 58.7197 209.872 58.7194 209.88C58.7142 209.98 58.6468 210.037 58.5763 210.092C58.5701 210.097 58.5644 210.106 58.5641 210.113C58.5582 210.211 58.4907 210.268 58.4249 210.327C58.4189 210.332 58.415 210.342 58.4137 210.35C58.3982 210.446 58.338 210.51 58.2634 210.564C58.2577 210.568 58.2566 210.58 58.2556 210.589C58.2426 210.684 58.1739 210.742 58.113 210.806C58.0982 210.822 58.093 210.848 58.0881 210.87C58.0809 210.903 58.0892 210.945 58.0326 210.939C58.0264 210.939 58.0158 210.954 58.0116 210.963C57.9826 211.027 57.9712 211.113 57.9224 211.151C57.8377 211.217 57.8359 211.326 57.7677 211.39C57.6922 211.46 57.673 211.569 57.6033 211.627C57.5527 211.67 57.5548 211.715 57.5294 211.757C57.5006 211.805 57.4522 211.841 57.4127 211.883C57.4037 211.892 57.393 211.902 57.3876 211.913C57.358 211.976 57.3422 212.08 57.2989 212.093C57.1944 212.124 57.265 212.262 57.155 212.282C57.1224 212.288 57.1045 212.363 57.0736 212.401C57.0607 212.417 57.0316 212.421 57.0114 212.429C56.9673 212.349 56.9287 212.279 56.8898 212.209C56.8885 212.209 56.8875 212.209 56.8862 212.209C56.8693 212.184 56.8582 212.144 56.8349 212.135C56.7449 212.101 56.7929 211.969 56.6928 211.946C56.6868 211.945 56.6827 211.926 56.6811 211.915C56.6687 211.824 56.6088 211.767 56.5424 211.714C56.5313 211.704 56.5302 211.683 56.525 211.667C56.5009 211.589 56.4592 211.525 56.3892 211.481C56.3824 211.477 56.3762 211.47 56.3729 211.463C56.3423 211.397 56.3288 211.312 56.2785 211.27C56.1973 211.202 56.1984 211.088 56.1227 211.031C56.0389 210.968 56.042 210.857 55.9694 210.798C55.8888 210.732 55.8842 210.616 55.8105 210.561C55.7514 210.517 55.7532 210.465 55.7283 210.414C55.7055 210.368 55.6544 210.336 55.6169 210.297C55.6075 210.287 55.5987 210.275 55.5956 210.262C55.5736 210.175 55.517 210.113 55.4502 210.058C55.4442 210.053 55.44 210.043 55.439 210.035C55.4273 209.938 55.3522 209.882 55.2995 209.812C55.2842 209.791 55.2803 209.762 55.2676 209.74C55.2567 209.72 55.2417 209.703 55.2269 209.686C55.2184 209.676 55.202 209.672 55.1971 209.661C55.1668 209.598 55.1536 209.498 55.1064 209.479C55.0138 209.441 55.0662 209.313 54.9677 209.297C54.9638 209.22 54.8715 209.194 54.8666 209.108C54.864 209.064 54.8059 209.022 54.773 208.979C54.7564 208.958 54.7284 208.938 54.7255 208.915C54.7152 208.835 54.6392 208.803 54.6073 208.74C54.6016 208.728 54.5796 208.723 54.5777 208.713C54.5614 208.616 54.4961 208.555 54.4297 208.492C54.3799 208.445 54.411 208.32 54.4606 208.272C54.5046 208.229 54.5381 208.17 54.5622 208.112C54.5912 208.043 54.6475 208.002 54.6967 207.954C54.7043 207.946 54.7128 207.936 54.7139 207.927C54.7242 207.829 54.7877 207.771 54.8637 207.721C54.8743 207.714 54.8723 207.689 54.8777 207.672C54.9023 207.598 54.9482 207.542 55.011 207.494C55.0493 207.464 55.0781 207.42 55.1038 207.377C55.1388 207.319 55.1536 207.243 55.2005 207.199C55.2757 207.13 55.2964 207.028 55.3625 206.962C55.4289 206.895 55.4958 206.838 55.5139 206.739C55.5194 206.709 55.5557 206.669 55.585 206.662C55.6837 206.635 55.6345 206.508 55.7278 206.471C55.7706 206.454 55.788 206.377 55.8212 206.33C55.8333 206.313 55.8582 206.305 55.886 206.287H55.8857Z" fill="white"/>
<defs>
<filter id="filter0_b_509_518" x="60.5772" y="605.577" width="232.846" height="232.846" filterUnits="userSpaceOnUse" color-interpolation-filters="sRGB">
<feFlood flood-opacity="0" result="BackgroundImageFix"/>
<feGaussianBlur in="BackgroundImageFix" stdDeviation="38.2114"/>
<feComposite in2="SourceAlpha" operator="in" result="effect1_backgroundBlur_509_518"/>
<feBlend mode="normal" in="SourceGraphic" in2="effect1_backgroundBlur_509_518" result="shape"/>
</filter>
<filter id="filter1_b_509_518" x="91.0215" y="636.021" width="171.957" height="171.957" filterUnits="userSpaceOnUse" color-interpolation-filters="sRGB">
<feFlood flood-opacity="0" result="BackgroundImageFix"/>
<feGaussianBlur in="BackgroundImageFix" stdDeviation="27.9892"/>
<feComposite in2="SourceAlpha" operator="in" result="effect1_backgroundBlur_509_518"/>
<feBlend mode="normal" in="SourceGraphic" in2="effect1_backgroundBlur_509_518" result="shape"/>
</filter>
<filter id="filter2_b_509_518" x="-76.4228" y="363.577" width="232.846" height="232.846" filterUnits="userSpaceOnUse" color-interpolation-filters="sRGB">
<feFlood flood-opacity="0" result="BackgroundImageFix"/>
<feGaussianBlur in="BackgroundImageFix" stdDeviation="38.2114"/>
<feComposite in2="SourceAlpha" operator="in" result="effect1_backgroundBlur_509_518"/>
<feBlend mode="normal" in="SourceGraphic" in2="effect1_backgroundBlur_509_518" result="shape"/>
</filter>
<filter id="filter3_b_509_518" x="-45.9785" y="394.021" width="171.957" height="171.957" filterUnits="userSpaceOnUse" color-interpolation-filters="sRGB">
<feFlood flood-opacity="0" result="BackgroundImageFix"/>
<feGaussianBlur in="BackgroundImageFix" stdDeviation="27.9892"/>
<feComposite in2="SourceAlpha" operator="in" result="effect1_backgroundBlur_509_518"/>
<feBlend mode="normal" in="SourceGraphic" in2="effect1_backgroundBlur_509_518" result="shape"/>
</filter>
<filter id="filter4_b_509_518" x="765.577" y="462.577" width="232.846" height="232.846" filterUnits="userSpaceOnUse" color-interpolation-filters="sRGB">
<feFlood flood-opacity="0" result="BackgroundImageFix"/>
<feGaussianBlur in="BackgroundImageFix" stdDeviation="38.2114"/>
<feComposite in2="SourceAlpha" operator="in" result="effect1_backgroundBlur_509_518"/>
<feBlend mode="normal" in="SourceGraphic" in2="effect1_backgroundBlur_509_518" result="shape"/>
</filter>
<filter id="filter5_b_509_518" x="796.022" y="493.021" width="171.957" height="171.957" filterUnits="userSpaceOnUse" color-interpolation-filters="sRGB">
<feFlood flood-opacity="0" result="BackgroundImageFix"/>
<feGaussianBlur in="BackgroundImageFix" stdDeviation="27.9892"/>
<feComposite in2="SourceAlpha" operator="in" result="effect1_backgroundBlur_509_518"/>
<feBlend mode="normal" in="SourceGraphic" in2="effect1_backgroundBlur_509_518" result="shape"/>
</filter>
<filter id="filter6_b_509_518" x="809.577" y="241.577" width="232.846" height="232.846" filterUnits="userSpaceOnUse" color-interpolation-filters="sRGB">
<feFlood flood-opacity="0" result="BackgroundImageFix"/>
<feGaussianBlur in="BackgroundImageFix" stdDeviation="38.2114"/>
<feComposite in2="SourceAlpha" operator="in" result="effect1_backgroundBlur_509_518"/>
<feBlend mode="normal" in="SourceGraphic" in2="effect1_backgroundBlur_509_518" result="shape"/>
</filter>
<filter id="filter7_b_509_518" x="840.022" y="272.021" width="171.957" height="171.957" filterUnits="userSpaceOnUse" color-interpolation-filters="sRGB">
<feFlood flood-opacity="0" result="BackgroundImageFix"/>
<feGaussianBlur in="BackgroundImageFix" stdDeviation="27.9892"/>
<feComposite in2="SourceAlpha" operator="in" result="effect1_backgroundBlur_509_518"/>
<feBlend mode="normal" in="SourceGraphic" in2="effect1_backgroundBlur_509_518" result="shape"/>
</filter>
<filter id="filter8_b_509_518" x="729.577" y="-0.423256" width="232.846" height="232.846" filterUnits="userSpaceOnUse" color-interpolation-filters="sRGB">
<feFlood flood-opacity="0" result="BackgroundImageFix"/>
<feGaussianBlur in="BackgroundImageFix" stdDeviation="38.2114"/>
<feComposite in2="SourceAlpha" operator="in" result="effect1_backgroundBlur_509_518"/>
<feBlend mode="normal" in="SourceGraphic" in2="effect1_backgroundBlur_509_518" result="shape"/>
</filter>
<filter id="filter9_b_509_518" x="760.022" y="30.021" width="171.957" height="171.957" filterUnits="userSpaceOnUse" color-interpolation-filters="sRGB">
<feFlood flood-opacity="0" result="BackgroundImageFix"/>
<feGaussianBlur in="BackgroundImageFix" stdDeviation="27.9892"/>
<feComposite in2="SourceAlpha" operator="in" result="effect1_backgroundBlur_509_518"/>
<feBlend mode="normal" in="SourceGraphic" in2="effect1_backgroundBlur_509_518" result="shape"/>
</filter>
<filter id="filter10_b_509_518" x="60.5772" y="-76.4233" width="232.846" height="232.846" filterUnits="userSpaceOnUse" color-interpolation-filters="sRGB">
<feFlood flood-opacity="0" result="BackgroundImageFix"/>
<feGaussianBlur in="BackgroundImageFix" stdDeviation="38.2114"/>
<feComposite in2="SourceAlpha" operator="in" result="effect1_backgroundBlur_509_518"/>
<feBlend mode="normal" in="SourceGraphic" in2="effect1_backgroundBlur_509_518" result="shape"/>
</filter>
<filter id="filter11_b_509_518" x="91.0215" y="-45.979" width="171.957" height="171.957" filterUnits="userSpaceOnUse" color-interpolation-filters="sRGB">
<feFlood flood-opacity="0" result="BackgroundImageFix"/>
<feGaussianBlur in="BackgroundImageFix" stdDeviation="27.9892"/>
<feComposite in2="SourceAlpha" operator="in" result="effect1_backgroundBlur_509_518"/>
<feBlend mode="normal" in="SourceGraphic" in2="effect1_backgroundBlur_509_518" result="shape"/>
</filter>
<filter id="filter12_b_509_518" x="-59.4228" y="98.5767" width="232.846" height="232.846" filterUnits="userSpaceOnUse" color-interpolation-filters="sRGB">
<feFlood flood-opacity="0" result="BackgroundImageFix"/>
<feGaussianBlur in="BackgroundImageFix" stdDeviation="38.2114"/>
<feComposite in2="SourceAlpha" operator="in" result="effect1_backgroundBlur_509_518"/>
<feBlend mode="normal" in="SourceGraphic" in2="effect1_backgroundBlur_509_518" result="shape"/>
</filter>
<filter id="filter13_b_509_518" x="-28.9785" y="129.021" width="171.957" height="171.957" filterUnits="userSpaceOnUse" color-interpolation-filters="sRGB">
<feFlood flood-opacity="0" result="BackgroundImageFix"/>
<feGaussianBlur in="BackgroundImageFix" stdDeviation="27.9892"/>
<feComposite in2="SourceAlpha" operator="in" result="effect1_backgroundBlur_509_518"/>
<feBlend mode="normal" in="SourceGraphic" in2="effect1_backgroundBlur_509_518" result="shape"/>
</filter>
<linearGradient id="paint0_linear_509_518" x1="169.255" y1="682" x2="227.074" y2="700.088" gradientUnits="userSpaceOnUse">
<stop stop-color="#292D32"/>
<stop offset="1" stop-color="#7B8A98"/>
</linearGradient>
<linearGradient id="paint1_linear_509_518" x1="126.831" y1="728.015" x2="227.23" y2="728.015" gradientUnits="userSpaceOnUse">
<stop stop-color="#262C33"/>
<stop offset="1" stop-color="#718599" stop-opacity="0"/>
</linearGradient>
<linearGradient id="paint2_linear_509_518" x1="177.299" y1="686.495" x2="197.729" y2="710.301" gradientUnits="userSpaceOnUse">
<stop stop-color="#FFFF71"/>
<stop offset="0.41" stop-color="#FCFC00"/>
<stop offset="1" stop-color="#DADA03"/>
</linearGradient>
<linearGradient id="paint3_linear_509_518" x1="139.374" y1="726.511" x2="214.672" y2="726.511" gradientUnits="userSpaceOnUse">
<stop stop-color="#262C33"/>
<stop offset="1" stop-color="#718599" stop-opacity="0"/>
</linearGradient>
<linearGradient id="paint4_linear_509_518" x1="32.2554" y1="440" x2="90.0738" y2="458.088" gradientUnits="userSpaceOnUse">
<stop stop-color="#292D32"/>
<stop offset="1" stop-color="#7B8A98"/>
</linearGradient>
<linearGradient id="paint5_linear_509_518" x1="-10.1686" y1="486.015" x2="90.2297" y2="486.015" gradientUnits="userSpaceOnUse">
<stop stop-color="#262C33"/>
<stop offset="1" stop-color="#718599" stop-opacity="0"/>
</linearGradient>
<linearGradient id="paint6_linear_509_518" x1="40.2992" y1="444.495" x2="60.729" y2="468.301" gradientUnits="userSpaceOnUse">
<stop stop-color="#7DFFF9"/>
<stop offset="0.41" stop-color="#00FFF3"/>
<stop offset="1" stop-color="#00D7CC"/>
</linearGradient>
<linearGradient id="paint7_linear_509_518" x1="2.37354" y1="484.511" x2="77.6722" y2="484.511" gradientUnits="userSpaceOnUse">
<stop stop-color="#262C33"/>
<stop offset="1" stop-color="#718599" stop-opacity="0"/>
</linearGradient>
<linearGradient id="paint8_linear_509_518" x1="874.255" y1="539" x2="932.074" y2="557.088" gradientUnits="userSpaceOnUse">
<stop stop-color="#292D32"/>
<stop offset="1" stop-color="#7B8A98"/>
</linearGradient>
<linearGradient id="paint9_linear_509_518" x1="831.831" y1="585.015" x2="932.23" y2="585.015" gradientUnits="userSpaceOnUse">
<stop stop-color="#262C33"/>
<stop offset="1" stop-color="#718599" stop-opacity="0"/>
</linearGradient>
<linearGradient id="paint10_linear_509_518" x1="882.299" y1="543.495" x2="902.729" y2="567.301" gradientUnits="userSpaceOnUse">
<stop stop-color="#979493"/>
<stop offset="0.41" stop-color="#242628"/>
<stop offset="0.98" stop-color="#1C1D1F"/>
</linearGradient>
<linearGradient id="paint11_linear_509_518" x1="844.374" y1="583.511" x2="919.672" y2="583.511" gradientUnits="userSpaceOnUse">
<stop stop-color="#262C33"/>
<stop offset="1" stop-color="#718599" stop-opacity="0"/>
</linearGradient>
<linearGradient id="paint12_linear_509_518" x1="918.255" y1="318" x2="976.074" y2="336.088" gradientUnits="userSpaceOnUse">
<stop stop-color="#292D32"/>
<stop offset="1" stop-color="#7B8A98"/>
</linearGradient>
<linearGradient id="paint13_linear_509_518" x1="875.831" y1="364.015" x2="976.23" y2="364.015" gradientUnits="userSpaceOnUse">
<stop stop-color="#262C33"/>
<stop offset="1" stop-color="#718599" stop-opacity="0"/>
</linearGradient>
<linearGradient id="paint14_linear_509_518" x1="926.299" y1="322.495" x2="946.729" y2="346.301" gradientUnits="userSpaceOnUse">
<stop stop-color="#AAA5FF"/>
<stop offset="0.41" stop-color="#4B42CE"/>
<stop offset="0.98" stop-color="#4B42CE"/>
</linearGradient>
<linearGradient id="paint15_linear_509_518" x1="888.374" y1="362.511" x2="963.672" y2="362.511" gradientUnits="userSpaceOnUse">
<stop stop-color="#262C33"/>
<stop offset="1" stop-color="#718599" stop-opacity="0"/>
</linearGradient>
<linearGradient id="paint16_linear_509_518" x1="838.255" y1="75.9996" x2="896.074" y2="94.0884" gradientUnits="userSpaceOnUse">
<stop stop-color="#292D32"/>
<stop offset="1" stop-color="#7B8A98"/>
</linearGradient>
<linearGradient id="paint17_linear_509_518" x1="795.831" y1="122.015" x2="896.23" y2="122.015" gradientUnits="userSpaceOnUse">
<stop stop-color="#262C33"/>
<stop offset="1" stop-color="#718599" stop-opacity="0"/>
</linearGradient>
<linearGradient id="paint18_linear_509_518" x1="846.299" y1="80.495" x2="866.729" y2="104.301" gradientUnits="userSpaceOnUse">
<stop stop-color="#9EDEFF"/>
<stop offset="0.41" stop-color="#016DCF"/>
<stop offset="0.98" stop-color="#072B9E"/>
</linearGradient>
<linearGradient id="paint19_linear_509_518" x1="808.374" y1="120.511" x2="883.672" y2="120.511" gradientUnits="userSpaceOnUse">
<stop stop-color="#262C33"/>
<stop offset="1" stop-color="#718599" stop-opacity="0"/>
</linearGradient>
<linearGradient id="paint20_linear_509_518" x1="169.255" y1="-0.000376447" x2="227.074" y2="18.0884" gradientUnits="userSpaceOnUse">
<stop stop-color="#292D32"/>
<stop offset="1" stop-color="#7B8A98"/>
</linearGradient>
<linearGradient id="paint21_linear_509_518" x1="126.831" y1="46.0145" x2="227.23" y2="46.0145" gradientUnits="userSpaceOnUse">
<stop stop-color="#262C33"/>
<stop offset="1" stop-color="#718599" stop-opacity="0"/>
</linearGradient>
<linearGradient id="paint22_linear_509_518" x1="177.299" y1="4.49499" x2="197.729" y2="28.301" gradientUnits="userSpaceOnUse">
<stop stop-color="#B2F6DC"/>
<stop offset="0.41" stop-color="#06E38F"/>
<stop offset="1" stop-color="#00B46F"/>
</linearGradient>
<linearGradient id="paint23_linear_509_518" x1="139.374" y1="44.5108" x2="214.672" y2="44.5108" gradientUnits="userSpaceOnUse">
<stop stop-color="#262C33"/>
<stop offset="1" stop-color="#718599" stop-opacity="0"/>
</linearGradient>
<linearGradient id="paint24_linear_509_518" x1="49.2554" y1="175" x2="107.074" y2="193.088" gradientUnits="userSpaceOnUse">
<stop stop-color="#292D32"/>
<stop offset="1" stop-color="#7B8A98"/>
</linearGradient>
<linearGradient id="paint25_linear_509_518" x1="6.83138" y1="221.015" x2="107.23" y2="221.015" gradientUnits="userSpaceOnUse">
<stop stop-color="#262C33"/>
<stop offset="1" stop-color="#718599" stop-opacity="0"/>
</linearGradient>
<linearGradient id="paint26_linear_509_518" x1="57.2992" y1="179.495" x2="77.729" y2="203.301" gradientUnits="userSpaceOnUse">
<stop stop-color="#DAA099"/>
<stop offset="0.41" stop-color="#DC756B"/>
<stop offset="1" stop-color="#C96C64"/>
</linearGradient>
<linearGradient id="paint27_linear_509_518" x1="19.3735" y1="219.511" x2="94.6722" y2="219.511" gradientUnits="userSpaceOnUse">
<stop stop-color="#262C33"/>
<stop offset="1" stop-color="#718599" stop-opacity="0"/>
</linearGradient>
<clipPath id="clip0_509_518">
<rect width="31" height="28" fill="white" transform="translate(163 708)"/>
</clipPath>
<clipPath id="clip1_509_518">
<rect width="32" height="32" fill="white" transform="translate(866 563)"/>
</clipPath>
<clipPath id="clip2_509_518">
<rect width="28" height="32.9123" fill="white" transform="translate(912 342)"/>
</clipPath>
<clipPath id="clip3_509_518">
<rect width="31" height="36" fill="white" transform="translate(831 97.9995)"/>
</clipPath>
<clipPath id="clip4_509_518">
<rect width="42.0714" height="41.565" fill="white" transform="translate(825.464 93.624)"/>
</clipPath>
<clipPath id="clip5_509_518">
<rect width="30" height="34" fill="white" transform="translate(162 23)"/>
</clipPath>
</defs>
</svg>
