<svg width="1210" height="941" viewBox="0 0 1210 941" fill="none" xmlns="http://www.w3.org/2000/svg">
<rect width="1210" height="941" fill="black"/>
<g filter="url(#filter0_b_509_518)">
<circle cx="120" cy="790" r="50" fill="url(#paint0_linear_509_518)" fill-opacity="0.4"/>
<circle cx="120" cy="790" r="49.3631" stroke="url(#paint1_linear_509_518)" stroke-width="1.27371"/>
</g>
<g filter="url(#filter1_b_509_518)">
<circle cx="120" cy="790" r="36.6242" fill="url(#paint2_linear_509_518)"/>
<circle cx="120" cy="790" r="36.1577" stroke="url(#paint3_linear_509_518)" stroke-width="0.932974"/>
</g>
<path d="M105.377 779.471C105.458 779.349 105.53 779.218 105.624 779.108C105.921 778.759 106.548 778.571 106.984 778.812C107.376 779.03 107.755 779.271 108.147 779.488C108.47 779.668 108.799 779.837 109.132 779.996C109.511 780.177 109.893 780.354 110.283 780.512C110.623 780.65 110.975 780.761 111.323 780.88C111.607 780.977 111.891 781.075 112.18 781.159C112.433 781.233 112.69 781.29 112.947 781.35C113.271 781.425 113.594 781.497 113.919 781.567C114.06 781.597 114.204 781.618 114.347 781.642C114.658 781.695 114.97 781.748 115.282 781.801C115.304 781.804 115.324 781.811 115.345 781.813C115.592 781.836 115.84 781.86 116.087 781.882C116.566 781.924 117.044 781.978 117.524 782.006C118.064 782.038 118.606 782.056 119.147 782.062C119.773 782.069 120.4 782.07 121.025 782.046C121.544 782.025 122.061 781.968 122.579 781.92C122.89 781.891 123.2 781.857 123.509 781.813C123.834 781.766 124.159 781.708 124.482 781.65C124.818 781.589 125.154 781.53 125.488 781.457C125.773 781.394 126.056 781.315 126.338 781.239C126.637 781.159 126.937 781.08 127.233 780.989C127.435 780.928 127.632 780.849 127.831 780.777C128.1 780.679 128.372 780.588 128.637 780.478C129.011 780.323 129.385 780.166 129.749 779.988C130.154 779.79 130.552 779.575 130.946 779.355C131.217 779.203 131.474 779.027 131.742 778.87C132.08 778.672 132.424 778.659 132.791 778.811C133.119 778.948 133.339 779.183 133.45 779.502C133.532 779.737 133.538 779.986 133.482 780.247C133.406 780.606 133.241 780.91 132.983 781.147C132.773 781.341 132.517 781.488 132.268 781.633C131.93 781.831 131.584 782.015 131.235 782.193C130.928 782.349 130.616 782.497 130.3 782.635C129.925 782.798 129.547 782.953 129.165 783.098C128.909 783.195 128.644 783.267 128.383 783.35C128.14 783.427 127.898 783.503 127.656 783.583C127.632 783.591 127.606 783.625 127.598 783.652C127.588 783.688 127.593 783.729 127.593 783.768C127.593 785.516 127.593 787.264 127.593 789.012V789.164C127.748 789.164 127.89 789.16 128.03 789.165C128.447 789.181 128.834 789.281 129.158 789.565C129.395 789.772 129.578 790.014 129.648 790.328C129.678 790.46 129.706 790.595 129.719 790.729C129.763 791.198 129.431 791.592 129.006 791.687C128.883 791.714 128.755 791.732 128.628 791.735C128.289 791.741 127.95 791.737 127.593 791.737C127.593 791.802 127.593 791.857 127.593 791.911C127.593 793.629 127.593 795.347 127.593 797.065C127.593 797.311 127.595 797.306 127.824 797.373C128.067 797.443 128.308 797.521 128.549 797.602C128.85 797.703 129.152 797.801 129.448 797.916C129.797 798.051 130.146 798.19 130.485 798.35C130.978 798.584 131.471 798.821 131.947 799.088C132.365 799.321 132.816 799.517 133.129 799.903C133.301 800.114 133.43 800.349 133.469 800.625C133.488 800.76 133.518 800.895 133.518 801.03C133.518 801.536 133.172 801.964 132.719 802.12C132.304 802.262 131.924 802.169 131.557 801.932C131.126 801.654 130.688 801.383 130.234 801.149C129.722 800.884 129.193 800.652 128.662 800.428C128.258 800.257 127.845 800.105 127.428 799.971C126.955 799.818 126.476 799.687 125.996 799.559C125.66 799.469 125.319 799.391 124.978 799.323C124.706 799.269 124.43 799.239 124.155 799.198C123.797 799.144 123.438 799.088 123.08 799.036C122.914 799.012 122.747 798.993 122.581 798.978C122.264 798.95 121.947 798.915 121.63 798.902C120.951 798.873 120.272 798.846 119.593 798.838C118.972 798.831 118.349 798.839 117.728 798.862C117.265 798.879 116.802 798.927 116.341 798.97C116 799.002 115.659 799.04 115.32 799.088C114.961 799.139 114.602 799.201 114.245 799.265C113.951 799.318 113.658 799.373 113.368 799.441C113.1 799.503 112.837 799.586 112.571 799.657C112.248 799.742 111.921 799.818 111.6 799.911C111.401 799.968 111.21 800.049 111.016 800.12C110.794 800.201 110.57 800.281 110.35 800.367C110.04 800.489 109.725 800.602 109.424 800.745C109.013 800.94 108.61 801.149 108.213 801.369C107.874 801.557 107.54 801.754 107.222 801.973C106.685 802.342 105.999 802.211 105.598 801.759C105.532 801.685 105.492 801.59 105.438 801.505C105.421 801.478 105.398 801.455 105.377 801.43C105.377 801.12 105.377 800.81 105.377 800.5C105.397 800.473 105.424 800.449 105.434 800.419C105.519 800.177 105.648 799.964 105.834 799.786C106.146 799.487 106.534 799.301 106.902 799.091C107.344 798.839 107.806 798.62 108.266 798.4C108.588 798.246 108.92 798.11 109.252 797.976C109.509 797.872 109.771 797.776 110.034 797.687C110.358 797.577 110.684 797.469 111.014 797.376C111.258 797.308 111.261 797.319 111.261 797.065C111.261 795.348 111.261 793.63 111.261 791.912C111.261 791.857 111.261 791.803 111.261 791.763C110.975 791.735 110.705 791.722 110.44 791.68C110.179 791.639 109.939 791.539 109.729 791.365C109.45 791.134 109.237 790.856 109.167 790.503C109.124 790.285 109.107 790.038 109.166 789.828C109.28 789.416 109.69 789.163 110.112 789.164C110.293 789.165 110.474 789.164 110.655 789.164C110.852 789.164 111.049 789.164 111.261 789.164C111.261 789.1 111.261 789.049 111.261 788.999C111.261 787.552 111.261 786.106 111.261 784.659C111.261 784.345 111.264 784.03 111.258 783.716C111.257 783.671 111.227 783.597 111.193 783.585C110.889 783.481 110.58 783.393 110.276 783.29C109.924 783.171 109.572 783.05 109.226 782.915C108.917 782.793 108.613 782.657 108.313 782.516C107.967 782.353 107.624 782.185 107.286 782.007C106.954 781.833 106.632 781.641 106.305 781.458C105.982 781.278 105.698 781.057 105.531 780.713C105.481 780.609 105.428 780.505 105.376 780.401C105.376 780.091 105.376 779.781 105.376 779.471L105.377 779.471ZM113.97 789.157H124.88V784.239C124.69 784.274 124.514 784.313 124.338 784.339C123.932 784.398 123.525 784.457 123.118 784.504C122.692 784.554 122.265 784.598 121.837 784.628C121.43 784.658 121.022 784.684 120.614 784.681C119.527 784.676 118.439 784.659 117.351 784.635C116.991 784.627 116.632 784.586 116.274 784.557C116.081 784.542 115.888 784.526 115.696 784.501C115.315 784.452 114.934 784.399 114.554 784.343C114.365 784.315 114.176 784.277 113.969 784.24V789.158L113.97 789.157ZM124.883 791.747H113.965C113.913 792.086 113.943 796.578 113.994 796.655C114.176 796.623 114.357 796.591 114.539 796.559C114.656 796.538 114.773 796.514 114.891 796.5C115.103 796.473 115.316 796.452 115.528 796.428C115.984 796.377 116.439 796.318 116.896 796.274C117.216 796.244 117.538 796.22 117.859 796.219C118.981 796.212 120.103 796.157 121.224 796.254C121.78 796.302 122.337 796.33 122.893 796.378C123.191 796.404 123.487 796.449 123.784 796.49C124.147 796.54 124.509 796.596 124.883 796.651V791.747L124.883 791.747Z" fill="white"/>
<g filter="url(#filter2_b_509_518)">
<circle cx="251" cy="75" r="50" fill="url(#paint4_linear_509_518)" fill-opacity="0.4"/>
<circle cx="251" cy="75" r="49.3631" stroke="url(#paint5_linear_509_518)" stroke-width="1.27371"/>
</g>
<g filter="url(#filter3_b_509_518)">
<circle cx="251" cy="75.0002" r="36.6242" fill="url(#paint6_linear_509_518)"/>
<circle cx="251" cy="75.0002" r="36.1577" stroke="url(#paint7_linear_509_518)" stroke-width="0.932974"/>
</g>
<path d="M255.9 72.2126L257.793 73.974L264.268 68.2747V59L262.281 60.5145L261.269 61.2895L260.194 62.113L259.952 62.2982C258.153 63.6735 256.114 65.2313 254.233 66.9441L253.954 67.1937C253.265 67.8071 252.485 68.5072 252.042 69.6342C251.576 70.806 251.548 72.1194 251.963 73.312C252.552 74.9355 253.797 75.918 254.895 76.785C255.132 76.9715 255.354 77.1475 255.565 77.3248C256.972 78.507 258.408 79.701 259.797 80.8529L261.429 82.2098V85.3372L251.66 77.2578L251.668 80.5416L263.933 90.8028V80.9357L263.459 80.5416L261.349 78.7894C259.963 77.6387 258.53 76.45 257.13 75.2705C256.889 75.0682 256.64 74.8764 256.398 74.6807C255.492 73.9649 254.634 73.2884 254.303 72.3755C254.112 71.8093 254.131 71.1884 254.357 70.6364C254.569 70.0952 255.012 69.7012 255.573 69.2007C255.673 69.1132 255.773 69.0256 255.873 68.938C257.673 67.2988 259.666 65.7751 261.424 64.4314L261.667 64.2462L261.764 64.1713V67.0466L255.9 72.2126Z" fill="white"/>
<path d="M250.295 72.7314L250.287 69.4477L238.018 59.1904V69.0497L238.491 69.4437C239.194 70.0295 239.897 70.6141 240.601 71.1973C241.986 72.3479 243.42 73.5366 244.819 74.7148C245.061 74.9184 245.31 75.1155 245.551 75.3059C246.459 76.0218 247.316 76.6982 247.648 77.6111C247.838 78.1774 247.819 78.7981 247.594 79.3502C247.381 79.8914 246.938 80.2854 246.378 80.7846L246.078 81.0539C244.278 82.6931 242.285 84.2168 240.526 85.5605L240.284 85.7457L240.186 85.8193V82.9427L246.055 77.7832L244.163 76.0165L237.688 81.7211V90.9932L239.675 89.4774L240.686 88.7024L241.761 87.8802L242.004 87.695C243.803 86.3197 245.841 84.7619 247.723 83.0491C247.815 82.965 247.908 82.8809 248.001 82.7995C248.689 82.1861 249.47 81.486 249.914 80.3577C250.38 79.1859 250.408 77.8725 249.993 76.6799C249.403 75.0564 248.159 74.0752 247.06 73.2082C246.824 73.0217 246.601 72.8457 246.39 72.6684C244.984 71.4862 243.548 70.2922 242.158 69.139L240.533 67.7834V64.6481L250.295 72.7314Z" fill="white"/>
<g filter="url(#filter4_b_509_518)">
<circle cx="50" cy="466" r="50" fill="url(#paint8_linear_509_518)" fill-opacity="0.4"/>
<circle cx="50" cy="466" r="49.3631" stroke="url(#paint9_linear_509_518)" stroke-width="1.27371"/>
</g>
<g filter="url(#filter5_b_509_518)">
<circle cx="50" cy="466" r="36.6242" fill="url(#paint10_linear_509_518)"/>
<circle cx="50" cy="466" r="36.1577" stroke="url(#paint11_linear_509_518)" stroke-width="0.932974"/>
</g>
<g clip-path="url(#clip0_509_518)">
<path d="M53.1625 459.185L54.1714 455.928C54.4082 455.164 55.073 454.608 55.8686 454.521C56.0585 454.501 56.243 454.487 56.4247 454.479C55.669 454.309 54.8156 454.245 53.8645 454.348C53.0702 454.435 52.404 454.991 52.1673 455.755L51.1583 459.011L59.713 461.594L59.8259 461.196L53.1625 459.183V459.185Z" fill="white"/>
<path d="M42.3535 454.23L42.5462 452.179L45.1271 452.422C46.2172 452.526 47.2922 452.289 48.2392 451.74C48.6178 451.521 48.966 451.252 49.2743 450.941L50.5916 449.617C51.5992 448.604 53.0431 448.136 54.4526 448.365C55.7878 448.581 56.966 449.295 57.7699 450.377C57.8951 450.545 58.0107 450.722 58.1154 450.905C58.6453 451.836 58.7719 452.958 58.4595 453.983C58.3122 454.469 58.1732 454.929 58.1718 454.933L58.1016 455.164L56.1291 454.57L56.1993 454.338C56.1993 454.338 56.3397 453.872 56.4884 453.383C56.6357 452.897 56.5765 452.367 56.326 451.925C56.2626 451.815 56.1938 451.709 56.1181 451.607C55.635 450.958 54.9275 450.528 54.1236 450.398C53.3666 450.275 52.593 450.527 52.052 451.069L50.7348 452.393C50.2998 452.831 49.807 453.21 49.273 453.521C47.9529 454.286 46.4526 454.616 44.933 454.473L42.3521 454.23H42.3535ZM42.9812 452.703L42.8779 453.795L44.9784 453.993C46.3975 454.126 47.7988 453.819 49.0307 453.104C49.529 452.815 49.986 452.462 50.392 452.053L51.7093 450.729C52.359 450.075 53.2909 449.774 54.2007 449.921C55.1284 450.071 55.9461 450.568 56.5049 451.32C56.5916 451.437 56.6714 451.559 56.7444 451.686C57.061 452.242 57.1353 452.911 56.9495 453.522C56.8655 453.797 56.7857 454.063 56.7306 454.245L57.7795 454.561C57.8346 454.381 57.9144 454.115 57.9984 453.841C58.2723 452.943 58.1622 451.96 57.6969 451.144C57.6019 450.978 57.4973 450.816 57.3845 450.665C56.6563 449.685 55.5882 449.036 54.3769 448.841C53.1202 448.637 51.8332 449.056 50.9344 449.958L49.6171 451.283C49.2785 451.623 48.8972 451.917 48.4829 452.158C47.4492 452.758 46.2737 453.016 45.083 452.904L42.9825 452.706L42.9812 452.703Z" fill="white"/>
<mask id="mask0_509_518" style="mask-type:luminance" maskUnits="userSpaceOnUse" x="42" y="448" width="17" height="7">
<path d="M56.7448 451.687C57.0614 452.242 57.1357 452.912 56.9499 453.523C56.8659 453.8 56.7847 454.066 56.731 454.246L57.7799 454.563C57.835 454.382 57.9148 454.118 57.9988 453.843C58.2727 452.944 58.1626 451.961 57.6973 451.145C56.9926 449.909 55.7813 449.068 54.3773 448.841C53.1206 448.637 51.8336 449.055 50.9348 449.958L49.6175 451.283C49.2789 451.623 48.8976 451.917 48.4833 452.158C47.4496 452.758 46.2741 453.015 45.0834 452.904L42.9829 452.706L42.8797 453.797L44.9802 453.996C46.3993 454.129 47.8006 453.822 49.0325 453.106C49.5308 452.817 49.9878 452.465 50.3938 452.056L51.7111 450.732C52.3608 450.078 53.2926 449.777 54.2025 449.924C55.2789 450.097 56.2066 450.742 56.7462 451.689L56.7448 451.687Z" fill="white"/>
</mask>
<g mask="url(#mask0_509_518)">
<path d="M56.1404 452.475L56.1804 452.203C56.5493 452.256 56.9236 452.431 57.2925 452.723C57.5816 452.951 57.8679 453.252 58.1459 453.615C58.6139 454.23 58.8906 454.81 58.9016 454.834L58.6525 454.953C58.6401 454.928 57.561 452.683 56.1404 452.475Z" fill="white"/>
<path d="M55.6933 451.714L55.5336 451.49C55.897 451.232 56.3251 451.145 56.8069 451.234C57.1799 451.302 57.5846 451.476 58.0099 451.75C58.7243 452.209 59.2487 452.788 59.2693 452.812L59.0643 452.997C59.0643 452.997 58.5398 452.419 57.8557 451.98C56.972 451.412 56.2439 451.323 55.6919 451.715L55.6933 451.714Z" fill="white"/>
<path d="M54.9578 450.803C55.3597 450.171 56.0383 449.823 56.9206 449.797C57.573 449.777 58.103 449.94 58.125 449.947L58.0438 450.209C58.0438 450.209 57.529 450.053 56.922 450.072C56.1278 450.097 55.5455 450.393 55.1918 450.95L54.9591 450.803H54.9578Z" fill="white"/>
<path d="M54.0186 450.382C54.1782 449.682 54.6503 449.147 55.3854 448.832C55.9305 448.598 56.4246 448.567 56.4453 448.567L56.4604 448.843C56.4604 448.843 55.9883 448.872 55.4872 449.089C54.832 449.373 54.4287 449.828 54.2883 450.444L54.0199 450.382H54.0186Z" fill="white"/>
<path d="M52.9004 450.947C52.888 450.402 52.9816 449.89 53.1785 449.427C53.3368 449.057 53.5597 448.717 53.8433 448.417C54.3251 447.906 54.811 447.692 54.8316 447.682L54.9417 447.934C54.9417 447.934 54.4792 448.14 54.0346 448.614C53.4441 449.243 53.1537 450.026 53.1743 450.942L52.899 450.947H52.9004Z" fill="white"/>
<path d="M52.2275 451.838C51.8931 451.359 51.7196 450.838 51.7127 450.293C51.7072 449.86 51.805 449.41 52.0059 448.957C52.3445 448.194 52.8525 447.689 52.8731 447.668L53.0658 447.865C53.0575 447.874 52.5689 448.362 52.2537 449.077C51.838 450.019 51.9054 450.895 52.4519 451.681L52.2262 451.839L52.2275 451.838Z" fill="white"/>
<path d="M51.023 452.577C50.8124 452.294 50.6542 451.974 50.5523 451.626C50.427 451.197 50.3857 450.722 50.4312 450.214C50.5055 449.355 50.7959 448.704 50.8083 448.676L51.0602 448.789C51.0602 448.789 50.7753 449.431 50.7051 450.245C50.6129 451.319 50.9157 452.182 51.6039 452.81L51.4181 453.014C51.2708 452.879 51.1387 452.733 51.023 452.577Z" fill="white"/>
<path d="M49.7196 453.217C49.3314 452.695 49.2516 452.119 49.2722 451.664C49.3039 450.951 49.5805 450.394 49.5916 450.371L49.8379 450.494C49.8379 450.494 49.5737 451.03 49.5475 451.685C49.5117 452.544 49.8765 453.209 50.6322 453.662L50.4904 453.898C50.1518 453.695 49.9013 453.462 49.7196 453.217Z" fill="white"/>
<path d="M46.5125 454.283C46.474 453.663 46.6763 453.192 46.8525 452.907C47.0438 452.596 47.2476 452.431 47.2558 452.424L47.4292 452.639C47.4292 452.639 47.2489 452.788 47.0824 453.062C46.8608 453.425 46.7617 453.831 46.7878 454.266L46.5125 454.283Z" fill="white"/>
<path d="M45.2476 454.325C45.1223 453.652 45.3673 453.212 45.5945 452.961C45.8395 452.691 46.1134 452.581 46.1258 452.577L46.2276 452.833C46.2276 452.833 45.9936 452.928 45.7927 453.154C45.5298 453.45 45.4375 453.827 45.5201 454.274L45.249 454.324L45.2476 454.325Z" fill="white"/>
<path d="M43.7237 454.269C44.021 452.749 44.9088 452.64 44.946 452.636L44.9749 452.91H44.9763C44.9763 452.91 44.7946 452.935 44.5881 453.115C44.3073 453.359 44.1022 453.777 43.9949 454.322L43.7237 454.27V454.269Z" fill="white"/>
<path d="M48.2296 453.845C47.9667 453.49 47.8979 453.04 48.0328 452.532C48.1415 452.123 48.3439 451.821 48.3521 451.809L48.5806 451.963C48.5806 451.963 48.3934 452.244 48.2971 452.61C48.1746 453.078 48.2503 453.468 48.5214 453.766L48.3177 453.952C48.2861 453.918 48.2572 453.882 48.2296 453.845Z" fill="white"/>
</g>
<path d="M59.713 461.595L60.5954 458.48C60.7949 457.774 60.5954 457.016 60.075 456.5C59.0303 455.466 56.9684 454.01 53.8645 454.35C53.0702 454.436 52.404 454.992 52.1673 455.756L51.1583 459.013L59.713 461.595Z" fill="white"/>
<path d="M50.5683 459.327L51.7176 455.616C52.0108 454.669 52.834 453.988 53.814 453.881C56.7569 453.558 58.8188 454.755 60.0315 455.814C60.1595 455.927 60.2861 456.044 60.4073 456.164C61.0501 456.8 61.2964 457.736 61.0501 458.609L60.037 462.186L50.5683 459.327ZM59.4093 456.525C58.3384 455.589 56.5174 454.533 53.9145 454.818C53.3088 454.884 52.7995 455.307 52.6165 455.896L51.7493 458.698L59.39 461.005L60.1416 458.351C60.2944 457.81 60.1416 457.229 59.7438 456.834C59.6364 456.728 59.5249 456.624 59.4107 456.525H59.4093Z" fill="white"/>
<path d="M50.9581 470.257H50.965H56.9375L57.583 467.049H47.3765L46.7324 470.257H50.9581Z" fill="white"/>
<path d="M46.3061 472.396L44.8649 479.605H49.0976L49.9055 475.587H55.8697L56.5139 472.396H46.3061Z" fill="white"/>
<path d="M51.2248 458.551C49.9571 458.551 48.7266 458.712 47.5511 459.013V462.907C48.7004 462.501 49.9365 462.277 51.2248 462.277C57.3171 462.277 62.2737 467.233 62.2737 473.326C62.2737 479.418 57.3171 484.375 51.2248 484.375C45.1326 484.375 40.1746 479.418 40.1746 473.326C40.1746 468.559 43.2083 464.489 47.4465 462.942L46.7183 459.253C40.7665 461.162 36.4471 466.749 36.4471 473.326C36.4471 481.473 43.0762 488.102 51.2235 488.102C59.3707 488.102 65.9998 481.473 65.9998 473.326C65.9998 465.178 59.3721 458.549 51.2235 458.549L51.2248 458.551Z" fill="white"/>
<path d="M46.1953 453.356L46.684 452.632L45.9944 452.066L52.4046 444L44.7266 449.751L44.9772 446.167L42.8987 449.491L41.2359 446.727L40.7679 450.321L35.0887 448.485L39.0721 451.953L37.8375 452.264L39.2538 453.404L33.9999 457.061L39.62 456.045L38.8602 457.828L40.3715 457.068L38.6922 463.164L42.3812 457.469L43.7342 460.19L44.0068 457.799L47.4465 462.943L46.0274 455.751L51.2938 456.279L46.1953 453.353V453.356Z" fill="white"/>
<path d="M43.6185 456.201L43.3873 458.223L42.4458 456.328L40.2132 459.773L41.2551 455.99L39.9874 456.628L40.5518 455.301L36.4568 456.041L40.1994 453.437L39.0789 452.535L40.2627 452.238L37.5469 449.873L41.2427 451.068L41.5882 448.41L42.8904 450.574L44.2531 448.392L44.0755 450.947L49.2262 447.087L45.2042 452.15L45.9255 452.742L45.3859 453.543L48.7114 455.452L45.324 455.112L46.3425 460.274L43.6185 456.201Z" fill="white"/>
</g>
<g filter="url(#filter6_b_509_518)">
<circle cx="120" cy="223" r="50" fill="url(#paint12_linear_509_518)" fill-opacity="0.4"/>
<circle cx="120" cy="223" r="49.3631" stroke="url(#paint13_linear_509_518)" stroke-width="1.27371"/>
</g>
<g filter="url(#filter7_b_509_518)">
<circle cx="120" cy="223" r="36.6242" fill="url(#paint14_linear_509_518)"/>
<circle cx="120" cy="223" r="36.1577" stroke="url(#paint15_linear_509_518)" stroke-width="0.932974"/>
</g>
<g clip-path="url(#clip1_509_518)">
<path fill-rule="evenodd" clip-rule="evenodd" d="M124.511 230.889L120.99 219.774L121.758 217.673L135.768 208.017L130.072 221.327L124.511 230.889Z" fill="#E6E7E8"/>
<path fill-rule="evenodd" clip-rule="evenodd" d="M116.489 230.937L120.01 219.821L119.24 217.721L105.232 208.065L110.928 221.375L116.489 230.937Z" fill="#E6E7E8"/>
<path fill-rule="evenodd" clip-rule="evenodd" d="M124.534 231.174L128.858 236.839L135.26 228.243L134.613 222.324L130.321 221.168L124.534 231.174Z" fill="#E6E7E8"/>
<path fill-rule="evenodd" clip-rule="evenodd" d="M116.433 231.174L112.11 236.84L105.709 228.243L106.354 222.323L110.724 221.245L116.433 231.174Z" fill="#E6E7E8"/>
<path fill-rule="evenodd" clip-rule="evenodd" d="M130.293 221.092L134.177 222.11L139.843 217.468L141 208.006L135.951 208L130.293 221.092Z" fill="#E6E7E8"/>
<path fill-rule="evenodd" clip-rule="evenodd" d="M110.707 221.14L106.822 222.157L101.157 217.516L100 208.054L105.049 208.048L110.707 221.14Z" fill="#E6E7E8"/>
<path fill-rule="evenodd" clip-rule="evenodd" d="M124.081 230.143L120.856 219.914L120.502 221.12L120.113 219.826L117.013 230.148L119.155 234.538L120.462 233.138L121.788 234.521L124.081 230.143Z" fill="#E6E7E8"/>
<path fill-rule="evenodd" clip-rule="evenodd" d="M121.937 234.537L124.57 231.426L124.147 230.404L121.937 234.537Z" fill="#E6E7E8"/>
<path fill-rule="evenodd" clip-rule="evenodd" d="M119.063 234.585L116.43 231.474L116.91 230.351L119.063 234.585Z" fill="#E6E7E8"/>
</g>
<g filter="url(#filter8_b_509_518)">
<circle cx="943" cy="50" r="50" fill="url(#paint16_linear_509_518)" fill-opacity="0.4"/>
<circle cx="943" cy="50" r="49.3631" stroke="url(#paint17_linear_509_518)" stroke-width="1.27371"/>
</g>
<g filter="url(#filter9_b_509_518)">
<circle cx="943" cy="50.0002" r="36.6242" fill="url(#paint18_linear_509_518)"/>
<circle cx="943" cy="50.0002" r="36.1577" stroke="url(#paint19_linear_509_518)" stroke-width="0.932974"/>
</g>
<g clip-path="url(#clip2_509_518)">
<path d="M943.481 44.9167C943.481 41.8065 943.481 38.6962 943.481 35.586C943.481 35.1781 943.724 34.9363 944.073 35.0177C944.182 35.0429 944.307 35.1184 944.366 35.2094C944.525 35.4526 944.655 35.7152 944.792 35.9727C944.887 36.1502 944.97 36.3332 945.063 36.5112C945.31 36.9825 945.558 37.4538 945.81 37.9224C946.105 38.4714 946.405 39.0177 946.703 39.5648C946.912 39.9474 947.125 40.3277 947.332 40.7107C947.519 41.057 947.704 41.4051 947.885 41.755C948.104 42.1776 948.31 42.6061 948.533 43.0259C948.831 43.5874 949.145 44.141 949.444 44.7024C949.656 45.1006 949.849 45.5099 950.062 45.9072C950.366 46.4723 950.686 47.0287 950.99 47.5938C951.216 48.0122 951.424 48.4399 951.646 48.8606C951.795 49.1439 951.954 49.4211 952.104 49.7035C952.28 50.0323 952.451 50.3642 952.625 50.6939C952.772 50.973 952.921 51.2517 953.069 51.5304C953.228 51.8288 953.386 52.1277 953.547 52.4252C953.787 52.8689 954.033 53.3089 954.269 53.7545C954.494 54.1799 954.705 54.6125 954.93 55.0383C955.079 55.3221 955.244 55.5975 955.395 55.8803C955.569 56.2077 955.732 56.541 955.907 56.8684C956.058 57.1512 956.222 57.4271 956.373 57.7099C956.548 58.0378 956.711 58.3716 956.885 58.7004C957.035 58.9845 957.195 59.2632 957.346 59.5469C957.521 59.8748 957.69 60.2063 957.865 60.5341C958.016 60.8165 958.175 61.0947 958.325 61.3775C958.546 61.7931 958.767 62.2093 958.979 62.63C959.07 62.8098 958.82 63.1547 958.589 63.1938C958.406 63.2246 958.252 63.1639 958.097 63.0742C956.807 62.3284 955.514 61.5867 954.222 60.8422C953.346 60.3369 952.471 59.8288 951.594 59.3243C950.712 58.8172 949.828 58.3132 948.947 57.8056C948.029 57.2772 947.113 56.7466 946.197 56.2159C945.401 55.7552 944.609 55.2857 943.807 54.8369C943.56 54.6985 943.478 54.5118 943.478 54.2465C943.481 51.1363 943.48 48.026 943.48 44.9158L943.481 44.9167Z" fill="white"/>
<path d="M942.487 44.922C942.487 47.9918 942.479 51.0616 942.498 54.1313C942.501 54.5392 942.342 54.7553 942.016 54.9356C941.447 55.2496 940.891 55.5858 940.328 55.9095C939.65 56.299 938.969 56.6834 938.291 57.0733C936.886 57.8812 935.481 58.6919 934.076 59.5002C932.573 60.3647 931.07 61.2287 929.566 62.0927C928.957 62.4426 928.349 62.7921 927.739 63.1416C927.565 63.2414 927.296 63.2124 927.16 63.0804C926.986 62.913 926.953 62.6868 927.066 62.4771C927.467 61.735 927.868 60.9933 928.265 60.2493C928.524 59.7642 928.776 59.2754 929.031 58.788C929.378 58.1245 929.722 57.4591 930.073 56.7983C930.367 56.247 930.674 55.7026 930.969 55.1517C931.258 54.6123 931.538 54.0679 931.825 53.5281C932.119 52.9781 932.421 52.4332 932.714 51.8828C933.006 51.3319 933.29 50.776 933.58 50.2233C933.721 49.9548 933.868 49.6895 934.011 49.4218C934.259 48.9574 934.506 48.4925 934.754 48.0281C934.9 47.7559 935.048 47.4855 935.193 47.2128C935.434 46.7572 935.671 46.2992 935.915 45.8444C936.131 45.4402 936.356 45.0406 936.572 44.6365C936.742 44.3173 936.901 43.9922 937.071 43.6727C937.295 43.2483 937.525 42.8266 937.752 42.4031C937.973 41.9897 938.192 41.5754 938.414 41.1625C938.588 40.8397 938.768 40.5201 938.941 40.1969C939.103 39.8943 939.26 39.5894 939.421 39.286C939.578 38.988 939.738 38.691 939.896 38.393C940.118 37.9741 940.337 37.5547 940.559 37.1358C940.715 36.842 940.873 36.5491 941.03 36.2557C941.197 35.9426 941.365 35.6294 941.531 35.3154C941.623 35.142 941.749 35.0183 941.956 35.0018C942.17 34.9848 942.325 35.0905 942.439 35.2538C942.478 35.309 942.483 35.3959 942.484 35.4685C942.489 35.7416 942.486 36.0148 942.486 36.2884C942.486 39.1664 942.486 42.044 942.486 44.922H942.487Z" fill="white"/>
<path d="M942.95 64.8895C938.259 64.8895 933.568 64.8904 928.876 64.8849C928.733 64.8849 928.582 64.8352 928.448 64.7777C928.177 64.6619 928.157 64.1501 928.425 63.9914C928.865 63.7298 929.303 63.4631 929.745 63.2047C930.291 62.886 930.841 62.5733 931.389 62.2584C932.271 61.7516 933.154 61.2472 934.034 60.7382C934.713 60.346 935.386 59.9455 936.064 59.5528C937.07 58.9706 938.079 58.3926 939.086 57.8114C940.037 57.2619 940.987 56.7088 941.94 56.1606C942.228 55.9947 942.522 55.8388 942.814 55.6792C942.967 55.5955 943.111 55.6576 943.24 55.7321C944.398 56.3975 945.554 57.066 946.709 57.736C947.58 58.2409 948.448 58.7508 949.318 59.2571C950.162 59.7482 951.006 60.2388 951.852 60.7271C952.693 61.2132 953.535 61.6965 954.377 62.1811C955.11 62.6028 955.843 63.0235 956.576 63.4447C956.865 63.6107 957.156 63.7726 957.442 63.9427C957.636 64.0586 957.717 64.3032 957.653 64.5377C957.601 64.7276 957.395 64.8757 957.163 64.8881C957.099 64.8913 957.035 64.889 956.971 64.889C952.297 64.889 947.624 64.889 942.949 64.889L942.95 64.8895Z" fill="white"/>
</g>
<g filter="url(#filter10_b_509_518)">
<circle cx="1030" cy="891" r="50" fill="url(#paint20_linear_509_518)" fill-opacity="0.4"/>
<circle cx="1030" cy="891" r="49.3631" stroke="url(#paint21_linear_509_518)" stroke-width="1.27371"/>
</g>
<g filter="url(#filter11_b_509_518)">
<circle cx="1030" cy="891" r="37.5" fill="url(#paint22_linear_509_518)"/>
<circle cx="1030" cy="891" r="37.0335" stroke="url(#paint23_linear_509_518)" stroke-width="0.932974"/>
</g>
<g clip-path="url(#clip3_509_518)">
<path fill-rule="evenodd" clip-rule="evenodd" d="M1046 891C1046 899.836 1038.84 907 1030 907C1021.16 907 1014 899.836 1014 891C1014 890.999 1014 890.999 1014 890.999C1014 892.167 1014.13 893.305 1014.36 894.401C1014.35 893.855 1014.38 893.313 1014.46 892.789L1015.89 898.32C1015.92 898.464 1015.96 898.604 1016 898.741L1015.89 898.32C1015.75 897.731 1015.67 897.066 1015.63 896.254C1015.53 894.622 1016.14 892.072 1017.15 890.674C1018.09 889.384 1020.21 888.167 1022.22 889.241C1023.29 889.809 1024.43 891.979 1023.15 896.532C1022.46 898.992 1022.13 901.762 1023.82 904.109C1025.25 906.084 1027.86 906.588 1030.12 905.973C1032.94 905.203 1034.5 902.978 1035.14 900.217C1035.6 898.256 1035.3 896.268 1034.52 894.389C1033.99 893.123 1033.4 892.199 1032.87 891.373C1032.05 890.103 1031.38 889.066 1031.35 887.373C1031.35 887.314 1031.34 887.251 1031.34 887.184C1031.33 886.226 1031.31 884.631 1030 884.756C1028.68 884.882 1028.84 886.384 1029.13 887.315C1029.41 888.217 1029.97 889.033 1030.62 889.976C1031.01 890.543 1031.43 891.155 1031.84 891.86C1032.66 893.268 1033.2 894.298 1033.32 895.87C1033.44 897.501 1032.99 899.286 1032.04 900.713C1031.16 902.036 1029.26 903.284 1027.32 902.376C1026.62 902.045 1026.19 901.434 1025.98 900.773C1025.55 899.376 1025.79 898 1026.05 896.47C1026.18 895.733 1026.31 894.96 1026.38 894.133C1026.73 889.893 1023.87 884.078 1018.37 886.77C1016.6 887.634 1015.22 889.895 1014.63 891.994C1014.56 892.253 1014.5 892.519 1014.46 892.789L1014 890.999C1014 882.163 1021.16 875 1030 875C1036.38 875 1041.89 878.734 1044.46 884.137C1044.54 884.618 1044.6 885.154 1044.63 885.777C1044.73 887.409 1044.12 889.959 1043.11 891.357C1042.17 892.647 1040.05 893.864 1038.04 892.79C1036.97 892.222 1035.83 890.052 1037.11 885.499C1037.8 883.039 1038.13 880.269 1036.43 877.922C1035.01 875.947 1032.4 875.442 1030.14 876.058C1027.32 876.828 1025.76 879.053 1025.12 881.814C1024.66 883.775 1024.96 885.762 1025.74 887.641C1026.27 888.908 1026.86 889.832 1027.39 890.658C1028.21 891.928 1028.88 892.965 1028.91 894.658C1028.91 894.717 1028.91 894.78 1028.92 894.846L1028.92 894.847C1028.93 895.805 1028.95 897.4 1030.26 897.275C1031.58 897.149 1031.42 895.647 1031.13 894.716C1030.85 893.814 1030.29 892.998 1029.64 892.055C1029.25 891.488 1028.83 890.876 1028.42 890.171C1027.6 888.763 1027.06 887.733 1026.94 886.161C1026.82 884.53 1027.27 882.745 1028.22 881.318C1029.1 879.995 1031 878.747 1032.93 879.655C1033.64 879.986 1034.07 880.597 1034.28 881.257C1034.7 882.655 1034.47 884.031 1034.21 885.561C1034.08 886.298 1033.95 887.07 1033.88 887.898C1033.53 892.137 1036.39 897.953 1041.89 895.261C1043.66 894.397 1045.04 892.136 1045.62 890.037L1044.46 884.137C1045.45 886.217 1046 888.544 1046 891Z" fill="black"/>
<path d="M1035.14 900.218C1035.6 898.256 1035.3 896.269 1034.52 894.39C1033.18 891.173 1031.41 890.166 1031.35 887.374C1031.33 886.455 1031.4 884.623 1030 884.757C1028.68 884.884 1028.84 886.386 1029.13 887.316C1029.58 888.76 1030.74 889.981 1031.84 891.862C1032.66 893.269 1033.2 894.299 1033.32 895.871C1033.44 897.503 1032.99 899.288 1032.04 900.714C1031.16 902.037 1029.26 903.286 1027.32 902.377C1026.62 902.047 1026.19 901.435 1025.98 900.775C1025.35 898.704 1026.17 896.68 1026.38 894.134C1026.73 889.895 1023.87 884.079 1018.37 886.771C1016.6 887.636 1015.22 889.896 1014.63 891.995C1014.42 892.759 1014.34 893.576 1014.36 894.402C1014.7 895.944 1015.25 897.402 1016 898.743C1015.79 898.051 1015.69 897.268 1015.63 896.256C1015.53 894.624 1016.14 892.074 1017.15 890.676C1018.09 889.386 1020.21 888.169 1022.22 889.243C1023.29 889.811 1024.43 891.981 1023.15 896.534C1022.46 898.995 1022.13 901.764 1023.82 904.111C1025.25 906.086 1027.86 906.591 1030.12 905.975C1032.94 905.204 1034.5 902.978 1035.14 900.218Z" fill="#C8D433"/>
<path d="M1045.62 890.037C1045.73 889.645 1045.81 889.238 1045.85 888.823C1045.85 888.825 1045.85 888.826 1045.85 888.828C1045.63 887.169 1045.15 885.592 1044.46 884.135C1044.54 884.617 1044.6 885.153 1044.63 885.776C1044.73 887.407 1044.12 889.958 1043.11 891.356C1042.17 892.646 1040.05 893.863 1038.04 892.788C1036.97 892.221 1035.83 890.051 1037.11 885.498C1037.8 883.037 1038.13 880.268 1036.43 877.921C1035.01 875.946 1032.39 875.441 1030.14 876.057C1027.32 876.827 1025.76 879.052 1025.11 881.812C1024.66 883.774 1024.96 885.761 1025.74 887.64C1027.08 890.858 1028.85 891.864 1028.91 894.657C1028.93 895.576 1028.86 897.407 1030.26 897.274C1031.58 897.147 1031.42 895.645 1031.13 894.715C1030.68 893.271 1029.51 892.05 1028.42 890.17C1027.6 888.762 1027.05 887.732 1026.94 886.16C1026.82 884.529 1027.26 882.744 1028.22 881.317C1029.1 879.994 1030.99 878.746 1032.93 879.654C1033.64 879.985 1034.07 880.596 1034.27 881.256C1034.91 883.327 1034.08 885.351 1033.88 887.897C1033.53 892.136 1036.39 897.952 1041.89 895.26C1043.66 894.397 1045.04 892.136 1045.62 890.037Z" fill="#C6D535"/>
</g>
<g filter="url(#filter12_b_509_518)">
<circle cx="1160" cy="655" r="50" fill="url(#paint24_linear_509_518)" fill-opacity="0.4"/>
<circle cx="1160" cy="655" r="49.3631" stroke="url(#paint25_linear_509_518)" stroke-width="1.27371"/>
</g>
<g filter="url(#filter13_b_509_518)">
<circle cx="1160" cy="655" r="36.6242" fill="url(#paint26_linear_509_518)"/>
<circle cx="1160" cy="655" r="36.1577" stroke="url(#paint27_linear_509_518)" stroke-width="0.932974"/>
</g>
<path d="M1156.23 654.84C1156.08 654.84 1155.92 654.84 1155.76 654.84C1155.25 654.84 1154.74 654.846 1154.24 654.837C1154.06 654.833 1153.92 654.886 1153.8 655.025C1153.25 655.638 1152.68 656.242 1152.12 656.848C1151.67 657.338 1151.22 657.827 1150.77 658.316C1150.75 658.327 1150.74 658.332 1150.71 658.347C1150.69 658.31 1150.66 658.275 1150.66 658.237C1150.65 658.167 1150.65 658.095 1150.65 658.024C1150.65 656.345 1150.65 654.665 1150.64 652.986C1150.64 652.831 1150.69 652.715 1150.79 652.603C1151.19 652.154 1151.59 651.701 1151.99 651.248C1152.06 651.172 1152.13 651.098 1152.2 650.966C1152.05 651.029 1151.97 651.115 1151.88 651.185C1151.42 651.566 1150.95 651.956 1150.49 652.337C1150.36 652.437 1150.29 652.561 1150.23 652.702C1150.07 653.08 1149.92 653.456 1149.76 653.833C1149.74 653.875 1149.73 653.917 1149.71 653.957C1149.68 654.018 1149.63 654.048 1149.56 654.042C1149.39 654.03 1149.22 654.022 1149.06 654.011C1148.84 653.997 1148.61 653.981 1148.39 653.97C1148.24 653.962 1148.09 653.967 1147.94 653.959C1147.67 653.945 1147.4 653.926 1147.11 653.908C1147.12 653.842 1147.13 653.79 1147.15 653.744C1147.45 653.033 1147.68 652.3 1147.85 651.543C1147.96 651.024 1148.06 650.502 1148.1 649.971C1148.12 649.688 1148.16 649.407 1148.19 649.126C1148.19 649.055 1148.19 648.983 1148.19 648.913C1148.2 648.754 1148.22 648.595 1148.23 648.436C1148.24 648.375 1148.24 648.312 1148.24 648.25C1148.24 648.028 1148.23 647.806 1148.28 647.588C1148.29 647.571 1148.29 647.552 1148.29 647.535C1148.3 647.153 1148.32 646.772 1148.33 646.391C1148.35 645.798 1148.49 645.231 1148.73 644.692C1149.12 643.838 1149.6 643.04 1150.18 642.31C1150.62 641.761 1151.14 641.29 1151.69 640.851C1152.28 640.378 1152.91 639.96 1153.57 639.595C1154.75 638.946 1156 638.454 1157.31 638.167C1157.76 638.069 1158.22 637.996 1158.67 637.933C1158.87 637.905 1159.08 637.896 1159.28 637.892C1159.64 637.884 1159.99 637.884 1160.35 637.886C1160.93 637.888 1161.5 637.963 1162.06 638.078C1162.77 638.221 1163.46 638.426 1164.12 638.704C1164.72 638.955 1165.3 639.247 1165.85 639.585C1166.53 639.998 1167.16 640.469 1167.75 641C1168.13 641.346 1168.49 641.712 1168.81 642.119C1168.89 642.216 1168.95 642.322 1169.02 642.428C1169.03 642.452 1169.02 642.492 1169.02 642.542C1168.9 642.491 1168.82 642.426 1168.74 642.362C1168.22 641.958 1167.69 641.562 1167.14 641.205C1165.93 640.421 1164.64 639.833 1163.23 639.518C1162.74 639.41 1162.25 639.327 1161.76 639.299C1161.54 639.287 1161.33 639.26 1161.12 639.273C1160.83 639.292 1160.54 639.328 1160.25 639.349C1159.7 639.389 1159.16 639.496 1158.62 639.612C1157.89 639.771 1157.19 639.999 1156.5 640.281C1155.2 640.81 1154.02 641.523 1152.96 642.43C1152.43 642.883 1151.98 643.404 1151.67 644.042C1151.45 644.508 1151.29 644.995 1151.22 645.51C1151.19 645.791 1151.14 646.071 1151.15 646.355C1151.15 646.416 1151.16 646.477 1151.16 646.554C1151.22 646.55 1151.27 646.554 1151.32 646.541C1152.11 646.323 1152.89 646.105 1153.68 645.884C1153.85 645.834 1154.03 645.78 1154.2 645.728C1154.26 645.795 1154.22 645.843 1154.2 645.882C1154.01 646.22 1153.8 646.536 1153.55 646.825C1153.15 647.283 1152.7 647.678 1152.16 647.978C1152.1 648.016 1152.03 648.062 1151.95 648.11C1152.11 648.138 1152.12 648.137 1152.48 647.996C1152.65 647.927 1152.82 647.855 1152.99 647.77C1153.14 647.688 1153.3 647.597 1153.44 647.493C1153.59 647.385 1153.72 647.256 1153.88 647.124C1154.02 647.281 1154.16 647.43 1154.29 647.583C1154.67 648.018 1155.05 648.456 1155.42 648.892C1155.86 649.395 1156.3 649.897 1156.73 650.401C1157.1 650.823 1157.47 651.246 1157.83 651.668C1158.27 652.178 1158.72 652.687 1159.16 653.197C1159.29 653.352 1159.43 653.506 1159.56 653.664C1159.64 653.762 1159.73 653.808 1159.86 653.794C1159.89 653.79 1159.93 653.794 1159.96 653.794C1162.5 653.794 1165.03 653.792 1167.56 653.797C1167.76 653.797 1167.93 653.755 1168.1 653.666C1168.71 653.347 1169.26 652.954 1169.75 652.471C1170.51 651.723 1171.08 650.853 1171.43 649.843C1171.59 649.372 1171.7 648.887 1171.75 648.395C1171.8 648.017 1171.83 647.635 1171.81 647.253C1171.8 647.191 1171.79 647.13 1171.79 647.068C1171.78 646.928 1171.77 646.788 1171.75 646.613C1171.81 646.644 1171.85 646.652 1171.87 646.674C1172.27 647.11 1172.59 647.598 1172.8 648.15C1172.99 648.616 1173.08 649.1 1173.1 649.602C1173.12 650.4 1172.94 651.151 1172.61 651.871C1172.34 652.462 1172.02 653.025 1171.6 653.524C1171.04 654.182 1170.39 654.723 1169.62 655.115C1169.47 655.191 1169.31 655.258 1169.16 655.332C1169.13 655.347 1169.11 655.368 1169.06 655.397C1169.23 655.608 1169.44 655.751 1169.63 655.922C1169.81 656.09 1170 656.248 1170.19 656.411C1170.38 656.581 1170.58 656.751 1170.77 656.925C1170.76 657.152 1170.69 657.363 1170.65 657.578C1170.54 658.133 1170.43 658.689 1170.31 659.244C1170.21 659.721 1170.11 660.196 1170.01 660.672C1169.98 660.817 1170.01 660.951 1170.07 661.086C1170.31 661.641 1170.54 662.199 1170.77 662.756C1171.24 663.886 1171.71 665.016 1172.18 666.146C1172.23 666.271 1172.25 666.392 1172.24 666.532C1172.2 666.787 1172.2 667.045 1172.18 667.302C1172.15 667.566 1172.12 667.83 1172.09 668.093C1172.09 668.129 1172.09 668.165 1172.09 668.2C1172.05 668.534 1172.02 668.868 1171.99 669.203C1171.97 669.424 1171.96 669.646 1171.94 669.866C1171.91 670.22 1171.88 670.573 1171.85 670.926C1171.85 670.942 1171.83 670.958 1171.82 670.991C1171.61 671.04 1171.39 671.008 1171.17 671.012C1170.95 671.017 1170.73 671.021 1170.49 671.006C1170.49 670.943 1170.47 670.893 1170.47 670.843C1170.48 670.631 1170.48 670.42 1170.51 670.207C1170.55 669.926 1170.55 669.641 1170.57 669.357C1170.58 669.047 1170.6 668.737 1170.62 668.427C1170.65 668.002 1170.65 667.575 1170.7 667.153C1170.74 666.819 1170.73 666.482 1170.78 666.141C1170.76 666.118 1170.74 666.088 1170.72 666.067C1168.3 664.218 1165.88 662.367 1163.44 660.52C1163.5 660.692 1163.52 660.717 1164.24 661.438C1164.52 661.72 1164.8 662.01 1165.11 662.326C1165.06 662.357 1165.02 662.38 1164.98 662.403C1164.61 662.646 1164.24 662.886 1163.87 663.131C1163.75 663.207 1163.64 663.243 1163.5 663.256C1163.15 663.287 1162.81 663.324 1162.47 663.351C1161.89 663.395 1161.32 663.466 1160.75 663.521C1160.51 663.543 1160.27 663.552 1160.03 663.571C1159.87 663.584 1159.71 663.606 1159.56 663.619C1159.46 663.627 1159.36 663.61 1159.27 663.576C1158.75 663.391 1158.23 663.215 1157.71 663.035C1157.14 662.836 1156.57 662.635 1156 662.437C1155.85 662.385 1155.7 662.336 1155.55 662.258C1155.73 661.195 1155.96 660.148 1156.12 659.088C1155.94 659.4 1155.84 659.738 1155.7 660.065C1155.57 660.393 1155.45 660.726 1155.32 661.057C1155.19 661.388 1155.06 661.718 1154.93 662.048C1154.8 662.379 1154.68 662.71 1154.55 663.041C1154.42 663.372 1154.29 663.704 1154.17 664.035C1154.04 664.375 1153.91 664.714 1153.77 665.053C1153.64 665.383 1153.51 665.712 1153.38 666.042C1153.25 666.372 1153.12 666.703 1153 667.035C1152.87 667.366 1152.74 667.696 1152.61 668.027C1152.48 668.358 1152.36 668.69 1152.23 669.02C1152.1 669.351 1151.97 669.681 1151.84 670.012C1151.71 670.342 1151.59 670.673 1151.45 670.988C1151.21 671.021 1150.1 671.022 1149.87 670.992C1149.82 670.926 1149.85 670.857 1149.87 670.793C1150.02 670.282 1150.17 669.773 1150.32 669.263C1150.69 667.978 1151.06 666.692 1151.44 665.407C1151.48 665.262 1151.51 665.115 1151.57 664.973C1151.64 664.773 1151.63 664.57 1151.6 664.368C1151.54 663.903 1151.46 663.441 1151.39 662.976C1151.29 662.267 1151.2 661.556 1151.1 660.847C1151.03 660.357 1150.95 659.868 1150.88 659.38C1150.86 659.257 1150.85 659.133 1150.83 659.011C1150.81 658.903 1150.84 658.825 1150.92 658.747C1151.31 658.313 1151.7 657.876 1152.09 657.438C1152.51 656.961 1152.94 656.48 1153.36 656.003C1153.6 655.737 1153.84 655.478 1154.07 655.21C1154.14 655.127 1154.24 655.105 1154.33 655.092C1154.54 655.064 1154.75 655.052 1154.96 655.031C1155.13 655.015 1155.3 654.998 1155.46 654.979C1155.72 654.95 1155.97 654.919 1156.23 654.889C1156.23 654.873 1156.23 654.858 1156.23 654.842L1156.23 654.84ZM1148.95 649.91C1149.66 649.922 1150.32 649.803 1150.89 649.371C1151.06 649.241 1151.2 649.085 1151.32 648.906C1151.35 648.869 1151.37 648.831 1151.39 648.791C1151.42 648.713 1151.38 648.622 1151.3 648.593C1151.25 648.573 1151.18 648.558 1151.12 648.558C1151.03 648.56 1150.93 648.564 1150.83 648.587C1150.29 648.719 1149.79 648.927 1149.34 649.261C1149.22 649.35 1149.12 649.465 1149.03 649.578C1148.96 649.659 1148.91 649.758 1148.95 649.91H1148.95Z" fill="white"/>
<path d="M1168.23 670.976C1168.02 671.025 1166.99 671.027 1166.76 670.982C1166.71 670.852 1166.77 670.722 1166.78 670.595C1166.85 670.069 1166.93 669.546 1167 669.02C1167.07 668.512 1167.12 668.001 1167.19 667.493C1167.23 667.196 1167.28 666.9 1167.32 666.603C1167.34 666.49 1167.32 666.403 1167.22 666.322C1166.41 665.633 1165.61 664.94 1164.8 664.247C1164.56 664.045 1164.33 663.842 1164.1 663.637C1164.06 663.604 1164.03 663.561 1163.99 663.524C1164.16 663.361 1165.15 662.727 1165.38 662.64C1165.53 662.76 1165.69 662.885 1165.85 663.012C1166.57 663.598 1167.29 664.185 1168.01 664.772C1168.28 664.984 1168.54 665.197 1168.8 665.411C1168.84 665.445 1168.88 665.481 1168.92 665.516C1168.98 665.568 1168.99 665.633 1168.98 665.709C1168.89 666.357 1168.8 667.005 1168.71 667.653C1168.62 668.292 1168.53 668.931 1168.44 669.569C1168.37 670.041 1168.3 670.511 1168.23 670.977L1168.23 670.976Z" fill="white"/>
<path d="M1155.86 670.982C1155.65 671.019 1154.51 671.027 1154.18 670.994C1154.16 670.938 1154.13 670.875 1154.11 670.809C1153.87 669.668 1153.63 668.527 1153.38 667.386C1153.36 667.273 1153.36 667.163 1153.4 667.048C1153.7 666.235 1154 665.419 1154.31 664.606C1154.31 664.591 1154.33 664.579 1154.35 664.552C1154.38 664.599 1154.41 664.638 1154.42 664.683C1154.66 665.708 1154.89 666.734 1155.13 667.759C1155.36 668.776 1155.6 669.791 1155.84 670.807C1155.85 670.864 1155.85 670.924 1155.86 670.982H1155.86Z" fill="white"/>
<g filter="url(#filter14_b_509_518)">
<circle cx="1147" cy="323" r="50" fill="url(#paint28_linear_509_518)" fill-opacity="0.4"/>
<circle cx="1147" cy="323" r="49.3631" stroke="url(#paint29_linear_509_518)" stroke-width="1.27371"/>
</g>
<g filter="url(#filter15_b_509_518)">
<circle cx="1147" cy="323" r="36.6242" fill="url(#paint30_linear_509_518)"/>
<circle cx="1147" cy="323" r="36.1577" stroke="url(#paint31_linear_509_518)" stroke-width="0.932974"/>
</g>
<g clip-path="url(#clip4_509_518)">
<path fill-rule="evenodd" clip-rule="evenodd" d="M1146.61 303.085C1142.87 303.362 1139.28 304.744 1136.32 307.057C1133.36 309.37 1131.15 312.51 1129.98 316.078C1128.8 319.647 1128.71 323.484 1129.72 327.105C1130.72 330.725 1132.78 333.966 1135.63 336.417C1138.48 338.868 1141.99 340.418 1145.72 340.873C1149.45 341.327 1153.23 340.664 1156.58 338.969C1159.93 337.273 1162.71 334.621 1164.55 331.348C1166.4 328.075 1167.23 324.327 1166.95 320.581C1166.76 318.096 1166.09 315.672 1164.97 313.447C1163.85 311.222 1162.3 309.24 1160.41 307.615C1158.52 305.99 1156.33 304.753 1153.96 303.976C1151.6 303.199 1149.1 302.896 1146.61 303.085ZM1146.52 307.864C1149.32 307.571 1152.14 308.113 1154.63 309.423C1157.12 310.734 1159.17 312.753 1160.52 315.226C1161.86 317.699 1162.44 320.515 1162.19 323.318C1161.93 326.122 1160.85 328.787 1159.08 330.977C1157.31 333.167 1154.94 334.784 1152.25 335.623C1149.56 336.462 1146.69 336.486 1143.99 335.692C1141.29 334.898 1138.88 333.322 1137.08 331.162C1135.27 329.002 1134.15 326.356 1133.84 323.557C1133.63 321.692 1133.8 319.803 1134.32 318.001C1134.85 316.199 1135.73 314.519 1136.9 313.058C1138.08 311.597 1139.54 310.384 1141.19 309.489C1142.84 308.594 1144.65 308.034 1146.52 307.843V307.864Z" fill="white"/>
</g>
<defs>
<filter id="filter0_b_509_518" x="-6.42277" y="663.577" width="252.846" height="252.846" filterUnits="userSpaceOnUse" color-interpolation-filters="sRGB">
<feFlood flood-opacity="0" result="BackgroundImageFix"/>
<feGaussianBlur in="BackgroundImageFix" stdDeviation="38.2114"/>
<feComposite in2="SourceAlpha" operator="in" result="effect1_backgroundBlur_509_518"/>
<feBlend mode="normal" in="SourceGraphic" in2="effect1_backgroundBlur_509_518" result="shape"/>
</filter>
<filter id="filter1_b_509_518" x="27.3973" y="697.398" width="185.205" height="185.205" filterUnits="userSpaceOnUse" color-interpolation-filters="sRGB">
<feFlood flood-opacity="0" result="BackgroundImageFix"/>
<feGaussianBlur in="BackgroundImageFix" stdDeviation="27.9892"/>
<feComposite in2="SourceAlpha" operator="in" result="effect1_backgroundBlur_509_518"/>
<feBlend mode="normal" in="SourceGraphic" in2="effect1_backgroundBlur_509_518" result="shape"/>
</filter>
<filter id="filter2_b_509_518" x="124.577" y="-51.4228" width="252.846" height="252.846" filterUnits="userSpaceOnUse" color-interpolation-filters="sRGB">
<feFlood flood-opacity="0" result="BackgroundImageFix"/>
<feGaussianBlur in="BackgroundImageFix" stdDeviation="38.2114"/>
<feComposite in2="SourceAlpha" operator="in" result="effect1_backgroundBlur_509_518"/>
<feBlend mode="normal" in="SourceGraphic" in2="effect1_backgroundBlur_509_518" result="shape"/>
</filter>
<filter id="filter3_b_509_518" x="158.397" y="-17.6025" width="185.205" height="185.205" filterUnits="userSpaceOnUse" color-interpolation-filters="sRGB">
<feFlood flood-opacity="0" result="BackgroundImageFix"/>
<feGaussianBlur in="BackgroundImageFix" stdDeviation="27.9892"/>
<feComposite in2="SourceAlpha" operator="in" result="effect1_backgroundBlur_509_518"/>
<feBlend mode="normal" in="SourceGraphic" in2="effect1_backgroundBlur_509_518" result="shape"/>
</filter>
<filter id="filter4_b_509_518" x="-76.4228" y="339.577" width="252.846" height="252.846" filterUnits="userSpaceOnUse" color-interpolation-filters="sRGB">
<feFlood flood-opacity="0" result="BackgroundImageFix"/>
<feGaussianBlur in="BackgroundImageFix" stdDeviation="38.2114"/>
<feComposite in2="SourceAlpha" operator="in" result="effect1_backgroundBlur_509_518"/>
<feBlend mode="normal" in="SourceGraphic" in2="effect1_backgroundBlur_509_518" result="shape"/>
</filter>
<filter id="filter5_b_509_518" x="-42.6027" y="373.398" width="185.205" height="185.205" filterUnits="userSpaceOnUse" color-interpolation-filters="sRGB">
<feFlood flood-opacity="0" result="BackgroundImageFix"/>
<feGaussianBlur in="BackgroundImageFix" stdDeviation="27.9892"/>
<feComposite in2="SourceAlpha" operator="in" result="effect1_backgroundBlur_509_518"/>
<feBlend mode="normal" in="SourceGraphic" in2="effect1_backgroundBlur_509_518" result="shape"/>
</filter>
<filter id="filter6_b_509_518" x="-6.42277" y="96.5772" width="252.846" height="252.846" filterUnits="userSpaceOnUse" color-interpolation-filters="sRGB">
<feFlood flood-opacity="0" result="BackgroundImageFix"/>
<feGaussianBlur in="BackgroundImageFix" stdDeviation="38.2114"/>
<feComposite in2="SourceAlpha" operator="in" result="effect1_backgroundBlur_509_518"/>
<feBlend mode="normal" in="SourceGraphic" in2="effect1_backgroundBlur_509_518" result="shape"/>
</filter>
<filter id="filter7_b_509_518" x="27.3973" y="130.398" width="185.205" height="185.205" filterUnits="userSpaceOnUse" color-interpolation-filters="sRGB">
<feFlood flood-opacity="0" result="BackgroundImageFix"/>
<feGaussianBlur in="BackgroundImageFix" stdDeviation="27.9892"/>
<feComposite in2="SourceAlpha" operator="in" result="effect1_backgroundBlur_509_518"/>
<feBlend mode="normal" in="SourceGraphic" in2="effect1_backgroundBlur_509_518" result="shape"/>
</filter>
<filter id="filter8_b_509_518" x="816.577" y="-76.4228" width="252.846" height="252.846" filterUnits="userSpaceOnUse" color-interpolation-filters="sRGB">
<feFlood flood-opacity="0" result="BackgroundImageFix"/>
<feGaussianBlur in="BackgroundImageFix" stdDeviation="38.2114"/>
<feComposite in2="SourceAlpha" operator="in" result="effect1_backgroundBlur_509_518"/>
<feBlend mode="normal" in="SourceGraphic" in2="effect1_backgroundBlur_509_518" result="shape"/>
</filter>
<filter id="filter9_b_509_518" x="850.397" y="-42.6025" width="185.205" height="185.205" filterUnits="userSpaceOnUse" color-interpolation-filters="sRGB">
<feFlood flood-opacity="0" result="BackgroundImageFix"/>
<feGaussianBlur in="BackgroundImageFix" stdDeviation="27.9892"/>
<feComposite in2="SourceAlpha" operator="in" result="effect1_backgroundBlur_509_518"/>
<feBlend mode="normal" in="SourceGraphic" in2="effect1_backgroundBlur_509_518" result="shape"/>
</filter>
<filter id="filter10_b_509_518" x="903.577" y="764.577" width="252.846" height="252.846" filterUnits="userSpaceOnUse" color-interpolation-filters="sRGB">
<feFlood flood-opacity="0" result="BackgroundImageFix"/>
<feGaussianBlur in="BackgroundImageFix" stdDeviation="38.2114"/>
<feComposite in2="SourceAlpha" operator="in" result="effect1_backgroundBlur_509_518"/>
<feBlend mode="normal" in="SourceGraphic" in2="effect1_backgroundBlur_509_518" result="shape"/>
</filter>
<filter id="filter11_b_509_518" x="936.522" y="797.521" width="186.957" height="186.957" filterUnits="userSpaceOnUse" color-interpolation-filters="sRGB">
<feFlood flood-opacity="0" result="BackgroundImageFix"/>
<feGaussianBlur in="BackgroundImageFix" stdDeviation="27.9892"/>
<feComposite in2="SourceAlpha" operator="in" result="effect1_backgroundBlur_509_518"/>
<feBlend mode="normal" in="SourceGraphic" in2="effect1_backgroundBlur_509_518" result="shape"/>
</filter>
<filter id="filter12_b_509_518" x="1033.58" y="528.577" width="252.846" height="252.846" filterUnits="userSpaceOnUse" color-interpolation-filters="sRGB">
<feFlood flood-opacity="0" result="BackgroundImageFix"/>
<feGaussianBlur in="BackgroundImageFix" stdDeviation="38.2114"/>
<feComposite in2="SourceAlpha" operator="in" result="effect1_backgroundBlur_509_518"/>
<feBlend mode="normal" in="SourceGraphic" in2="effect1_backgroundBlur_509_518" result="shape"/>
</filter>
<filter id="filter13_b_509_518" x="1067.4" y="562.397" width="185.205" height="185.205" filterUnits="userSpaceOnUse" color-interpolation-filters="sRGB">
<feFlood flood-opacity="0" result="BackgroundImageFix"/>
<feGaussianBlur in="BackgroundImageFix" stdDeviation="27.9892"/>
<feComposite in2="SourceAlpha" operator="in" result="effect1_backgroundBlur_509_518"/>
<feBlend mode="normal" in="SourceGraphic" in2="effect1_backgroundBlur_509_518" result="shape"/>
</filter>
<filter id="filter14_b_509_518" x="1020.58" y="196.577" width="252.846" height="252.846" filterUnits="userSpaceOnUse" color-interpolation-filters="sRGB">
<feFlood flood-opacity="0" result="BackgroundImageFix"/>
<feGaussianBlur in="BackgroundImageFix" stdDeviation="38.2114"/>
<feComposite in2="SourceAlpha" operator="in" result="effect1_backgroundBlur_509_518"/>
<feBlend mode="normal" in="SourceGraphic" in2="effect1_backgroundBlur_509_518" result="shape"/>
</filter>
<filter id="filter15_b_509_518" x="1054.4" y="230.397" width="185.205" height="185.205" filterUnits="userSpaceOnUse" color-interpolation-filters="sRGB">
<feFlood flood-opacity="0" result="BackgroundImageFix"/>
<feGaussianBlur in="BackgroundImageFix" stdDeviation="27.9892"/>
<feComposite in2="SourceAlpha" operator="in" result="effect1_backgroundBlur_509_518"/>
<feBlend mode="normal" in="SourceGraphic" in2="effect1_backgroundBlur_509_518" result="shape"/>
</filter>
<linearGradient id="paint0_linear_509_518" x1="110.319" y1="740" x2="182.592" y2="762.611" gradientUnits="userSpaceOnUse">
<stop stop-color="#292D32"/>
<stop offset="1" stop-color="#7B8A98"/>
</linearGradient>
<linearGradient id="paint1_linear_509_518" x1="57.2892" y1="797.519" x2="182.787" y2="797.519" gradientUnits="userSpaceOnUse">
<stop stop-color="#262C33"/>
<stop offset="1" stop-color="#718599" stop-opacity="0"/>
</linearGradient>
<linearGradient id="paint2_linear_509_518" x1="120.365" y1="746.656" x2="145.306" y2="775.719" gradientUnits="userSpaceOnUse">
<stop stop-color="#A6B8FB"/>
<stop offset="0.41" stop-color="#5877E7"/>
<stop offset="1" stop-color="#345CE3"/>
</linearGradient>
<linearGradient id="paint3_linear_509_518" x1="74.0654" y1="795.508" x2="165.991" y2="795.508" gradientUnits="userSpaceOnUse">
<stop stop-color="#262C33"/>
<stop offset="1" stop-color="#718599" stop-opacity="0"/>
</linearGradient>
<linearGradient id="paint4_linear_509_518" x1="241.319" y1="25.0001" x2="313.592" y2="47.6111" gradientUnits="userSpaceOnUse">
<stop stop-color="#292D32"/>
<stop offset="1" stop-color="#7B8A98"/>
</linearGradient>
<linearGradient id="paint5_linear_509_518" x1="188.289" y1="82.5188" x2="313.787" y2="82.5188" gradientUnits="userSpaceOnUse">
<stop stop-color="#262C33"/>
<stop offset="1" stop-color="#718599" stop-opacity="0"/>
</linearGradient>
<linearGradient id="paint6_linear_509_518" x1="251.365" y1="31.656" x2="276.306" y2="60.7185" gradientUnits="userSpaceOnUse">
<stop stop-color="#FF6262"/>
<stop offset="0.41" stop-color="#F80823"/>
<stop offset="1" stop-color="#C42436"/>
</linearGradient>
<linearGradient id="paint7_linear_509_518" x1="205.065" y1="80.5076" x2="296.991" y2="80.5076" gradientUnits="userSpaceOnUse">
<stop stop-color="#262C33"/>
<stop offset="1" stop-color="#718599" stop-opacity="0"/>
</linearGradient>
<linearGradient id="paint8_linear_509_518" x1="40.3193" y1="416" x2="112.592" y2="438.611" gradientUnits="userSpaceOnUse">
<stop stop-color="#292D32"/>
<stop offset="1" stop-color="#7B8A98"/>
</linearGradient>
<linearGradient id="paint9_linear_509_518" x1="-12.7108" y1="473.519" x2="112.787" y2="473.519" gradientUnits="userSpaceOnUse">
<stop stop-color="#262C33"/>
<stop offset="1" stop-color="#718599" stop-opacity="0"/>
</linearGradient>
<linearGradient id="paint10_linear_509_518" x1="50.3652" y1="422.656" x2="75.3061" y2="451.719" gradientUnits="userSpaceOnUse">
<stop stop-color="#81B3FF"/>
<stop offset="0.41" stop-color="#0064FA"/>
<stop offset="1" stop-color="#064FBD"/>
</linearGradient>
<linearGradient id="paint11_linear_509_518" x1="4.06535" y1="471.508" x2="95.9905" y2="471.508" gradientUnits="userSpaceOnUse">
<stop stop-color="#262C33"/>
<stop offset="1" stop-color="#718599" stop-opacity="0"/>
</linearGradient>
<linearGradient id="paint12_linear_509_518" x1="110.319" y1="173" x2="182.592" y2="195.611" gradientUnits="userSpaceOnUse">
<stop stop-color="#292D32"/>
<stop offset="1" stop-color="#7B8A98"/>
</linearGradient>
<linearGradient id="paint13_linear_509_518" x1="57.2892" y1="230.519" x2="182.787" y2="230.519" gradientUnits="userSpaceOnUse">
<stop stop-color="#262C33"/>
<stop offset="1" stop-color="#718599" stop-opacity="0"/>
</linearGradient>
<linearGradient id="paint14_linear_509_518" x1="120.365" y1="179.656" x2="145.306" y2="208.719" gradientUnits="userSpaceOnUse">
<stop stop-color="#444444"/>
<stop offset="0.41" stop-color="#1F1F1F"/>
<stop offset="1"/>
</linearGradient>
<linearGradient id="paint15_linear_509_518" x1="74.0654" y1="228.508" x2="165.991" y2="228.508" gradientUnits="userSpaceOnUse">
<stop stop-color="#262C33"/>
<stop offset="1" stop-color="#718599" stop-opacity="0"/>
</linearGradient>
<linearGradient id="paint16_linear_509_518" x1="933.319" y1="0.000139793" x2="1005.59" y2="22.6111" gradientUnits="userSpaceOnUse">
<stop stop-color="#292D32"/>
<stop offset="1" stop-color="#7B8A98"/>
</linearGradient>
<linearGradient id="paint17_linear_509_518" x1="880.289" y1="57.5188" x2="1005.79" y2="57.5188" gradientUnits="userSpaceOnUse">
<stop stop-color="#262C33"/>
<stop offset="1" stop-color="#718599" stop-opacity="0"/>
</linearGradient>
<linearGradient id="paint18_linear_509_518" x1="943.365" y1="6.65602" x2="968.306" y2="35.7185" gradientUnits="userSpaceOnUse">
<stop stop-color="#F2F2F2"/>
<stop offset="0.41" stop-color="#B6B8CE"/>
<stop offset="1" stop-color="#5072AF"/>
</linearGradient>
<linearGradient id="paint19_linear_509_518" x1="897.065" y1="55.5076" x2="988.991" y2="55.5076" gradientUnits="userSpaceOnUse">
<stop stop-color="#262C33"/>
<stop offset="1" stop-color="#718599" stop-opacity="0"/>
</linearGradient>
<linearGradient id="paint20_linear_509_518" x1="1020.32" y1="841" x2="1092.59" y2="863.611" gradientUnits="userSpaceOnUse">
<stop stop-color="#292D32"/>
<stop offset="1" stop-color="#7B8A98"/>
</linearGradient>
<linearGradient id="paint21_linear_509_518" x1="967.289" y1="898.518" x2="1092.79" y2="898.518" gradientUnits="userSpaceOnUse">
<stop stop-color="#262C33"/>
<stop offset="1" stop-color="#718599" stop-opacity="0"/>
</linearGradient>
<linearGradient id="paint22_linear_509_518" x1="1030.37" y1="846.619" x2="1055.91" y2="876.376" gradientUnits="userSpaceOnUse">
<stop stop-color="#F5FF9C"/>
<stop offset="0.41" stop-color="#E6FA36"/>
<stop offset="1" stop-color="#E6FA36" stop-opacity="0.83"/>
</linearGradient>
<linearGradient id="paint23_linear_509_518" x1="982.967" y1="896.639" x2="1077.09" y2="896.639" gradientUnits="userSpaceOnUse">
<stop stop-color="#262C33"/>
<stop offset="1" stop-color="#718599" stop-opacity="0"/>
</linearGradient>
<linearGradient id="paint24_linear_509_518" x1="1150.32" y1="605" x2="1222.59" y2="627.611" gradientUnits="userSpaceOnUse">
<stop stop-color="#292D32"/>
<stop offset="1" stop-color="#7B8A98"/>
</linearGradient>
<linearGradient id="paint25_linear_509_518" x1="1097.29" y1="662.518" x2="1222.79" y2="662.518" gradientUnits="userSpaceOnUse">
<stop stop-color="#262C33"/>
<stop offset="1" stop-color="#718599" stop-opacity="0"/>
</linearGradient>
<linearGradient id="paint26_linear_509_518" x1="1160.37" y1="611.656" x2="1185.31" y2="640.718" gradientUnits="userSpaceOnUse">
<stop stop-color="#F2F2F2"/>
<stop offset="0.41" stop-color="#19A29B"/>
<stop offset="1" stop-color="#12817B"/>
</linearGradient>
<linearGradient id="paint27_linear_509_518" x1="1114.07" y1="660.507" x2="1205.99" y2="660.507" gradientUnits="userSpaceOnUse">
<stop stop-color="#262C33"/>
<stop offset="1" stop-color="#718599" stop-opacity="0"/>
</linearGradient>
<linearGradient id="paint28_linear_509_518" x1="1137.32" y1="273" x2="1209.59" y2="295.611" gradientUnits="userSpaceOnUse">
<stop stop-color="#292D32"/>
<stop offset="1" stop-color="#7B8A98"/>
</linearGradient>
<linearGradient id="paint29_linear_509_518" x1="1084.29" y1="330.518" x2="1209.79" y2="330.518" gradientUnits="userSpaceOnUse">
<stop stop-color="#262C33"/>
<stop offset="1" stop-color="#718599" stop-opacity="0"/>
</linearGradient>
<linearGradient id="paint30_linear_509_518" x1="1147.37" y1="279.656" x2="1172.31" y2="308.718" gradientUnits="userSpaceOnUse">
<stop stop-color="#4D4D4D"/>
<stop offset="0.41" stop-color="#242424"/>
<stop offset="1"/>
</linearGradient>
<linearGradient id="paint31_linear_509_518" x1="1101.07" y1="328.507" x2="1192.99" y2="328.507" gradientUnits="userSpaceOnUse">
<stop stop-color="#262C33"/>
<stop offset="1" stop-color="#718599" stop-opacity="0"/>
</linearGradient>
<clipPath id="clip0_509_518">
<rect width="32" height="44.1032" fill="white" transform="translate(34 444)"/>
</clipPath>
<clipPath id="clip1_509_518">
<rect width="41" height="29" fill="white" transform="translate(100 208)"/>
</clipPath>
<clipPath id="clip2_509_518">
<rect width="32" height="29.8903" fill="white" transform="translate(927 35)"/>
</clipPath>
<clipPath id="clip3_509_518">
<rect width="32" height="32" fill="white" transform="translate(1014 875)"/>
</clipPath>
<clipPath id="clip4_509_518">
<rect width="38" height="38" fill="white" transform="translate(1129 303)"/>
</clipPath>
</defs>
</svg>
