<svg width="1161" height="1148" viewBox="0 0 1161 1148" fill="none" xmlns="http://www.w3.org/2000/svg">
<g filter="url(#filter0_b_3000_1339)">
<circle cx="373" cy="1098" r="50" fill="url(#paint0_linear_3000_1339)" fill-opacity="0.4"/>
<circle cx="373" cy="1098" r="49.3631" stroke="url(#paint1_linear_3000_1339)" stroke-width="1.27371"/>
</g>
<g filter="url(#filter1_b_3000_1339)">
<circle cx="373" cy="1098" r="36.6242" fill="url(#paint2_linear_3000_1339)"/>
<circle cx="373" cy="1098" r="36.1577" stroke="url(#paint3_linear_3000_1339)" stroke-width="0.932974"/>
</g>
<path d="M358.377 1087.47C358.459 1087.35 358.53 1087.22 358.624 1087.11C358.921 1086.76 359.548 1086.57 359.984 1086.81C360.376 1087.03 360.755 1087.27 361.147 1087.49C361.47 1087.67 361.799 1087.84 362.132 1088C362.511 1088.18 362.893 1088.35 363.283 1088.51C363.623 1088.65 363.975 1088.76 364.323 1088.88C364.607 1088.98 364.891 1089.08 365.18 1089.16C365.433 1089.23 365.691 1089.29 365.947 1089.35C366.271 1089.43 366.595 1089.5 366.919 1089.57C367.06 1089.6 367.204 1089.62 367.347 1089.64C367.659 1089.7 367.971 1089.75 368.283 1089.8C368.304 1089.8 368.324 1089.81 368.345 1089.81C368.592 1089.84 368.84 1089.86 369.087 1089.88C369.566 1089.92 370.044 1089.98 370.524 1090.01C371.064 1090.04 371.606 1090.06 372.147 1090.06C372.773 1090.07 373.4 1090.07 374.025 1090.05C374.544 1090.03 375.062 1089.97 375.579 1089.92C375.89 1089.89 376.2 1089.86 376.509 1089.81C376.835 1089.77 377.159 1089.71 377.483 1089.65C377.818 1089.59 378.155 1089.53 378.488 1089.46C378.774 1089.39 379.056 1089.32 379.339 1089.24C379.638 1089.16 379.937 1089.08 380.233 1088.99C380.435 1088.93 380.632 1088.85 380.831 1088.78C381.1 1088.68 381.372 1088.59 381.637 1088.48C382.011 1088.32 382.385 1088.17 382.749 1087.99C383.154 1087.79 383.552 1087.57 383.946 1087.36C384.217 1087.2 384.474 1087.03 384.742 1086.87C385.08 1086.67 385.424 1086.66 385.791 1086.81C386.119 1086.95 386.339 1087.18 386.45 1087.5C386.532 1087.74 386.538 1087.99 386.482 1088.25C386.406 1088.61 386.241 1088.91 385.983 1089.15C385.773 1089.34 385.517 1089.49 385.268 1089.63C384.931 1089.83 384.584 1090.02 384.235 1090.19C383.928 1090.35 383.616 1090.5 383.3 1090.64C382.926 1090.8 382.547 1090.95 382.165 1091.1C381.909 1091.2 381.644 1091.27 381.383 1091.35C381.14 1091.43 380.898 1091.5 380.656 1091.58C380.632 1091.59 380.606 1091.63 380.598 1091.65C380.588 1091.69 380.593 1091.73 380.593 1091.77C380.593 1093.52 380.593 1095.26 380.593 1097.01V1097.16C380.748 1097.16 380.89 1097.16 381.03 1097.17C381.447 1097.18 381.834 1097.28 382.158 1097.57C382.395 1097.77 382.579 1098.01 382.648 1098.33C382.678 1098.46 382.706 1098.6 382.719 1098.73C382.763 1099.2 382.431 1099.59 382.006 1099.69C381.883 1099.71 381.755 1099.73 381.628 1099.73C381.289 1099.74 380.95 1099.74 380.593 1099.74C380.593 1099.8 380.593 1099.86 380.593 1099.91C380.593 1101.63 380.593 1103.35 380.593 1105.07C380.593 1105.31 380.595 1105.31 380.824 1105.37C381.067 1105.44 381.308 1105.52 381.549 1105.6C381.85 1105.7 382.152 1105.8 382.448 1105.92C382.797 1106.05 383.146 1106.19 383.485 1106.35C383.978 1106.58 384.471 1106.82 384.947 1107.09C385.365 1107.32 385.816 1107.52 386.129 1107.9C386.301 1108.11 386.43 1108.35 386.469 1108.63C386.488 1108.76 386.518 1108.9 386.518 1109.03C386.518 1109.54 386.172 1109.96 385.719 1110.12C385.304 1110.26 384.924 1110.17 384.557 1109.93C384.126 1109.65 383.688 1109.38 383.234 1109.15C382.722 1108.88 382.193 1108.65 381.662 1108.43C381.258 1108.26 380.845 1108.11 380.428 1107.97C379.955 1107.82 379.476 1107.69 378.996 1107.56C378.66 1107.47 378.319 1107.39 377.978 1107.32C377.706 1107.27 377.43 1107.24 377.155 1107.2C376.797 1107.14 376.438 1107.09 376.08 1107.04C375.914 1107.01 375.747 1106.99 375.581 1106.98C375.264 1106.95 374.947 1106.92 374.63 1106.9C373.951 1106.87 373.272 1106.85 372.593 1106.84C371.972 1106.83 371.349 1106.84 370.728 1106.86C370.265 1106.88 369.803 1106.93 369.341 1106.97C369 1107 368.659 1107.04 368.32 1107.09C367.961 1107.14 367.603 1107.2 367.245 1107.27C366.951 1107.32 366.658 1107.37 366.368 1107.44C366.1 1107.5 365.837 1107.59 365.571 1107.66C365.248 1107.74 364.921 1107.82 364.6 1107.91C364.401 1107.97 364.21 1108.05 364.016 1108.12C363.794 1108.2 363.571 1108.28 363.35 1108.37C363.04 1108.49 362.725 1108.6 362.424 1108.75C362.014 1108.94 361.61 1109.15 361.213 1109.37C360.875 1109.56 360.54 1109.75 360.222 1109.97C359.686 1110.34 358.999 1110.21 358.598 1109.76C358.532 1109.69 358.492 1109.59 358.438 1109.51C358.421 1109.48 358.398 1109.46 358.377 1109.43C358.377 1109.12 358.377 1108.81 358.377 1108.5C358.397 1108.47 358.424 1108.45 358.435 1108.42C358.519 1108.18 358.648 1107.96 358.835 1107.79C359.147 1107.49 359.534 1107.3 359.902 1107.09C360.344 1106.84 360.806 1106.62 361.266 1106.4C361.588 1106.25 361.92 1106.11 362.252 1105.98C362.51 1105.87 362.771 1105.78 363.034 1105.69C363.358 1105.58 363.684 1105.47 364.014 1105.38C364.258 1105.31 364.262 1105.32 364.262 1105.07C364.262 1103.35 364.262 1101.63 364.262 1099.91C364.262 1099.86 364.262 1099.8 364.262 1099.76C363.975 1099.74 363.705 1099.72 363.44 1099.68C363.179 1099.64 362.939 1099.54 362.729 1099.37C362.45 1099.13 362.237 1098.86 362.167 1098.5C362.124 1098.29 362.107 1098.04 362.166 1097.83C362.28 1097.42 362.69 1097.16 363.112 1097.16C363.293 1097.17 363.474 1097.16 363.655 1097.16C363.852 1097.16 364.049 1097.16 364.262 1097.16C364.262 1097.1 364.262 1097.05 364.262 1097C364.262 1095.55 364.262 1094.11 364.262 1092.66C364.262 1092.35 364.264 1092.03 364.258 1091.72C364.257 1091.67 364.227 1091.6 364.193 1091.59C363.889 1091.48 363.58 1091.39 363.276 1091.29C362.924 1091.17 362.572 1091.05 362.227 1090.92C361.917 1090.79 361.614 1090.66 361.313 1090.52C360.967 1090.35 360.624 1090.19 360.286 1090.01C359.955 1089.83 359.632 1089.64 359.305 1089.46C358.982 1089.28 358.698 1089.06 358.531 1088.71C358.481 1088.61 358.428 1088.51 358.376 1088.4C358.376 1088.09 358.376 1087.78 358.376 1087.47L358.377 1087.47ZM366.97 1097.16H377.88V1092.24C377.69 1092.27 377.515 1092.31 377.338 1092.34C376.932 1092.4 376.526 1092.46 376.118 1092.5C375.692 1092.55 375.265 1092.6 374.837 1092.63C374.43 1092.66 374.022 1092.68 373.614 1092.68C372.527 1092.68 371.439 1092.66 370.351 1092.64C369.991 1092.63 369.632 1092.59 369.274 1092.56C369.081 1092.54 368.888 1092.53 368.696 1092.5C368.315 1092.45 367.934 1092.4 367.554 1092.34C367.365 1092.32 367.176 1092.28 366.969 1092.24V1097.16L366.97 1097.16ZM377.883 1099.75H366.965C366.913 1100.09 366.943 1104.58 366.994 1104.66C367.176 1104.62 367.357 1104.59 367.539 1104.56C367.656 1104.54 367.773 1104.51 367.891 1104.5C368.103 1104.47 368.316 1104.45 368.528 1104.43C368.984 1104.38 369.439 1104.32 369.896 1104.27C370.216 1104.24 370.538 1104.22 370.859 1104.22C371.981 1104.21 373.103 1104.16 374.224 1104.25C374.78 1104.3 375.337 1104.33 375.893 1104.38C376.191 1104.4 376.487 1104.45 376.784 1104.49C377.147 1104.54 377.509 1104.6 377.883 1104.65V1099.75L377.883 1099.75Z" fill="white"/>
<g filter="url(#filter2_b_3000_1339)">
<circle cx="372" cy="50" r="50" fill="url(#paint4_linear_3000_1339)" fill-opacity="0.4"/>
<circle cx="372" cy="50" r="49.3631" stroke="url(#paint5_linear_3000_1339)" stroke-width="1.27371"/>
</g>
<g filter="url(#filter3_b_3000_1339)">
<circle cx="372" cy="50.0001" r="36.6242" fill="url(#paint6_linear_3000_1339)"/>
<circle cx="372" cy="50.0001" r="36.1577" stroke="url(#paint7_linear_3000_1339)" stroke-width="0.932974"/>
</g>
<path d="M376.9 47.2126L378.793 48.974L385.268 43.2747V34L383.28 35.5145L382.269 36.2895L381.194 37.113L380.952 37.2982C379.153 38.6735 377.114 40.2313 375.233 41.9441L374.954 42.1937C374.265 42.8071 373.485 43.5072 373.041 44.6342C372.575 45.806 372.547 47.1194 372.963 48.312C373.551 49.9355 374.796 50.918 375.895 51.785C376.131 51.9715 376.354 52.1475 376.565 52.3248C377.972 53.507 379.408 54.701 380.797 55.8529L382.429 57.2098V60.3372L372.66 52.2578L372.668 55.5416L384.933 65.8028V55.9357L384.459 55.5416L382.349 53.7894C380.963 52.6387 379.53 51.45 378.13 50.2705C377.889 50.0682 377.64 49.8764 377.398 49.6807C376.491 48.9649 375.634 48.2884 375.303 47.3755C375.112 46.8093 375.131 46.1884 375.356 45.6364C375.569 45.0952 376.011 44.7012 376.573 44.2007C376.673 44.1132 376.773 44.0256 376.873 43.938C378.673 42.2988 380.665 40.7751 382.424 39.4314L382.667 39.2462L382.764 39.1713V42.0466L376.9 47.2126Z" fill="white"/>
<path d="M371.295 47.7314L371.287 44.4477L359.018 34.1904V44.0497L359.491 44.4437C360.194 45.0295 360.897 45.6141 361.601 46.1973C362.986 47.3479 364.42 48.5366 365.819 49.7148C366.061 49.9184 366.31 50.1155 366.551 50.3059C367.459 51.0218 368.316 51.6982 368.648 52.6111C368.838 53.1774 368.819 53.7981 368.594 54.3502C368.381 54.8914 367.938 55.2854 367.378 55.7846L367.078 56.0539C365.278 57.6931 363.285 59.2168 361.526 60.5605L361.284 60.7457L361.186 60.8193V57.9427L367.055 52.7832L365.163 51.0165L358.688 56.7211V65.9932L360.675 64.4774L361.686 63.7024L362.761 62.8802L363.004 62.695C364.803 61.3197 366.841 59.7619 368.723 58.0491C368.815 57.965 368.908 57.8809 369.001 57.7995C369.689 57.1861 370.47 56.486 370.914 55.3577C371.38 54.1859 371.408 52.8725 370.993 51.6799C370.403 50.0564 369.159 49.0752 368.06 48.2082C367.824 48.0217 367.601 47.8457 367.39 47.6684C365.984 46.4862 364.548 45.2922 363.158 44.139L361.533 42.7834V39.6481L371.295 47.7314Z" fill="white"/>
<g filter="url(#filter4_b_3000_1339)">
<circle cx="52" cy="775" r="50" fill="url(#paint8_linear_3000_1339)" fill-opacity="0.4"/>
<circle cx="52" cy="775" r="49.3631" stroke="url(#paint9_linear_3000_1339)" stroke-width="1.27371"/>
</g>
<g filter="url(#filter5_b_3000_1339)">
<circle cx="52.0002" cy="775" r="36.6242" fill="url(#paint10_linear_3000_1339)"/>
<circle cx="52.0002" cy="775" r="36.1577" stroke="url(#paint11_linear_3000_1339)" stroke-width="0.932974"/>
</g>
<g clip-path="url(#clip0_3000_1339)">
<path d="M55.1623 768.185L56.1713 764.928C56.408 764.164 57.0729 763.608 57.8685 763.522C58.0584 763.501 58.2429 763.487 58.4245 763.479C57.6689 763.31 56.8155 763.245 55.8643 763.348C55.0701 763.435 54.4039 763.991 54.1672 764.755L53.1582 768.012L61.7129 770.594L61.8258 770.196L55.1623 768.184V768.185Z" fill="white"/>
<path d="M44.3534 763.23L44.5461 761.179L47.127 761.422C48.2172 761.526 49.2922 761.289 50.2392 760.74C50.6177 760.521 50.966 760.252 51.2743 759.941L52.5916 758.617C53.5991 757.604 55.043 757.136 56.4525 757.365C57.7877 757.581 58.966 758.295 59.7698 759.377C59.8951 759.545 60.0107 759.723 60.1153 759.906C60.6452 760.836 60.7719 761.958 60.4594 762.983C60.3121 763.469 60.1731 763.929 60.1717 763.933L60.1015 764.164L58.1291 763.57L58.1993 763.338C58.1993 763.338 58.3397 762.872 58.4883 762.383C58.6356 761.897 58.5764 761.367 58.3259 760.926C58.2626 760.815 58.1938 760.709 58.1181 760.608C57.6349 759.958 56.9274 759.528 56.1236 759.398C55.3665 759.275 54.5929 759.527 54.052 760.069L52.7347 761.394C52.2997 761.831 51.807 762.21 51.2729 762.521C49.9529 763.286 48.4525 763.617 46.9329 763.473L44.3521 763.23H44.3534ZM44.9811 761.703L44.8779 762.795L46.9783 762.993C48.3975 763.127 49.7987 762.82 51.0306 762.104C51.5289 761.815 51.9859 761.462 52.392 761.054L53.7092 759.729C54.3589 759.076 55.2908 758.774 56.2006 758.921C57.1284 759.071 57.946 759.568 58.5048 760.32C58.5916 760.437 58.6714 760.559 58.7443 760.686C59.0609 761.242 59.1353 761.911 58.9494 762.522C58.8655 762.798 58.7856 763.063 58.7306 763.245L59.7794 763.561C59.8345 763.381 59.9143 763.116 59.9983 762.842C60.2722 761.943 60.1621 760.96 59.6969 760.144C59.6019 759.979 59.4973 759.816 59.3844 759.665C58.6562 758.685 57.5881 758.036 56.3768 757.841C55.1201 757.637 53.8331 758.056 52.9343 758.959L51.617 760.283C51.2784 760.623 50.8971 760.917 50.4828 761.158C49.4491 761.758 48.2736 762.016 47.083 761.904L44.9825 761.706L44.9811 761.703Z" fill="white"/>
<mask id="mask0_3000_1339" style="mask-type:luminance" maskUnits="userSpaceOnUse" x="44" y="757" width="17" height="7">
<path d="M58.745 760.687C59.0616 761.242 59.1359 761.912 58.9501 762.523C58.8661 762.8 58.7849 763.066 58.7312 763.246L59.7801 763.563C59.8351 763.382 59.915 763.118 59.9989 762.843C60.2729 761.944 60.1627 760.961 59.6975 760.145C58.9928 758.909 57.7815 758.068 56.3775 757.841C55.1208 757.637 53.8338 758.055 52.9349 758.958L51.6177 760.283C51.2791 760.623 50.8978 760.917 50.4835 761.158C49.4497 761.758 48.2742 762.015 47.0836 761.904L44.9831 761.706L44.8799 762.797L46.9804 762.996C48.3995 763.129 49.8007 762.822 51.0327 762.106C51.5309 761.817 51.9879 761.465 52.394 761.056L53.7113 759.732C54.361 759.078 55.2928 758.777 56.2027 758.924C57.2791 759.097 58.2068 759.742 58.7464 760.689L58.745 760.687Z" fill="white"/>
</mask>
<g mask="url(#mask0_3000_1339)">
<path d="M58.1401 761.475L58.1801 761.202C58.5489 761.256 58.9233 761.431 59.2922 761.723C59.5813 761.951 59.8676 762.251 60.1456 762.615C60.6136 763.23 60.8903 763.809 60.9013 763.834L60.6522 763.953C60.6398 763.928 59.5606 761.683 58.1401 761.475Z" fill="white"/>
<path d="M57.6934 760.714L57.5337 760.489C57.8971 760.232 58.3252 760.145 58.8069 760.233C59.1799 760.302 59.5846 760.476 60.0099 760.75C60.7243 761.209 61.2488 761.787 61.2694 761.812L61.0643 761.997C61.0643 761.997 60.5399 761.419 59.8558 760.979C58.9721 760.412 58.2439 760.323 57.692 760.715L57.6934 760.714Z" fill="white"/>
<path d="M56.9575 759.803C57.3594 759.171 58.038 758.823 58.9204 758.796C59.5728 758.777 60.1027 758.94 60.1248 758.946L60.0435 759.209C60.0435 759.209 59.5287 759.052 58.9217 759.072C58.1275 759.096 57.5453 759.392 57.1915 759.95L56.9589 759.803H56.9575Z" fill="white"/>
<path d="M56.0186 759.382C56.1782 758.682 56.6503 758.147 57.3854 757.832C57.9305 757.598 58.4246 757.567 58.4453 757.567L58.4604 757.843C58.4604 757.843 57.9883 757.872 57.4872 758.089C56.832 758.373 56.4287 758.828 56.2883 759.444L56.0199 759.382H56.0186Z" fill="white"/>
<path d="M54.9003 759.947C54.8879 759.402 54.9815 758.89 55.1783 758.427C55.3366 758.057 55.5596 757.717 55.8432 757.417C56.3249 756.906 56.8108 756.692 56.8315 756.682L56.9416 756.934C56.9416 756.934 56.4791 757.14 56.0345 757.614C55.444 758.243 55.1536 759.026 55.1742 759.942L54.8989 759.947H54.9003Z" fill="white"/>
<path d="M54.2274 760.838C53.8929 760.359 53.7195 759.838 53.7126 759.293C53.7071 758.86 53.8048 758.41 54.0058 757.957C54.3444 757.194 54.8523 756.689 54.873 756.668L55.0657 756.865C55.0574 756.873 54.5688 757.362 54.2536 758.076C53.8379 759.019 53.9053 759.895 54.4518 760.681L54.226 760.839L54.2274 760.838Z" fill="white"/>
<path d="M53.0229 761.577C52.8123 761.293 52.654 760.974 52.5521 760.626C52.4269 760.196 52.3856 759.721 52.431 759.213C52.5053 758.354 52.7957 757.703 52.8081 757.676L53.06 757.789C53.06 757.789 52.7751 758.43 52.7049 759.245C52.6127 760.319 52.9155 761.182 53.6037 761.809L53.4179 762.013C53.2706 761.878 53.1385 761.732 53.0229 761.577Z" fill="white"/>
<path d="M51.7194 762.217C51.3312 761.695 51.2514 761.118 51.272 760.664C51.3037 759.951 51.5804 759.394 51.5914 759.37L51.8378 759.494C51.8378 759.494 51.5735 760.03 51.5473 760.685C51.5115 761.544 51.8763 762.209 52.632 762.661L52.4902 762.898C52.1516 762.695 51.9011 762.462 51.7194 762.217Z" fill="white"/>
<path d="M48.5126 763.282C48.474 762.663 48.6764 762.192 48.8526 761.907C49.0439 761.596 49.2476 761.431 49.2559 761.424L49.4293 761.639C49.4293 761.639 49.249 761.787 49.0824 762.061C48.8608 762.425 48.7617 762.831 48.7879 763.266L48.5126 763.282Z" fill="white"/>
<path d="M47.2473 763.325C47.1221 762.652 47.3671 762.211 47.5942 761.961C47.8392 761.691 48.1131 761.581 48.1255 761.577L48.2274 761.833C48.2274 761.833 47.9934 761.928 47.7924 762.154C47.5295 762.449 47.4373 762.827 47.5199 763.274L47.2487 763.324L47.2473 763.325Z" fill="white"/>
<path d="M45.7236 763.268C46.0209 761.749 46.9088 761.64 46.9459 761.636L46.9748 761.91H46.9762C46.9762 761.91 46.7945 761.935 46.5881 762.115C46.3073 762.359 46.1022 762.777 45.9948 763.322L45.7236 763.27V763.268Z" fill="white"/>
<path d="M50.2295 762.845C49.9666 762.49 49.8978 762.04 50.0327 761.532C50.1414 761.123 50.3438 760.821 50.352 760.809L50.5805 760.963C50.5805 760.963 50.3933 761.244 50.297 761.61C50.1745 762.078 50.2502 762.468 50.5213 762.766L50.3176 762.952C50.2859 762.918 50.257 762.882 50.2295 762.845Z" fill="white"/>
</g>
<path d="M61.7129 770.595L62.5952 767.48C62.7948 766.774 62.5952 766.016 62.0749 765.5C61.0302 764.466 58.9683 763.01 55.8643 763.35C55.0701 763.436 54.4039 763.992 54.1672 764.756L53.1582 768.013L61.7129 770.595Z" fill="white"/>
<path d="M52.5684 768.327L53.7177 764.616C54.0109 763.669 54.834 762.988 55.8141 762.88C58.7569 762.558 60.8189 763.754 62.0315 764.814C62.1595 764.927 62.2862 765.044 62.4073 765.164C63.0501 765.8 63.2965 766.736 63.0501 767.608L62.037 771.186L52.5684 768.327ZM61.4094 765.525C60.3385 764.589 58.5174 763.533 55.9145 763.818C55.3089 763.884 54.7996 764.306 54.6165 764.895L53.7494 767.698L61.3901 770.005L62.1417 767.351C62.2944 766.81 62.1417 766.229 61.7439 765.834C61.6365 765.728 61.525 765.624 61.4108 765.525H61.4094Z" fill="white"/>
<path d="M52.9582 779.257H52.965H58.9375L59.5831 776.049H49.3766L48.7324 779.257H52.9582Z" fill="white"/>
<path d="M48.3059 781.396L46.8647 788.605H51.0974L51.9053 784.587H57.8696L58.5137 781.396H48.3059Z" fill="white"/>
<path d="M53.225 767.551C51.9572 767.551 50.7267 767.712 49.5512 768.013V771.907C50.7005 771.501 51.9366 771.277 53.225 771.277C59.3172 771.277 64.2738 776.234 64.2738 782.326C64.2738 788.418 59.3172 793.375 53.225 793.375C47.1327 793.375 42.1747 788.418 42.1747 782.326C42.1747 777.559 45.2084 773.489 49.4466 771.942L48.7184 768.253C42.7666 770.162 38.4473 775.749 38.4473 782.326C38.4473 790.473 45.0763 797.102 53.2236 797.102C61.3709 797.102 67.9999 790.473 67.9999 782.326C67.9999 774.178 61.3722 767.549 53.2236 767.549L53.225 767.551Z" fill="white"/>
<path d="M48.1955 762.356L48.6841 761.632L47.9945 761.066L54.4047 753L46.7268 758.751L46.9773 755.167L44.8988 758.491L43.2361 755.727L42.7681 759.321L37.0888 757.485L41.0723 760.953L39.8376 761.264L41.254 762.404L36 766.061L41.6201 765.045L40.8603 766.828L42.3716 766.068L40.6924 772.164L44.3813 766.469L45.7343 769.19L46.0069 766.799L49.4467 771.943L48.0275 764.751L53.2939 765.279L48.1955 762.353V762.356Z" fill="white"/>
<path d="M45.6183 765.201L45.387 767.223L44.4455 765.328L42.2129 768.773L43.2549 764.99L41.9872 765.628L42.5515 764.301L38.4565 765.041L42.1991 762.437L41.0787 761.535L42.2625 761.238L39.5467 758.873L43.2425 760.068L43.588 757.41L44.8901 759.574L46.2528 757.392L46.0753 759.947L51.226 756.087L47.204 761.15L47.9252 761.742L47.3857 762.543L50.7112 764.452L47.3237 764.112L48.3423 769.274L45.6183 765.201Z" fill="white"/>
</g>
<g filter="url(#filter6_b_3000_1339)">
<circle cx="50" cy="369" r="50" fill="url(#paint12_linear_3000_1339)" fill-opacity="0.4"/>
<circle cx="50" cy="369" r="49.3631" stroke="url(#paint13_linear_3000_1339)" stroke-width="1.27371"/>
</g>
<g filter="url(#filter7_b_3000_1339)">
<circle cx="50.0002" cy="369" r="36.6242" fill="url(#paint14_linear_3000_1339)"/>
<circle cx="50.0002" cy="369" r="36.1577" stroke="url(#paint15_linear_3000_1339)" stroke-width="0.932974"/>
</g>
<g clip-path="url(#clip1_3000_1339)">
<path fill-rule="evenodd" clip-rule="evenodd" d="M54.511 376.889L50.9897 365.774L51.7582 363.673L65.7674 354.017L60.0721 367.327L54.511 376.889Z" fill="#E6E7E8"/>
<path fill-rule="evenodd" clip-rule="evenodd" d="M46.4889 376.937L50.0101 365.822L49.2401 363.721L35.2324 354.065L40.9278 367.375L46.4889 376.937Z" fill="#E6E7E8"/>
<path fill-rule="evenodd" clip-rule="evenodd" d="M54.5342 377.174L58.8578 382.839L65.2598 374.243L64.6133 368.323L60.3206 367.168L54.5342 377.174Z" fill="#E6E7E8"/>
<path fill-rule="evenodd" clip-rule="evenodd" d="M46.4336 377.174L42.11 382.84L35.7095 374.243L36.3545 368.323L40.7243 367.245L46.4336 377.174Z" fill="#E6E7E8"/>
<path fill-rule="evenodd" clip-rule="evenodd" d="M60.293 367.092L64.1768 368.11L69.8428 363.468L71.0001 354.006L65.9513 354L60.293 367.092Z" fill="#E6E7E8"/>
<path fill-rule="evenodd" clip-rule="evenodd" d="M40.7071 367.14L36.8218 368.158L31.1573 363.516L30 354.054L35.0488 354.048L40.7071 367.14Z" fill="#E6E7E8"/>
<path fill-rule="evenodd" clip-rule="evenodd" d="M54.0808 376.143L50.8558 365.914L50.5025 367.12L50.1136 365.826L47.0137 376.148L49.1554 380.538L50.4624 379.138L51.7878 380.521L54.0808 376.143Z" fill="#E6E7E8"/>
<path fill-rule="evenodd" clip-rule="evenodd" d="M51.9375 380.537L54.5699 377.426L54.1471 376.404L51.9375 380.537Z" fill="#E6E7E8"/>
<path fill-rule="evenodd" clip-rule="evenodd" d="M49.0626 380.585L46.4302 377.474L46.9101 376.351L49.0626 380.585Z" fill="#E6E7E8"/>
</g>
<g filter="url(#filter8_b_3000_1339)">
<circle cx="856" cy="76" r="50" fill="url(#paint16_linear_3000_1339)" fill-opacity="0.4"/>
<circle cx="856" cy="76" r="49.3631" stroke="url(#paint17_linear_3000_1339)" stroke-width="1.27371"/>
</g>
<g filter="url(#filter9_b_3000_1339)">
<circle cx="856" cy="76.0001" r="36.6242" fill="url(#paint18_linear_3000_1339)"/>
<circle cx="856" cy="76.0001" r="36.1577" stroke="url(#paint19_linear_3000_1339)" stroke-width="0.932974"/>
</g>
<g clip-path="url(#clip2_3000_1339)">
<path d="M856.481 70.9166C856.481 67.8064 856.481 64.6961 856.481 61.5859C856.481 61.178 856.724 60.9361 857.073 61.0175C857.182 61.0428 857.307 61.1182 857.366 61.2093C857.525 61.4525 857.655 61.7151 857.792 61.9726C857.886 62.1501 857.97 62.3331 858.063 62.511C858.31 62.9824 858.557 63.4537 858.809 63.9222C859.105 64.4713 859.404 65.0175 859.703 65.5647C859.912 65.9473 860.125 66.3276 860.332 66.7106C860.519 67.0568 860.704 67.4049 860.885 67.7549C861.103 68.1774 861.31 68.606 861.533 69.0258C861.831 69.5872 862.145 70.1409 862.444 70.7023C862.656 71.1005 862.848 71.5098 863.062 71.9071C863.366 72.4722 863.686 73.0286 863.99 73.5937C864.215 74.0121 864.424 74.4398 864.645 74.8605C864.794 75.1437 864.954 75.421 865.104 75.7034C865.28 76.0321 865.451 76.3641 865.624 76.6938C865.772 76.9729 865.92 77.2516 866.069 77.5302C866.228 77.8287 866.386 78.1275 866.547 78.425C866.787 78.8688 867.033 79.3088 867.269 79.7544C867.494 80.1797 867.705 80.6124 867.929 81.0382C868.079 81.3219 868.244 81.5974 868.394 81.8802C868.569 82.2075 868.732 82.5409 868.907 82.8683C869.057 83.1511 869.222 83.427 869.373 83.7098C869.548 84.0376 869.711 84.3715 869.885 84.7002C870.035 84.9844 870.195 85.2631 870.346 85.5468C870.521 85.8746 870.689 86.2062 870.865 86.534C871.015 86.8164 871.174 87.0945 871.325 87.3773C871.546 87.793 871.767 88.2092 871.979 88.6299C872.07 88.8097 871.82 89.1546 871.589 89.1936C871.406 89.2244 871.252 89.1637 871.097 89.0741C869.806 88.3283 868.513 87.5866 867.222 86.8421C866.345 86.3368 865.47 85.8287 864.593 85.3242C863.712 84.817 862.828 84.3131 861.947 83.8054C861.029 83.2771 860.113 82.7465 859.197 82.2158C858.401 81.7551 857.609 81.2856 856.807 80.8368C856.56 80.6984 856.478 80.5117 856.478 80.2464C856.481 77.1362 856.48 74.0259 856.48 70.9157L856.481 70.9166Z" fill="white"/>
<path d="M855.487 70.922C855.487 73.9918 855.479 77.0616 855.498 80.1313C855.501 80.5392 855.341 80.7553 855.015 80.9356C854.447 81.2496 853.891 81.5858 853.327 81.9095C852.65 82.299 851.969 82.6834 851.291 83.0733C849.886 83.8812 848.481 84.6919 847.076 85.5002C845.573 86.3647 844.07 87.2287 842.566 88.0927C841.957 88.4426 841.349 88.7921 840.739 89.1416C840.565 89.2414 840.296 89.2124 840.16 89.0804C839.986 88.913 839.953 88.6868 840.066 88.4771C840.467 87.735 840.868 86.9933 841.265 86.2493C841.524 85.7642 841.776 85.2754 842.031 84.788C842.378 84.1245 842.722 83.4591 843.073 82.7983C843.367 82.247 843.673 81.7026 843.969 81.1517C844.258 80.6123 844.537 80.0679 844.825 79.5281C845.119 78.9781 845.421 78.4332 845.714 77.8828C846.006 77.3319 846.29 76.776 846.58 76.2233C846.721 75.9548 846.868 75.6895 847.011 75.4218C847.259 74.9574 847.506 74.4925 847.754 74.0281C847.9 73.7559 848.048 73.4855 848.193 73.2128C848.434 72.7572 848.671 72.2992 848.915 71.8444C849.131 71.4402 849.356 71.0406 849.572 70.6365C849.742 70.3173 849.901 69.9922 850.071 69.6727C850.295 69.2483 850.525 68.8266 850.752 68.4031C850.973 67.9897 851.192 67.5754 851.414 67.1625C851.588 66.8397 851.768 66.5201 851.941 66.1969C852.103 65.8943 852.26 65.5894 852.421 65.286C852.578 64.988 852.738 64.691 852.896 64.393C853.118 63.9741 853.337 63.5547 853.559 63.1358C853.715 62.842 853.873 62.5491 854.03 62.2557C854.197 61.9426 854.365 61.6294 854.531 61.3154C854.623 61.142 854.749 61.0183 854.956 61.0018C855.17 60.9848 855.325 61.0905 855.439 61.2538C855.478 61.309 855.483 61.3959 855.484 61.4685C855.489 61.7416 855.486 62.0148 855.486 62.2884C855.486 65.1664 855.486 68.044 855.486 70.922H855.487Z" fill="white"/>
<path d="M855.951 90.8895C851.259 90.8895 846.568 90.8904 841.876 90.8849C841.733 90.8849 841.582 90.8352 841.448 90.7777C841.177 90.6619 841.158 90.1501 841.425 89.9914C841.865 89.7298 842.303 89.4631 842.745 89.2047C843.292 88.886 843.842 88.5733 844.39 88.2584C845.272 87.7516 846.155 87.2472 847.035 86.7382C847.713 86.346 848.387 85.9455 849.064 85.5528C850.07 84.9706 851.079 84.3926 852.086 83.8114C853.038 83.2619 853.988 82.7088 854.94 82.1606C855.228 81.9947 855.522 81.8388 855.814 81.6792C855.968 81.5955 856.111 81.6576 856.241 81.7321C857.399 82.3975 858.555 83.066 859.71 83.736C860.58 84.2409 861.448 84.7508 862.318 85.2571C863.162 85.7482 864.007 86.2388 864.852 86.7271C865.693 87.2132 866.536 87.6965 867.378 88.1811C868.111 88.6028 868.844 89.0235 869.577 89.4447C869.865 89.6107 870.156 89.7726 870.442 89.9427C870.636 90.0586 870.717 90.3032 870.653 90.5377C870.601 90.7276 870.395 90.8757 870.163 90.8881C870.099 90.8913 870.036 90.889 869.972 90.889C865.298 90.889 860.624 90.889 855.95 90.889L855.951 90.8895Z" fill="white"/>
</g>
<g filter="url(#filter10_b_3000_1339)">
<circle cx="857" cy="1070" r="50" fill="url(#paint20_linear_3000_1339)" fill-opacity="0.4"/>
<circle cx="857" cy="1070" r="49.3631" stroke="url(#paint21_linear_3000_1339)" stroke-width="1.27371"/>
</g>
<g filter="url(#filter11_b_3000_1339)">
<circle cx="857" cy="1070" r="37.5" fill="url(#paint22_linear_3000_1339)"/>
<circle cx="857" cy="1070" r="37.0335" stroke="url(#paint23_linear_3000_1339)" stroke-width="0.932974"/>
</g>
<g clip-path="url(#clip3_3000_1339)">
<path fill-rule="evenodd" clip-rule="evenodd" d="M873 1070C873 1078.84 865.837 1086 857 1086C848.163 1086 841 1078.84 841 1070C841 1070 841 1070 841 1070C841 1071.17 841.126 1072.31 841.364 1073.4C841.347 1072.86 841.377 1072.31 841.461 1071.79L842.887 1077.32C842.92 1077.46 842.956 1077.6 842.996 1077.74L842.887 1077.32C842.754 1076.73 842.674 1076.07 842.626 1075.25C842.53 1073.62 843.136 1071.07 844.153 1069.67C845.091 1068.38 847.205 1067.17 849.221 1068.24C850.285 1068.81 851.426 1070.98 850.149 1075.53C849.459 1077.99 849.128 1080.76 850.825 1083.11C852.252 1085.08 854.863 1085.59 857.118 1084.97C859.938 1084.2 861.502 1081.98 862.144 1079.22C862.6 1077.26 862.296 1075.27 861.516 1073.39C860.99 1072.12 860.396 1071.2 859.866 1070.37C859.049 1069.1 858.383 1068.07 858.347 1066.37C858.345 1066.31 858.344 1066.25 858.343 1066.18C858.33 1065.23 858.307 1063.63 857 1063.76C855.677 1063.88 855.841 1065.38 856.129 1066.32C856.408 1067.22 856.969 1068.03 857.618 1068.98C858.007 1069.54 858.428 1070.16 858.839 1070.86C859.659 1072.27 860.203 1073.3 860.319 1074.87C860.44 1076.5 859.993 1078.29 859.042 1079.71C858.16 1081.04 856.263 1082.28 854.324 1081.38C853.618 1081.05 853.186 1080.43 852.983 1079.77C852.554 1078.38 852.791 1077 853.053 1075.47C853.18 1074.73 853.313 1073.96 853.38 1073.13C853.726 1068.89 850.868 1063.08 845.369 1065.77C843.603 1066.63 842.222 1068.9 841.634 1070.99C841.562 1071.25 841.504 1071.52 841.461 1071.79L841 1070C841 1061.16 848.163 1054 857 1054C863.381 1054 868.889 1057.73 871.458 1063.14C871.542 1063.62 871.597 1064.15 871.633 1064.78C871.729 1066.41 871.123 1068.96 870.107 1070.36C869.168 1071.65 867.054 1072.86 865.038 1071.79C863.974 1071.22 862.834 1069.05 864.11 1064.5C864.8 1062.04 865.131 1059.27 863.435 1056.92C862.007 1054.95 859.396 1054.44 857.141 1055.06C854.322 1055.83 852.757 1058.05 852.116 1060.81C851.659 1062.78 851.963 1064.76 852.743 1066.64C853.269 1067.91 853.863 1068.83 854.394 1069.66C855.21 1070.93 855.877 1071.97 855.913 1073.66C855.914 1073.72 855.915 1073.78 855.916 1073.85L855.916 1073.85C855.93 1074.81 855.952 1076.4 857.259 1076.28C858.582 1076.15 858.418 1074.65 858.13 1073.72C857.851 1072.81 857.29 1072 856.641 1071.06C856.252 1070.49 855.831 1069.88 855.42 1069.17C854.599 1067.76 854.055 1066.73 853.94 1065.16C853.819 1063.53 854.265 1061.75 855.217 1060.32C856.099 1059 857.996 1057.75 859.934 1058.66C860.641 1058.99 861.072 1059.6 861.275 1060.26C861.705 1061.66 861.468 1063.03 861.205 1064.56C861.079 1065.3 860.946 1066.07 860.878 1066.9C860.533 1071.14 863.391 1076.95 868.89 1074.26C870.656 1073.4 872.037 1071.14 872.624 1069.04L871.458 1063.14C872.447 1065.22 873 1067.54 873 1070Z" fill="black"/>
<path d="M862.144 1079.22C862.6 1077.26 862.296 1075.27 861.516 1073.39C860.18 1070.17 858.405 1069.17 858.347 1066.37C858.327 1065.46 858.397 1063.62 857 1063.76C855.677 1063.88 855.841 1065.39 856.129 1066.32C856.576 1067.76 857.744 1068.98 858.839 1070.86C859.66 1072.27 860.203 1073.3 860.319 1074.87C860.439 1076.5 859.993 1078.29 859.042 1079.71C858.159 1081.04 856.263 1082.29 854.324 1081.38C853.618 1081.05 853.186 1080.44 852.983 1079.78C852.348 1077.7 853.173 1075.68 853.38 1073.13C853.726 1068.9 850.867 1063.08 845.369 1065.77C843.603 1066.64 842.222 1068.9 841.634 1071C841.42 1071.76 841.339 1072.58 841.364 1073.4C841.698 1074.94 842.253 1076.4 842.996 1077.74C842.795 1077.05 842.686 1076.27 842.626 1075.26C842.53 1073.62 843.137 1071.07 844.153 1069.68C845.09 1068.39 847.205 1067.17 849.221 1068.24C850.285 1068.81 851.426 1070.98 850.149 1075.53C849.458 1078 849.127 1080.76 850.825 1083.11C852.252 1085.09 854.863 1085.59 857.118 1084.98C859.938 1084.2 861.502 1081.98 862.144 1079.22Z" fill="#C8D433"/>
<path d="M872.624 1069.04C872.734 1068.65 872.809 1068.24 872.852 1067.82C872.852 1067.83 872.853 1067.83 872.853 1067.83C872.627 1066.17 872.149 1064.59 871.456 1063.14C871.54 1063.62 871.595 1064.15 871.632 1064.78C871.728 1066.41 871.121 1068.96 870.105 1070.36C869.168 1071.65 867.052 1072.86 865.037 1071.79C863.973 1071.22 862.832 1069.05 864.109 1064.5C864.8 1062.04 865.131 1059.27 863.433 1056.92C862.006 1054.95 859.395 1054.44 857.14 1055.06C854.32 1055.83 852.755 1058.05 852.114 1060.81C851.658 1062.77 851.962 1064.76 852.742 1066.64C854.078 1069.86 855.852 1070.86 855.911 1073.66C855.931 1074.58 855.861 1076.41 857.258 1076.27C858.581 1076.15 858.417 1074.65 858.129 1073.72C857.682 1072.27 856.514 1071.05 855.419 1069.17C854.598 1067.76 854.055 1066.73 853.938 1065.16C853.818 1063.53 854.264 1061.74 855.216 1060.32C856.098 1058.99 857.995 1057.75 859.933 1058.65C860.64 1058.98 861.071 1059.6 861.274 1060.26C861.909 1062.33 861.084 1064.35 860.877 1066.9C860.531 1071.14 863.39 1076.95 868.889 1074.26C870.655 1073.4 872.037 1071.14 872.624 1069.04Z" fill="#C6D535"/>
</g>
<g filter="url(#filter12_b_3000_1339)">
<circle cx="1111" cy="775" r="50" fill="url(#paint24_linear_3000_1339)" fill-opacity="0.4"/>
<circle cx="1111" cy="775" r="49.3631" stroke="url(#paint25_linear_3000_1339)" stroke-width="1.27371"/>
</g>
<g filter="url(#filter13_b_3000_1339)">
<circle cx="1111" cy="775" r="36.6242" fill="url(#paint26_linear_3000_1339)"/>
<circle cx="1111" cy="775" r="36.1577" stroke="url(#paint27_linear_3000_1339)" stroke-width="0.932974"/>
</g>
<path d="M1107.23 774.841C1107.08 774.841 1106.92 774.841 1106.76 774.841C1106.25 774.841 1105.75 774.847 1105.24 774.837C1105.06 774.834 1104.93 774.886 1104.8 775.026C1104.25 775.639 1103.68 776.242 1103.12 776.849C1102.67 777.338 1102.22 777.827 1101.77 778.316C1101.76 778.328 1101.74 778.332 1101.71 778.348C1101.69 778.311 1101.66 778.276 1101.66 778.237C1101.65 778.167 1101.65 778.096 1101.65 778.024C1101.65 776.345 1101.65 774.666 1101.64 772.986C1101.64 772.832 1101.69 772.716 1101.79 772.604C1102.19 772.154 1102.59 771.701 1102.99 771.248C1103.06 771.173 1103.13 771.098 1103.2 770.966C1103.05 771.029 1102.97 771.115 1102.88 771.185C1102.42 771.567 1101.95 771.956 1101.49 772.338C1101.36 772.437 1101.29 772.562 1101.23 772.703C1101.07 773.08 1100.92 773.457 1100.76 773.834C1100.74 773.875 1100.73 773.917 1100.71 773.957C1100.68 774.019 1100.63 774.048 1100.56 774.043C1100.39 774.03 1100.23 774.022 1100.06 774.012C1099.84 773.998 1099.62 773.981 1099.39 773.97C1099.24 773.963 1099.09 773.967 1098.94 773.959C1098.67 773.946 1098.4 773.927 1098.11 773.908C1098.12 773.842 1098.13 773.79 1098.15 773.744C1098.45 773.033 1098.68 772.3 1098.85 771.544C1098.96 771.024 1099.06 770.502 1099.1 769.971C1099.12 769.689 1099.16 769.408 1099.19 769.126C1099.2 769.056 1099.19 768.984 1099.19 768.913C1099.21 768.754 1099.22 768.596 1099.23 768.437C1099.24 768.375 1099.24 768.313 1099.24 768.251C1099.24 768.029 1099.23 767.806 1099.28 767.588C1099.29 767.572 1099.29 767.553 1099.29 767.535C1099.3 767.154 1099.32 766.773 1099.33 766.392C1099.35 765.799 1099.49 765.231 1099.73 764.693C1100.12 763.839 1100.6 763.041 1101.18 762.311C1101.62 761.762 1102.14 761.29 1102.69 760.851C1103.29 760.379 1103.91 759.96 1104.58 759.596C1105.76 758.947 1107 758.454 1108.32 758.167C1108.76 758.069 1109.22 757.997 1109.67 757.933C1109.88 757.905 1110.08 757.897 1110.28 757.892C1110.64 757.884 1110.99 757.884 1111.35 757.886C1111.93 757.888 1112.5 757.964 1113.06 758.078C1113.77 758.222 1114.46 758.426 1115.12 758.704C1115.72 758.955 1116.3 759.247 1116.85 759.586C1117.53 759.999 1118.16 760.469 1118.75 761.001C1119.13 761.347 1119.49 761.713 1119.81 762.119C1119.89 762.217 1119.95 762.323 1120.02 762.429C1120.03 762.452 1120.02 762.492 1120.02 762.542C1119.9 762.492 1119.82 762.427 1119.74 762.362C1119.22 761.959 1118.69 761.563 1118.14 761.205C1116.93 760.421 1115.64 759.834 1114.23 759.518C1113.74 759.411 1113.25 759.327 1112.76 759.299C1112.55 759.287 1112.33 759.261 1112.12 759.274C1111.83 759.292 1111.54 759.328 1111.25 759.349C1110.7 759.389 1110.16 759.497 1109.62 759.613C1108.9 759.771 1108.19 759.999 1107.5 760.282C1106.2 760.81 1105.02 761.524 1103.96 762.431C1103.43 762.884 1102.98 763.404 1102.67 764.042C1102.45 764.509 1102.29 764.995 1102.23 765.51C1102.19 765.791 1102.14 766.071 1102.15 766.356C1102.15 766.417 1102.16 766.478 1102.16 766.554C1102.22 766.55 1102.27 766.554 1102.32 766.542C1103.11 766.324 1103.89 766.105 1104.68 765.884C1104.85 765.834 1105.03 765.78 1105.2 765.729C1105.26 765.795 1105.22 765.843 1105.2 765.883C1105.02 766.221 1104.8 766.536 1104.55 766.825C1104.15 767.284 1103.7 767.679 1103.16 767.978C1103.1 768.017 1103.03 768.062 1102.96 768.111C1103.11 768.139 1103.12 768.138 1103.48 767.996C1103.65 767.927 1103.82 767.855 1103.99 767.77C1104.14 767.689 1104.3 767.597 1104.44 767.493C1104.59 767.385 1104.73 767.256 1104.88 767.124C1105.02 767.281 1105.16 767.431 1105.29 767.583C1105.67 768.019 1106.05 768.456 1106.42 768.892C1106.86 769.396 1107.3 769.898 1107.73 770.401C1108.1 770.824 1108.47 771.247 1108.83 771.669C1109.27 772.178 1109.72 772.688 1110.16 773.198C1110.29 773.352 1110.43 773.506 1110.56 773.664C1110.64 773.762 1110.73 773.808 1110.86 773.794C1110.89 773.791 1110.93 773.794 1110.96 773.794C1113.5 773.794 1116.03 773.793 1118.56 773.797C1118.76 773.797 1118.93 773.755 1119.1 773.666C1119.71 773.347 1120.26 772.954 1120.75 772.471C1121.51 771.724 1122.08 770.853 1122.43 769.844C1122.59 769.372 1122.7 768.887 1122.76 768.395C1122.8 768.018 1122.83 767.636 1122.81 767.253C1122.8 767.192 1122.79 767.131 1122.79 767.068C1122.78 766.928 1122.77 766.788 1122.75 766.614C1122.81 766.644 1122.85 766.653 1122.87 766.674C1123.27 767.111 1123.59 767.599 1123.8 768.151C1123.99 768.616 1124.09 769.1 1124.1 769.602C1124.13 770.4 1123.94 771.152 1123.61 771.871C1123.34 772.463 1123.02 773.026 1122.6 773.524C1122.04 774.183 1121.39 774.723 1120.62 775.115C1120.47 775.191 1120.32 775.259 1120.16 775.332C1120.13 775.347 1120.11 775.369 1120.06 775.397C1120.23 775.608 1120.44 775.751 1120.63 775.922C1120.81 776.091 1121 776.248 1121.19 776.412C1121.38 776.581 1121.58 776.752 1121.77 776.925C1121.76 777.153 1121.69 777.363 1121.65 777.578C1121.54 778.134 1121.43 778.689 1121.31 779.244C1121.21 779.721 1121.11 780.197 1121.01 780.673C1120.98 780.817 1121.01 780.952 1121.07 781.086C1121.31 781.642 1121.54 782.199 1121.77 782.756C1122.24 783.886 1122.71 785.017 1123.18 786.146C1123.23 786.272 1123.25 786.393 1123.24 786.533C1123.2 786.787 1123.2 787.046 1123.18 787.302C1123.15 787.566 1123.12 787.83 1123.09 788.094C1123.09 788.129 1123.09 788.165 1123.09 788.2C1123.05 788.534 1123.02 788.869 1122.99 789.204C1122.97 789.424 1122.96 789.646 1122.94 789.867C1122.91 790.22 1122.88 790.573 1122.85 790.927C1122.85 790.943 1122.83 790.958 1122.82 790.991C1122.61 791.041 1122.39 791.008 1122.17 791.013C1121.95 791.017 1121.73 791.022 1121.49 791.006C1121.49 790.943 1121.47 790.893 1121.47 790.844C1121.48 790.631 1121.48 790.42 1121.51 790.207C1121.55 789.927 1121.55 789.641 1121.57 789.357C1121.58 789.047 1121.6 788.737 1121.62 788.427C1121.65 788.003 1121.65 787.576 1121.71 787.154C1121.75 786.819 1121.73 786.482 1121.78 786.142C1121.76 786.119 1121.74 786.089 1121.72 786.068C1119.3 784.219 1116.88 782.367 1114.44 780.521C1114.5 780.692 1114.52 780.717 1115.24 781.438C1115.52 781.721 1115.8 782.01 1116.11 782.326C1116.06 782.357 1116.02 782.38 1115.98 782.404C1115.61 782.646 1115.24 782.887 1114.87 783.132C1114.75 783.207 1114.64 783.244 1114.5 783.256C1114.15 783.287 1113.81 783.324 1113.47 783.351C1112.89 783.396 1112.32 783.466 1111.75 783.521C1111.51 783.544 1111.27 783.553 1111.03 783.572C1110.87 783.584 1110.72 783.607 1110.56 783.619C1110.46 783.627 1110.37 783.61 1110.27 783.576C1109.75 783.392 1109.23 783.216 1108.71 783.035C1108.14 782.837 1107.57 782.636 1107 782.438C1106.85 782.386 1106.7 782.336 1106.55 782.258C1106.73 781.196 1106.96 780.149 1107.12 779.088C1106.94 779.401 1106.84 779.738 1106.71 780.065C1106.57 780.394 1106.45 780.727 1106.32 781.058C1106.19 781.388 1106.06 781.718 1105.93 782.049C1105.81 782.379 1105.68 782.711 1105.55 783.042C1105.42 783.373 1105.29 783.704 1105.17 784.036C1105.04 784.375 1104.91 784.714 1104.77 785.053C1104.64 785.384 1104.51 785.713 1104.38 786.043C1104.25 786.373 1104.12 786.704 1104 787.035C1103.87 787.366 1103.74 787.697 1103.61 788.028C1103.49 788.359 1103.36 788.69 1103.23 789.021C1103.1 789.351 1102.97 789.681 1102.84 790.012C1102.71 790.342 1102.59 790.674 1102.45 790.988C1102.21 791.022 1101.1 791.023 1100.87 790.993C1100.82 790.926 1100.85 790.858 1100.87 790.793C1101.02 790.283 1101.17 789.773 1101.32 789.263C1101.69 787.978 1102.06 786.693 1102.44 785.408C1102.48 785.263 1102.51 785.115 1102.57 784.974C1102.64 784.774 1102.63 784.57 1102.6 784.369C1102.54 783.904 1102.46 783.441 1102.39 782.976C1102.29 782.267 1102.2 781.557 1102.1 780.847C1102.03 780.357 1101.95 779.869 1101.88 779.38C1101.86 779.257 1101.85 779.133 1101.83 779.011C1101.81 778.904 1101.84 778.826 1101.92 778.747C1102.31 778.313 1102.7 777.877 1103.09 777.439C1103.51 776.961 1103.94 776.481 1104.36 776.003C1104.6 775.738 1104.84 775.479 1105.07 775.211C1105.14 775.127 1105.24 775.105 1105.33 775.093C1105.54 775.064 1105.75 775.052 1105.96 775.032C1106.13 775.016 1106.3 774.998 1106.47 774.979C1106.72 774.951 1106.97 774.919 1107.23 774.889C1107.23 774.874 1107.23 774.858 1107.23 774.842L1107.23 774.841ZM1099.95 769.911C1100.66 769.922 1101.32 769.803 1101.89 769.371C1102.06 769.242 1102.2 769.086 1102.32 768.906C1102.35 768.869 1102.37 768.831 1102.39 768.791C1102.42 768.714 1102.38 768.623 1102.3 768.594C1102.25 768.573 1102.18 768.558 1102.12 768.559C1102.03 768.56 1101.93 768.564 1101.83 768.587C1101.3 768.719 1100.79 768.927 1100.34 769.261C1100.22 769.35 1100.12 769.465 1100.03 769.579C1099.96 769.659 1099.91 769.758 1099.95 769.911H1099.95Z" fill="white"/>
<path d="M1119.23 790.977C1119.02 791.025 1117.99 791.027 1117.76 790.982C1117.71 790.852 1117.77 790.722 1117.78 790.595C1117.85 790.069 1117.93 789.546 1118 789.021C1118.07 788.512 1118.12 788.002 1118.19 787.493C1118.23 787.196 1118.28 786.9 1118.32 786.604C1118.34 786.491 1118.32 786.403 1118.22 786.323C1117.41 785.634 1116.61 784.94 1115.8 784.247C1115.56 784.045 1115.33 783.842 1115.1 783.638C1115.06 783.604 1115.03 783.562 1114.99 783.524C1115.16 783.361 1116.15 782.728 1116.38 782.641C1116.53 782.76 1116.69 782.885 1116.85 783.012C1117.57 783.598 1118.29 784.186 1119.01 784.772C1119.28 784.984 1119.54 785.198 1119.8 785.411C1119.84 785.445 1119.88 785.482 1119.92 785.517C1119.98 785.569 1119.99 785.634 1119.98 785.709C1119.89 786.357 1119.8 787.005 1119.71 787.653C1119.62 788.292 1119.53 788.931 1119.44 789.569C1119.37 790.041 1119.3 790.512 1119.23 790.978L1119.23 790.977Z" fill="white"/>
<path d="M1106.86 790.982C1106.65 791.02 1105.51 791.028 1105.18 790.994C1105.16 790.939 1105.13 790.876 1105.11 790.809C1104.87 789.669 1104.63 788.528 1104.39 787.387C1104.36 787.273 1104.36 787.164 1104.4 787.048C1104.7 786.236 1105 785.42 1105.31 784.606C1105.31 784.591 1105.33 784.58 1105.35 784.553C1105.38 784.6 1105.41 784.639 1105.42 784.683C1105.66 785.708 1105.89 786.734 1106.13 787.759C1106.36 788.776 1106.6 789.791 1106.84 790.807C1106.85 790.864 1106.85 790.924 1106.86 790.982H1106.86Z" fill="white"/>
<g filter="url(#filter14_b_3000_1339)">
<circle cx="1109" cy="374" r="50" fill="url(#paint28_linear_3000_1339)" fill-opacity="0.4"/>
<circle cx="1109" cy="374" r="49.3631" stroke="url(#paint29_linear_3000_1339)" stroke-width="1.27371"/>
</g>
<g filter="url(#filter15_b_3000_1339)">
<circle cx="1109" cy="374" r="36.6242" fill="url(#paint30_linear_3000_1339)"/>
<circle cx="1109" cy="374" r="36.1577" stroke="url(#paint31_linear_3000_1339)" stroke-width="0.932974"/>
</g>
<g clip-path="url(#clip4_3000_1339)">
<path fill-rule="evenodd" clip-rule="evenodd" d="M1108.61 354.085C1104.87 354.362 1101.28 355.744 1098.32 358.057C1095.36 360.37 1093.15 363.509 1091.98 367.078C1090.8 370.647 1090.71 374.484 1091.72 378.105C1092.72 381.725 1094.78 384.966 1097.63 387.417C1100.47 389.868 1103.99 391.418 1107.72 391.873C1111.45 392.327 1115.23 391.664 1118.58 389.969C1121.93 388.273 1124.71 385.621 1126.55 382.348C1128.4 379.074 1129.23 375.327 1128.95 371.581C1128.76 369.096 1128.09 366.671 1126.97 364.447C1125.85 362.222 1124.3 360.24 1122.41 358.615C1120.52 356.99 1118.33 355.753 1115.96 354.976C1113.59 354.198 1111.1 353.896 1108.61 354.085ZM1108.52 358.864C1111.32 358.57 1114.14 359.113 1116.63 360.423C1119.12 361.733 1121.17 363.753 1122.52 366.226C1123.86 368.699 1124.44 371.515 1124.19 374.318C1123.93 377.122 1122.85 379.787 1121.08 381.977C1119.31 384.167 1116.94 385.783 1114.25 386.623C1111.56 387.462 1108.69 387.486 1105.99 386.692C1103.29 385.898 1100.88 384.322 1099.08 382.162C1097.27 380.002 1096.15 377.356 1095.84 374.557C1095.63 372.692 1095.8 370.803 1096.32 369.001C1096.85 367.199 1097.73 365.519 1098.9 364.058C1100.08 362.597 1101.54 361.384 1103.19 360.489C1104.84 359.594 1106.65 359.034 1108.52 358.843V358.864Z" fill="white"/>
</g>
<defs>
<filter id="filter0_b_3000_1339" x="246.577" y="971.577" width="252.846" height="252.846" filterUnits="userSpaceOnUse" color-interpolation-filters="sRGB">
<feFlood flood-opacity="0" result="BackgroundImageFix"/>
<feGaussianBlur in="BackgroundImageFix" stdDeviation="38.2114"/>
<feComposite in2="SourceAlpha" operator="in" result="effect1_backgroundBlur_3000_1339"/>
<feBlend mode="normal" in="SourceGraphic" in2="effect1_backgroundBlur_3000_1339" result="shape"/>
</filter>
<filter id="filter1_b_3000_1339" x="280.398" y="1005.4" width="185.205" height="185.205" filterUnits="userSpaceOnUse" color-interpolation-filters="sRGB">
<feFlood flood-opacity="0" result="BackgroundImageFix"/>
<feGaussianBlur in="BackgroundImageFix" stdDeviation="27.9892"/>
<feComposite in2="SourceAlpha" operator="in" result="effect1_backgroundBlur_3000_1339"/>
<feBlend mode="normal" in="SourceGraphic" in2="effect1_backgroundBlur_3000_1339" result="shape"/>
</filter>
<filter id="filter2_b_3000_1339" x="245.577" y="-76.4228" width="252.846" height="252.846" filterUnits="userSpaceOnUse" color-interpolation-filters="sRGB">
<feFlood flood-opacity="0" result="BackgroundImageFix"/>
<feGaussianBlur in="BackgroundImageFix" stdDeviation="38.2114"/>
<feComposite in2="SourceAlpha" operator="in" result="effect1_backgroundBlur_3000_1339"/>
<feBlend mode="normal" in="SourceGraphic" in2="effect1_backgroundBlur_3000_1339" result="shape"/>
</filter>
<filter id="filter3_b_3000_1339" x="279.398" y="-42.6026" width="185.205" height="185.205" filterUnits="userSpaceOnUse" color-interpolation-filters="sRGB">
<feFlood flood-opacity="0" result="BackgroundImageFix"/>
<feGaussianBlur in="BackgroundImageFix" stdDeviation="27.9892"/>
<feComposite in2="SourceAlpha" operator="in" result="effect1_backgroundBlur_3000_1339"/>
<feBlend mode="normal" in="SourceGraphic" in2="effect1_backgroundBlur_3000_1339" result="shape"/>
</filter>
<filter id="filter4_b_3000_1339" x="-74.4228" y="648.577" width="252.846" height="252.846" filterUnits="userSpaceOnUse" color-interpolation-filters="sRGB">
<feFlood flood-opacity="0" result="BackgroundImageFix"/>
<feGaussianBlur in="BackgroundImageFix" stdDeviation="38.2114"/>
<feComposite in2="SourceAlpha" operator="in" result="effect1_backgroundBlur_3000_1339"/>
<feBlend mode="normal" in="SourceGraphic" in2="effect1_backgroundBlur_3000_1339" result="shape"/>
</filter>
<filter id="filter5_b_3000_1339" x="-40.6025" y="682.397" width="185.205" height="185.205" filterUnits="userSpaceOnUse" color-interpolation-filters="sRGB">
<feFlood flood-opacity="0" result="BackgroundImageFix"/>
<feGaussianBlur in="BackgroundImageFix" stdDeviation="27.9892"/>
<feComposite in2="SourceAlpha" operator="in" result="effect1_backgroundBlur_3000_1339"/>
<feBlend mode="normal" in="SourceGraphic" in2="effect1_backgroundBlur_3000_1339" result="shape"/>
</filter>
<filter id="filter6_b_3000_1339" x="-76.4228" y="242.577" width="252.846" height="252.846" filterUnits="userSpaceOnUse" color-interpolation-filters="sRGB">
<feFlood flood-opacity="0" result="BackgroundImageFix"/>
<feGaussianBlur in="BackgroundImageFix" stdDeviation="38.2114"/>
<feComposite in2="SourceAlpha" operator="in" result="effect1_backgroundBlur_3000_1339"/>
<feBlend mode="normal" in="SourceGraphic" in2="effect1_backgroundBlur_3000_1339" result="shape"/>
</filter>
<filter id="filter7_b_3000_1339" x="-42.6025" y="276.397" width="185.205" height="185.205" filterUnits="userSpaceOnUse" color-interpolation-filters="sRGB">
<feFlood flood-opacity="0" result="BackgroundImageFix"/>
<feGaussianBlur in="BackgroundImageFix" stdDeviation="27.9892"/>
<feComposite in2="SourceAlpha" operator="in" result="effect1_backgroundBlur_3000_1339"/>
<feBlend mode="normal" in="SourceGraphic" in2="effect1_backgroundBlur_3000_1339" result="shape"/>
</filter>
<filter id="filter8_b_3000_1339" x="729.577" y="-50.4228" width="252.846" height="252.846" filterUnits="userSpaceOnUse" color-interpolation-filters="sRGB">
<feFlood flood-opacity="0" result="BackgroundImageFix"/>
<feGaussianBlur in="BackgroundImageFix" stdDeviation="38.2114"/>
<feComposite in2="SourceAlpha" operator="in" result="effect1_backgroundBlur_3000_1339"/>
<feBlend mode="normal" in="SourceGraphic" in2="effect1_backgroundBlur_3000_1339" result="shape"/>
</filter>
<filter id="filter9_b_3000_1339" x="763.398" y="-16.6026" width="185.205" height="185.205" filterUnits="userSpaceOnUse" color-interpolation-filters="sRGB">
<feFlood flood-opacity="0" result="BackgroundImageFix"/>
<feGaussianBlur in="BackgroundImageFix" stdDeviation="27.9892"/>
<feComposite in2="SourceAlpha" operator="in" result="effect1_backgroundBlur_3000_1339"/>
<feBlend mode="normal" in="SourceGraphic" in2="effect1_backgroundBlur_3000_1339" result="shape"/>
</filter>
<filter id="filter10_b_3000_1339" x="730.577" y="943.577" width="252.846" height="252.846" filterUnits="userSpaceOnUse" color-interpolation-filters="sRGB">
<feFlood flood-opacity="0" result="BackgroundImageFix"/>
<feGaussianBlur in="BackgroundImageFix" stdDeviation="38.2114"/>
<feComposite in2="SourceAlpha" operator="in" result="effect1_backgroundBlur_3000_1339"/>
<feBlend mode="normal" in="SourceGraphic" in2="effect1_backgroundBlur_3000_1339" result="shape"/>
</filter>
<filter id="filter11_b_3000_1339" x="763.522" y="976.522" width="186.957" height="186.957" filterUnits="userSpaceOnUse" color-interpolation-filters="sRGB">
<feFlood flood-opacity="0" result="BackgroundImageFix"/>
<feGaussianBlur in="BackgroundImageFix" stdDeviation="27.9892"/>
<feComposite in2="SourceAlpha" operator="in" result="effect1_backgroundBlur_3000_1339"/>
<feBlend mode="normal" in="SourceGraphic" in2="effect1_backgroundBlur_3000_1339" result="shape"/>
</filter>
<filter id="filter12_b_3000_1339" x="984.577" y="648.577" width="252.846" height="252.846" filterUnits="userSpaceOnUse" color-interpolation-filters="sRGB">
<feFlood flood-opacity="0" result="BackgroundImageFix"/>
<feGaussianBlur in="BackgroundImageFix" stdDeviation="38.2114"/>
<feComposite in2="SourceAlpha" operator="in" result="effect1_backgroundBlur_3000_1339"/>
<feBlend mode="normal" in="SourceGraphic" in2="effect1_backgroundBlur_3000_1339" result="shape"/>
</filter>
<filter id="filter13_b_3000_1339" x="1018.4" y="682.397" width="185.205" height="185.205" filterUnits="userSpaceOnUse" color-interpolation-filters="sRGB">
<feFlood flood-opacity="0" result="BackgroundImageFix"/>
<feGaussianBlur in="BackgroundImageFix" stdDeviation="27.9892"/>
<feComposite in2="SourceAlpha" operator="in" result="effect1_backgroundBlur_3000_1339"/>
<feBlend mode="normal" in="SourceGraphic" in2="effect1_backgroundBlur_3000_1339" result="shape"/>
</filter>
<filter id="filter14_b_3000_1339" x="982.577" y="247.577" width="252.846" height="252.846" filterUnits="userSpaceOnUse" color-interpolation-filters="sRGB">
<feFlood flood-opacity="0" result="BackgroundImageFix"/>
<feGaussianBlur in="BackgroundImageFix" stdDeviation="38.2114"/>
<feComposite in2="SourceAlpha" operator="in" result="effect1_backgroundBlur_3000_1339"/>
<feBlend mode="normal" in="SourceGraphic" in2="effect1_backgroundBlur_3000_1339" result="shape"/>
</filter>
<filter id="filter15_b_3000_1339" x="1016.4" y="281.397" width="185.205" height="185.205" filterUnits="userSpaceOnUse" color-interpolation-filters="sRGB">
<feFlood flood-opacity="0" result="BackgroundImageFix"/>
<feGaussianBlur in="BackgroundImageFix" stdDeviation="27.9892"/>
<feComposite in2="SourceAlpha" operator="in" result="effect1_backgroundBlur_3000_1339"/>
<feBlend mode="normal" in="SourceGraphic" in2="effect1_backgroundBlur_3000_1339" result="shape"/>
</filter>
<linearGradient id="paint0_linear_3000_1339" x1="363.319" y1="1048" x2="435.592" y2="1070.61" gradientUnits="userSpaceOnUse">
<stop stop-color="#292D32"/>
<stop offset="1" stop-color="#7B8A98"/>
</linearGradient>
<linearGradient id="paint1_linear_3000_1339" x1="310.289" y1="1105.52" x2="435.787" y2="1105.52" gradientUnits="userSpaceOnUse">
<stop stop-color="#262C33"/>
<stop offset="1" stop-color="#718599" stop-opacity="0"/>
</linearGradient>
<linearGradient id="paint2_linear_3000_1339" x1="373.365" y1="1054.66" x2="398.306" y2="1083.72" gradientUnits="userSpaceOnUse">
<stop stop-color="#A6B8FB"/>
<stop offset="0.41" stop-color="#5877E7"/>
<stop offset="1" stop-color="#345CE3"/>
</linearGradient>
<linearGradient id="paint3_linear_3000_1339" x1="327.066" y1="1103.51" x2="418.991" y2="1103.51" gradientUnits="userSpaceOnUse">
<stop stop-color="#262C33"/>
<stop offset="1" stop-color="#718599" stop-opacity="0"/>
</linearGradient>
<linearGradient id="paint4_linear_3000_1339" x1="362.319" y1="0.000139793" x2="434.592" y2="22.6111" gradientUnits="userSpaceOnUse">
<stop stop-color="#292D32"/>
<stop offset="1" stop-color="#7B8A98"/>
</linearGradient>
<linearGradient id="paint5_linear_3000_1339" x1="309.289" y1="57.5188" x2="434.787" y2="57.5188" gradientUnits="userSpaceOnUse">
<stop stop-color="#262C33"/>
<stop offset="1" stop-color="#718599" stop-opacity="0"/>
</linearGradient>
<linearGradient id="paint6_linear_3000_1339" x1="372.365" y1="6.65589" x2="397.306" y2="35.7184" gradientUnits="userSpaceOnUse">
<stop stop-color="#FF6262"/>
<stop offset="0.41" stop-color="#F80823"/>
<stop offset="1" stop-color="#C42436"/>
</linearGradient>
<linearGradient id="paint7_linear_3000_1339" x1="326.066" y1="55.5075" x2="417.991" y2="55.5075" gradientUnits="userSpaceOnUse">
<stop stop-color="#262C33"/>
<stop offset="1" stop-color="#718599" stop-opacity="0"/>
</linearGradient>
<linearGradient id="paint8_linear_3000_1339" x1="42.3193" y1="725" x2="114.592" y2="747.611" gradientUnits="userSpaceOnUse">
<stop stop-color="#292D32"/>
<stop offset="1" stop-color="#7B8A98"/>
</linearGradient>
<linearGradient id="paint9_linear_3000_1339" x1="-10.7108" y1="782.519" x2="114.787" y2="782.519" gradientUnits="userSpaceOnUse">
<stop stop-color="#262C33"/>
<stop offset="1" stop-color="#718599" stop-opacity="0"/>
</linearGradient>
<linearGradient id="paint10_linear_3000_1339" x1="52.3654" y1="731.656" x2="77.3063" y2="760.718" gradientUnits="userSpaceOnUse">
<stop stop-color="#81B3FF"/>
<stop offset="0.41" stop-color="#0064FA"/>
<stop offset="1" stop-color="#064FBD"/>
</linearGradient>
<linearGradient id="paint11_linear_3000_1339" x1="6.06554" y1="780.507" x2="97.9907" y2="780.507" gradientUnits="userSpaceOnUse">
<stop stop-color="#262C33"/>
<stop offset="1" stop-color="#718599" stop-opacity="0"/>
</linearGradient>
<linearGradient id="paint12_linear_3000_1339" x1="40.3193" y1="319" x2="112.592" y2="341.611" gradientUnits="userSpaceOnUse">
<stop stop-color="#292D32"/>
<stop offset="1" stop-color="#7B8A98"/>
</linearGradient>
<linearGradient id="paint13_linear_3000_1339" x1="-12.7108" y1="376.519" x2="112.787" y2="376.519" gradientUnits="userSpaceOnUse">
<stop stop-color="#262C33"/>
<stop offset="1" stop-color="#718599" stop-opacity="0"/>
</linearGradient>
<linearGradient id="paint14_linear_3000_1339" x1="50.3654" y1="325.656" x2="75.3063" y2="354.718" gradientUnits="userSpaceOnUse">
<stop stop-color="#444444"/>
<stop offset="0.41" stop-color="#1F1F1F"/>
<stop offset="1"/>
</linearGradient>
<linearGradient id="paint15_linear_3000_1339" x1="4.06554" y1="374.507" x2="95.9907" y2="374.507" gradientUnits="userSpaceOnUse">
<stop stop-color="#262C33"/>
<stop offset="1" stop-color="#718599" stop-opacity="0"/>
</linearGradient>
<linearGradient id="paint16_linear_3000_1339" x1="846.319" y1="26.0001" x2="918.592" y2="48.6111" gradientUnits="userSpaceOnUse">
<stop stop-color="#292D32"/>
<stop offset="1" stop-color="#7B8A98"/>
</linearGradient>
<linearGradient id="paint17_linear_3000_1339" x1="793.289" y1="83.5188" x2="918.787" y2="83.5188" gradientUnits="userSpaceOnUse">
<stop stop-color="#262C33"/>
<stop offset="1" stop-color="#718599" stop-opacity="0"/>
</linearGradient>
<linearGradient id="paint18_linear_3000_1339" x1="856.365" y1="32.6559" x2="881.306" y2="61.7184" gradientUnits="userSpaceOnUse">
<stop stop-color="#F2F2F2"/>
<stop offset="0.41" stop-color="#B6B8CE"/>
<stop offset="1" stop-color="#5072AF"/>
</linearGradient>
<linearGradient id="paint19_linear_3000_1339" x1="810.066" y1="81.5075" x2="901.991" y2="81.5075" gradientUnits="userSpaceOnUse">
<stop stop-color="#262C33"/>
<stop offset="1" stop-color="#718599" stop-opacity="0"/>
</linearGradient>
<linearGradient id="paint20_linear_3000_1339" x1="847.319" y1="1020" x2="919.592" y2="1042.61" gradientUnits="userSpaceOnUse">
<stop stop-color="#292D32"/>
<stop offset="1" stop-color="#7B8A98"/>
</linearGradient>
<linearGradient id="paint21_linear_3000_1339" x1="794.289" y1="1077.52" x2="919.787" y2="1077.52" gradientUnits="userSpaceOnUse">
<stop stop-color="#262C33"/>
<stop offset="1" stop-color="#718599" stop-opacity="0"/>
</linearGradient>
<linearGradient id="paint22_linear_3000_1339" x1="857.374" y1="1025.62" x2="882.911" y2="1055.38" gradientUnits="userSpaceOnUse">
<stop stop-color="#F5FF9C"/>
<stop offset="0.41" stop-color="#E6FA36"/>
<stop offset="1" stop-color="#E6FA36" stop-opacity="0.83"/>
</linearGradient>
<linearGradient id="paint23_linear_3000_1339" x1="809.967" y1="1075.64" x2="904.09" y2="1075.64" gradientUnits="userSpaceOnUse">
<stop stop-color="#262C33"/>
<stop offset="1" stop-color="#718599" stop-opacity="0"/>
</linearGradient>
<linearGradient id="paint24_linear_3000_1339" x1="1101.32" y1="725" x2="1173.59" y2="747.611" gradientUnits="userSpaceOnUse">
<stop stop-color="#292D32"/>
<stop offset="1" stop-color="#7B8A98"/>
</linearGradient>
<linearGradient id="paint25_linear_3000_1339" x1="1048.29" y1="782.519" x2="1173.79" y2="782.519" gradientUnits="userSpaceOnUse">
<stop stop-color="#262C33"/>
<stop offset="1" stop-color="#718599" stop-opacity="0"/>
</linearGradient>
<linearGradient id="paint26_linear_3000_1339" x1="1111.37" y1="731.656" x2="1136.31" y2="760.718" gradientUnits="userSpaceOnUse">
<stop stop-color="#F2F2F2"/>
<stop offset="0.41" stop-color="#19A29B"/>
<stop offset="1" stop-color="#12817B"/>
</linearGradient>
<linearGradient id="paint27_linear_3000_1339" x1="1065.07" y1="780.507" x2="1156.99" y2="780.507" gradientUnits="userSpaceOnUse">
<stop stop-color="#262C33"/>
<stop offset="1" stop-color="#718599" stop-opacity="0"/>
</linearGradient>
<linearGradient id="paint28_linear_3000_1339" x1="1099.32" y1="324" x2="1171.59" y2="346.611" gradientUnits="userSpaceOnUse">
<stop stop-color="#292D32"/>
<stop offset="1" stop-color="#7B8A98"/>
</linearGradient>
<linearGradient id="paint29_linear_3000_1339" x1="1046.29" y1="381.518" x2="1171.79" y2="381.518" gradientUnits="userSpaceOnUse">
<stop stop-color="#262C33"/>
<stop offset="1" stop-color="#718599" stop-opacity="0"/>
</linearGradient>
<linearGradient id="paint30_linear_3000_1339" x1="1109.37" y1="330.655" x2="1134.31" y2="359.718" gradientUnits="userSpaceOnUse">
<stop stop-color="#4D4D4D"/>
<stop offset="0.41" stop-color="#242424"/>
<stop offset="1"/>
</linearGradient>
<linearGradient id="paint31_linear_3000_1339" x1="1063.07" y1="379.507" x2="1154.99" y2="379.507" gradientUnits="userSpaceOnUse">
<stop stop-color="#262C33"/>
<stop offset="1" stop-color="#718599" stop-opacity="0"/>
</linearGradient>
<clipPath id="clip0_3000_1339">
<rect width="32" height="44.1032" fill="white" transform="translate(36 753)"/>
</clipPath>
<clipPath id="clip1_3000_1339">
<rect width="41" height="29" fill="white" transform="translate(30 354)"/>
</clipPath>
<clipPath id="clip2_3000_1339">
<rect width="32" height="29.8903" fill="white" transform="translate(840 61)"/>
</clipPath>
<clipPath id="clip3_3000_1339">
<rect width="32" height="32" fill="white" transform="translate(841 1054)"/>
</clipPath>
<clipPath id="clip4_3000_1339">
<rect width="38" height="38" fill="white" transform="translate(1091 354)"/>
</clipPath>
</defs>
</svg>
