<svg width="1589" height="1588" viewBox="0 0 1589 1588" fill="none" xmlns="http://www.w3.org/2000/svg">
<rect width="1589" height="1588" fill="black"/>
<circle opacity="0.5" cx="793.735" cy="794.396" r="218.605" transform="rotate(-44.9427 793.735 794.396)" stroke="url(#paint0_linear_509_518)"/>
<circle opacity="0.5" cx="793.735" cy="794.396" r="333.507" transform="rotate(-44.6418 793.735 794.396)" stroke="url(#paint1_linear_509_518)"/>
<path opacity="0.5" d="M1114.28 478.731C1288.46 655.386 1286.33 939.922 1109.52 1114.26C932.706 1288.6 648.168 1286.72 473.986 1110.06C299.803 933.405 301.933 648.869 478.745 474.532C655.557 300.195 940.094 302.075 1114.28 478.731Z" stroke="url(#paint2_linear_509_518)"/>
<path opacity="0.5" d="M1237.99 443.941C1431.05 688.735 1388.84 1043.91 1143.7 1237.24C898.56 1430.57 543.33 1388.85 350.27 1144.06C157.209 899.264 199.425 544.092 444.564 350.76C689.702 157.428 1044.93 199.147 1237.99 443.941Z" stroke="url(#paint3_linear_509_518)"/>
<g filter="url(#filter0_f_509_518)">
<ellipse cx="796" cy="793" rx="132" ry="139" fill="url(#paint4_linear_509_518)" fill-opacity="0.5"/>
</g>
<g filter="url(#filter1_b_509_518)">
<circle cx="794.131" cy="793.999" r="103.808" fill="url(#paint5_linear_509_518)" fill-opacity="0.4"/>
<circle cx="794.131" cy="793.999" r="103.171" stroke="url(#paint6_linear_509_518)" stroke-width="1.27371"/>
</g>
<g clip-path="url(#clip0_509_518)">
<path d="M755.445 774.593C768.904 782.633 788.526 793.648 788.526 793.648L784.914 783.093C784.914 783.093 748.255 765.349 743.226 757.911C743.261 757.946 742.022 766.517 755.445 774.593Z" fill="url(#paint7_linear_509_518)"/>
<path d="M823.77 782.633L799.792 797.154L794.125 811.18L788.529 797.402L764.55 782.881C764.55 782.881 735.79 765.632 733.63 758.902C733.63 758.902 734.126 772.078 744.893 779.516C755.66 786.954 783.96 802.75 783.96 802.75L794.018 828.96V829.35L794.089 829.173L794.266 829.598V828.748L804.325 802.538C804.325 802.538 832.589 786.706 843.392 779.303C854.194 771.901 854.655 758.69 854.655 758.69C852.53 765.384 823.77 782.633 823.77 782.633Z" fill="url(#paint8_linear_509_518)"/>
<path d="M832.907 774.345C846.366 766.305 845.126 757.698 845.126 757.698C840.097 765.136 803.403 782.881 803.403 782.881L799.826 793.435C799.826 793.4 819.483 782.385 832.907 774.345Z" fill="url(#paint9_linear_509_518)"/>
<path d="M801.242 783.093L794.052 769.847L786.862 783.093L794.052 807.284L801.242 783.093Z" fill="url(#paint10_linear_509_518)"/>
<path d="M783.532 806.328L754.985 789.327C754.985 789.327 754.525 806.576 783.532 806.328Z" fill="url(#paint11_linear_509_518)"/>
<path d="M804.612 806.328C833.62 806.576 833.159 789.327 833.159 789.327L804.612 806.328Z" fill="url(#paint12_linear_509_518)"/>
</g>
<circle cx="226.5" cy="343.5" r="4.5" fill="white"/>
<circle cx="1021.5" cy="332.5" r="3.5" fill="white"/>
<circle cx="858" cy="534" r="2" fill="white"/>
<circle cx="348" cy="1262" r="2" fill="white"/>
<circle cx="195.5" cy="803.5" r="3.5" fill="white"/>
<circle cx="1434.5" cy="718.5" r="4.5" fill="white"/>
<circle cx="1300" cy="1194" r="3" fill="white"/>
<circle cx="660" cy="1149" r="3" fill="white"/>
<defs>
<filter id="filter0_f_509_518" x="343.7" y="333.7" width="904.6" height="918.6" filterUnits="userSpaceOnUse" color-interpolation-filters="sRGB">
<feFlood flood-opacity="0" result="BackgroundImageFix"/>
<feBlend mode="normal" in="SourceGraphic" in2="BackgroundImageFix" result="shape"/>
<feGaussianBlur stdDeviation="160.15" result="effect1_foregroundBlur_509_518"/>
</filter>
<filter id="filter1_b_509_518" x="613.901" y="613.769" width="360.461" height="360.461" filterUnits="userSpaceOnUse" color-interpolation-filters="sRGB">
<feFlood flood-opacity="0" result="BackgroundImageFix"/>
<feGaussianBlur in="BackgroundImageFix" stdDeviation="38.2114"/>
<feComposite in2="SourceAlpha" operator="in" result="effect1_backgroundBlur_509_518"/>
<feBlend mode="normal" in="SourceGraphic" in2="effect1_backgroundBlur_509_518" result="shape"/>
</filter>
<linearGradient id="paint0_linear_509_518" x1="955.155" y1="607.723" x2="574.63" y2="974.384" gradientUnits="userSpaceOnUse">
<stop offset="0.0800561" stop-color="white" stop-opacity="0"/>
<stop offset="0.525" stop-color="white"/>
<stop offset="0.793891" stop-color="white" stop-opacity="0"/>
</linearGradient>
<linearGradient id="paint1_linear_509_518" x1="1039.81" y1="509.83" x2="459.728" y2="1068.77" gradientUnits="userSpaceOnUse">
<stop offset="0.0800561" stop-color="white" stop-opacity="0"/>
<stop offset="0.525" stop-color="white"/>
<stop offset="0.793891" stop-color="white" stop-opacity="0"/>
</linearGradient>
<linearGradient id="paint2_linear_509_518" x1="761.251" y1="288.759" x2="733.953" y2="1373.49" gradientUnits="userSpaceOnUse">
<stop offset="0.0800561" stop-color="white" stop-opacity="0"/>
<stop offset="0.525" stop-color="white"/>
<stop offset="0.793891" stop-color="white" stop-opacity="0"/>
</linearGradient>
<linearGradient id="paint3_linear_509_518" x1="823.336" y1="157.911" x2="639.183" y2="1509.06" gradientUnits="userSpaceOnUse">
<stop offset="0.0800561" stop-color="white" stop-opacity="0"/>
<stop offset="0.525" stop-color="white"/>
<stop offset="0.793891" stop-color="white" stop-opacity="0"/>
</linearGradient>
<linearGradient id="paint4_linear_509_518" x1="796" y1="654.7" x2="1073.03" y2="738.978" gradientUnits="userSpaceOnUse">
<stop stop-color="#FE5403"/>
<stop offset="1" stop-color="#E71505"/>
</linearGradient>
<linearGradient id="paint5_linear_509_518" x1="774.033" y1="690.192" x2="924.082" y2="737.136" gradientUnits="userSpaceOnUse">
<stop stop-color="#292D32"/>
<stop offset="1" stop-color="#7B8A98"/>
</linearGradient>
<linearGradient id="paint6_linear_509_518" x1="663.934" y1="809.609" x2="924.487" y2="809.609" gradientUnits="userSpaceOnUse">
<stop stop-color="#262C33"/>
<stop offset="1" stop-color="#718599" stop-opacity="0"/>
</linearGradient>
<linearGradient id="paint7_linear_509_518" x1="744.333" y1="787.307" x2="832.773" y2="740.103" gradientUnits="userSpaceOnUse">
<stop stop-color="#E71505"/>
<stop offset="0.7318" stop-color="#FFB400"/>
<stop offset="1" stop-color="#FFF888"/>
</linearGradient>
<linearGradient id="paint8_linear_509_518" x1="751.576" y1="800.873" x2="840.016" y2="753.669" gradientUnits="userSpaceOnUse">
<stop stop-color="#E71505"/>
<stop offset="0.7318" stop-color="#FFB400"/>
<stop offset="1" stop-color="#FFF888"/>
</linearGradient>
<linearGradient id="paint9_linear_509_518" x1="756.775" y1="810.616" x2="845.216" y2="763.412" gradientUnits="userSpaceOnUse">
<stop stop-color="#E71505"/>
<stop offset="0.065186" stop-color="#E92305"/>
<stop offset="0.7318" stop-color="#FFB400"/>
<stop offset="1" stop-color="#FFF888"/>
</linearGradient>
<linearGradient id="paint10_linear_509_518" x1="755.878" y1="808.938" x2="844.319" y2="761.734" gradientUnits="userSpaceOnUse">
<stop stop-color="#E71505"/>
<stop offset="0.7318" stop-color="#FFB400"/>
<stop offset="1" stop-color="#FFF888"/>
</linearGradient>
<linearGradient id="paint11_linear_509_518" x1="753.936" y1="806.009" x2="842.377" y2="758.804" gradientUnits="userSpaceOnUse">
<stop stop-color="#E71505"/>
<stop offset="0.7318" stop-color="#FFB400"/>
<stop offset="1" stop-color="#FFF888"/>
</linearGradient>
<linearGradient id="paint12_linear_509_518" x1="766.302" y1="829.166" x2="854.742" y2="781.961" gradientUnits="userSpaceOnUse">
<stop stop-color="#E71505"/>
<stop offset="0.7318" stop-color="#FFB400"/>
<stop offset="1" stop-color="#FFF888"/>
</linearGradient>
<clipPath id="clip0_509_518">
<rect width="121.025" height="71.8995" fill="white" transform="translate(733.63 757.698)"/>
</clipPath>
</defs>
</svg>
