<svg width="885" height="874" viewBox="0 0 885 874" fill="none" xmlns="http://www.w3.org/2000/svg">
<g filter="url(#filter0_b_3000_1392)">
<circle cx="462.843" cy="748.309" r="40" transform="rotate(71 462.843 748.309)" fill="url(#paint0_linear_3000_1392)" fill-opacity="0.4"/>
<circle cx="462.843" cy="748.309" r="39.3631" transform="rotate(71 462.843 748.309)" stroke="url(#paint1_linear_3000_1392)" stroke-width="1.27371"/>
</g>
<g filter="url(#filter1_b_3000_1392)">
<circle cx="462.843" cy="748.309" r="30" transform="rotate(71 462.843 748.309)" fill="url(#paint2_linear_3000_1392)"/>
<circle cx="462.843" cy="748.309" r="29.5335" transform="rotate(71 462.843 748.309)" stroke="url(#paint3_linear_3000_1392)" stroke-width="0.932974"/>
</g>
<g clip-path="url(#clip0_3000_1392)">
<path d="M470.051 742.634C469.985 742.287 469.995 742.266 470.065 742.418C470.215 742.701 470.39 743.415 470.448 743.94C470.571 745.165 470.231 746.426 469.393 747.928L469.16 748.325L469.364 748.712C470.248 750.361 470.646 752.23 470.468 753.963C470.42 754.437 470.265 755.212 470.197 755.323C470.177 755.365 469.988 755.483 469.795 755.585C469.093 755.949 468.527 756.092 468.021 756.002C467.741 755.957 467.678 755.979 467.501 756.128C467.365 756.245 467.32 756.472 467.38 756.645C467.51 757.022 468.243 757.21 469.142 757.112L469.499 757.076L469.391 757.272C468.77 758.383 467.744 759.44 466.896 759.838L466.671 759.951L466.826 759.739C467.107 759.378 467.267 759.077 467.369 758.707C467.546 758.048 467.461 757.444 467.025 755.922C466.638 754.542 466.483 753.734 466.475 752.892C466.455 751.456 466.778 750.606 468.282 748.381C468.946 747.396 469.287 746.803 469.55 746.238C470.127 745.001 470.279 743.91 470.051 742.634Z" fill="white"/>
<path d="M472.089 755.041C472.697 754.867 473.118 754.81 473.539 754.858C473.702 754.873 473.85 754.892 473.855 754.908C473.861 754.924 473.74 754.93 473.598 754.926C473.208 754.92 472.715 755.072 472.192 755.34C471.522 755.694 471.444 755.774 470.933 756.794C470.69 757.265 470.375 757.831 470.24 758.053L469.986 758.44L470.146 758.086C470.347 757.647 470.684 756.686 470.704 756.486C470.729 756.354 470.723 756.338 470.617 756.287C470.533 756.245 470.433 756.262 469.977 756.419C469.264 756.647 468.791 756.705 468.253 756.626C467.974 756.581 468.016 756.549 468.321 756.567C468.553 756.575 468.652 756.559 469.329 756.326C470.697 755.855 470.974 755.583 471.194 754.434C471.254 754.15 471.318 753.67 471.347 753.396C471.37 753.107 471.399 752.885 471.405 752.901C471.447 752.922 471.499 753.942 471.467 754.358C471.436 754.984 471.453 755.084 471.49 755.142C471.553 755.173 471.69 755.161 472.089 755.041Z" fill="white"/>
<path d="M465.932 744.774C466.617 743.799 467.886 742.887 468.973 742.618L469.314 742.536L469.336 742.704C469.387 743.004 469.366 743.556 469.306 743.841C469.145 744.6 468.723 745.062 467.525 745.774C467.175 745.982 466.772 746.244 466.647 746.34C466.438 746.5 465.99 746.988 465.731 747.359C465.539 747.619 465.375 747.552 465.271 747.148C465.128 746.529 465.403 745.537 465.932 744.774Z" fill="white"/>
<path d="M462.626 757.402C462.812 753.854 463.518 752.379 465.359 751.745C465.626 751.653 465.852 751.593 465.852 751.593C465.857 751.609 465.801 751.751 465.739 751.931C465.452 752.734 465.476 753.517 465.87 755.581C466.092 756.789 466.194 757.493 466.195 758.161C466.221 760.281 465.338 761.905 463.689 762.79C463.213 763.041 462.237 763.325 461.69 763.372C461.259 763.397 460.427 763.332 460.384 763.259C460.379 763.243 460.447 763.185 460.573 763.141C461.222 762.882 461.738 762.335 462.036 761.617C462.375 760.761 462.507 759.765 462.626 757.402Z" fill="white"/>
<path d="M461.348 755.378C461.574 755.266 461.845 755.084 461.955 754.994L462.164 754.834L462.04 755.035C461.874 755.321 461.645 755.575 461.301 755.852C461.04 756.065 460.945 756.098 460.458 756.266C459.986 756.428 459.87 756.451 459.57 756.448C459.091 756.437 458.727 756.351 458.289 756.151C457.512 755.785 456.943 755.154 456.438 754.148C456.357 753.965 456.126 753.446 455.932 752.985C455.463 751.827 455.066 751.084 454.571 750.463C454.507 750.379 454.443 750.296 454.453 750.275C454.474 750.232 454.925 750.622 455.249 750.951C455.706 751.409 456.043 751.927 456.691 753.094C456.996 753.675 457.339 754.261 457.456 754.396C458.48 755.786 459.956 756.139 461.348 755.378Z" fill="white"/>
<path d="M459.309 757.682C460.065 756.964 460.882 756.577 461.76 756.521C461.849 756.526 461.939 756.53 461.95 756.562C461.96 756.593 461.946 756.704 461.915 756.82C461.854 757.052 461.77 757.521 461.566 758.717C461.312 760.23 461.027 761.137 460.586 761.852C460.203 762.477 459.682 762.955 458.97 763.341C458.572 763.566 457.534 763.871 457.071 763.907C455.615 764.021 454.274 763.603 453.265 762.666C453.111 762.526 453 762.406 452.994 762.39C452.989 762.374 453.168 762.383 453.389 762.412C454.321 762.514 455.108 762.295 455.876 761.714C456.351 761.357 456.872 760.773 457.708 759.676C458.669 758.378 458.928 758.059 459.309 757.682Z" fill="white"/>
<path d="M450.46 747.62C451.836 748.448 453.021 749.642 453.696 750.887C453.986 751.421 454.279 752.376 454.316 752.943C454.383 753.853 454.171 754.771 453.725 755.364C453.288 755.937 452.86 756.278 451.835 756.825C451.431 757.034 451.018 757.264 450.929 757.312C450.406 757.633 450.052 758.036 449.925 758.432C449.731 759.044 450.008 759.899 450.609 760.625C450.705 760.75 450.796 760.86 450.78 760.865C450.759 760.907 450.33 760.58 450.091 760.346C449.751 760.023 449.58 759.73 449.434 759.305C449.174 758.55 449.345 757.77 449.952 756.98C450.072 756.816 450.452 756.438 450.812 756.103C451.897 755.114 452.177 754.701 452.379 753.91C452.546 753.219 452.376 752.468 451.919 752.01C451.323 751.405 450.33 751.536 449.937 752.234C449.772 752.52 449.713 752.963 449.774 753.293C449.896 753.903 450.525 754.249 451.107 754.048C451.485 753.918 451.656 753.701 451.699 753.264C451.746 752.685 451.305 752.221 450.823 752.404C450.618 752.475 450.525 752.613 450.501 752.85C450.481 752.997 450.481 752.997 450.465 752.897C450.402 752.409 450.93 752.104 451.417 752.341C452.009 752.63 452.14 753.623 451.634 754.148C451.426 754.361 450.928 754.55 450.576 754.548C449.791 754.519 449.17 753.889 449.109 753.047C449.072 752.48 449.137 752.211 449.566 751.359C450.319 749.868 450.393 749.368 450.087 747.713L450.032 747.398L450.46 747.62Z" fill="white"/>
<path fill-rule="evenodd" clip-rule="evenodd" d="M472.921 730.631C469.732 735.829 464.755 743.859 464.475 744.272C464.241 744.617 463.91 744.625 463.554 744.308C463.353 744.131 463.07 743.718 462.994 743.498C462.907 743.246 462.93 742.904 463.064 742.629C463.157 742.439 463.842 741.517 465.521 739.39C466.81 737.768 467.869 736.4 467.88 736.378C467.89 736.305 467.89 736.305 465.121 739.405C463.383 741.358 462.748 742.017 462.653 742.049C462.449 742.12 462.317 742.095 461.947 741.94C461.329 741.678 460.729 741.673 459.564 741.916C458.267 742.187 457.24 742.066 455.328 741.369C454.203 740.964 454.008 740.908 453.587 740.86C453.071 740.791 452.797 740.815 452.22 740.979C451.612 741.153 451.256 741.346 450.749 741.714C450.3 742.045 450.029 742.331 449.53 742.978C449.089 743.535 448.74 743.902 448.582 743.956C448.456 743.999 448.467 744.03 448.788 744.553C449.569 745.798 450.488 746.731 451.36 747.117C451.899 747.353 452.152 747.372 452.718 747.177C453.08 747.052 453.153 747.01 453.341 746.839C453.633 746.563 453.813 746.166 454.031 745.37C454.321 744.32 454.668 743.796 455.265 743.485C455.773 743.222 456.167 743.192 457.32 743.322C458.511 743.458 458.979 743.438 460.044 743.159C460.721 742.978 461.016 742.965 461.285 743.083C461.576 743.212 461.714 743.358 461.945 743.824C462.331 744.588 462.714 745.037 463.248 745.311C463.703 745.559 464.088 745.602 464.581 745.45L464.948 745.341L465.098 745.061C465.693 744.029 473.43 729.91 473.414 729.863C473.408 729.847 473.196 730.202 472.921 730.631ZM452.215 743.162C452.574 743.232 452.919 743.008 453.01 742.66C453.091 742.333 452.872 741.951 452.636 742.032C452.573 742.054 452.521 742.107 452.522 742.212C452.492 742.381 452.418 742.424 452.208 742.373C451.997 742.323 451.839 742.377 451.778 742.556C451.681 742.836 451.878 743.102 452.215 743.162Z" fill="white"/>
<path fill-rule="evenodd" clip-rule="evenodd" d="M462.683 746.684C462.443 746.344 461.91 746.123 461.463 746.154C461.189 746.178 460.744 746.366 460.64 746.525C460.48 746.774 460.471 746.953 460.623 747.394C460.92 748.259 461.553 748.868 462.036 748.79C462.44 748.738 462.846 748.229 462.925 747.692C462.969 747.413 462.849 746.909 462.683 746.684ZM462.243 747.962C462.476 748.022 462.664 747.905 462.724 747.62C462.845 747.103 462.403 746.534 461.994 746.675C461.789 746.745 461.683 747.152 461.791 747.466C461.862 747.671 462.085 747.911 462.243 747.962Z" fill="white"/>
</g>
<g filter="url(#filter2_b_3000_1392)">
<circle cx="678.843" cy="172.309" r="40" transform="rotate(71 678.843 172.309)" fill="url(#paint4_linear_3000_1392)" fill-opacity="0.4"/>
<circle cx="678.843" cy="172.309" r="39.3631" transform="rotate(71 678.843 172.309)" stroke="url(#paint5_linear_3000_1392)" stroke-width="1.27371"/>
</g>
<g filter="url(#filter3_b_3000_1392)">
<circle cx="678.843" cy="172.309" r="30" transform="rotate(71 678.843 172.309)" fill="url(#paint6_linear_3000_1392)"/>
<circle cx="678.843" cy="172.309" r="29.5335" transform="rotate(71 678.843 172.309)" stroke="url(#paint7_linear_3000_1392)" stroke-width="0.932974"/>
</g>
<g clip-path="url(#clip1_3000_1392)">
<path d="M676.838 167.274C677.029 166.884 677.211 166.516 677.391 166.148C677.778 165.355 678.166 164.563 678.552 163.77C678.98 162.893 679.406 162.016 679.833 161.139C679.934 160.931 680.042 160.725 680.135 160.514C680.178 160.418 680.222 160.409 680.31 160.453C680.961 160.775 681.614 161.093 682.266 161.413C682.698 161.624 683.13 161.835 683.562 162.046C683.596 162.062 683.628 162.082 683.675 162.107C683.56 162.339 683.446 162.562 683.336 162.787C682.904 163.674 682.472 164.561 682.041 165.447C681.697 166.152 681.354 166.857 681.011 167.562C680.545 168.517 680.08 169.471 679.614 170.426C679.494 170.672 679.384 170.924 679.196 171.132C678.896 171.465 678.533 171.676 678.089 171.762C677.593 171.857 677.145 171.737 676.707 171.519C676.064 171.2 675.418 170.889 674.774 170.575C674.086 170.239 673.398 169.905 672.71 169.569C672.026 169.235 671.341 168.899 670.657 168.565C669.896 168.193 669.134 167.823 668.373 167.452C668.348 167.44 668.325 167.423 668.285 167.399C668.355 167.253 668.425 167.106 668.496 166.959C668.969 165.988 669.444 165.016 669.917 164.045C669.978 163.92 669.978 163.919 670.108 163.982C670.938 164.387 671.768 164.791 672.598 165.196C673.86 165.811 675.121 166.426 676.382 167.043C676.533 167.116 676.682 167.195 676.838 167.275L676.838 167.274Z" fill="#F1F1F1"/>
<path d="M679.76 172.373C679.586 171.815 679.655 171.289 679.919 170.774C680.199 170.226 680.464 169.671 680.734 169.118C681.081 168.407 681.427 167.695 681.773 166.984C682.238 166.026 682.703 165.068 683.169 164.111C683.452 163.53 683.739 162.951 684.021 162.37C684.057 162.297 684.096 162.303 684.155 162.332C685.016 162.753 685.877 163.174 686.738 163.595C686.969 163.708 687.198 163.822 687.431 163.93C687.512 163.968 687.533 164.003 687.49 164.09C687.007 165.073 686.529 166.059 686.049 167.043C685.478 168.213 684.907 169.383 684.337 170.554C684.29 170.65 684.203 170.767 684.226 170.847C684.247 170.917 684.395 170.953 684.49 170.999C685.61 171.544 686.731 172.087 687.85 172.633C688.893 173.141 689.933 173.653 690.976 174.161C691.061 174.202 691.036 174.249 691.009 174.304C690.715 174.911 690.419 175.517 690.124 176.123C689.887 176.609 689.648 177.095 689.414 177.582C689.374 177.665 689.336 177.678 689.252 177.637C688.065 177.054 686.877 176.475 685.689 175.896C684.608 175.369 683.525 174.846 682.444 174.318C681.85 174.028 681.257 173.734 680.667 173.436C680.344 173.272 680.099 173.023 679.927 172.704C679.868 172.596 679.816 172.484 679.76 172.373L679.76 172.373Z" fill="#F1F1F1"/>
<path d="M689.193 178.074C689.071 178.31 688.947 178.542 688.831 178.777C688.398 179.659 687.967 180.542 687.539 181.427C687.499 181.51 687.469 181.533 687.377 181.488C686.195 180.908 685.011 180.332 683.828 179.755C682.793 179.25 681.759 178.744 680.724 178.239C680.693 178.224 680.661 178.211 680.612 178.19C680.511 178.4 680.416 178.605 680.317 178.809C679.85 179.764 679.381 180.718 678.915 181.674C678.505 182.512 678.098 183.352 677.69 184.191C677.565 184.447 677.442 184.704 677.318 184.96C677.285 185.03 677.25 185.061 677.166 185.019C676.064 184.477 674.961 183.938 673.859 183.399C673.84 183.389 673.823 183.377 673.792 183.359C673.879 183.177 673.964 182.996 674.051 182.816C674.487 181.921 674.923 181.026 675.36 180.131C675.854 179.119 676.348 178.108 676.841 177.096C677.215 176.33 677.588 175.563 677.959 174.795C678.122 174.458 678.346 174.168 678.664 173.974C679.268 173.605 679.909 173.542 680.556 173.853C681.676 174.39 682.79 174.941 683.906 175.486C684.99 176.015 686.074 176.544 687.158 177.072C687.798 177.384 688.438 177.694 689.078 178.005C689.107 178.019 689.133 178.037 689.194 178.073L689.193 178.074Z" fill="#F1F1F1"/>
<path d="M668.115 167.759C668.516 167.961 668.913 168.164 669.313 168.362C669.984 168.693 670.658 169.022 671.33 169.35C672.228 169.788 673.126 170.223 674.023 170.66C674.92 171.097 675.821 171.526 676.711 171.977C677.412 172.332 677.764 172.922 677.792 173.707C677.805 174.067 677.685 174.391 677.529 174.708C677.113 175.555 676.7 176.405 676.286 177.254C675.831 178.186 675.376 179.119 674.921 180.051C674.485 180.947 674.05 181.842 673.615 182.737C673.555 182.86 673.491 182.982 673.433 183.106C673.399 183.181 673.351 183.154 673.303 183.13C673.02 182.992 672.737 182.853 672.454 182.715C671.646 182.321 670.838 181.926 670.029 181.535C669.943 181.493 669.926 181.457 669.97 181.367C670.463 180.365 670.953 179.362 671.443 178.358C671.983 177.25 672.523 176.142 673.062 175.034C673.116 174.924 673.16 174.808 673.222 174.703C673.271 174.62 673.247 174.587 673.171 174.551C672.463 174.208 671.757 173.863 671.05 173.518C669.593 172.808 668.137 172.097 666.68 171.386C666.62 171.357 666.562 171.323 666.5 171.299C666.424 171.27 666.408 171.235 666.447 171.157C666.665 170.72 666.877 170.28 667.091 169.841C667.41 169.185 667.73 168.528 668.05 167.872C668.064 167.843 668.082 167.817 668.115 167.759L668.115 167.759Z" fill="#F1F1F1"/>
</g>
<g filter="url(#filter4_b_3000_1392)">
<circle cx="205.843" cy="199.309" r="40" transform="rotate(71 205.843 199.309)" fill="url(#paint8_linear_3000_1392)" fill-opacity="0.4"/>
<circle cx="205.843" cy="199.309" r="39.3631" transform="rotate(71 205.843 199.309)" stroke="url(#paint9_linear_3000_1392)" stroke-width="1.27371"/>
</g>
<g filter="url(#filter5_b_3000_1392)">
<circle cx="205.843" cy="199.309" r="30" transform="rotate(71 205.843 199.309)" fill="url(#paint10_linear_3000_1392)"/>
<circle cx="205.843" cy="199.309" r="29.5335" transform="rotate(71 205.843 199.309)" stroke="url(#paint11_linear_3000_1392)" stroke-width="0.932974"/>
</g>
<g clip-path="url(#clip2_3000_1392)">
<path d="M211.387 190.32L214.97 189.086L219.886 203.363C220.547 205.281 219.478 207.388 217.499 208.07L211.387 190.32Z" fill="white"/>
<path d="M215.109 205.008L196.397 211.451C197.058 213.369 199.197 214.371 201.176 213.69L215.906 208.618L214.711 205.145L215.109 205.008Z" fill="white"/>
<path d="M199.582 209.06L199.449 208.674L195.866 209.907L190.95 195.63C190.29 193.712 191.358 191.605 193.337 190.924L199.582 209.06Z" fill="white"/>
<path d="M214.439 187.543L196.126 193.848L194.93 190.376L209.66 185.304C211.639 184.622 213.778 185.625 214.439 187.543Z" fill="white"/>
<path d="M209.884 197.593C209.763 197.241 209.377 197.054 209.023 197.176L206.479 198.052L205.636 195.602C205.515 195.25 205.129 195.064 204.775 195.186L203.669 195.567C203.315 195.688 203.126 196.073 203.247 196.425L204.091 198.874L201.547 199.75C201.193 199.872 201.004 200.257 201.125 200.609L201.484 201.649C201.605 202.001 201.99 202.187 202.344 202.066L204.888 201.19L205.731 203.639C205.852 203.991 206.238 204.178 206.592 204.056L207.698 203.675C208.052 203.553 208.241 203.168 208.12 202.816L207.277 200.367L209.82 199.491C210.174 199.369 210.363 198.985 210.242 198.633L209.884 197.593Z" fill="white"/>
</g>
<g filter="url(#filter6_b_3000_1392)">
<ellipse cx="151.944" cy="544.655" rx="40" ry="39.5062" transform="rotate(71 151.944 544.655)" fill="url(#paint12_linear_3000_1392)" fill-opacity="0.4"/>
<path d="M164.759 581.873C144.469 588.86 122.273 577.872 115.192 557.309C108.112 536.747 118.838 514.423 139.129 507.436C159.419 500.45 181.616 511.438 188.696 532C195.776 552.563 185.05 574.887 164.759 581.873Z" stroke="url(#paint13_linear_3000_1392)" stroke-width="1.27371"/>
</g>
<g filter="url(#filter7_b_3000_1392)">
<circle cx="152.411" cy="544.494" r="31.1111" transform="rotate(71 152.411 544.494)" fill="url(#paint14_linear_3000_1392)"/>
<circle cx="152.411" cy="544.494" r="30.6446" transform="rotate(71 152.411 544.494)" stroke="url(#paint15_linear_3000_1392)" stroke-width="0.932974"/>
</g>
<g filter="url(#filter8_b_3000_1392)">
<path fill-rule="evenodd" clip-rule="evenodd" d="M167.231 541.073C166.961 540.777 166.824 540.379 166.855 539.979L167.177 537.643C167.225 537.293 167.326 537.258 167.445 537.606L168.734 542.002C168.854 542.35 168.72 542.452 168.399 542.173L167.231 541.073ZM162.168 532.581C161.881 532.402 161.797 532.486 161.967 532.817L165.706 539.095C165.876 539.426 166.078 539.356 166.126 539.006L166.561 536.019C166.593 535.619 166.405 535.238 166.101 535.009L162.168 532.581ZM166.718 542.362C166.699 541.98 166.951 541.893 167.204 542.139L168.76 543.551C169.031 543.847 169.118 544.262 169.002 544.58L166.98 549.337C166.814 549.673 166.746 549.64 166.744 549.307L166.718 542.362ZM156.903 537.898C156.837 538.031 156.775 538.183 156.837 538.318C156.9 538.454 157.035 538.557 157.193 538.577L164.871 540.106C165.225 540.151 165.341 539.999 165.171 539.668L160.955 532.435C160.922 532.377 160.881 532.325 160.839 532.273V532.273C160.792 532.214 160.751 532.162 160.668 532.151V532.151C160.292 532.055 160.081 532.544 159.883 532.879L156.903 537.898V537.898ZM161.388 547.98C161.222 548.316 161.342 548.664 161.612 548.793L165.011 550.809C165.198 550.92 165.39 551.108 165.595 551.038V551.038V551.038C165.934 550.921 165.845 550.435 165.846 550.076L165.862 542.657C165.894 542.257 165.708 542.209 165.475 542.512L161.467 547.853C161.437 547.893 161.41 547.936 161.388 547.98V547.98ZM161.34 546.809C161.101 547.127 160.835 547.632 160.477 547.46V547.46C160.409 547.428 160.325 547.345 160.29 547.246L156.865 539.914C156.695 539.583 156.895 539.348 157.266 539.443L164.994 540.954C165.23 540.984 165.399 541.148 165.367 541.382C165.351 541.498 165.317 541.565 165.234 541.65L161.34 546.809ZM160.455 530.222C160.338 530.374 160.002 530.378 159.715 530.199L157.909 529.208C157.572 529.046 157.605 528.979 157.975 529.073L159.331 529.48C159.808 529.623 160.759 529.828 160.455 530.222V530.222ZM156.161 537.542C156.061 537.743 155.759 537.847 155.557 537.75V537.75C155.412 537.68 155.333 537.523 155.227 537.402L150.273 531.726C150.019 531.479 150.152 531.211 150.505 531.256L159.117 531.406C159.335 531.387 159.487 531.501 159.556 531.7C159.59 531.8 159.523 531.934 159.49 532.001L156.161 537.542ZM145.865 538.763C145.848 538.865 145.868 538.976 145.933 539.055C145.966 539.094 146.011 539.127 146.062 539.148C146.211 539.21 146.381 539.151 146.542 539.138L154.519 538.497C154.838 538.442 154.971 538.174 154.717 537.928L149.702 532.152C149.625 532.064 149.553 531.968 149.45 531.913V531.913C149.397 531.885 149.336 531.86 149.276 531.862C149.201 531.864 149.124 531.891 149.059 531.934C148.908 532.033 148.859 532.227 148.784 532.391L146.013 538.459C145.967 538.561 145.884 538.653 145.865 538.763V538.763ZM140.528 535.971C140.193 536.142 140.195 536.475 140.532 536.637L144.245 538.752L144.313 538.785C144.633 538.897 144.985 538.776 145.101 538.458L147.888 532.324C148.004 532.006 147.902 531.874 147.567 532.046L140.528 535.971ZM141.074 534.448C140.84 534.751 140.925 534.833 141.26 534.662L147.461 531.247C147.746 531.094 147.761 530.81 147.391 530.715L145.369 530.077C144.948 529.999 144.528 530.088 144.294 530.391L141.074 534.448ZM150.786 530.437C150.45 530.441 150.381 530.242 150.649 530.039L153.059 528.207C153.378 527.987 153.815 527.947 154.152 528.109L158.235 530.319C158.573 530.481 158.506 530.615 158.17 530.62L150.786 530.437ZM148.262 530.137C148.649 530.282 149.069 530.193 149.438 529.955L151.295 528.481C151.563 528.277 151.529 528.178 151.159 528.25L146.676 529.293C146.356 529.347 146.307 529.531 146.678 529.626L148.262 530.137ZM140.125 546.902C140.093 547.136 140.262 547.3 140.498 547.33L148.259 548.774C148.63 548.869 148.83 548.633 148.66 548.302L145.234 540.971C145.2 540.871 145.115 540.789 145.048 540.757V540.757C144.689 540.584 144.424 541.09 144.185 541.408L140.258 546.634C140.174 546.718 140.141 546.785 140.125 546.902ZM139.95 545.739C139.716 546.041 139.531 545.994 139.562 545.594L139.579 538.175C139.58 537.816 139.491 537.33 139.83 537.213V537.213V537.213C140.034 537.143 140.228 537.33 140.416 537.437L143.846 539.39C144.115 539.52 144.235 539.868 144.069 540.203V540.203C144.047 540.248 144.021 540.291 143.991 540.331L139.95 545.739ZM149.314 548.077C149.485 548.408 149.771 548.42 149.937 548.085L154.846 539.775C155.03 539.489 154.894 539.258 154.507 539.28L146.372 539.947C146.282 539.954 146.194 539.972 146.109 540.002V540.002C146.027 540.03 145.943 540.064 145.891 540.134C145.833 540.21 145.8 540.309 145.795 540.406C145.788 540.573 145.89 540.722 145.961 540.873L149.314 548.077ZM145.634 555.333C145.441 555.671 145.234 556.161 144.857 556.065V556.065C144.774 556.054 144.733 556.002 144.686 555.943L144.686 555.943C144.686 555.943 144.686 555.943 144.686 555.943V555.943L144.686 555.943L144.686 555.943V555.943C144.645 555.891 144.603 555.839 144.569 555.782L140.253 548.582C140.083 548.252 140.2 548.1 140.553 548.145L148.214 549.624C148.421 549.65 148.59 549.819 148.606 550.018C148.611 550.073 148.592 550.127 148.574 550.18V550.18V550.18C148.545 550.269 148.478 550.348 148.432 550.429L145.634 555.333ZM136.472 543.654C136.357 543.972 136.443 544.387 136.714 544.683L138.22 546.112C138.474 546.358 138.725 546.271 138.706 545.889L138.73 538.927C138.728 538.594 138.661 538.561 138.495 538.897L136.472 543.654ZM139.323 553.242C139.019 553.012 138.832 552.632 138.863 552.232L139.299 549.245C139.347 548.894 139.548 548.825 139.719 549.156L143.507 555.417C143.678 555.748 143.594 555.832 143.307 555.653L139.323 553.242ZM137.076 546.06C136.755 545.782 136.621 545.883 136.741 546.232L138.08 550.61C138.2 550.958 138.3 550.924 138.348 550.573L138.67 548.237C138.702 547.837 138.565 547.439 138.294 547.143L137.076 546.06ZM144.261 557.605C144.144 557.756 143.841 557.694 143.587 557.448L142.014 555.987C141.76 555.74 141.794 555.673 142.098 555.902L143.87 556.961C144.224 557.172 144.378 557.453 144.261 557.605ZM151.056 549.702C150.687 549.774 150.554 550.042 150.808 550.289L155.806 556.014C155.883 556.103 155.955 556.198 156.058 556.254V556.254C156.111 556.282 156.172 556.307 156.231 556.305C156.306 556.302 156.383 556.276 156.449 556.233C156.6 556.134 156.649 555.94 156.724 555.776L159.495 549.707C159.541 549.606 159.624 549.513 159.643 549.403V549.403C159.66 549.301 159.64 549.191 159.574 549.111C159.541 549.071 159.496 549.038 159.444 549.017C159.296 548.957 159.128 549.016 158.969 549.03L151.056 549.702ZM157.907 556.188C157.572 556.359 157.47 556.227 157.586 555.909L160.374 549.776C160.489 549.458 160.842 549.337 161.162 549.449L161.229 549.482L164.942 551.596C165.279 551.758 165.282 552.091 164.946 552.263L157.907 556.188ZM145.919 556.533C145.988 556.732 146.14 556.847 146.358 556.827L154.919 556.995C155.273 557.04 155.405 556.771 155.152 556.525L150.197 550.849C150.091 550.728 150.013 550.571 149.867 550.501V550.501C149.665 550.404 149.363 550.508 149.263 550.709L145.985 556.233C145.951 556.3 145.885 556.434 145.919 556.533ZM161.13 557.86C160.896 558.163 160.476 558.252 160.055 558.174L158.033 557.535C157.663 557.441 157.678 557.157 157.963 557.003L164.097 553.556C164.432 553.385 164.516 553.467 164.283 553.77L161.13 557.86ZM151.272 560.142C151.61 560.304 152.047 560.264 152.365 560.044L154.758 558.163C155.026 557.959 154.957 557.76 154.621 557.765L147.254 557.631C146.918 557.636 146.852 557.77 147.189 557.932L151.272 560.142ZM154.248 559.951C153.878 560.023 153.844 559.924 154.112 559.72L156.037 558.278C156.405 558.04 156.825 557.951 157.213 558.096L158.797 558.608C159.167 558.703 159.118 558.886 158.799 558.941L154.248 559.951ZM144.952 557.979C144.853 558.18 145.039 558.394 145.41 558.489L147.432 559.128C147.802 559.223 147.835 559.156 147.498 558.994L145.693 558.002C145.406 557.823 145.052 557.778 144.952 557.979ZM150.968 548.954C150.581 548.976 150.445 548.745 150.628 548.459L155.538 540.149C155.704 539.813 155.99 539.826 156.16 540.157L159.514 547.361C159.585 547.512 159.687 547.661 159.679 547.828C159.675 547.925 159.641 548.023 159.584 548.1C159.532 548.169 159.448 548.204 159.365 548.232V548.232C159.28 548.261 159.192 548.28 159.103 548.287L150.968 548.954ZM161.163 530.646C161.047 530.797 161.267 531.111 161.554 531.29L163.327 532.349C163.631 532.578 163.664 532.511 163.41 532.264L161.837 530.803C161.583 530.557 161.28 530.494 161.163 530.646ZM138.542 536.57C138.71 536.459 138.856 536.598 138.86 536.8C138.864 536.94 138.819 537.108 138.72 537.261L137.705 539.057C137.539 539.392 137.472 539.36 137.57 538.992L138.091 537.328C138.172 537.067 138.313 536.72 138.542 536.57V536.57ZM166.111 553.03V553.03C166.469 552.668 165.965 552.328 165.646 552.723C165.638 552.733 165.63 552.743 165.622 552.753L164.54 554.516C164.306 554.819 164.374 554.852 164.624 554.599L166.111 553.03ZM167.177 551.216V551.216C167.041 551.722 166.404 551.381 166.687 550.94V550.94L167.702 549.144C167.868 548.809 167.935 548.841 167.837 549.209L167.177 551.216ZM139.132 535.84C139.284 535.955 139.602 535.734 139.785 535.448L140.867 533.685C141.101 533.382 141.033 533.349 140.783 533.603L139.296 535.172C139.045 535.425 138.98 535.726 139.132 535.84Z" fill="white"/>
</g>
<g filter="url(#filter9_b_3000_1392)">
<circle cx="774.844" cy="503.309" r="40" transform="rotate(71 774.844 503.309)" fill="url(#paint16_linear_3000_1392)" fill-opacity="0.4"/>
<circle cx="774.844" cy="503.309" r="39.3631" transform="rotate(71 774.844 503.309)" stroke="url(#paint17_linear_3000_1392)" stroke-width="1.27371"/>
</g>
<g filter="url(#filter10_b_3000_1392)">
<circle cx="774.844" cy="503.309" r="30" transform="rotate(71 774.844 503.309)" fill="url(#paint18_linear_3000_1392)"/>
<circle cx="774.844" cy="503.309" r="29.5335" transform="rotate(71 774.844 503.309)" stroke="url(#paint19_linear_3000_1392)" stroke-width="0.932974"/>
</g>
<g clip-path="url(#clip3_3000_1392)">
<path d="M786.996 499.092C786.833 498.621 786.32 498.371 785.849 498.533L763.101 506.366C762.63 506.528 762.379 507.041 762.542 507.513C762.704 507.984 763.218 508.234 763.689 508.072L786.436 500.24C786.908 500.077 787.158 499.564 786.996 499.092Z" fill="white"/>
<path d="M786.996 499.092C787.158 499.564 786.908 500.077 786.436 500.24L763.689 508.072C763.218 508.234 762.704 507.984 762.542 507.513C762.379 507.041 762.63 506.528 763.101 506.366L785.849 498.533C786.32 498.371 786.833 498.621 786.996 499.092Z" stroke="white" stroke-width="0.136894"/>
<path d="M779.085 515.711C779.556 515.548 779.807 515.035 779.644 514.564L771.812 491.816C771.65 491.345 771.136 491.094 770.665 491.257C770.194 491.419 769.943 491.933 770.105 492.404L777.938 515.151C778.1 515.622 778.614 515.873 779.085 515.711Z" fill="white"/>
<path d="M779.085 515.711C778.614 515.873 778.1 515.622 777.938 515.151L770.105 492.404C769.943 491.933 770.194 491.419 770.665 491.257C771.136 491.094 771.65 491.345 771.812 491.816L779.644 514.564C779.807 515.035 779.556 515.548 779.085 515.711Z" stroke="white" stroke-width="0.136894"/>
<path d="M769.127 515.146C769.575 515.365 770.115 515.179 770.334 514.731L780.88 493.107C781.099 492.659 780.913 492.119 780.465 491.901C780.017 491.682 779.477 491.868 779.258 492.316L768.712 513.939C768.493 514.387 768.679 514.928 769.127 515.146Z" fill="white"/>
<path d="M769.127 515.146C768.679 514.928 768.493 514.387 768.712 513.939L779.258 492.316C779.477 491.868 780.017 491.682 780.465 491.901C780.913 492.119 781.099 492.659 780.88 493.107L770.334 514.731C770.115 515.179 769.575 515.365 769.127 515.146Z" stroke="white" stroke-width="0.136894"/>
<path d="M758.719 495.392C758.5 495.84 758.686 496.38 759.134 496.599L789.803 511.557C790.251 511.775 790.791 511.589 791.01 511.141C791.228 510.693 791.042 510.153 790.594 509.935L759.925 494.977C759.477 494.758 758.937 494.944 758.719 495.392Z" fill="white"/>
<path d="M758.719 495.392C758.937 494.944 759.477 494.758 759.925 494.977L790.594 509.935C791.042 510.153 791.228 510.693 791.01 511.141C790.791 511.589 790.251 511.775 789.803 511.557L759.134 496.599C758.686 496.38 758.5 495.84 758.719 495.392Z" stroke="white" stroke-width="0.136894"/>
</g>
<defs>
<filter id="filter0_b_3000_1392" x="346.41" y="631.876" width="232.867" height="232.867" filterUnits="userSpaceOnUse" color-interpolation-filters="sRGB">
<feFlood flood-opacity="0" result="BackgroundImageFix"/>
<feGaussianBlur in="BackgroundImageFix" stdDeviation="38.2114"/>
<feComposite in2="SourceAlpha" operator="in" result="effect1_backgroundBlur_3000_1392"/>
<feBlend mode="normal" in="SourceGraphic" in2="effect1_backgroundBlur_3000_1392" result="shape"/>
</filter>
<filter id="filter1_b_3000_1392" x="376.857" y="662.323" width="171.973" height="171.973" filterUnits="userSpaceOnUse" color-interpolation-filters="sRGB">
<feFlood flood-opacity="0" result="BackgroundImageFix"/>
<feGaussianBlur in="BackgroundImageFix" stdDeviation="27.9892"/>
<feComposite in2="SourceAlpha" operator="in" result="effect1_backgroundBlur_3000_1392"/>
<feBlend mode="normal" in="SourceGraphic" in2="effect1_backgroundBlur_3000_1392" result="shape"/>
</filter>
<filter id="filter2_b_3000_1392" x="562.41" y="55.8756" width="232.867" height="232.867" filterUnits="userSpaceOnUse" color-interpolation-filters="sRGB">
<feFlood flood-opacity="0" result="BackgroundImageFix"/>
<feGaussianBlur in="BackgroundImageFix" stdDeviation="38.2114"/>
<feComposite in2="SourceAlpha" operator="in" result="effect1_backgroundBlur_3000_1392"/>
<feBlend mode="normal" in="SourceGraphic" in2="effect1_backgroundBlur_3000_1392" result="shape"/>
</filter>
<filter id="filter3_b_3000_1392" x="592.857" y="86.3228" width="171.973" height="171.973" filterUnits="userSpaceOnUse" color-interpolation-filters="sRGB">
<feFlood flood-opacity="0" result="BackgroundImageFix"/>
<feGaussianBlur in="BackgroundImageFix" stdDeviation="27.9892"/>
<feComposite in2="SourceAlpha" operator="in" result="effect1_backgroundBlur_3000_1392"/>
<feBlend mode="normal" in="SourceGraphic" in2="effect1_backgroundBlur_3000_1392" result="shape"/>
</filter>
<filter id="filter4_b_3000_1392" x="89.4098" y="82.8756" width="232.867" height="232.867" filterUnits="userSpaceOnUse" color-interpolation-filters="sRGB">
<feFlood flood-opacity="0" result="BackgroundImageFix"/>
<feGaussianBlur in="BackgroundImageFix" stdDeviation="38.2114"/>
<feComposite in2="SourceAlpha" operator="in" result="effect1_backgroundBlur_3000_1392"/>
<feBlend mode="normal" in="SourceGraphic" in2="effect1_backgroundBlur_3000_1392" result="shape"/>
</filter>
<filter id="filter5_b_3000_1392" x="119.857" y="113.323" width="171.973" height="171.973" filterUnits="userSpaceOnUse" color-interpolation-filters="sRGB">
<feFlood flood-opacity="0" result="BackgroundImageFix"/>
<feGaussianBlur in="BackgroundImageFix" stdDeviation="27.9892"/>
<feComposite in2="SourceAlpha" operator="in" result="effect1_backgroundBlur_3000_1392"/>
<feBlend mode="normal" in="SourceGraphic" in2="effect1_backgroundBlur_3000_1392" result="shape"/>
</filter>
<filter id="filter6_b_3000_1392" x="35.9517" y="428.273" width="231.985" height="232.763" filterUnits="userSpaceOnUse" color-interpolation-filters="sRGB">
<feFlood flood-opacity="0" result="BackgroundImageFix"/>
<feGaussianBlur in="BackgroundImageFix" stdDeviation="38.2114"/>
<feComposite in2="SourceAlpha" operator="in" result="effect1_backgroundBlur_3000_1392"/>
<feBlend mode="normal" in="SourceGraphic" in2="effect1_backgroundBlur_3000_1392" result="shape"/>
</filter>
<filter id="filter7_b_3000_1392" x="65.3128" y="457.396" width="174.196" height="174.196" filterUnits="userSpaceOnUse" color-interpolation-filters="sRGB">
<feFlood flood-opacity="0" result="BackgroundImageFix"/>
<feGaussianBlur in="BackgroundImageFix" stdDeviation="27.9892"/>
<feComposite in2="SourceAlpha" operator="in" result="effect1_backgroundBlur_3000_1392"/>
<feBlend mode="normal" in="SourceGraphic" in2="effect1_backgroundBlur_3000_1392" result="shape"/>
</filter>
<filter id="filter8_b_3000_1392" x="76.4224" y="468.01" width="152.63" height="152.23" filterUnits="userSpaceOnUse" color-interpolation-filters="sRGB">
<feFlood flood-opacity="0" result="BackgroundImageFix"/>
<feGaussianBlur in="BackgroundImageFix" stdDeviation="30"/>
<feComposite in2="SourceAlpha" operator="in" result="effect1_backgroundBlur_3000_1392"/>
<feBlend mode="normal" in="SourceGraphic" in2="effect1_backgroundBlur_3000_1392" result="shape"/>
</filter>
<filter id="filter9_b_3000_1392" x="658.41" y="386.876" width="232.867" height="232.867" filterUnits="userSpaceOnUse" color-interpolation-filters="sRGB">
<feFlood flood-opacity="0" result="BackgroundImageFix"/>
<feGaussianBlur in="BackgroundImageFix" stdDeviation="38.2114"/>
<feComposite in2="SourceAlpha" operator="in" result="effect1_backgroundBlur_3000_1392"/>
<feBlend mode="normal" in="SourceGraphic" in2="effect1_backgroundBlur_3000_1392" result="shape"/>
</filter>
<filter id="filter10_b_3000_1392" x="688.857" y="417.323" width="171.973" height="171.973" filterUnits="userSpaceOnUse" color-interpolation-filters="sRGB">
<feFlood flood-opacity="0" result="BackgroundImageFix"/>
<feGaussianBlur in="BackgroundImageFix" stdDeviation="27.9892"/>
<feComposite in2="SourceAlpha" operator="in" result="effect1_backgroundBlur_3000_1392"/>
<feBlend mode="normal" in="SourceGraphic" in2="effect1_backgroundBlur_3000_1392" result="shape"/>
</filter>
<linearGradient id="paint0_linear_3000_1392" x1="455.099" y1="708.309" x2="512.917" y2="726.398" gradientUnits="userSpaceOnUse">
<stop stop-color="#292D32"/>
<stop offset="1" stop-color="#7B8A98"/>
</linearGradient>
<linearGradient id="paint1_linear_3000_1392" x1="412.675" y1="754.324" x2="513.073" y2="754.324" gradientUnits="userSpaceOnUse">
<stop stop-color="#262C33"/>
<stop offset="1" stop-color="#718599" stop-opacity="0"/>
</linearGradient>
<linearGradient id="paint2_linear_3000_1392" x1="463.142" y1="712.805" x2="483.572" y2="736.611" gradientUnits="userSpaceOnUse">
<stop stop-color="#FF83BF"/>
<stop offset="0.41" stop-color="#FF0969"/>
<stop offset="1" stop-color="#DE0665"/>
</linearGradient>
<linearGradient id="paint3_linear_3000_1392" x1="425.217" y1="752.82" x2="500.516" y2="752.82" gradientUnits="userSpaceOnUse">
<stop stop-color="#262C33"/>
<stop offset="1" stop-color="#718599" stop-opacity="0"/>
</linearGradient>
<linearGradient id="paint4_linear_3000_1392" x1="671.099" y1="132.309" x2="728.917" y2="150.398" gradientUnits="userSpaceOnUse">
<stop stop-color="#292D32"/>
<stop offset="1" stop-color="#7B8A98"/>
</linearGradient>
<linearGradient id="paint5_linear_3000_1392" x1="628.675" y1="178.324" x2="729.073" y2="178.324" gradientUnits="userSpaceOnUse">
<stop stop-color="#262C33"/>
<stop offset="1" stop-color="#718599" stop-opacity="0"/>
</linearGradient>
<linearGradient id="paint6_linear_3000_1392" x1="679.142" y1="136.805" x2="699.572" y2="160.611" gradientUnits="userSpaceOnUse">
<stop stop-color="#979493"/>
<stop offset="0.41" stop-color="#242628"/>
<stop offset="0.98" stop-color="#1C1D1F"/>
</linearGradient>
<linearGradient id="paint7_linear_3000_1392" x1="641.217" y1="176.821" x2="716.515" y2="176.821" gradientUnits="userSpaceOnUse">
<stop stop-color="#262C33"/>
<stop offset="1" stop-color="#718599" stop-opacity="0"/>
</linearGradient>
<linearGradient id="paint8_linear_3000_1392" x1="198.099" y1="159.309" x2="255.917" y2="177.398" gradientUnits="userSpaceOnUse">
<stop stop-color="#292D32"/>
<stop offset="1" stop-color="#7B8A98"/>
</linearGradient>
<linearGradient id="paint9_linear_3000_1392" x1="155.675" y1="205.324" x2="256.073" y2="205.324" gradientUnits="userSpaceOnUse">
<stop stop-color="#262C33"/>
<stop offset="1" stop-color="#718599" stop-opacity="0"/>
</linearGradient>
<linearGradient id="paint10_linear_3000_1392" x1="206.143" y1="163.805" x2="226.572" y2="187.611" gradientUnits="userSpaceOnUse">
<stop stop-color="#7CCFFF"/>
<stop offset="0.41" stop-color="#0497EC"/>
<stop offset="0.98" stop-color="#04669E"/>
</linearGradient>
<linearGradient id="paint11_linear_3000_1392" x1="168.217" y1="203.821" x2="243.516" y2="203.821" gradientUnits="userSpaceOnUse">
<stop stop-color="#262C33"/>
<stop offset="1" stop-color="#718599" stop-opacity="0"/>
</linearGradient>
<linearGradient id="paint12_linear_3000_1392" x1="144.199" y1="505.149" x2="201.888" y2="523.423" gradientUnits="userSpaceOnUse">
<stop stop-color="#292D32"/>
<stop offset="1" stop-color="#7B8A98"/>
</linearGradient>
<linearGradient id="paint13_linear_3000_1392" x1="129.994" y1="499.154" x2="162.68" y2="594.082" gradientUnits="userSpaceOnUse">
<stop stop-color="#262C33"/>
<stop offset="1" stop-color="#718599" stop-opacity="0"/>
</linearGradient>
<linearGradient id="paint14_linear_3000_1392" x1="152.721" y1="507.674" x2="173.908" y2="532.362" gradientUnits="userSpaceOnUse">
<stop stop-color="#B4B4D8"/>
<stop offset="0.41" stop-color="#838FBD"/>
<stop offset="0.98" stop-color="#596284"/>
</linearGradient>
<linearGradient id="paint15_linear_3000_1392" x1="113.391" y1="549.172" x2="191.478" y2="549.172" gradientUnits="userSpaceOnUse">
<stop stop-color="#262C33"/>
<stop offset="1" stop-color="#718599" stop-opacity="0"/>
</linearGradient>
<linearGradient id="paint16_linear_3000_1392" x1="767.099" y1="463.309" x2="824.917" y2="481.398" gradientUnits="userSpaceOnUse">
<stop stop-color="#292D32"/>
<stop offset="1" stop-color="#7B8A98"/>
</linearGradient>
<linearGradient id="paint17_linear_3000_1392" x1="724.675" y1="509.324" x2="825.073" y2="509.324" gradientUnits="userSpaceOnUse">
<stop stop-color="#262C33"/>
<stop offset="1" stop-color="#718599" stop-opacity="0"/>
</linearGradient>
<linearGradient id="paint18_linear_3000_1392" x1="775.143" y1="467.805" x2="795.572" y2="491.611" gradientUnits="userSpaceOnUse">
<stop stop-color="#FFBDC7"/>
<stop offset="0.41" stop-color="#FF0025"/>
<stop offset="0.98" stop-color="#DE0827"/>
</linearGradient>
<linearGradient id="paint19_linear_3000_1392" x1="737.217" y1="507.821" x2="812.516" y2="507.821" gradientUnits="userSpaceOnUse">
<stop stop-color="#262C33"/>
<stop offset="1" stop-color="#718599" stop-opacity="0"/>
</linearGradient>
<clipPath id="clip0_3000_1392">
<rect width="28" height="32.2424" fill="white" transform="translate(473.414 729.863) rotate(71)"/>
</clipPath>
<clipPath id="clip1_3000_1392">
<rect width="28" height="28" fill="white" transform="translate(687.523 154.514) rotate(71)"/>
</clipPath>
<clipPath id="clip2_3000_1392">
<rect width="24" height="25" fill="white" transform="translate(213.283 184.056) rotate(71)"/>
</clipPath>
<clipPath id="clip3_3000_1392">
<rect width="32" height="32" fill="white" transform="translate(784.763 482.972) rotate(71)"/>
</clipPath>
</defs>
</svg>
