<svg width="720" height="615" viewBox="0 0 720 615" fill="none" xmlns="http://www.w3.org/2000/svg">
<rect width="720" height="615" fill="black"/>
<g filter="url(#filter0_b_509_518)">
<circle cx="579" cy="40" r="40" fill="url(#paint0_linear_509_518)" fill-opacity="0.4"/>
<circle cx="579" cy="40" r="39.3631" stroke="url(#paint1_linear_509_518)" stroke-width="1.27371"/>
</g>
<g filter="url(#filter1_b_509_518)">
<circle cx="579" cy="40" r="30" fill="url(#paint2_linear_509_518)"/>
<circle cx="579" cy="40" r="29.5335" stroke="url(#paint3_linear_509_518)" stroke-width="0.932974"/>
</g>
<path d="M578.969 27.1372C578.471 27.1372 578.067 27.5412 578.067 28.0396V52.0978C578.067 52.5962 578.471 53.0002 578.969 53.0002C579.468 53.0002 579.872 52.5962 579.872 52.0978V28.0396C579.872 27.5412 579.468 27.1372 578.969 27.1372Z" fill="white"/>
<path d="M578.969 27.1372C579.468 27.1372 579.872 27.5412 579.872 28.0396V52.0978C579.872 52.5962 579.468 53.0002 578.969 53.0002C578.471 53.0002 578.067 52.5962 578.067 52.0978V28.0396C578.067 27.5412 578.471 27.1372 578.969 27.1372Z" stroke="white" stroke-width="0.136894"/>
<path d="M592.107 40.0269C592.107 39.5285 591.703 39.1245 591.204 39.1245H567.146C566.648 39.1245 566.244 39.5285 566.244 40.0269C566.244 40.5253 566.648 40.9293 567.146 40.9293H591.204C591.703 40.9293 592.107 40.5253 592.107 40.0269Z" fill="white"/>
<path d="M592.107 40.0269C592.107 40.5253 591.703 40.9293 591.204 40.9293H567.146C566.648 40.9293 566.244 40.5253 566.244 40.0269C566.244 39.5285 566.648 39.1245 567.146 39.1245H591.204C591.703 39.1245 592.107 39.5285 592.107 40.0269Z" stroke="white" stroke-width="0.136894"/>
<path d="M588.331 49.2588C588.683 48.9063 588.683 48.335 588.331 47.9825L571.319 30.9709C570.967 30.6184 570.396 30.6184 570.043 30.9709C569.691 31.3232 569.691 31.8947 570.043 32.247L587.055 49.2588C587.407 49.6111 587.979 49.6112 588.331 49.2588Z" fill="white"/>
<path d="M588.331 49.2588C587.979 49.6112 587.407 49.6111 587.055 49.2588L570.043 32.247C569.691 31.8947 569.691 31.3232 570.043 30.9709C570.396 30.6184 570.967 30.6184 571.319 30.9709L588.331 47.9825C588.683 48.335 588.683 48.9063 588.331 49.2588Z" stroke="white" stroke-width="0.136894"/>
<path d="M566.264 52.6688C566.617 53.0212 567.188 53.0212 567.54 52.6688L591.669 28.5405C592.021 28.1881 592.021 27.6168 591.669 27.2643C591.316 26.9119 590.745 26.9119 590.393 27.2643L566.264 51.3926C565.912 51.745 565.912 52.3164 566.264 52.6688Z" fill="white"/>
<path d="M566.264 52.6688C565.912 52.3164 565.912 51.745 566.264 51.3926L590.393 27.2643C590.745 26.9119 591.316 26.9119 591.669 27.2643C592.021 27.6168 592.021 28.1881 591.669 28.5405L567.54 52.6688C567.188 53.0212 566.617 53.0212 566.264 52.6688Z" stroke="white" stroke-width="0.136894"/>
<g filter="url(#filter2_b_509_518)">
<circle cx="680" cy="304" r="40" fill="url(#paint4_linear_509_518)" fill-opacity="0.4"/>
<circle cx="680" cy="304" r="39.3631" stroke="url(#paint5_linear_509_518)" stroke-width="1.27371"/>
</g>
<g filter="url(#filter3_b_509_518)">
<circle cx="680" cy="304" r="30" fill="url(#paint6_linear_509_518)"/>
<circle cx="680" cy="304" r="29.5335" stroke="url(#paint7_linear_509_518)" stroke-width="0.932974"/>
</g>
<g clip-path="url(#clip0_509_518)">
<path d="M676.98 295.337C676.631 295.287 676.614 295.27 676.781 295.254C677.097 295.204 677.829 295.27 678.345 295.387C679.542 295.67 680.624 296.402 681.772 297.683L682.071 298.032L682.504 297.965C684.351 297.666 686.247 297.899 687.828 298.631C688.26 298.831 688.942 299.23 689.026 299.33C689.059 299.363 689.109 299.579 689.142 299.795C689.258 300.577 689.209 301.16 688.959 301.609C688.826 301.858 688.826 301.925 688.909 302.141C688.976 302.308 689.175 302.424 689.358 302.424C689.758 302.424 690.174 301.792 690.373 300.91L690.456 300.561L690.606 300.727C691.455 301.675 692.12 302.99 692.22 303.921L692.253 304.171L692.103 303.955C691.854 303.572 691.621 303.323 691.305 303.106C690.739 302.724 690.14 302.607 688.56 302.524C687.129 302.441 686.314 302.324 685.515 302.058C684.151 301.609 683.452 301.027 681.838 298.88C681.123 297.932 680.674 297.416 680.225 296.984C679.243 296.036 678.261 295.536 676.98 295.337Z" fill="white"/>
<path d="M689.375 297.45C689.408 296.818 689.491 296.402 689.674 296.019C689.741 295.869 689.807 295.736 689.824 295.736C689.841 295.736 689.807 295.853 689.758 295.986C689.624 296.352 689.608 296.868 689.691 297.45C689.807 298.199 689.857 298.298 690.656 299.114C691.022 299.496 691.455 299.979 691.621 300.178L691.904 300.544L691.621 300.278C691.272 299.945 690.473 299.313 690.29 299.23C690.173 299.164 690.157 299.164 690.074 299.247C690.007 299.313 689.99 299.413 689.99 299.896C689.974 300.644 689.874 301.11 689.624 301.593C689.491 301.842 689.475 301.792 689.591 301.509C689.674 301.293 689.691 301.193 689.691 300.478C689.691 299.03 689.525 298.681 688.51 298.099C688.26 297.949 687.828 297.733 687.578 297.616C687.312 297.5 687.112 297.4 687.129 297.4C687.162 297.367 688.144 297.65 688.526 297.816C689.109 298.049 689.209 298.066 689.275 298.049C689.325 297.999 689.358 297.866 689.375 297.45Z" fill="white"/>
<path d="M677.663 299.929C676.964 298.964 676.515 297.466 676.614 296.352L676.648 296.002L676.814 296.036C677.113 296.086 677.629 296.285 677.879 296.435C678.544 296.834 678.844 297.383 679.127 298.748C679.21 299.147 679.326 299.613 679.376 299.762C679.459 300.012 679.775 300.594 680.042 300.96C680.225 301.226 680.108 301.36 679.692 301.326C679.06 301.26 678.212 300.677 677.663 299.929Z" fill="white"/>
<path d="M688.526 307.166C685.232 305.835 684.068 304.687 684.068 302.74C684.068 302.458 684.084 302.225 684.084 302.225C684.101 302.225 684.217 302.324 684.367 302.441C685.033 302.973 685.781 303.206 687.861 303.506C689.075 303.689 689.774 303.822 690.406 304.038C692.419 304.704 693.667 306.068 693.967 307.914C694.05 308.447 694 309.462 693.867 309.994C693.75 310.41 693.418 311.175 693.335 311.192C693.318 311.192 693.285 311.109 693.285 310.976C693.251 310.277 692.902 309.611 692.32 309.096C691.621 308.497 690.723 308.048 688.526 307.166Z" fill="white"/>
<path d="M686.197 307.715C686.164 307.465 686.081 307.149 686.031 307.016L685.948 306.767L686.097 306.95C686.314 307.199 686.48 307.499 686.63 307.915C686.746 308.231 686.746 308.33 686.746 308.846C686.746 309.345 686.73 309.462 686.63 309.745C686.463 310.194 686.264 310.51 685.931 310.859C685.332 311.475 684.55 311.808 683.436 311.957C683.236 311.974 682.67 312.024 682.171 312.057C680.923 312.124 680.092 312.257 679.343 312.523C679.243 312.556 679.143 312.59 679.127 312.573C679.093 312.54 679.609 312.24 680.025 312.041C680.607 311.758 681.206 311.608 682.521 311.375C683.169 311.275 683.835 311.142 684.001 311.076C685.648 310.56 686.463 309.279 686.197 307.715Z" fill="white"/>
<path d="M687.711 310.393C687.279 309.445 687.179 308.547 687.412 307.698C687.445 307.615 687.478 307.532 687.512 307.532C687.545 307.532 687.645 307.582 687.745 307.648C687.944 307.781 688.36 308.014 689.425 308.597C690.772 309.329 691.538 309.894 692.07 310.543C692.536 311.109 692.819 311.758 692.952 312.556C693.035 313.005 692.985 314.087 692.869 314.536C692.503 315.95 691.671 317.081 690.456 317.73C690.273 317.83 690.124 317.897 690.107 317.897C690.09 317.897 690.157 317.73 690.257 317.531C690.656 316.682 690.706 315.867 690.406 314.952C690.223 314.386 689.841 313.704 689.075 312.556C688.16 311.225 687.944 310.876 687.711 310.393Z" fill="white"/>
<path d="M675.317 315.484C676.548 314.453 678.062 313.721 679.459 313.488C680.058 313.388 681.056 313.421 681.605 313.571C682.487 313.804 683.286 314.303 683.702 314.919C684.101 315.517 684.284 316.033 684.467 317.181C684.534 317.63 684.617 318.096 684.633 318.196C684.766 318.795 685.033 319.261 685.365 319.51C685.881 319.893 686.78 319.91 687.661 319.577C687.811 319.527 687.944 319.477 687.944 319.494C687.977 319.527 687.528 319.826 687.229 319.976C686.813 320.192 686.48 320.259 686.031 320.259C685.232 320.259 684.55 319.843 684.001 319.011C683.885 318.845 683.652 318.362 683.452 317.913C682.87 316.566 682.57 316.166 681.888 315.717C681.289 315.334 680.524 315.251 679.942 315.534C679.176 315.9 678.977 316.882 679.509 317.481C679.725 317.73 680.125 317.93 680.458 317.98C681.073 318.063 681.605 317.58 681.605 316.965C681.605 316.566 681.456 316.333 681.056 316.15C680.524 315.917 679.942 316.183 679.958 316.699C679.958 316.915 680.058 317.048 680.275 317.148C680.408 317.214 680.408 317.214 680.308 317.198C679.825 317.098 679.709 316.499 680.092 316.116C680.557 315.651 681.539 315.85 681.872 316.499C682.005 316.765 682.021 317.298 681.905 317.63C681.622 318.362 680.824 318.745 680.008 318.529C679.459 318.379 679.226 318.229 678.561 317.547C677.396 316.349 676.947 316.116 675.283 315.867L674.967 315.817L675.317 315.484Z" fill="white"/>
<path fill-rule="evenodd" clip-rule="evenodd" d="M666.566 288.715C670.442 293.424 676.415 300.744 676.714 301.143C676.964 301.476 676.864 301.792 676.448 302.025C676.215 302.158 675.733 302.291 675.5 302.291C675.234 302.291 674.917 302.158 674.701 301.942C674.551 301.792 673.903 300.844 672.439 298.564C671.324 296.818 670.376 295.37 670.359 295.354C670.292 295.32 670.292 295.32 672.322 298.947C673.603 301.226 674.019 302.042 674.019 302.141C674.019 302.358 673.952 302.474 673.686 302.774C673.237 303.273 673.037 303.838 672.888 305.02C672.721 306.334 672.272 307.266 670.991 308.846C670.242 309.778 670.126 309.944 669.943 310.327C669.71 310.793 669.643 311.059 669.61 311.658C669.577 312.29 669.643 312.689 669.827 313.288C669.993 313.821 670.176 314.17 670.625 314.852C671.008 315.451 671.241 315.9 671.241 316.067C671.241 316.2 671.274 316.2 671.873 316.067C673.304 315.734 674.485 315.168 675.134 314.469C675.533 314.037 675.633 313.804 675.633 313.205C675.633 312.822 675.616 312.739 675.516 312.506C675.35 312.14 675.034 311.841 674.352 311.375C673.453 310.759 673.071 310.26 672.971 309.595C672.888 309.029 672.988 308.646 673.487 307.598C674.002 306.517 674.135 306.068 674.219 304.97C674.269 304.271 674.352 303.988 674.551 303.772C674.768 303.539 674.951 303.456 675.466 303.389C676.315 303.273 676.864 303.056 677.296 302.641C677.679 302.291 677.846 301.942 677.862 301.426L677.879 301.043L677.663 300.81C676.881 299.912 666.05 288 666 288C665.983 288 666.25 288.316 666.566 288.715ZM671.673 312.373C671.856 312.057 671.756 311.658 671.457 311.458C671.174 311.275 670.742 311.358 670.742 311.608C670.742 311.674 670.775 311.741 670.875 311.774C671.024 311.857 671.041 311.941 670.925 312.124C670.808 312.307 670.808 312.473 670.958 312.589C671.191 312.772 671.507 312.673 671.673 312.373Z" fill="white"/>
<path fill-rule="evenodd" clip-rule="evenodd" d="M678.411 303.622C678.012 303.739 677.629 304.171 677.513 304.604C677.446 304.87 677.48 305.352 677.596 305.502C677.779 305.735 677.945 305.802 678.411 305.802C679.326 305.802 680.108 305.402 680.191 304.92C680.275 304.521 679.925 303.972 679.443 303.722C679.193 303.589 678.677 303.539 678.411 303.622ZM679.476 304.454C679.609 304.254 679.559 304.038 679.31 303.888C678.86 303.606 678.178 303.838 678.178 304.271C678.178 304.487 678.528 304.72 678.86 304.72C679.077 304.72 679.376 304.587 679.476 304.454Z" fill="white"/>
</g>
<g filter="url(#filter4_b_509_518)">
<circle cx="84" cy="104" r="40" fill="url(#paint8_linear_509_518)" fill-opacity="0.4"/>
<circle cx="84" cy="104" r="39.3631" stroke="url(#paint9_linear_509_518)" stroke-width="1.27371"/>
</g>
<g filter="url(#filter5_b_509_518)">
<circle cx="84" cy="104" r="30" fill="url(#paint10_linear_509_518)"/>
<circle cx="84" cy="104" r="29.5335" stroke="url(#paint11_linear_509_518)" stroke-width="0.932974"/>
</g>
<path d="M78.5859 104.256C78.2799 103.949 77.9911 103.658 77.7015 103.367C77.0783 102.743 76.455 102.119 75.8312 101.495C75.1413 100.805 74.4509 100.117 73.7608 99.4276C73.5969 99.264 73.4372 99.0958 73.2679 98.9381C73.1915 98.8668 73.1969 98.8217 73.2669 98.7528C73.7833 98.242 74.2972 97.7289 74.8116 97.2161C75.152 96.8768 75.4916 96.5366 75.8318 96.197C75.8585 96.1703 75.8872 96.1459 75.9269 96.1099C76.1086 96.2947 76.2826 96.4746 76.4597 96.6517C77.1568 97.3494 77.855 98.046 78.5527 98.7429C79.1075 99.2969 79.6626 99.851 80.2171 100.405C80.9682 101.156 81.7193 101.907 82.4701 102.658C82.664 102.852 82.8657 103.038 83.0013 103.283C83.2188 103.676 83.3005 104.087 83.2365 104.535C83.1652 105.035 82.9056 105.42 82.5572 105.763C82.0467 106.267 81.5422 106.776 81.0351 107.283C80.494 107.824 79.9535 108.366 79.4121 108.907C78.8731 109.445 78.3328 109.983 77.7941 110.522C77.1952 111.12 76.5973 111.72 75.9987 112.318C75.979 112.338 75.9557 112.355 75.9202 112.385C75.8048 112.271 75.6881 112.157 75.5728 112.042C74.8082 111.278 74.0442 110.513 73.2799 109.749C73.1816 109.651 73.1811 109.65 73.2825 109.549C73.9353 108.895 74.5881 108.242 75.2412 107.589C76.2336 106.597 77.2258 105.604 78.219 104.613C78.3378 104.494 78.4604 104.379 78.5866 104.257L78.5859 104.256Z" fill="#F1F1F1"/>
<path d="M84.3591 103.154C83.7737 103.137 83.2992 102.9 82.8982 102.483C82.4717 102.04 82.0327 101.609 81.598 101.174C81.0385 100.614 80.4782 100.055 79.918 99.4963C79.1643 98.7444 78.4099 97.9931 77.6567 97.2407C77.1996 96.7839 76.7457 96.3245 76.2878 95.8687C76.23 95.8112 76.2487 95.7754 76.2951 95.7292C76.9741 95.0526 77.6526 94.3754 78.3308 93.6982C78.5123 93.517 78.6953 93.3373 78.8729 93.1525C78.9351 93.0876 78.9745 93.0799 79.0432 93.1488C79.8158 93.9253 80.5918 94.6984 81.3662 95.4728C82.2868 96.3932 83.2069 97.3143 84.1283 98.2342C84.2043 98.3102 84.286 98.4305 84.3694 98.4341C84.4431 98.4375 84.5253 98.3091 84.5994 98.2347C85.4793 97.3532 86.3572 96.4697 87.2379 95.589C88.0579 94.7689 88.8811 93.9525 89.7003 93.1317C89.7675 93.0643 89.8035 93.1029 89.8468 93.1462C90.3244 93.6225 90.8014 94.0993 91.2784 94.576C91.6609 94.9585 92.0422 95.3419 92.427 95.7222C92.4926 95.787 92.4926 95.827 92.4257 95.8933C91.4887 96.8254 90.5538 97.7597 89.6197 98.6949C88.7696 99.5458 87.9223 100.4 87.0712 101.25C86.6032 101.717 86.1329 102.182 85.6585 102.643C85.3987 102.895 85.0832 103.045 84.7259 103.104C84.6041 103.125 84.4812 103.138 84.3588 103.154L84.3591 103.154Z" fill="#F1F1F1"/>
<path d="M92.8198 96.0909C93.0038 96.2835 93.1822 96.4761 93.3671 96.662C94.0603 97.3587 94.7549 98.0537 95.4518 98.7467C95.5168 98.8113 95.5293 98.8478 95.4572 98.9197C94.5236 99.8481 93.5934 100.78 92.6624 101.711C91.8481 102.525 91.0335 103.339 90.2191 104.153C90.1948 104.177 90.172 104.203 90.1354 104.243C90.3018 104.406 90.4649 104.563 90.6249 104.723C91.3762 105.476 92.1257 106.229 92.8773 106.982C93.5369 107.642 94.1982 108.3 94.8591 108.959C95.0605 109.16 95.2625 109.361 95.465 109.561C95.52 109.615 95.5384 109.658 95.4712 109.725C94.6001 110.589 93.7313 111.457 92.862 112.324C92.8472 112.338 92.8299 112.351 92.8027 112.373C92.659 112.232 92.5154 112.093 92.3741 111.952C91.6694 111.248 90.9653 110.544 90.2614 109.84C89.4655 109.044 88.6703 108.247 87.8739 107.452C87.2708 106.849 86.6675 106.247 86.0624 105.646C85.797 105.382 85.5955 105.075 85.5154 104.712C85.3632 104.02 85.5125 103.394 86.0168 102.883C86.8895 101.999 87.7728 101.126 88.6514 100.248C89.5046 99.3949 90.3576 98.5424 91.21 97.6892C91.713 97.1857 92.2147 96.681 92.7174 96.177C92.7397 96.1547 92.7653 96.1357 92.819 96.0898L92.8198 96.0909Z" fill="#F1F1F1"/>
<path d="M76.2043 112.662C76.5258 112.349 76.8478 112.04 77.1649 111.726C77.6969 111.199 78.2268 110.67 78.7562 110.14C79.4619 109.434 80.1658 108.727 80.8713 108.021C81.5767 107.315 82.2757 106.603 82.9915 105.908C83.5551 105.361 84.2282 105.22 84.9792 105.449C85.324 105.554 85.5911 105.773 85.8397 106.023C86.5058 106.693 87.1744 107.36 87.8422 108.028C88.5757 108.762 89.3094 109.496 90.0433 110.229C90.7478 110.933 91.4529 111.636 92.1573 112.339C92.2543 112.435 92.3482 112.535 92.4469 112.63C92.5068 112.687 92.4659 112.723 92.4278 112.761C92.205 112.984 91.9813 113.207 91.7586 113.429C91.1229 114.065 90.4864 114.7 89.853 115.337C89.7854 115.406 89.7462 115.41 89.6755 115.339C88.8889 114.546 88.0994 113.757 87.31 112.967C86.4383 112.095 85.5662 111.224 84.694 110.353C84.6072 110.266 84.5118 110.187 84.4327 110.094C84.3705 110.021 84.3319 110.033 84.2725 110.093C83.7179 110.651 83.1618 111.206 82.6057 111.763C81.4595 112.908 80.3133 114.054 79.1672 115.2C79.12 115.247 79.0692 115.291 79.0264 115.342C78.974 115.404 78.9359 115.408 78.8745 115.345C78.5322 114.997 78.1853 114.654 77.84 114.309C77.3233 113.793 76.8066 113.277 76.2902 112.76C76.2679 112.738 76.2484 112.713 76.2046 112.662L76.2043 112.662Z" fill="#F1F1F1"/>
<g filter="url(#filter6_b_509_518)">
<circle cx="40" cy="378" r="40" fill="url(#paint12_linear_509_518)" fill-opacity="0.4"/>
<circle cx="40" cy="378" r="39.3631" stroke="url(#paint13_linear_509_518)" stroke-width="1.27371"/>
</g>
<g filter="url(#filter7_b_509_518)">
<circle cx="40" cy="378" r="30" fill="url(#paint14_linear_509_518)"/>
<circle cx="40" cy="378" r="29.5335" stroke="url(#paint15_linear_509_518)" stroke-width="0.932974"/>
</g>
<g clip-path="url(#clip1_509_518)">
<path d="M33.3053 369.831V366.042H48.405C50.4336 366.042 52.078 367.739 52.078 369.831H33.3053Z" fill="white"/>
<path d="M48.405 371.095L48.4052 390.884C50.4336 390.884 52.078 389.188 52.078 387.095V371.516H48.4052L48.405 371.095Z" fill="white"/>
<path d="M47.1808 387.095H46.7727V390.884H31.6729C29.6444 390.884 28 389.188 28 387.095H47.1808Z" fill="white"/>
<path d="M31.6729 366.042V385.41H28V369.831C28 367.739 29.6444 366.042 31.6729 366.042Z" fill="white"/>
<path d="M39.6926 373.621C39.3203 373.621 39.0185 373.925 39.0185 374.299V376.99H36.4276C36.0553 376.99 35.7534 377.293 35.7534 377.668V378.838C35.7534 379.212 36.0553 379.516 36.4276 379.516H39.0185V382.206C39.0185 382.581 39.3203 382.884 39.6926 382.884H40.7929C41.1652 382.884 41.4671 382.581 41.4671 382.206V379.516H44.0575C44.4298 379.516 44.7316 379.212 44.7316 378.838V377.668C44.7316 377.293 44.4298 376.99 44.0575 376.99H41.4671V374.299C41.4671 373.925 41.1652 373.621 40.7929 373.621H39.6926Z" fill="white"/>
</g>
<g filter="url(#filter8_b_509_518)">
<ellipse cx="548" cy="574.506" rx="40" ry="39.5062" fill="url(#paint16_linear_509_518)" fill-opacity="0.4"/>
<path d="M587.363 574.506C587.363 595.966 569.747 613.375 548 613.375C526.253 613.375 508.637 595.966 508.637 574.506C508.637 553.047 526.253 535.637 548 535.637C569.747 535.637 587.363 553.047 587.363 574.506Z" stroke="url(#paint17_linear_509_518)" stroke-width="1.27371"/>
</g>
<g filter="url(#filter9_b_509_518)">
<circle cx="548" cy="574.012" r="31.1111" fill="url(#paint18_linear_509_518)"/>
<circle cx="548" cy="574.012" r="30.6446" stroke="url(#paint19_linear_509_518)" stroke-width="0.932974"/>
</g>
<g filter="url(#filter10_b_509_518)">
<path fill-rule="evenodd" clip-rule="evenodd" d="M549.59 558.885C549.222 559.045 548.801 559.045 548.433 558.885L546.329 557.82C546.014 557.661 546.014 557.554 546.382 557.554L550.958 557.767C551.326 557.767 551.379 557.927 551.01 558.14L549.59 558.885ZM539.912 560.908C539.649 561.121 539.702 561.228 540.07 561.175L547.223 559.684C547.592 559.631 547.592 559.418 547.276 559.258L544.594 557.873C544.225 557.714 543.805 557.767 543.489 557.98L539.912 560.908ZM550.642 559.791C550.274 559.684 550.274 559.418 550.59 559.258L552.431 558.246C552.799 558.087 553.22 558.14 553.483 558.353L557.322 561.814C557.585 562.08 557.533 562.133 557.217 562.027L550.642 559.791ZM543.226 567.617C543.33 567.723 543.454 567.832 543.602 567.817C543.751 567.802 543.892 567.707 543.962 567.564L547.907 560.802C548.065 560.483 547.96 560.323 547.592 560.376L539.379 562.007C539.314 562.02 539.251 562.042 539.188 562.064V562.064C539.118 562.089 539.055 562.112 539.018 562.186V562.186C538.804 562.511 539.198 562.869 539.45 563.166L543.226 567.617V567.617ZM554.219 566.659C554.482 566.925 554.85 566.925 555.061 566.712L558.073 564.154C558.238 564.014 558.479 563.894 558.479 563.677V563.677V563.677C558.479 563.319 557.991 563.245 557.652 563.127L550.642 560.696C550.274 560.536 550.169 560.696 550.379 561.015L554.124 566.544C554.152 566.585 554.184 566.624 554.219 566.659V566.659ZM553.096 566.323C553.318 566.653 553.71 567.068 553.43 567.351V567.351C553.377 567.405 553.272 567.458 553.167 567.458L545.12 568.31C544.751 568.363 544.594 568.097 544.804 567.777L548.749 560.962C548.854 560.749 549.064 560.643 549.275 560.749C549.38 560.802 549.433 560.856 549.485 560.962L553.096 566.323ZM537.125 561.761C537.23 561.92 537.125 562.24 536.862 562.453L535.336 563.837C535.073 564.103 535.021 564.05 535.231 563.731L536.057 562.581C536.348 562.177 536.851 561.345 537.125 561.761V561.761ZM542.647 568.203C542.805 568.363 542.805 568.682 542.647 568.842V568.842C542.534 568.957 542.36 568.98 542.211 569.04L535.231 571.877C534.916 572.037 534.705 571.824 534.863 571.504L537.808 563.411C537.861 563.198 538.019 563.092 538.229 563.092C538.334 563.092 538.44 563.198 538.492 563.251L542.647 568.203ZM540.45 578.336C540.541 578.385 540.652 578.403 540.749 578.366C540.796 578.348 540.842 578.316 540.878 578.275C540.985 578.154 540.985 577.974 541.025 577.818L543.016 570.066C543.068 569.747 542.858 569.534 542.542 569.694L535.448 572.556C535.34 572.6 535.226 572.636 535.14 572.716V572.716C535.096 572.757 535.053 572.806 535.035 572.864C535.013 572.935 535.013 573.017 535.033 573.092C535.077 573.267 535.244 573.377 535.375 573.501L540.211 578.097C540.292 578.174 540.353 578.282 540.45 578.336V578.336ZM536.073 582.473C536.125 582.845 536.441 582.952 536.704 582.686L539.912 579.864L539.965 579.81C540.175 579.544 540.175 579.172 539.912 578.959L535.021 574.326C534.758 574.113 534.6 574.167 534.653 574.539L536.073 582.473ZM534.81 581.461C535.021 581.78 535.126 581.727 535.073 581.355L533.864 574.379C533.811 574.06 533.548 573.954 533.338 574.273L532.075 575.977C531.865 576.35 531.812 576.775 532.023 577.095L534.81 581.461ZM534.179 570.972C534.074 571.291 533.864 571.291 533.758 570.972L532.812 568.097C532.706 567.724 532.812 567.298 533.075 567.032L536.493 563.89C536.756 563.624 536.862 563.731 536.756 564.05L534.179 570.972ZM533.075 573.261C533.338 572.942 533.39 572.516 533.285 572.09L532.496 569.854C532.391 569.534 532.286 569.534 532.233 569.907L531.76 574.486C531.707 574.806 531.865 574.912 532.075 574.593L533.075 573.261ZM546.277 586.413C546.487 586.519 546.698 586.413 546.803 586.2L550.695 579.331C550.905 579.012 550.748 578.746 550.379 578.799L542.332 579.651C542.227 579.651 542.121 579.704 542.069 579.757V579.757C541.789 580.04 542.181 580.456 542.404 580.785L546.066 586.2C546.119 586.306 546.172 586.36 546.277 586.413ZM545.12 586.2C545.33 586.519 545.225 586.679 544.857 586.519L537.847 584.088C537.508 583.97 537.019 583.896 537.019 583.538V583.538V583.538C537.019 583.321 537.259 583.199 537.422 583.056L540.386 580.449C540.596 580.236 540.964 580.236 541.227 580.503V580.503C541.262 580.538 541.294 580.577 541.322 580.618L545.12 586.2ZM550.379 578.107C550.748 578.053 550.853 577.787 550.59 577.521L544.331 570.173C544.12 569.907 543.857 569.96 543.752 570.333L541.734 578.242C541.712 578.329 541.701 578.418 541.701 578.508V578.508C541.701 578.595 541.706 578.686 541.754 578.758C541.808 578.837 541.89 578.901 541.981 578.937C542.136 578.998 542.31 578.95 542.476 578.932L550.379 578.107ZM556.041 583.949C556.298 584.241 556.695 584.597 556.481 584.922V584.922C556.444 584.997 556.381 585.019 556.311 585.044L556.311 585.044C556.31 585.044 556.31 585.044 556.31 585.044V585.044L556.31 585.044L556.31 585.044V585.044C556.248 585.066 556.185 585.089 556.12 585.102L547.907 586.839C547.539 586.892 547.434 586.732 547.592 586.413L551.484 579.651C551.576 579.463 551.791 579.358 551.984 579.408C552.038 579.422 552.083 579.457 552.127 579.491V579.491V579.491C552.202 579.548 552.254 579.636 552.316 579.707L556.041 583.949ZM542.016 588.809C542.279 589.022 542.7 589.075 543.068 588.915L544.909 587.957C545.225 587.797 545.225 587.531 544.857 587.425L538.282 585.135C537.966 585.029 537.914 585.082 538.177 585.348L542.016 588.809ZM552.01 589.235C551.694 589.448 551.273 589.501 550.905 589.341L548.223 587.957C547.907 587.797 547.907 587.584 548.275 587.531L555.429 585.987C555.797 585.934 555.85 586.04 555.587 586.253L552.01 589.235ZM544.488 589.022C544.12 589.235 544.173 589.394 544.541 589.394L549.117 589.554C549.485 589.554 549.485 589.448 549.17 589.288L547.066 588.223C546.697 588.063 546.277 588.063 545.909 588.223L544.488 589.022ZM557.743 585.987C557.848 586.146 557.69 586.413 557.375 586.572L555.481 587.584C555.166 587.744 555.113 587.691 555.429 587.478L557.007 586.146C557.322 585.88 557.638 585.827 557.743 585.987ZM552.483 576.989C552.431 577.361 552.641 577.574 552.957 577.414L559.998 574.553C560.107 574.509 560.22 574.472 560.306 574.392V574.392C560.35 574.351 560.393 574.302 560.411 574.245C560.433 574.173 560.433 574.092 560.414 574.016C560.369 573.841 560.202 573.731 560.071 573.607L555.235 569.012C555.155 568.935 555.094 568.826 554.996 568.772V568.772C554.905 568.723 554.794 568.706 554.698 568.742C554.649 568.76 554.603 568.793 554.566 568.835C554.461 568.956 554.462 569.133 554.423 569.288L552.483 576.989ZM560.846 572.622C560.899 572.995 560.741 573.048 560.478 572.835L555.587 568.203C555.324 567.99 555.324 567.617 555.534 567.351L555.587 567.298L558.795 564.476C559.058 564.21 559.374 564.316 559.426 564.689L560.846 572.622ZM557.27 584.07C557.48 584.07 557.638 583.963 557.69 583.75L560.636 575.71C560.794 575.391 560.583 575.178 560.268 575.338L553.288 578.174C553.139 578.235 552.965 578.258 552.851 578.373V578.373C552.694 578.532 552.694 578.852 552.851 579.012L557.007 583.91C557.059 583.963 557.164 584.07 557.27 584.07ZM563.476 570.12C563.687 570.44 563.634 570.865 563.424 571.238L562.161 572.942C561.951 573.261 561.688 573.155 561.635 572.836L560.373 565.914C560.32 565.541 560.426 565.488 560.636 565.807L563.476 570.12ZM562.424 580.183C562.687 579.917 562.793 579.491 562.687 579.118L561.688 576.243C561.583 575.923 561.372 575.923 561.267 576.243L558.742 583.165C558.637 583.484 558.742 583.591 559.005 583.324L562.424 580.183ZM563.213 577.308C563.161 577.681 563.055 577.681 562.95 577.361L562.214 575.072C562.109 574.646 562.161 574.22 562.424 573.9L563.424 572.569C563.634 572.25 563.792 572.356 563.739 572.676L563.213 577.308ZM558.322 585.455C558.479 585.614 558.742 585.508 558.953 585.188L560.215 583.484C560.426 583.165 560.373 583.112 560.11 583.378L558.585 584.762C558.322 584.975 558.164 585.295 558.322 585.455ZM551.747 576.829C551.642 577.202 551.379 577.255 551.168 576.989L544.909 569.641C544.646 569.375 544.751 569.108 545.12 569.055L553.023 568.229C553.189 568.212 553.363 568.164 553.518 568.225C553.609 568.261 553.691 568.325 553.744 568.404C553.793 568.476 553.798 568.567 553.798 568.654V568.654C553.798 568.744 553.787 568.833 553.765 568.92L551.747 576.829ZM537.756 561.228C537.861 561.388 538.229 561.281 538.492 561.068L540.07 559.737C540.386 559.524 540.333 559.471 540.017 559.631L538.124 560.642C537.808 560.802 537.651 561.068 537.756 561.228ZM535.992 584.546C535.942 584.35 536.121 584.258 536.314 584.32C536.447 584.362 536.591 584.459 536.704 584.602L538.071 586.147C538.334 586.413 538.282 586.466 537.966 586.253L536.562 585.219C536.342 585.057 536.059 584.811 535.992 584.546V584.546ZM560.531 563.837V563.837C560.306 563.382 559.82 563.747 560.089 564.178C560.096 564.188 560.103 564.199 560.11 564.21L561.425 565.807C561.635 566.127 561.688 566.074 561.53 565.754L560.531 563.837ZM559.163 562.24V562.24C559.598 562.533 559.067 563.023 558.742 562.612V562.612L557.375 561.068C557.112 560.802 557.165 560.749 557.48 560.962L559.163 562.24ZM535.494 583.75C535.652 583.644 535.547 583.271 535.336 583.005L534.021 581.408C533.811 581.088 533.758 581.141 533.916 581.461L534.916 583.378C535.073 583.697 535.336 583.857 535.494 583.75Z" fill="white"/>
</g>
<defs>
<filter id="filter0_b_509_518" x="462.577" y="-76.4228" width="232.846" height="232.846" filterUnits="userSpaceOnUse" color-interpolation-filters="sRGB">
<feFlood flood-opacity="0" result="BackgroundImageFix"/>
<feGaussianBlur in="BackgroundImageFix" stdDeviation="38.2114"/>
<feComposite in2="SourceAlpha" operator="in" result="effect1_backgroundBlur_509_518"/>
<feBlend mode="normal" in="SourceGraphic" in2="effect1_backgroundBlur_509_518" result="shape"/>
</filter>
<filter id="filter1_b_509_518" x="493.022" y="-45.9785" width="171.957" height="171.957" filterUnits="userSpaceOnUse" color-interpolation-filters="sRGB">
<feFlood flood-opacity="0" result="BackgroundImageFix"/>
<feGaussianBlur in="BackgroundImageFix" stdDeviation="27.9892"/>
<feComposite in2="SourceAlpha" operator="in" result="effect1_backgroundBlur_509_518"/>
<feBlend mode="normal" in="SourceGraphic" in2="effect1_backgroundBlur_509_518" result="shape"/>
</filter>
<filter id="filter2_b_509_518" x="563.577" y="187.577" width="232.846" height="232.846" filterUnits="userSpaceOnUse" color-interpolation-filters="sRGB">
<feFlood flood-opacity="0" result="BackgroundImageFix"/>
<feGaussianBlur in="BackgroundImageFix" stdDeviation="38.2114"/>
<feComposite in2="SourceAlpha" operator="in" result="effect1_backgroundBlur_509_518"/>
<feBlend mode="normal" in="SourceGraphic" in2="effect1_backgroundBlur_509_518" result="shape"/>
</filter>
<filter id="filter3_b_509_518" x="594.022" y="218.022" width="171.957" height="171.957" filterUnits="userSpaceOnUse" color-interpolation-filters="sRGB">
<feFlood flood-opacity="0" result="BackgroundImageFix"/>
<feGaussianBlur in="BackgroundImageFix" stdDeviation="27.9892"/>
<feComposite in2="SourceAlpha" operator="in" result="effect1_backgroundBlur_509_518"/>
<feBlend mode="normal" in="SourceGraphic" in2="effect1_backgroundBlur_509_518" result="shape"/>
</filter>
<filter id="filter4_b_509_518" x="-32.4228" y="-12.4228" width="232.846" height="232.846" filterUnits="userSpaceOnUse" color-interpolation-filters="sRGB">
<feFlood flood-opacity="0" result="BackgroundImageFix"/>
<feGaussianBlur in="BackgroundImageFix" stdDeviation="38.2114"/>
<feComposite in2="SourceAlpha" operator="in" result="effect1_backgroundBlur_509_518"/>
<feBlend mode="normal" in="SourceGraphic" in2="effect1_backgroundBlur_509_518" result="shape"/>
</filter>
<filter id="filter5_b_509_518" x="-1.97847" y="18.0215" width="171.957" height="171.957" filterUnits="userSpaceOnUse" color-interpolation-filters="sRGB">
<feFlood flood-opacity="0" result="BackgroundImageFix"/>
<feGaussianBlur in="BackgroundImageFix" stdDeviation="27.9892"/>
<feComposite in2="SourceAlpha" operator="in" result="effect1_backgroundBlur_509_518"/>
<feBlend mode="normal" in="SourceGraphic" in2="effect1_backgroundBlur_509_518" result="shape"/>
</filter>
<filter id="filter6_b_509_518" x="-76.4228" y="261.577" width="232.846" height="232.846" filterUnits="userSpaceOnUse" color-interpolation-filters="sRGB">
<feFlood flood-opacity="0" result="BackgroundImageFix"/>
<feGaussianBlur in="BackgroundImageFix" stdDeviation="38.2114"/>
<feComposite in2="SourceAlpha" operator="in" result="effect1_backgroundBlur_509_518"/>
<feBlend mode="normal" in="SourceGraphic" in2="effect1_backgroundBlur_509_518" result="shape"/>
</filter>
<filter id="filter7_b_509_518" x="-45.9785" y="292.022" width="171.957" height="171.957" filterUnits="userSpaceOnUse" color-interpolation-filters="sRGB">
<feFlood flood-opacity="0" result="BackgroundImageFix"/>
<feGaussianBlur in="BackgroundImageFix" stdDeviation="27.9892"/>
<feComposite in2="SourceAlpha" operator="in" result="effect1_backgroundBlur_509_518"/>
<feBlend mode="normal" in="SourceGraphic" in2="effect1_backgroundBlur_509_518" result="shape"/>
</filter>
<filter id="filter8_b_509_518" x="431.577" y="458.577" width="232.846" height="231.858" filterUnits="userSpaceOnUse" color-interpolation-filters="sRGB">
<feFlood flood-opacity="0" result="BackgroundImageFix"/>
<feGaussianBlur in="BackgroundImageFix" stdDeviation="38.2114"/>
<feComposite in2="SourceAlpha" operator="in" result="effect1_backgroundBlur_509_518"/>
<feBlend mode="normal" in="SourceGraphic" in2="effect1_backgroundBlur_509_518" result="shape"/>
</filter>
<filter id="filter9_b_509_518" x="460.91" y="486.923" width="174.179" height="174.179" filterUnits="userSpaceOnUse" color-interpolation-filters="sRGB">
<feFlood flood-opacity="0" result="BackgroundImageFix"/>
<feGaussianBlur in="BackgroundImageFix" stdDeviation="27.9892"/>
<feComposite in2="SourceAlpha" operator="in" result="effect1_backgroundBlur_509_518"/>
<feBlend mode="normal" in="SourceGraphic" in2="effect1_backgroundBlur_509_518" result="shape"/>
</filter>
<filter id="filter10_b_509_518" x="471.749" y="497.554" width="152" height="152" filterUnits="userSpaceOnUse" color-interpolation-filters="sRGB">
<feFlood flood-opacity="0" result="BackgroundImageFix"/>
<feGaussianBlur in="BackgroundImageFix" stdDeviation="30"/>
<feComposite in2="SourceAlpha" operator="in" result="effect1_backgroundBlur_509_518"/>
<feBlend mode="normal" in="SourceGraphic" in2="effect1_backgroundBlur_509_518" result="shape"/>
</filter>
<linearGradient id="paint0_linear_509_518" x1="571.255" y1="0.000111834" x2="629.074" y2="18.0889" gradientUnits="userSpaceOnUse">
<stop stop-color="#292D32"/>
<stop offset="1" stop-color="#7B8A98"/>
</linearGradient>
<linearGradient id="paint1_linear_509_518" x1="528.831" y1="46.015" x2="629.23" y2="46.015" gradientUnits="userSpaceOnUse">
<stop stop-color="#262C33"/>
<stop offset="1" stop-color="#718599" stop-opacity="0"/>
</linearGradient>
<linearGradient id="paint2_linear_509_518" x1="579.299" y1="4.49548" x2="599.729" y2="28.3015" gradientUnits="userSpaceOnUse">
<stop stop-color="#FFBDC7"/>
<stop offset="0.41" stop-color="#FF0025"/>
<stop offset="0.98" stop-color="#DE0827"/>
</linearGradient>
<linearGradient id="paint3_linear_509_518" x1="541.374" y1="44.5113" x2="616.672" y2="44.5113" gradientUnits="userSpaceOnUse">
<stop stop-color="#262C33"/>
<stop offset="1" stop-color="#718599" stop-opacity="0"/>
</linearGradient>
<linearGradient id="paint4_linear_509_518" x1="672.255" y1="264" x2="730.074" y2="282.089" gradientUnits="userSpaceOnUse">
<stop stop-color="#292D32"/>
<stop offset="1" stop-color="#7B8A98"/>
</linearGradient>
<linearGradient id="paint5_linear_509_518" x1="629.831" y1="310.015" x2="730.23" y2="310.015" gradientUnits="userSpaceOnUse">
<stop stop-color="#262C33"/>
<stop offset="1" stop-color="#718599" stop-opacity="0"/>
</linearGradient>
<linearGradient id="paint6_linear_509_518" x1="680.299" y1="268.495" x2="700.729" y2="292.301" gradientUnits="userSpaceOnUse">
<stop stop-color="#FF83BF"/>
<stop offset="0.41" stop-color="#FF0969"/>
<stop offset="1" stop-color="#DE0665"/>
</linearGradient>
<linearGradient id="paint7_linear_509_518" x1="642.374" y1="308.511" x2="717.672" y2="308.511" gradientUnits="userSpaceOnUse">
<stop stop-color="#262C33"/>
<stop offset="1" stop-color="#718599" stop-opacity="0"/>
</linearGradient>
<linearGradient id="paint8_linear_509_518" x1="76.2554" y1="64.0001" x2="134.074" y2="82.0889" gradientUnits="userSpaceOnUse">
<stop stop-color="#292D32"/>
<stop offset="1" stop-color="#7B8A98"/>
</linearGradient>
<linearGradient id="paint9_linear_509_518" x1="33.8314" y1="110.015" x2="134.23" y2="110.015" gradientUnits="userSpaceOnUse">
<stop stop-color="#262C33"/>
<stop offset="1" stop-color="#718599" stop-opacity="0"/>
</linearGradient>
<linearGradient id="paint10_linear_509_518" x1="84.2992" y1="68.4955" x2="104.729" y2="92.3015" gradientUnits="userSpaceOnUse">
<stop stop-color="#979493"/>
<stop offset="0.41" stop-color="#242628"/>
<stop offset="0.98" stop-color="#1C1D1F"/>
</linearGradient>
<linearGradient id="paint11_linear_509_518" x1="46.3735" y1="108.511" x2="121.672" y2="108.511" gradientUnits="userSpaceOnUse">
<stop stop-color="#262C33"/>
<stop offset="1" stop-color="#718599" stop-opacity="0"/>
</linearGradient>
<linearGradient id="paint12_linear_509_518" x1="32.2554" y1="338" x2="90.0738" y2="356.089" gradientUnits="userSpaceOnUse">
<stop stop-color="#292D32"/>
<stop offset="1" stop-color="#7B8A98"/>
</linearGradient>
<linearGradient id="paint13_linear_509_518" x1="-10.1686" y1="384.015" x2="90.2297" y2="384.015" gradientUnits="userSpaceOnUse">
<stop stop-color="#262C33"/>
<stop offset="1" stop-color="#718599" stop-opacity="0"/>
</linearGradient>
<linearGradient id="paint14_linear_509_518" x1="40.2992" y1="342.495" x2="60.729" y2="366.301" gradientUnits="userSpaceOnUse">
<stop stop-color="#7CCFFF"/>
<stop offset="0.41" stop-color="#0497EC"/>
<stop offset="0.98" stop-color="#04669E"/>
</linearGradient>
<linearGradient id="paint15_linear_509_518" x1="2.37354" y1="382.511" x2="77.6722" y2="382.511" gradientUnits="userSpaceOnUse">
<stop stop-color="#262C33"/>
<stop offset="1" stop-color="#718599" stop-opacity="0"/>
</linearGradient>
<linearGradient id="paint16_linear_509_518" x1="540.255" y1="535" x2="597.944" y2="553.274" gradientUnits="userSpaceOnUse">
<stop stop-color="#292D32"/>
<stop offset="1" stop-color="#7B8A98"/>
</linearGradient>
<linearGradient id="paint17_linear_509_518" x1="497.831" y1="580.447" x2="598.23" y2="580.447" gradientUnits="userSpaceOnUse">
<stop stop-color="#262C33"/>
<stop offset="1" stop-color="#718599" stop-opacity="0"/>
</linearGradient>
<linearGradient id="paint18_linear_509_518" x1="548.31" y1="537.193" x2="569.497" y2="561.881" gradientUnits="userSpaceOnUse">
<stop stop-color="#B4B4D8"/>
<stop offset="0.41" stop-color="#838FBD"/>
<stop offset="0.98" stop-color="#596284"/>
</linearGradient>
<linearGradient id="paint19_linear_509_518" x1="508.98" y1="578.691" x2="587.067" y2="578.691" gradientUnits="userSpaceOnUse">
<stop stop-color="#262C33"/>
<stop offset="1" stop-color="#718599" stop-opacity="0"/>
</linearGradient>
<clipPath id="clip0_509_518">
<rect width="28" height="32.2424" fill="white" transform="translate(666 288)"/>
</clipPath>
<clipPath id="clip1_509_518">
<rect width="24" height="25" fill="white" transform="translate(28 366)"/>
</clipPath>
</defs>
</svg>
