<svg width="45" height="14" viewBox="0 0 45 14" fill="none" xmlns="http://www.w3.org/2000/svg">
<g clip-path="url(#clip0_5844_37177)">
<g filter="url(#filter0_d_5844_37177)">
<path d="M10.8741 7.76905C10.8741 8.23127 10.7958 8.65642 10.6392 9.04449C10.4825 9.43261 10.265 9.7678 9.98656 10.0501C9.70809 10.3323 9.37741 10.5528 8.99451 10.7116C8.61508 10.8668 8.20086 10.9445 7.75184 10.9445H5.91397C5.46495 10.9445 5.04899 10.8668 4.66613 10.7116C4.28322 10.5528 3.95254 10.3323 3.67408 10.0501C3.39561 9.7678 3.17632 9.43261 3.0162 9.04449C2.85957 8.65642 2.78125 8.23127 2.78125 7.76905V6.31896C2.78125 5.8603 2.85957 5.43692 3.0162 5.0488C3.17632 4.65716 3.39561 4.32198 3.67408 4.04325C3.95254 3.76099 4.28322 3.54048 4.66613 3.38171C5.04899 3.22294 5.46495 3.14355 5.91397 3.14355H7.75184C8.20086 3.14355 8.61508 3.22294 8.99451 3.38171C9.37741 3.54048 9.70809 3.76099 9.98656 4.04325C10.265 4.32198 10.4825 4.65716 10.6392 5.0488C10.7958 5.43692 10.8741 5.8603 10.8741 6.31896V7.76905ZM9.51664 6.31896C9.51664 6.04727 9.47311 5.80209 9.3861 5.58333C9.30256 5.36105 9.18248 5.17227 9.02583 5.01705C8.87269 4.85827 8.68646 4.73656 8.46716 4.65188C8.25134 4.56368 8.01293 4.51956 7.75184 4.51956H5.91397C5.64945 4.51956 5.40752 4.56368 5.18822 4.65188C4.97244 4.73656 4.78621 4.85827 4.62955 5.01705C4.47294 5.17227 4.35109 5.36105 4.26408 5.58333C4.18054 5.80209 4.13877 6.04727 4.13877 6.31896V7.76905C4.13877 8.04074 4.18054 8.28772 4.26408 8.51001C4.35109 8.72872 4.47294 8.9175 4.62955 9.07629C4.78621 9.2315 4.97244 9.35321 5.18822 9.44141C5.40752 9.52614 5.64945 9.56845 5.91397 9.56845H7.74141C8.00598 9.56845 8.24613 9.52614 8.46195 9.44141C8.68125 9.35321 8.86917 9.2315 9.02583 9.07629C9.18248 8.9175 9.30256 8.72872 9.3861 8.51001C9.47311 8.28772 9.51664 8.04074 9.51664 7.76905V6.31896ZM20.4109 5.80033C20.4109 6.11434 20.3726 6.39483 20.296 6.64178C20.2195 6.88876 20.115 7.10752 19.9827 7.29806C19.8539 7.48503 19.7043 7.64558 19.5337 7.77966C19.3632 7.9137 19.1839 8.02484 18.996 8.11304C18.8115 8.19772 18.6235 8.2595 18.432 8.29829C18.2441 8.33709 18.0665 8.35651 17.8995 8.35651L20.7346 10.8386H18.6357L15.8058 8.35651H14.8294V6.98048H17.8995C18.07 6.96639 18.2249 6.93112 18.3642 6.87467C18.5069 6.81465 18.6287 6.7353 18.7297 6.63649C18.8341 6.53772 18.9142 6.41949 18.9698 6.28193C19.0255 6.1408 19.0534 5.98025 19.0534 5.80033V4.93238C19.0534 4.85474 19.0429 4.79653 19.0221 4.75774C19.0046 4.71538 18.9803 4.68539 18.949 4.66773C18.9211 4.64659 18.8898 4.63422 18.855 4.6307C18.8236 4.62718 18.794 4.62541 18.7662 4.62541H14.2864V10.8386H12.9289V3.9427C12.9289 3.84743 12.9463 3.75746 12.9811 3.67279C13.0159 3.58811 13.0629 3.51402 13.1221 3.45051C13.1847 3.387 13.2578 3.33761 13.3414 3.30232C13.4249 3.26704 13.5154 3.2494 13.6128 3.2494H18.7662C19.069 3.2494 19.3249 3.30585 19.5337 3.41875C19.7426 3.52813 19.9114 3.66749 20.0402 3.83685C20.1725 4.00268 20.2664 4.18262 20.3221 4.37667C20.3813 4.57072 20.4109 4.75241 20.4109 4.92176V5.80033ZM29.9581 9.17153C29.9581 9.34089 29.9285 9.52257 29.8693 9.71663C29.8136 9.91069 29.7196 10.0907 29.5874 10.2564C29.4586 10.4223 29.2898 10.5616 29.0809 10.6745C28.8721 10.7839 28.6162 10.8386 28.3134 10.8386H23.1601C23.0626 10.8386 22.9721 10.821 22.8885 10.7857C22.805 10.7504 22.7319 10.7028 22.6692 10.6428C22.6101 10.5793 22.5631 10.5052 22.5283 10.4205C22.4935 10.3358 22.4761 10.2441 22.4761 10.1453V3.9427C22.4761 3.84743 22.4935 3.75746 22.5283 3.67279C22.5631 3.58811 22.6101 3.51402 22.6692 3.45051C22.7319 3.387 22.805 3.33761 22.8885 3.30232C22.9721 3.26704 23.0626 3.2494 23.1601 3.2494H27.7025C27.8696 3.2494 28.0488 3.27939 28.2403 3.33937C28.4317 3.39935 28.6092 3.49638 28.7729 3.63045C28.9399 3.76099 29.0774 3.93211 29.1853 4.14381C29.2967 4.3555 29.3524 4.61485 29.3524 4.92176V5.18112C29.3524 5.42454 29.3124 5.68743 29.2323 5.96968C29.1523 6.24838 29.0235 6.51302 28.846 6.76353C28.9991 6.85878 29.1418 6.97344 29.2741 7.10752C29.4098 7.24161 29.5282 7.39683 29.6291 7.57323C29.7301 7.74967 29.8101 7.94901 29.8693 8.1713C29.9285 8.39354 29.9581 8.63876 29.9581 8.90693V9.17153ZM28.6006 8.90693C28.6006 8.72696 28.5727 8.56646 28.517 8.42529C28.4613 8.28063 28.383 8.15716 28.282 8.05483C28.1811 7.95254 28.0593 7.8749 27.9166 7.82198C27.7739 7.76552 27.6137 7.7373 27.4362 7.7373H24.3766V6.35071H26.8253C27.0029 6.35071 27.163 6.32425 27.3057 6.27132C27.4484 6.21487 27.5702 6.13547 27.6712 6.03318C27.7721 5.93085 27.8487 5.80914 27.9009 5.66801C27.9566 5.52336 27.9845 5.36105 27.9845 5.18112V4.92176C27.9845 4.72418 27.8905 4.62541 27.7025 4.62541H23.8336V9.4626H28.3134C28.3377 9.4626 28.3674 9.46083 28.4022 9.45731C28.437 9.45379 28.4683 9.44322 28.4961 9.42556C28.524 9.4079 28.5483 9.37792 28.5692 9.3356C28.5901 9.29324 28.6006 9.23503 28.6006 9.16096V8.90693ZM33.2241 10.8386H31.8666V3.2494H33.2241V10.8386ZM42.2909 4.62541H39.2992V10.8386H37.9417V4.62541H34.9447V3.2494H42.2909V4.62541Z" fill="#FD6A1C"/>
</g>
</g>
<defs>
<filter id="filter0_d_5844_37177" x="-3.21875" y="-2.85645" width="51.5078" height="19.8008" filterUnits="userSpaceOnUse" color-interpolation-filters="sRGB">
<feFlood flood-opacity="0" result="BackgroundImageFix"/>
<feColorMatrix in="SourceAlpha" type="matrix" values="0 0 0 0 0 0 0 0 0 0 0 0 0 0 0 0 0 0 127 0" result="hardAlpha"/>
<feOffset/>
<feGaussianBlur stdDeviation="3"/>
<feComposite in2="hardAlpha" operator="out"/>
<feColorMatrix type="matrix" values="0 0 0 0 0.886275 0 0 0 0 0.388235 0 0 0 0 0.12549 0 0 0 1 0"/>
<feBlend mode="normal" in2="BackgroundImageFix" result="effect1_dropShadow_5844_37177"/>
<feBlend mode="normal" in="SourceGraphic" in2="effect1_dropShadow_5844_37177" result="shape"/>
</filter>
<clipPath id="clip0_5844_37177">
<rect width="45" height="14" fill="white"/>
</clipPath>
</defs>
</svg>
