<?xml version="1.0" encoding="UTF-8"?>
<svg version="1.1" xmlns="http://www.w3.org/2000/svg" width="32" height="32">
<path d="M0 0 C4.8846525 2.26787438 7.73212562 5.1153475 10 10 C10.75381535 15.5997712 10.77303575 20.33499991 8.375 25.5 C3.80134327 30.3143755 0.6912538 32.25156236 -6 32.5 C-12.6912538 32.25156236 -15.80134327 30.3143755 -20.375 25.5 C-22.77303575 20.33499991 -22.75381535 15.5997712 -22 10 C-17.52212837 0.3553534 -9.85292056 -1.32635469 0 0 Z " fill="#363636" transform="translate(22,0)"/>
<path d="M0 0 C0.66 0.33 1.32 0.66 2 1 C0.50260417 2.171875 -0.99479167 3.34375 -2.4921875 4.515625 C-5.69512818 7.66877904 -6.27969679 10.87615934 -6.625 15.25 C-6.73714844 16.58804687 -6.73714844 16.58804687 -6.8515625 17.953125 C-6.90054687 18.62859375 -6.94953125 19.3040625 -7 20 C-6.34 20 -5.68 20 -5 20 C-5.04640625 19.41992188 -5.0928125 18.83984375 -5.140625 18.2421875 C-5.39997454 12.62912245 -4.927456 9.35204583 -1 5 C1.75 3.625 1.75 3.625 4 3 C3.57847656 3.48210938 3.15695312 3.96421875 2.72265625 4.4609375 C2.17480469 5.09257813 1.62695312 5.72421875 1.0625 6.375 C0.51722656 7.00148438 -0.02804688 7.62796875 -0.58984375 8.2734375 C-2.8888029 11.08822959 -3.17133198 12.74506339 -2.9375 16.3125 C-2.51096736 19.98541999 -1.8080111 21.70651448 1.0625 24.0625 C2.031875 24.701875 3.00125 25.34125 4 26 C3.01 26.33 2.02 26.66 1 27 C-1.6875 25.5625 -1.6875 25.5625 -4 24 C-4.33 24.66 -4.66 25.32 -5 26 C-8.82040357 20.47713542 -8.80530312 15.53091977 -8 9 C-5.99932818 4.9272038 -3.80644722 2.44700178 0 0 Z " fill="#9B9B9B" transform="translate(8,1)"/>
<path d="M0 0 C4.1642344 1.56855483 6.17328875 4.01140113 8 8 C7.18208984 7.3503125 7.18208984 7.3503125 6.34765625 6.6875 C0.58262488 2.43024607 -2.85900487 1.31990523 -10 2 C-10 2.66 -10 3.32 -10 4 C-11.423125 4.928125 -11.423125 4.928125 -12.875 5.875 C-16.01005797 8.00683942 -16.69114205 8.64302175 -18 12 C-18.44811137 14.35564596 -18.44811137 14.35564596 -18.625 16.75 C-18.69976563 17.54921875 -18.77453125 18.3484375 -18.8515625 19.171875 C-18.90054687 19.77515625 -18.94953125 20.3784375 -19 21 C-19.66 21 -20.32 21 -21 21 C-21.4676422 14.42702902 -21.49301774 10.22161521 -17 5 C-16.34 4.05125 -15.68 3.1025 -15 2.125 C-10.28920203 -1.21181523 -5.58459674 -0.82370913 0 0 Z " fill="#696969" transform="translate(22,0)"/>
<path d="M0 0 C0.99 0.33 1.98 0.66 3 1 C4.1875 4.0625 4.1875 4.0625 5 7 C6.32 7 7.64 7 9 7 C9 7.66 9 8.32 9 9 C3.72 9 -1.56 9 -7 9 C-7 8.34 -7 7.68 -7 7 C-5.68 7 -4.36 7 -3 7 C-2.690625 6.030625 -2.38125 5.06125 -2.0625 4.0625 C-1 1 -1 1 0 0 Z " fill="#828282" transform="translate(15,6)"/>
<path d="M0 0 C4.26272329 1.52240117 5.98031034 4.03275246 8 8 C8.31674074 11.03378241 8.24296324 13.96295955 8 17 C8.66 17 9.32 17 10 17 C9.67 12.71 9.34 8.42 9 4 C11.67151851 6.67151851 11.29873672 8.09182532 11.3125 11.8125 C11.32925781 12.85019531 11.34601562 13.88789063 11.36328125 14.95703125 C10.95916463 18.34205108 9.93870922 20.23260768 8 23 C7.67 22.01 7.34 21.02 7 20 C5.35 21.32 3.7 22.64 2 24 C1.34 23.67 0.68 23.34 0 23 C0.804375 22.360625 1.60875 21.72125 2.4375 21.0625 C5.34540548 17.58719833 5.93090438 15.63686257 6.2109375 11.22265625 C5.87642366 7.69787157 4.28374223 5.60999112 2 3 C1.34 2.67 0.68 2.34 0 2 C0 1.34 0 0.68 0 0 Z " fill="#9A9A9A" transform="translate(21,4)"/>
<path d="M0 0 C4.04315115 1.83779598 7.16621083 3.53647991 10 7 C10.97247824 9.96163827 11.1081396 12.64650696 11.0625 15.75 C11.05347656 16.54921875 11.04445313 17.3484375 11.03515625 18.171875 C11.02355469 18.77515625 11.01195312 19.3784375 11 20 C10.34 20 9.68 20 9 20 C8.97421875 19.41992188 8.9484375 18.83984375 8.921875 18.2421875 C8.52791221 12.8162455 7.70570735 9.23509412 4 5 C1.87880872 4.04768403 1.87880872 4.04768403 0 4 C0 2.68 0 1.36 0 0 Z " fill="#323232" transform="translate(20,1)"/>
<path d="M0 0 C0 0.66 0 1.32 0 2 C-1.65 1.67 -3.3 1.34 -5 1 C-5.66 2.65 -6.32 4.3 -7 6 C-7.66 6 -8.32 6 -9 6 C-9.66 4.35 -10.32 2.7 -11 1 C-7.26562152 0.12132271 -3.83225427 -0.08912219 0 0 Z " fill="#717171" transform="translate(24,17)"/>
<path d="M0 0 C0.99 0.33 1.98 0.66 3 1 C4.6875 4.5625 4.6875 4.5625 6 8 C5.34 8 4.68 8 4 8 C3.34 6.35 2.68 4.7 2 3 C1.34 3 0.68 3 0 3 C-0.66 4.65 -1.32 6.3 -2 8 C-2.66 7.67 -3.32 7.34 -4 7 C-2.68 4.69 -1.36 2.38 0 0 Z " fill="#DDDDDD" transform="translate(15,6)"/>
</svg>
