<?xml version="1.0" standalone="no"?>
<!DOCTYPE svg PUBLIC "-//W3C//DTD SVG 20010904//EN"
 "http://www.w3.org/TR/2001/REC-SVG-20010904/DTD/svg10.dtd">
<svg version="1.0" xmlns="http://www.w3.org/2000/svg"
 width="64.000000pt" height="64.000000pt" viewBox="0 0 64.000000 64.000000"
 preserveAspectRatio="xMidYMid meet">

<g transform="translate(0.000000,64.000000) scale(0.100000,-0.100000)"
fill="#000000" stroke="none">
<path d="M247 630 c-92 -24 -179 -97 -219 -185 -31 -70 -31 -180 0 -250 30
-65 102 -138 166 -166 71 -32 182 -32 251 -1 65 30 138 102 166 166 34 76 33
183 -2 256 -51 107 -150 176 -265 185 -32 2 -76 0 -97 -5z m-25 -88 c-37 -12
-93 -67 -116 -113 -54 -109 -21 -241 76 -304 58 -37 66 -65 11 -36 -153 78
-184 299 -60 419 42 41 91 66 96 50 2 -7 -1 -14 -7 -16z m245 -1 c80 -58 118
-133 117 -227 -2 -95 -56 -183 -136 -225 -56 -29 -48 -1 10 36 63 41 102 115
102 195 0 80 -39 154 -102 195 -26 17 -47 36 -47 43 -1 19 12 15 56 -17z m-94
-86 c40 -70 53 -85 73 -85 13 0 24 -4 24 -10 0 -6 -57 -10 -150 -10 -86 0
-150 4 -150 9 0 5 12 11 26 13 22 2 35 18 73 85 25 45 48 82 51 82 3 0 27 -38
53 -84z m97 -175 c0 -5 -11 -10 -25 -10 -20 0 -33 -14 -71 -80 -26 -44 -50
-80 -54 -80 -4 0 -28 36 -54 80 -38 66 -51 80 -71 80 -14 0 -25 5 -25 10 0 6
57 10 150 10 93 0 150 -4 150 -10z"/>
<path d="M287 425 c-15 -25 -27 -48 -27 -50 0 -3 27 -5 60 -5 33 0 60 2 60 5
0 8 -55 95 -60 95 -3 0 -17 -20 -33 -45z"/>
<path d="M287 220 c15 -27 30 -50 33 -50 3 0 18 23 33 50 l28 50 -61 0 -61 0
28 -50z"/>
</g>
</svg>
