<svg width="25" height="25" viewBox="0 0 25 25" fill="none" xmlns="http://www.w3.org/2000/svg">
<g clip-path="url(#clip0_6024_14006)">
<path d="M12.5 25C19.4036 25 25 19.4036 25 12.5C25 5.59644 19.4036 0 12.5 0C5.59644 0 0 5.59644 0 12.5C0 19.4036 5.59644 25 12.5 25Z" fill="#FCFC03"/>
<path d="M9.25739 11.1162L9.59885 10.0632L7.85923 8.79102L6.86464 11.8435L8.59492 13.1147L8.59189 13.1241H16.3785L15.6286 15.4361H5.72592L5.06055 17.4878H14.9632L17.5541 16.1988L18.8275 12.2724L17.2251 11.0953L9.25739 11.1162Z" fill="black"/>
<path d="M10.5477 6.77344L7.85889 8.79108L19.7229 8.7949L20.3783 6.77344H10.5477Z" fill="black"/>
<path d="M10.7658 20.9833L16.3872 3.51172H14.3943L8.83203 20.9833H10.7658Z" fill="black"/>
</g>
<defs>
<clipPath id="clip0_6024_14006">
<rect width="25" height="25" fill="white"/>
</clipPath>
</defs>
</svg>
