<svg width="345" height="97" viewBox="0 0 345 97" fill="none" xmlns="http://www.w3.org/2000/svg">
<g filter="url(#filter0_b_391_8481)">
<path d="M329.244 2.70324L341.338 14.0368C343.355 15.9273 344.5 18.5687 344.5 21.3335V87C344.5 92.5229 340.023 97 334.5 97H22.6276C20.0876 97 17.6429 96.0335 15.7896 94.2968L3.16208 82.4632C1.14465 80.5727 0 77.9313 0 75.1665V10C0 4.47715 4.47714 0 10 0H322.406C324.946 0 327.391 0.966475 329.244 2.70324Z" fill="#292D32" fill-opacity="0.4"/>
<path d="M340.996 14.4016L328.902 3.06808C327.141 1.41815 324.819 0.5 322.406 0.5H10C4.7533 0.5 0.5 4.7533 0.5 10V75.1665C0.5 77.793 1.58743 80.3024 3.50397 82.0984L16.1315 93.9319C17.8922 95.5818 20.2146 96.5 22.6276 96.5H334.5C339.747 96.5 344 92.2467 344 87V21.3335C344 18.707 342.913 16.1976 340.996 14.4016Z" stroke="white" stroke-opacity="0.2" style="mix-blend-mode:overlay"/>
</g>
<defs>
<filter id="filter0_b_391_8481" x="-30" y="-30" width="404.5" height="157" filterUnits="userSpaceOnUse" color-interpolation-filters="sRGB">
<feFlood flood-opacity="0" result="BackgroundImageFix"/>
<feGaussianBlur in="BackgroundImageFix" stdDeviation="15"/>
<feComposite in2="SourceAlpha" operator="in" result="effect1_backgroundBlur_391_8481"/>
<feBlend mode="normal" in="SourceGraphic" in2="effect1_backgroundBlur_391_8481" result="shape"/>
</filter>
</defs>
</svg>
